%FSLAX45Y45*%
G04 Gerber Fmt 4.5, Leading zero omitted, Abs format (unit mm)*
G04 Created by KiCad (PCBNEW (5.1.4)-1) date 2021-10-25 09:37:41*
%MOMM*%
%LPD*%
G04 APERTURE LIST*
%ADD10C,0.050000*%
%ADD11C,0.200000*%
%ADD12C,0.300000*%
G04 APERTURE END LIST*
D10*
X8991600Y-9296400D02*
G75*
G02X8839200Y-9144000I0J152400D01*
G01*
X8839200Y-5054600D02*
G75*
G02X8991600Y-4902200I152400J0D01*
G01*
X13970000Y-4902200D02*
G75*
G02X14122400Y-5054600I0J-152400D01*
G01*
X14122400Y-9144000D02*
G75*
G02X13970000Y-9296400I-152400J0D01*
G01*
X8839200Y-9144000D02*
X8839200Y-5054600D01*
X13970000Y-9296400D02*
X8991600Y-9296400D01*
X14122400Y-5054600D02*
X14122400Y-9144000D01*
X8991600Y-4902200D02*
X13970000Y-4902200D01*
D11*
X9174800Y-7676200D02*
X9214800Y-7716200D01*
X9214800Y-7676200D02*
X9174800Y-7716200D01*
X9174800Y-8031800D02*
X9214800Y-8071800D01*
X9214800Y-8031800D02*
X9174800Y-8071800D01*
X9530400Y-7295200D02*
X9570400Y-7335200D01*
X9570400Y-7295200D02*
X9530400Y-7335200D01*
X9657400Y-8666800D02*
X9697400Y-8706800D01*
X9697400Y-8666800D02*
X9657400Y-8706800D01*
X9784400Y-7422200D02*
X9824400Y-7462200D01*
X9824400Y-7422200D02*
X9784400Y-7462200D01*
X9784400Y-8031800D02*
X9824400Y-8071800D01*
X9824400Y-8031800D02*
X9784400Y-8071800D01*
X10013000Y-8108000D02*
X10053000Y-8148000D01*
X10053000Y-8108000D02*
X10013000Y-8148000D01*
X10063800Y-7295200D02*
X10103800Y-7335200D01*
X10103800Y-7295200D02*
X10063800Y-7335200D01*
X10140000Y-6888800D02*
X10180000Y-6928800D01*
X10180000Y-6888800D02*
X10140000Y-6928800D01*
X10165400Y-7650800D02*
X10205400Y-7690800D01*
X10205400Y-7650800D02*
X10165400Y-7690800D01*
X10419400Y-6888800D02*
X10459400Y-6928800D01*
X10459400Y-6888800D02*
X10419400Y-6928800D01*
X10419400Y-7447600D02*
X10459400Y-7487600D01*
X10459400Y-7447600D02*
X10419400Y-7487600D01*
X10419400Y-7727000D02*
X10459400Y-7767000D01*
X10459400Y-7727000D02*
X10419400Y-7767000D01*
X10444800Y-7041200D02*
X10484800Y-7081200D01*
X10484800Y-7041200D02*
X10444800Y-7081200D01*
X10521000Y-5822000D02*
X10561000Y-5862000D01*
X10561000Y-5822000D02*
X10521000Y-5862000D01*
X10571800Y-6787200D02*
X10611800Y-6827200D01*
X10611800Y-6787200D02*
X10571800Y-6827200D01*
X10698800Y-7473000D02*
X10738800Y-7513000D01*
X10738800Y-7473000D02*
X10698800Y-7513000D01*
X10775000Y-6965000D02*
X10815000Y-7005000D01*
X10815000Y-6965000D02*
X10775000Y-7005000D01*
X10800400Y-6812600D02*
X10840400Y-6852600D01*
X10840400Y-6812600D02*
X10800400Y-6852600D01*
X10876600Y-8539800D02*
X10916600Y-8579800D01*
X10916600Y-8539800D02*
X10876600Y-8579800D01*
X10902000Y-8285800D02*
X10942000Y-8325800D01*
X10942000Y-8285800D02*
X10902000Y-8325800D01*
X11486200Y-6101400D02*
X11526200Y-6141400D01*
X11526200Y-6101400D02*
X11486200Y-6141400D01*
X11638600Y-7041200D02*
X11678600Y-7081200D01*
X11678600Y-7041200D02*
X11638600Y-7081200D01*
X11714800Y-6101400D02*
X11754800Y-6141400D01*
X11754800Y-6101400D02*
X11714800Y-6141400D01*
X11791000Y-7955600D02*
X11831000Y-7995600D01*
X11831000Y-7955600D02*
X11791000Y-7995600D01*
X11841800Y-8768400D02*
X11881800Y-8808400D01*
X11881800Y-8768400D02*
X11841800Y-8808400D01*
X11867200Y-7600000D02*
X11907200Y-7640000D01*
X11907200Y-7600000D02*
X11867200Y-7640000D01*
X11892600Y-6660200D02*
X11932600Y-6700200D01*
X11932600Y-6660200D02*
X11892600Y-6700200D01*
X11994200Y-5314000D02*
X12034200Y-5354000D01*
X12034200Y-5314000D02*
X11994200Y-5354000D01*
X12045000Y-7422200D02*
X12085000Y-7462200D01*
X12085000Y-7422200D02*
X12045000Y-7462200D01*
X12273600Y-8793800D02*
X12313600Y-8833800D01*
X12313600Y-8793800D02*
X12273600Y-8833800D01*
X12299000Y-7041200D02*
X12339000Y-7081200D01*
X12339000Y-7041200D02*
X12299000Y-7081200D01*
X12349800Y-6025200D02*
X12389800Y-6065200D01*
X12389800Y-6025200D02*
X12349800Y-6065200D01*
X12426000Y-6203000D02*
X12466000Y-6243000D01*
X12466000Y-6203000D02*
X12426000Y-6243000D01*
X12476800Y-6838000D02*
X12516800Y-6878000D01*
X12516800Y-6838000D02*
X12476800Y-6878000D01*
X12680000Y-7295200D02*
X12720000Y-7335200D01*
X12720000Y-7295200D02*
X12680000Y-7335200D01*
X12730800Y-5618800D02*
X12770800Y-5658800D01*
X12770800Y-5618800D02*
X12730800Y-5658800D01*
X12756200Y-7625400D02*
X12796200Y-7665400D01*
X12796200Y-7625400D02*
X12756200Y-7665400D01*
X12883200Y-5720400D02*
X12923200Y-5760400D01*
X12923200Y-5720400D02*
X12883200Y-5760400D01*
X12908600Y-6812600D02*
X12948600Y-6852600D01*
X12948600Y-6812600D02*
X12908600Y-6852600D01*
X12959400Y-8412800D02*
X12999400Y-8452800D01*
X12999400Y-8412800D02*
X12959400Y-8452800D01*
X13010200Y-6482400D02*
X13050200Y-6522400D01*
X13050200Y-6482400D02*
X13010200Y-6522400D01*
X13086400Y-6914200D02*
X13126400Y-6954200D01*
X13126400Y-6914200D02*
X13086400Y-6954200D01*
X13416600Y-6888800D02*
X13456600Y-6928800D01*
X13456600Y-6888800D02*
X13416600Y-6928800D01*
X13492800Y-5720400D02*
X13532800Y-5760400D01*
X13532800Y-5720400D02*
X13492800Y-5760400D01*
X13645200Y-8006400D02*
X13685200Y-8046400D01*
X13685200Y-8006400D02*
X13645200Y-8046400D01*
X13823000Y-5720400D02*
X13863000Y-5760400D01*
X13863000Y-5720400D02*
X13823000Y-5760400D01*
X11322600Y-6527800D02*
G75*
G03X11322600Y-6527800I-45000J0D01*
G01*
X11449600Y-6273800D02*
G75*
G03X11449600Y-6273800I-45000J0D01*
G01*
X11576600Y-6527800D02*
G75*
G03X11576600Y-6527800I-45000J0D01*
G01*
X11703600Y-6273800D02*
G75*
G03X11703600Y-6273800I-45000J0D01*
G01*
X11830600Y-6527800D02*
G75*
G03X11830600Y-6527800I-45000J0D01*
G01*
X11957600Y-6273800D02*
G75*
G03X11957600Y-6273800I-45000J0D01*
G01*
X12084600Y-6527800D02*
G75*
G03X12084600Y-6527800I-45000J0D01*
G01*
X12211600Y-6273800D02*
G75*
G03X12211600Y-6273800I-45000J0D01*
G01*
X11379200Y-8255800D02*
X11379200Y-8355800D01*
X11329200Y-8305800D02*
X11429200Y-8305800D01*
X11629200Y-8255800D02*
X11629200Y-8355800D01*
X11579200Y-8305800D02*
X11679200Y-8305800D01*
X13402827Y-7357627D02*
X13402827Y-7272773D01*
X13317973Y-7272773D01*
X13317973Y-7357627D01*
X13402827Y-7357627D01*
X13402827Y-7707627D02*
X13402827Y-7622773D01*
X13317973Y-7622773D01*
X13317973Y-7707627D01*
X13402827Y-7707627D01*
X10233427Y-5325627D02*
X10233427Y-5240773D01*
X10148573Y-5240773D01*
X10148573Y-5325627D01*
X10233427Y-5325627D01*
X10583427Y-5325627D02*
X10583427Y-5240773D01*
X10498573Y-5240773D01*
X10498573Y-5325627D01*
X10583427Y-5325627D01*
X12341627Y-8145027D02*
X12341627Y-8060173D01*
X12256773Y-8060173D01*
X12256773Y-8145027D01*
X12341627Y-8145027D01*
X12691627Y-8145027D02*
X12691627Y-8060173D01*
X12606773Y-8060173D01*
X12606773Y-8145027D01*
X12691627Y-8145027D01*
X9516627Y-6595627D02*
X9516627Y-6510773D01*
X9431773Y-6510773D01*
X9431773Y-6595627D01*
X9516627Y-6595627D01*
X9516627Y-6945627D02*
X9516627Y-6860773D01*
X9431773Y-6860773D01*
X9431773Y-6945627D01*
X9516627Y-6945627D01*
X13402827Y-6011427D02*
X13402827Y-5926573D01*
X13317973Y-5926573D01*
X13317973Y-6011427D01*
X13402827Y-6011427D01*
X13402827Y-6361427D02*
X13402827Y-6276573D01*
X13317973Y-6276573D01*
X13317973Y-6361427D01*
X13402827Y-6361427D01*
X13402827Y-6711427D02*
X13402827Y-6626573D01*
X13317973Y-6626573D01*
X13317973Y-6711427D01*
X13402827Y-6711427D01*
X9516627Y-7560827D02*
X9516627Y-7475973D01*
X9431773Y-7475973D01*
X9431773Y-7560827D01*
X9516627Y-7560827D01*
X9516627Y-7910827D02*
X9516627Y-7825973D01*
X9431773Y-7825973D01*
X9431773Y-7910827D01*
X9516627Y-7910827D01*
X9516627Y-8260827D02*
X9516627Y-8175973D01*
X9431773Y-8175973D01*
X9431773Y-8260827D01*
X9516627Y-8260827D01*
X9207600Y-6094400D02*
X9307600Y-5994400D01*
X9207600Y-5894400D01*
X9107600Y-5994400D01*
X9207600Y-6094400D01*
X9282600Y-5904400D02*
X9132600Y-5904400D01*
X9282600Y-6084400D02*
X9132600Y-6084400D01*
X9132600Y-5904400D02*
G75*
G03X9132600Y-6084400I0J-90000D01*
G01*
X9282600Y-6084400D02*
G75*
G03X9282600Y-5904400I0J90000D01*
G01*
X10007600Y-6094400D02*
X10107600Y-5994400D01*
X10007600Y-5894400D01*
X9907600Y-5994400D01*
X10007600Y-6094400D01*
X10082600Y-5904400D02*
X9932600Y-5904400D01*
X10082600Y-6084400D02*
X9932600Y-6084400D01*
X9932600Y-5904400D02*
G75*
G03X9932600Y-6084400I0J-90000D01*
G01*
X10082600Y-6084400D02*
G75*
G03X10082600Y-5904400I0J90000D01*
G01*
D12*
X9123128Y-9764614D02*
X9123128Y-9464614D01*
X9194557Y-9464614D01*
X9237414Y-9478900D01*
X9265986Y-9507472D01*
X9280271Y-9536043D01*
X9294557Y-9593186D01*
X9294557Y-9636043D01*
X9280271Y-9693186D01*
X9265986Y-9721757D01*
X9237414Y-9750329D01*
X9194557Y-9764614D01*
X9123128Y-9764614D01*
X9423128Y-9764614D02*
X9423128Y-9564614D01*
X9423128Y-9621757D02*
X9437414Y-9593186D01*
X9451700Y-9578900D01*
X9480271Y-9564614D01*
X9508843Y-9564614D01*
X9608843Y-9764614D02*
X9608843Y-9564614D01*
X9608843Y-9464614D02*
X9594557Y-9478900D01*
X9608843Y-9493186D01*
X9623128Y-9478900D01*
X9608843Y-9464614D01*
X9608843Y-9493186D01*
X9794557Y-9764614D02*
X9765986Y-9750329D01*
X9751700Y-9721757D01*
X9751700Y-9464614D01*
X9951700Y-9764614D02*
X9923128Y-9750329D01*
X9908843Y-9721757D01*
X9908843Y-9464614D01*
X10294557Y-9764614D02*
X10294557Y-9464614D01*
X10394557Y-9678900D01*
X10494557Y-9464614D01*
X10494557Y-9764614D01*
X10765986Y-9764614D02*
X10765986Y-9607472D01*
X10751700Y-9578900D01*
X10723128Y-9564614D01*
X10665986Y-9564614D01*
X10637414Y-9578900D01*
X10765986Y-9750329D02*
X10737414Y-9764614D01*
X10665986Y-9764614D01*
X10637414Y-9750329D01*
X10623128Y-9721757D01*
X10623128Y-9693186D01*
X10637414Y-9664614D01*
X10665986Y-9650329D01*
X10737414Y-9650329D01*
X10765986Y-9636043D01*
X10908843Y-9564614D02*
X10908843Y-9864614D01*
X10908843Y-9578900D02*
X10937414Y-9564614D01*
X10994557Y-9564614D01*
X11023128Y-9578900D01*
X11037414Y-9593186D01*
X11051700Y-9621757D01*
X11051700Y-9707472D01*
X11037414Y-9736043D01*
X11023128Y-9750329D01*
X10994557Y-9764614D01*
X10937414Y-9764614D01*
X10908843Y-9750329D01*
X11180271Y-9736043D02*
X11194557Y-9750329D01*
X11180271Y-9764614D01*
X11165986Y-9750329D01*
X11180271Y-9736043D01*
X11180271Y-9764614D01*
X11180271Y-9578900D02*
X11194557Y-9593186D01*
X11180271Y-9607472D01*
X11165986Y-9593186D01*
X11180271Y-9578900D01*
X11180271Y-9607472D01*
X8796700Y-10238900D02*
X8836700Y-10278900D01*
X8836700Y-10238900D02*
X8796700Y-10278900D01*
X9180271Y-10094614D02*
X9208843Y-10094614D01*
X9237414Y-10108900D01*
X9251700Y-10123186D01*
X9265986Y-10151757D01*
X9280271Y-10208900D01*
X9280271Y-10280329D01*
X9265986Y-10337472D01*
X9251700Y-10366043D01*
X9237414Y-10380329D01*
X9208843Y-10394614D01*
X9180271Y-10394614D01*
X9151700Y-10380329D01*
X9137414Y-10366043D01*
X9123128Y-10337472D01*
X9108843Y-10280329D01*
X9108843Y-10208900D01*
X9123128Y-10151757D01*
X9137414Y-10123186D01*
X9151700Y-10108900D01*
X9180271Y-10094614D01*
X9408843Y-10366043D02*
X9423128Y-10380329D01*
X9408843Y-10394614D01*
X9394557Y-10380329D01*
X9408843Y-10366043D01*
X9408843Y-10394614D01*
X9680271Y-10194614D02*
X9680271Y-10394614D01*
X9608843Y-10080329D02*
X9537414Y-10294614D01*
X9723128Y-10294614D01*
X9894557Y-10094614D02*
X9923128Y-10094614D01*
X9951700Y-10108900D01*
X9965986Y-10123186D01*
X9980271Y-10151757D01*
X9994557Y-10208900D01*
X9994557Y-10280329D01*
X9980271Y-10337472D01*
X9965986Y-10366043D01*
X9951700Y-10380329D01*
X9923128Y-10394614D01*
X9894557Y-10394614D01*
X9865986Y-10380329D01*
X9851700Y-10366043D01*
X9837414Y-10337472D01*
X9823128Y-10280329D01*
X9823128Y-10208900D01*
X9837414Y-10151757D01*
X9851700Y-10123186D01*
X9865986Y-10108900D01*
X9894557Y-10094614D01*
X10123128Y-10394614D02*
X10123128Y-10194614D01*
X10123128Y-10223186D02*
X10137414Y-10208900D01*
X10165986Y-10194614D01*
X10208843Y-10194614D01*
X10237414Y-10208900D01*
X10251700Y-10237472D01*
X10251700Y-10394614D01*
X10251700Y-10237472D02*
X10265986Y-10208900D01*
X10294557Y-10194614D01*
X10337414Y-10194614D01*
X10365986Y-10208900D01*
X10380271Y-10237472D01*
X10380271Y-10394614D01*
X10523128Y-10394614D02*
X10523128Y-10194614D01*
X10523128Y-10223186D02*
X10537414Y-10208900D01*
X10565986Y-10194614D01*
X10608843Y-10194614D01*
X10637414Y-10208900D01*
X10651700Y-10237472D01*
X10651700Y-10394614D01*
X10651700Y-10237472D02*
X10665986Y-10208900D01*
X10694557Y-10194614D01*
X10737414Y-10194614D01*
X10765986Y-10208900D01*
X10780271Y-10237472D01*
X10780271Y-10394614D01*
X11365986Y-10080329D02*
X11108843Y-10466043D01*
X11751700Y-10094614D02*
X11780271Y-10094614D01*
X11808843Y-10108900D01*
X11823128Y-10123186D01*
X11837414Y-10151757D01*
X11851700Y-10208900D01*
X11851700Y-10280329D01*
X11837414Y-10337472D01*
X11823128Y-10366043D01*
X11808843Y-10380329D01*
X11780271Y-10394614D01*
X11751700Y-10394614D01*
X11723128Y-10380329D01*
X11708843Y-10366043D01*
X11694557Y-10337472D01*
X11680271Y-10280329D01*
X11680271Y-10208900D01*
X11694557Y-10151757D01*
X11708843Y-10123186D01*
X11723128Y-10108900D01*
X11751700Y-10094614D01*
X11980271Y-10366043D02*
X11994557Y-10380329D01*
X11980271Y-10394614D01*
X11965986Y-10380329D01*
X11980271Y-10366043D01*
X11980271Y-10394614D01*
X12180271Y-10094614D02*
X12208843Y-10094614D01*
X12237414Y-10108900D01*
X12251700Y-10123186D01*
X12265986Y-10151757D01*
X12280271Y-10208900D01*
X12280271Y-10280329D01*
X12265986Y-10337472D01*
X12251700Y-10366043D01*
X12237414Y-10380329D01*
X12208843Y-10394614D01*
X12180271Y-10394614D01*
X12151700Y-10380329D01*
X12137414Y-10366043D01*
X12123128Y-10337472D01*
X12108843Y-10280329D01*
X12108843Y-10208900D01*
X12123128Y-10151757D01*
X12137414Y-10123186D01*
X12151700Y-10108900D01*
X12180271Y-10094614D01*
X12565986Y-10394614D02*
X12394557Y-10394614D01*
X12480271Y-10394614D02*
X12480271Y-10094614D01*
X12451700Y-10137472D01*
X12423128Y-10166043D01*
X12394557Y-10180329D01*
X12823128Y-10094614D02*
X12765986Y-10094614D01*
X12737414Y-10108900D01*
X12723128Y-10123186D01*
X12694557Y-10166043D01*
X12680271Y-10223186D01*
X12680271Y-10337472D01*
X12694557Y-10366043D01*
X12708843Y-10380329D01*
X12737414Y-10394614D01*
X12794557Y-10394614D01*
X12823128Y-10380329D01*
X12837414Y-10366043D01*
X12851700Y-10337472D01*
X12851700Y-10266043D01*
X12837414Y-10237472D01*
X12823128Y-10223186D01*
X12794557Y-10208900D01*
X12737414Y-10208900D01*
X12708843Y-10223186D01*
X12694557Y-10237472D01*
X12680271Y-10266043D01*
X12965986Y-10094614D02*
X12965986Y-10151757D01*
X13080271Y-10094614D02*
X13080271Y-10151757D01*
X13523128Y-10508900D02*
X13508843Y-10494614D01*
X13480271Y-10451757D01*
X13465986Y-10423186D01*
X13451700Y-10380329D01*
X13437414Y-10308900D01*
X13437414Y-10251757D01*
X13451700Y-10180329D01*
X13465986Y-10137472D01*
X13480271Y-10108900D01*
X13508843Y-10066043D01*
X13523128Y-10051757D01*
X13765986Y-10194614D02*
X13765986Y-10394614D01*
X13694557Y-10080329D02*
X13623128Y-10294614D01*
X13808843Y-10294614D01*
X13894557Y-10094614D02*
X14094557Y-10094614D01*
X13965986Y-10394614D01*
X14437414Y-10394614D02*
X14437414Y-10094614D01*
X14565986Y-10394614D02*
X14565986Y-10237472D01*
X14551700Y-10208900D01*
X14523128Y-10194614D01*
X14480271Y-10194614D01*
X14451700Y-10208900D01*
X14437414Y-10223186D01*
X14751700Y-10394614D02*
X14723128Y-10380329D01*
X14708843Y-10366043D01*
X14694557Y-10337472D01*
X14694557Y-10251757D01*
X14708843Y-10223186D01*
X14723128Y-10208900D01*
X14751700Y-10194614D01*
X14794557Y-10194614D01*
X14823128Y-10208900D01*
X14837414Y-10223186D01*
X14851700Y-10251757D01*
X14851700Y-10337472D01*
X14837414Y-10366043D01*
X14823128Y-10380329D01*
X14794557Y-10394614D01*
X14751700Y-10394614D01*
X15023128Y-10394614D02*
X14994557Y-10380329D01*
X14980271Y-10351757D01*
X14980271Y-10094614D01*
X15251700Y-10380329D02*
X15223128Y-10394614D01*
X15165986Y-10394614D01*
X15137414Y-10380329D01*
X15123128Y-10351757D01*
X15123128Y-10237472D01*
X15137414Y-10208900D01*
X15165986Y-10194614D01*
X15223128Y-10194614D01*
X15251700Y-10208900D01*
X15265986Y-10237472D01*
X15265986Y-10266043D01*
X15123128Y-10294614D01*
X15380271Y-10380329D02*
X15408843Y-10394614D01*
X15465986Y-10394614D01*
X15494557Y-10380329D01*
X15508843Y-10351757D01*
X15508843Y-10337472D01*
X15494557Y-10308900D01*
X15465986Y-10294614D01*
X15423128Y-10294614D01*
X15394557Y-10280329D01*
X15380271Y-10251757D01*
X15380271Y-10237472D01*
X15394557Y-10208900D01*
X15423128Y-10194614D01*
X15465986Y-10194614D01*
X15494557Y-10208900D01*
X15608843Y-10508900D02*
X15623128Y-10494614D01*
X15651700Y-10451757D01*
X15665986Y-10423186D01*
X15680271Y-10380329D01*
X15694557Y-10308900D01*
X15694557Y-10251757D01*
X15680271Y-10180329D01*
X15665986Y-10137472D01*
X15651700Y-10108900D01*
X15623128Y-10066043D01*
X15608843Y-10051757D01*
X8836700Y-10654900D02*
G75*
G03X8836700Y-10654900I-45000J0D01*
G01*
X9180271Y-10490614D02*
X9208843Y-10490614D01*
X9237414Y-10504900D01*
X9251700Y-10519186D01*
X9265986Y-10547757D01*
X9280271Y-10604900D01*
X9280271Y-10676329D01*
X9265986Y-10733472D01*
X9251700Y-10762043D01*
X9237414Y-10776329D01*
X9208843Y-10790614D01*
X9180271Y-10790614D01*
X9151700Y-10776329D01*
X9137414Y-10762043D01*
X9123128Y-10733472D01*
X9108843Y-10676329D01*
X9108843Y-10604900D01*
X9123128Y-10547757D01*
X9137414Y-10519186D01*
X9151700Y-10504900D01*
X9180271Y-10490614D01*
X9408843Y-10762043D02*
X9423128Y-10776329D01*
X9408843Y-10790614D01*
X9394557Y-10776329D01*
X9408843Y-10762043D01*
X9408843Y-10790614D01*
X9565986Y-10790614D02*
X9623128Y-10790614D01*
X9651700Y-10776329D01*
X9665986Y-10762043D01*
X9694557Y-10719186D01*
X9708843Y-10662043D01*
X9708843Y-10547757D01*
X9694557Y-10519186D01*
X9680271Y-10504900D01*
X9651700Y-10490614D01*
X9594557Y-10490614D01*
X9565986Y-10504900D01*
X9551700Y-10519186D01*
X9537414Y-10547757D01*
X9537414Y-10619186D01*
X9551700Y-10647757D01*
X9565986Y-10662043D01*
X9594557Y-10676329D01*
X9651700Y-10676329D01*
X9680271Y-10662043D01*
X9694557Y-10647757D01*
X9708843Y-10619186D01*
X9894557Y-10490614D02*
X9923128Y-10490614D01*
X9951700Y-10504900D01*
X9965986Y-10519186D01*
X9980271Y-10547757D01*
X9994557Y-10604900D01*
X9994557Y-10676329D01*
X9980271Y-10733472D01*
X9965986Y-10762043D01*
X9951700Y-10776329D01*
X9923128Y-10790614D01*
X9894557Y-10790614D01*
X9865986Y-10776329D01*
X9851700Y-10762043D01*
X9837414Y-10733472D01*
X9823128Y-10676329D01*
X9823128Y-10604900D01*
X9837414Y-10547757D01*
X9851700Y-10519186D01*
X9865986Y-10504900D01*
X9894557Y-10490614D01*
X10123128Y-10790614D02*
X10123128Y-10590614D01*
X10123128Y-10619186D02*
X10137414Y-10604900D01*
X10165986Y-10590614D01*
X10208843Y-10590614D01*
X10237414Y-10604900D01*
X10251700Y-10633472D01*
X10251700Y-10790614D01*
X10251700Y-10633472D02*
X10265986Y-10604900D01*
X10294557Y-10590614D01*
X10337414Y-10590614D01*
X10365986Y-10604900D01*
X10380271Y-10633472D01*
X10380271Y-10790614D01*
X10523128Y-10790614D02*
X10523128Y-10590614D01*
X10523128Y-10619186D02*
X10537414Y-10604900D01*
X10565986Y-10590614D01*
X10608843Y-10590614D01*
X10637414Y-10604900D01*
X10651700Y-10633472D01*
X10651700Y-10790614D01*
X10651700Y-10633472D02*
X10665986Y-10604900D01*
X10694557Y-10590614D01*
X10737414Y-10590614D01*
X10765986Y-10604900D01*
X10780271Y-10633472D01*
X10780271Y-10790614D01*
X11365986Y-10476329D02*
X11108843Y-10862043D01*
X11751700Y-10490614D02*
X11780271Y-10490614D01*
X11808843Y-10504900D01*
X11823128Y-10519186D01*
X11837414Y-10547757D01*
X11851700Y-10604900D01*
X11851700Y-10676329D01*
X11837414Y-10733472D01*
X11823128Y-10762043D01*
X11808843Y-10776329D01*
X11780271Y-10790614D01*
X11751700Y-10790614D01*
X11723128Y-10776329D01*
X11708843Y-10762043D01*
X11694557Y-10733472D01*
X11680271Y-10676329D01*
X11680271Y-10604900D01*
X11694557Y-10547757D01*
X11708843Y-10519186D01*
X11723128Y-10504900D01*
X11751700Y-10490614D01*
X11980271Y-10762043D02*
X11994557Y-10776329D01*
X11980271Y-10790614D01*
X11965986Y-10776329D01*
X11980271Y-10762043D01*
X11980271Y-10790614D01*
X12180271Y-10490614D02*
X12208843Y-10490614D01*
X12237414Y-10504900D01*
X12251700Y-10519186D01*
X12265986Y-10547757D01*
X12280271Y-10604900D01*
X12280271Y-10676329D01*
X12265986Y-10733472D01*
X12251700Y-10762043D01*
X12237414Y-10776329D01*
X12208843Y-10790614D01*
X12180271Y-10790614D01*
X12151700Y-10776329D01*
X12137414Y-10762043D01*
X12123128Y-10733472D01*
X12108843Y-10676329D01*
X12108843Y-10604900D01*
X12123128Y-10547757D01*
X12137414Y-10519186D01*
X12151700Y-10504900D01*
X12180271Y-10490614D01*
X12380271Y-10490614D02*
X12565986Y-10490614D01*
X12465986Y-10604900D01*
X12508843Y-10604900D01*
X12537414Y-10619186D01*
X12551700Y-10633472D01*
X12565986Y-10662043D01*
X12565986Y-10733472D01*
X12551700Y-10762043D01*
X12537414Y-10776329D01*
X12508843Y-10790614D01*
X12423128Y-10790614D01*
X12394557Y-10776329D01*
X12380271Y-10762043D01*
X12837414Y-10490614D02*
X12694557Y-10490614D01*
X12680271Y-10633472D01*
X12694557Y-10619186D01*
X12723128Y-10604900D01*
X12794557Y-10604900D01*
X12823128Y-10619186D01*
X12837414Y-10633472D01*
X12851700Y-10662043D01*
X12851700Y-10733472D01*
X12837414Y-10762043D01*
X12823128Y-10776329D01*
X12794557Y-10790614D01*
X12723128Y-10790614D01*
X12694557Y-10776329D01*
X12680271Y-10762043D01*
X12965986Y-10490614D02*
X12965986Y-10547757D01*
X13080271Y-10490614D02*
X13080271Y-10547757D01*
X13523128Y-10904900D02*
X13508843Y-10890614D01*
X13480271Y-10847757D01*
X13465986Y-10819186D01*
X13451700Y-10776329D01*
X13437414Y-10704900D01*
X13437414Y-10647757D01*
X13451700Y-10576329D01*
X13465986Y-10533472D01*
X13480271Y-10504900D01*
X13508843Y-10462043D01*
X13523128Y-10447757D01*
X13680271Y-10619186D02*
X13651700Y-10604900D01*
X13637414Y-10590614D01*
X13623128Y-10562043D01*
X13623128Y-10547757D01*
X13637414Y-10519186D01*
X13651700Y-10504900D01*
X13680271Y-10490614D01*
X13737414Y-10490614D01*
X13765986Y-10504900D01*
X13780271Y-10519186D01*
X13794557Y-10547757D01*
X13794557Y-10562043D01*
X13780271Y-10590614D01*
X13765986Y-10604900D01*
X13737414Y-10619186D01*
X13680271Y-10619186D01*
X13651700Y-10633472D01*
X13637414Y-10647757D01*
X13623128Y-10676329D01*
X13623128Y-10733472D01*
X13637414Y-10762043D01*
X13651700Y-10776329D01*
X13680271Y-10790614D01*
X13737414Y-10790614D01*
X13765986Y-10776329D01*
X13780271Y-10762043D01*
X13794557Y-10733472D01*
X13794557Y-10676329D01*
X13780271Y-10647757D01*
X13765986Y-10633472D01*
X13737414Y-10619186D01*
X14151700Y-10790614D02*
X14151700Y-10490614D01*
X14280271Y-10790614D02*
X14280271Y-10633472D01*
X14265986Y-10604900D01*
X14237414Y-10590614D01*
X14194557Y-10590614D01*
X14165986Y-10604900D01*
X14151700Y-10619186D01*
X14465986Y-10790614D02*
X14437414Y-10776329D01*
X14423128Y-10762043D01*
X14408843Y-10733472D01*
X14408843Y-10647757D01*
X14423128Y-10619186D01*
X14437414Y-10604900D01*
X14465986Y-10590614D01*
X14508843Y-10590614D01*
X14537414Y-10604900D01*
X14551700Y-10619186D01*
X14565986Y-10647757D01*
X14565986Y-10733472D01*
X14551700Y-10762043D01*
X14537414Y-10776329D01*
X14508843Y-10790614D01*
X14465986Y-10790614D01*
X14737414Y-10790614D02*
X14708843Y-10776329D01*
X14694557Y-10747757D01*
X14694557Y-10490614D01*
X14965986Y-10776329D02*
X14937414Y-10790614D01*
X14880271Y-10790614D01*
X14851700Y-10776329D01*
X14837414Y-10747757D01*
X14837414Y-10633472D01*
X14851700Y-10604900D01*
X14880271Y-10590614D01*
X14937414Y-10590614D01*
X14965986Y-10604900D01*
X14980271Y-10633472D01*
X14980271Y-10662043D01*
X14837414Y-10690614D01*
X15094557Y-10776329D02*
X15123128Y-10790614D01*
X15180271Y-10790614D01*
X15208843Y-10776329D01*
X15223128Y-10747757D01*
X15223128Y-10733472D01*
X15208843Y-10704900D01*
X15180271Y-10690614D01*
X15137414Y-10690614D01*
X15108843Y-10676329D01*
X15094557Y-10647757D01*
X15094557Y-10633472D01*
X15108843Y-10604900D01*
X15137414Y-10590614D01*
X15180271Y-10590614D01*
X15208843Y-10604900D01*
X15323128Y-10904900D02*
X15337414Y-10890614D01*
X15365986Y-10847757D01*
X15380271Y-10819186D01*
X15394557Y-10776329D01*
X15408843Y-10704900D01*
X15408843Y-10647757D01*
X15394557Y-10576329D01*
X15380271Y-10533472D01*
X15365986Y-10504900D01*
X15337414Y-10462043D01*
X15323128Y-10447757D01*
X8786700Y-11000900D02*
X8786700Y-11100900D01*
X8736700Y-11050900D02*
X8836700Y-11050900D01*
X9280271Y-11186614D02*
X9108843Y-11186614D01*
X9194557Y-11186614D02*
X9194557Y-10886614D01*
X9165986Y-10929472D01*
X9137414Y-10958043D01*
X9108843Y-10972329D01*
X9408843Y-11158043D02*
X9423128Y-11172329D01*
X9408843Y-11186614D01*
X9394557Y-11172329D01*
X9408843Y-11158043D01*
X9408843Y-11186614D01*
X9608843Y-10886614D02*
X9637414Y-10886614D01*
X9665986Y-10900900D01*
X9680271Y-10915186D01*
X9694557Y-10943757D01*
X9708843Y-11000900D01*
X9708843Y-11072329D01*
X9694557Y-11129472D01*
X9680271Y-11158043D01*
X9665986Y-11172329D01*
X9637414Y-11186614D01*
X9608843Y-11186614D01*
X9580271Y-11172329D01*
X9565986Y-11158043D01*
X9551700Y-11129472D01*
X9537414Y-11072329D01*
X9537414Y-11000900D01*
X9551700Y-10943757D01*
X9565986Y-10915186D01*
X9580271Y-10900900D01*
X9608843Y-10886614D01*
X9894557Y-10886614D02*
X9923128Y-10886614D01*
X9951700Y-10900900D01*
X9965986Y-10915186D01*
X9980271Y-10943757D01*
X9994557Y-11000900D01*
X9994557Y-11072329D01*
X9980271Y-11129472D01*
X9965986Y-11158043D01*
X9951700Y-11172329D01*
X9923128Y-11186614D01*
X9894557Y-11186614D01*
X9865986Y-11172329D01*
X9851700Y-11158043D01*
X9837414Y-11129472D01*
X9823128Y-11072329D01*
X9823128Y-11000900D01*
X9837414Y-10943757D01*
X9851700Y-10915186D01*
X9865986Y-10900900D01*
X9894557Y-10886614D01*
X10123128Y-11186614D02*
X10123128Y-10986614D01*
X10123128Y-11015186D02*
X10137414Y-11000900D01*
X10165986Y-10986614D01*
X10208843Y-10986614D01*
X10237414Y-11000900D01*
X10251700Y-11029472D01*
X10251700Y-11186614D01*
X10251700Y-11029472D02*
X10265986Y-11000900D01*
X10294557Y-10986614D01*
X10337414Y-10986614D01*
X10365986Y-11000900D01*
X10380271Y-11029472D01*
X10380271Y-11186614D01*
X10523128Y-11186614D02*
X10523128Y-10986614D01*
X10523128Y-11015186D02*
X10537414Y-11000900D01*
X10565986Y-10986614D01*
X10608843Y-10986614D01*
X10637414Y-11000900D01*
X10651700Y-11029472D01*
X10651700Y-11186614D01*
X10651700Y-11029472D02*
X10665986Y-11000900D01*
X10694557Y-10986614D01*
X10737414Y-10986614D01*
X10765986Y-11000900D01*
X10780271Y-11029472D01*
X10780271Y-11186614D01*
X11365986Y-10872329D02*
X11108843Y-11258043D01*
X11751700Y-10886614D02*
X11780271Y-10886614D01*
X11808843Y-10900900D01*
X11823128Y-10915186D01*
X11837414Y-10943757D01*
X11851700Y-11000900D01*
X11851700Y-11072329D01*
X11837414Y-11129472D01*
X11823128Y-11158043D01*
X11808843Y-11172329D01*
X11780271Y-11186614D01*
X11751700Y-11186614D01*
X11723128Y-11172329D01*
X11708843Y-11158043D01*
X11694557Y-11129472D01*
X11680271Y-11072329D01*
X11680271Y-11000900D01*
X11694557Y-10943757D01*
X11708843Y-10915186D01*
X11723128Y-10900900D01*
X11751700Y-10886614D01*
X11980271Y-11158043D02*
X11994557Y-11172329D01*
X11980271Y-11186614D01*
X11965986Y-11172329D01*
X11980271Y-11158043D01*
X11980271Y-11186614D01*
X12180271Y-10886614D02*
X12208843Y-10886614D01*
X12237414Y-10900900D01*
X12251700Y-10915186D01*
X12265986Y-10943757D01*
X12280271Y-11000900D01*
X12280271Y-11072329D01*
X12265986Y-11129472D01*
X12251700Y-11158043D01*
X12237414Y-11172329D01*
X12208843Y-11186614D01*
X12180271Y-11186614D01*
X12151700Y-11172329D01*
X12137414Y-11158043D01*
X12123128Y-11129472D01*
X12108843Y-11072329D01*
X12108843Y-11000900D01*
X12123128Y-10943757D01*
X12137414Y-10915186D01*
X12151700Y-10900900D01*
X12180271Y-10886614D01*
X12380271Y-10886614D02*
X12565986Y-10886614D01*
X12465986Y-11000900D01*
X12508843Y-11000900D01*
X12537414Y-11015186D01*
X12551700Y-11029472D01*
X12565986Y-11058043D01*
X12565986Y-11129472D01*
X12551700Y-11158043D01*
X12537414Y-11172329D01*
X12508843Y-11186614D01*
X12423128Y-11186614D01*
X12394557Y-11172329D01*
X12380271Y-11158043D01*
X12708843Y-11186614D02*
X12765986Y-11186614D01*
X12794557Y-11172329D01*
X12808843Y-11158043D01*
X12837414Y-11115186D01*
X12851700Y-11058043D01*
X12851700Y-10943757D01*
X12837414Y-10915186D01*
X12823128Y-10900900D01*
X12794557Y-10886614D01*
X12737414Y-10886614D01*
X12708843Y-10900900D01*
X12694557Y-10915186D01*
X12680271Y-10943757D01*
X12680271Y-11015186D01*
X12694557Y-11043757D01*
X12708843Y-11058043D01*
X12737414Y-11072329D01*
X12794557Y-11072329D01*
X12823128Y-11058043D01*
X12837414Y-11043757D01*
X12851700Y-11015186D01*
X12965986Y-10886614D02*
X12965986Y-10943757D01*
X13080271Y-10886614D02*
X13080271Y-10943757D01*
X13523128Y-11300900D02*
X13508843Y-11286614D01*
X13480271Y-11243757D01*
X13465986Y-11215186D01*
X13451700Y-11172329D01*
X13437414Y-11100900D01*
X13437414Y-11043757D01*
X13451700Y-10972329D01*
X13465986Y-10929472D01*
X13480271Y-10900900D01*
X13508843Y-10858043D01*
X13523128Y-10843757D01*
X13623128Y-10915186D02*
X13637414Y-10900900D01*
X13665986Y-10886614D01*
X13737414Y-10886614D01*
X13765986Y-10900900D01*
X13780271Y-10915186D01*
X13794557Y-10943757D01*
X13794557Y-10972329D01*
X13780271Y-11015186D01*
X13608843Y-11186614D01*
X13794557Y-11186614D01*
X14151700Y-11186614D02*
X14151700Y-10886614D01*
X14280271Y-11186614D02*
X14280271Y-11029472D01*
X14265986Y-11000900D01*
X14237414Y-10986614D01*
X14194557Y-10986614D01*
X14165986Y-11000900D01*
X14151700Y-11015186D01*
X14465986Y-11186614D02*
X14437414Y-11172329D01*
X14423128Y-11158043D01*
X14408843Y-11129472D01*
X14408843Y-11043757D01*
X14423128Y-11015186D01*
X14437414Y-11000900D01*
X14465986Y-10986614D01*
X14508843Y-10986614D01*
X14537414Y-11000900D01*
X14551700Y-11015186D01*
X14565986Y-11043757D01*
X14565986Y-11129472D01*
X14551700Y-11158043D01*
X14537414Y-11172329D01*
X14508843Y-11186614D01*
X14465986Y-11186614D01*
X14737414Y-11186614D02*
X14708843Y-11172329D01*
X14694557Y-11143757D01*
X14694557Y-10886614D01*
X14965986Y-11172329D02*
X14937414Y-11186614D01*
X14880271Y-11186614D01*
X14851700Y-11172329D01*
X14837414Y-11143757D01*
X14837414Y-11029472D01*
X14851700Y-11000900D01*
X14880271Y-10986614D01*
X14937414Y-10986614D01*
X14965986Y-11000900D01*
X14980271Y-11029472D01*
X14980271Y-11058043D01*
X14837414Y-11086614D01*
X15094557Y-11172329D02*
X15123128Y-11186614D01*
X15180271Y-11186614D01*
X15208843Y-11172329D01*
X15223128Y-11143757D01*
X15223128Y-11129472D01*
X15208843Y-11100900D01*
X15180271Y-11086614D01*
X15137414Y-11086614D01*
X15108843Y-11072329D01*
X15094557Y-11043757D01*
X15094557Y-11029472D01*
X15108843Y-11000900D01*
X15137414Y-10986614D01*
X15180271Y-10986614D01*
X15208843Y-11000900D01*
X15323128Y-11300900D02*
X15337414Y-11286614D01*
X15365986Y-11243757D01*
X15380271Y-11215186D01*
X15394557Y-11172329D01*
X15408843Y-11100900D01*
X15408843Y-11043757D01*
X15394557Y-10972329D01*
X15380271Y-10929472D01*
X15365986Y-10900900D01*
X15337414Y-10858043D01*
X15323128Y-10843757D01*
X8819127Y-11489327D02*
X8819127Y-11404473D01*
X8734273Y-11404473D01*
X8734273Y-11489327D01*
X8819127Y-11489327D01*
X9280271Y-11582614D02*
X9108843Y-11582614D01*
X9194557Y-11582614D02*
X9194557Y-11282614D01*
X9165986Y-11325471D01*
X9137414Y-11354043D01*
X9108843Y-11368329D01*
X9408843Y-11554043D02*
X9423128Y-11568329D01*
X9408843Y-11582614D01*
X9394557Y-11568329D01*
X9408843Y-11554043D01*
X9408843Y-11582614D01*
X9537414Y-11311186D02*
X9551700Y-11296900D01*
X9580271Y-11282614D01*
X9651700Y-11282614D01*
X9680271Y-11296900D01*
X9694557Y-11311186D01*
X9708843Y-11339757D01*
X9708843Y-11368329D01*
X9694557Y-11411186D01*
X9523128Y-11582614D01*
X9708843Y-11582614D01*
X9894557Y-11282614D02*
X9923128Y-11282614D01*
X9951700Y-11296900D01*
X9965986Y-11311186D01*
X9980271Y-11339757D01*
X9994557Y-11396900D01*
X9994557Y-11468329D01*
X9980271Y-11525471D01*
X9965986Y-11554043D01*
X9951700Y-11568329D01*
X9923128Y-11582614D01*
X9894557Y-11582614D01*
X9865986Y-11568329D01*
X9851700Y-11554043D01*
X9837414Y-11525471D01*
X9823128Y-11468329D01*
X9823128Y-11396900D01*
X9837414Y-11339757D01*
X9851700Y-11311186D01*
X9865986Y-11296900D01*
X9894557Y-11282614D01*
X10123128Y-11582614D02*
X10123128Y-11382614D01*
X10123128Y-11411186D02*
X10137414Y-11396900D01*
X10165986Y-11382614D01*
X10208843Y-11382614D01*
X10237414Y-11396900D01*
X10251700Y-11425471D01*
X10251700Y-11582614D01*
X10251700Y-11425471D02*
X10265986Y-11396900D01*
X10294557Y-11382614D01*
X10337414Y-11382614D01*
X10365986Y-11396900D01*
X10380271Y-11425471D01*
X10380271Y-11582614D01*
X10523128Y-11582614D02*
X10523128Y-11382614D01*
X10523128Y-11411186D02*
X10537414Y-11396900D01*
X10565986Y-11382614D01*
X10608843Y-11382614D01*
X10637414Y-11396900D01*
X10651700Y-11425471D01*
X10651700Y-11582614D01*
X10651700Y-11425471D02*
X10665986Y-11396900D01*
X10694557Y-11382614D01*
X10737414Y-11382614D01*
X10765986Y-11396900D01*
X10780271Y-11425471D01*
X10780271Y-11582614D01*
X11365986Y-11268329D02*
X11108843Y-11654043D01*
X11751700Y-11282614D02*
X11780271Y-11282614D01*
X11808843Y-11296900D01*
X11823128Y-11311186D01*
X11837414Y-11339757D01*
X11851700Y-11396900D01*
X11851700Y-11468329D01*
X11837414Y-11525471D01*
X11823128Y-11554043D01*
X11808843Y-11568329D01*
X11780271Y-11582614D01*
X11751700Y-11582614D01*
X11723128Y-11568329D01*
X11708843Y-11554043D01*
X11694557Y-11525471D01*
X11680271Y-11468329D01*
X11680271Y-11396900D01*
X11694557Y-11339757D01*
X11708843Y-11311186D01*
X11723128Y-11296900D01*
X11751700Y-11282614D01*
X11980271Y-11554043D02*
X11994557Y-11568329D01*
X11980271Y-11582614D01*
X11965986Y-11568329D01*
X11980271Y-11554043D01*
X11980271Y-11582614D01*
X12180271Y-11282614D02*
X12208843Y-11282614D01*
X12237414Y-11296900D01*
X12251700Y-11311186D01*
X12265986Y-11339757D01*
X12280271Y-11396900D01*
X12280271Y-11468329D01*
X12265986Y-11525471D01*
X12251700Y-11554043D01*
X12237414Y-11568329D01*
X12208843Y-11582614D01*
X12180271Y-11582614D01*
X12151700Y-11568329D01*
X12137414Y-11554043D01*
X12123128Y-11525471D01*
X12108843Y-11468329D01*
X12108843Y-11396900D01*
X12123128Y-11339757D01*
X12137414Y-11311186D01*
X12151700Y-11296900D01*
X12180271Y-11282614D01*
X12537414Y-11382614D02*
X12537414Y-11582614D01*
X12465986Y-11268329D02*
X12394557Y-11482614D01*
X12580271Y-11482614D01*
X12665986Y-11282614D02*
X12865986Y-11282614D01*
X12737414Y-11582614D01*
X12965986Y-11282614D02*
X12965986Y-11339757D01*
X13080271Y-11282614D02*
X13080271Y-11339757D01*
X13523128Y-11696900D02*
X13508843Y-11682614D01*
X13480271Y-11639757D01*
X13465986Y-11611186D01*
X13451700Y-11568329D01*
X13437414Y-11496900D01*
X13437414Y-11439757D01*
X13451700Y-11368329D01*
X13465986Y-11325471D01*
X13480271Y-11296900D01*
X13508843Y-11254043D01*
X13523128Y-11239757D01*
X13794557Y-11582614D02*
X13623128Y-11582614D01*
X13708843Y-11582614D02*
X13708843Y-11282614D01*
X13680271Y-11325471D01*
X13651700Y-11354043D01*
X13623128Y-11368329D01*
X14051700Y-11382614D02*
X14051700Y-11582614D01*
X13980271Y-11268329D02*
X13908843Y-11482614D01*
X14094557Y-11482614D01*
X14437414Y-11582614D02*
X14437414Y-11282614D01*
X14565986Y-11582614D02*
X14565986Y-11425471D01*
X14551700Y-11396900D01*
X14523128Y-11382614D01*
X14480271Y-11382614D01*
X14451700Y-11396900D01*
X14437414Y-11411186D01*
X14751700Y-11582614D02*
X14723128Y-11568329D01*
X14708843Y-11554043D01*
X14694557Y-11525471D01*
X14694557Y-11439757D01*
X14708843Y-11411186D01*
X14723128Y-11396900D01*
X14751700Y-11382614D01*
X14794557Y-11382614D01*
X14823128Y-11396900D01*
X14837414Y-11411186D01*
X14851700Y-11439757D01*
X14851700Y-11525471D01*
X14837414Y-11554043D01*
X14823128Y-11568329D01*
X14794557Y-11582614D01*
X14751700Y-11582614D01*
X15023128Y-11582614D02*
X14994557Y-11568329D01*
X14980271Y-11539757D01*
X14980271Y-11282614D01*
X15251700Y-11568329D02*
X15223128Y-11582614D01*
X15165986Y-11582614D01*
X15137414Y-11568329D01*
X15123128Y-11539757D01*
X15123128Y-11425471D01*
X15137414Y-11396900D01*
X15165986Y-11382614D01*
X15223128Y-11382614D01*
X15251700Y-11396900D01*
X15265986Y-11425471D01*
X15265986Y-11454043D01*
X15123128Y-11482614D01*
X15380271Y-11568329D02*
X15408843Y-11582614D01*
X15465986Y-11582614D01*
X15494557Y-11568329D01*
X15508843Y-11539757D01*
X15508843Y-11525471D01*
X15494557Y-11496900D01*
X15465986Y-11482614D01*
X15423128Y-11482614D01*
X15394557Y-11468329D01*
X15380271Y-11439757D01*
X15380271Y-11425471D01*
X15394557Y-11396900D01*
X15423128Y-11382614D01*
X15465986Y-11382614D01*
X15494557Y-11396900D01*
X15608843Y-11696900D02*
X15623128Y-11682614D01*
X15651700Y-11639757D01*
X15665986Y-11611186D01*
X15680271Y-11568329D01*
X15694557Y-11496900D01*
X15694557Y-11439757D01*
X15680271Y-11368329D01*
X15665986Y-11325471D01*
X15651700Y-11296900D01*
X15623128Y-11254043D01*
X15608843Y-11239757D01*
X8736700Y-11942900D02*
X8836700Y-11842900D01*
X8736700Y-11742900D01*
X8636700Y-11842900D01*
X8736700Y-11942900D01*
X9108843Y-11707186D02*
X9123128Y-11692900D01*
X9151700Y-11678614D01*
X9223128Y-11678614D01*
X9251700Y-11692900D01*
X9265986Y-11707186D01*
X9280271Y-11735757D01*
X9280271Y-11764329D01*
X9265986Y-11807186D01*
X9094557Y-11978614D01*
X9280271Y-11978614D01*
X9408843Y-11950043D02*
X9423128Y-11964329D01*
X9408843Y-11978614D01*
X9394557Y-11964329D01*
X9408843Y-11950043D01*
X9408843Y-11978614D01*
X9608843Y-11678614D02*
X9637414Y-11678614D01*
X9665986Y-11692900D01*
X9680271Y-11707186D01*
X9694557Y-11735757D01*
X9708843Y-11792900D01*
X9708843Y-11864329D01*
X9694557Y-11921471D01*
X9680271Y-11950043D01*
X9665986Y-11964329D01*
X9637414Y-11978614D01*
X9608843Y-11978614D01*
X9580271Y-11964329D01*
X9565986Y-11950043D01*
X9551700Y-11921471D01*
X9537414Y-11864329D01*
X9537414Y-11792900D01*
X9551700Y-11735757D01*
X9565986Y-11707186D01*
X9580271Y-11692900D01*
X9608843Y-11678614D01*
X9894557Y-11678614D02*
X9923128Y-11678614D01*
X9951700Y-11692900D01*
X9965986Y-11707186D01*
X9980271Y-11735757D01*
X9994557Y-11792900D01*
X9994557Y-11864329D01*
X9980271Y-11921471D01*
X9965986Y-11950043D01*
X9951700Y-11964329D01*
X9923128Y-11978614D01*
X9894557Y-11978614D01*
X9865986Y-11964329D01*
X9851700Y-11950043D01*
X9837414Y-11921471D01*
X9823128Y-11864329D01*
X9823128Y-11792900D01*
X9837414Y-11735757D01*
X9851700Y-11707186D01*
X9865986Y-11692900D01*
X9894557Y-11678614D01*
X10123128Y-11978614D02*
X10123128Y-11778614D01*
X10123128Y-11807186D02*
X10137414Y-11792900D01*
X10165986Y-11778614D01*
X10208843Y-11778614D01*
X10237414Y-11792900D01*
X10251700Y-11821471D01*
X10251700Y-11978614D01*
X10251700Y-11821471D02*
X10265986Y-11792900D01*
X10294557Y-11778614D01*
X10337414Y-11778614D01*
X10365986Y-11792900D01*
X10380271Y-11821471D01*
X10380271Y-11978614D01*
X10523128Y-11978614D02*
X10523128Y-11778614D01*
X10523128Y-11807186D02*
X10537414Y-11792900D01*
X10565986Y-11778614D01*
X10608843Y-11778614D01*
X10637414Y-11792900D01*
X10651700Y-11821471D01*
X10651700Y-11978614D01*
X10651700Y-11821471D02*
X10665986Y-11792900D01*
X10694557Y-11778614D01*
X10737414Y-11778614D01*
X10765986Y-11792900D01*
X10780271Y-11821471D01*
X10780271Y-11978614D01*
X11365986Y-11664329D02*
X11108843Y-12050043D01*
X11751700Y-11678614D02*
X11780271Y-11678614D01*
X11808843Y-11692900D01*
X11823128Y-11707186D01*
X11837414Y-11735757D01*
X11851700Y-11792900D01*
X11851700Y-11864329D01*
X11837414Y-11921471D01*
X11823128Y-11950043D01*
X11808843Y-11964329D01*
X11780271Y-11978614D01*
X11751700Y-11978614D01*
X11723128Y-11964329D01*
X11708843Y-11950043D01*
X11694557Y-11921471D01*
X11680271Y-11864329D01*
X11680271Y-11792900D01*
X11694557Y-11735757D01*
X11708843Y-11707186D01*
X11723128Y-11692900D01*
X11751700Y-11678614D01*
X11980271Y-11950043D02*
X11994557Y-11964329D01*
X11980271Y-11978614D01*
X11965986Y-11964329D01*
X11980271Y-11950043D01*
X11980271Y-11978614D01*
X12180271Y-11678614D02*
X12208843Y-11678614D01*
X12237414Y-11692900D01*
X12251700Y-11707186D01*
X12265986Y-11735757D01*
X12280271Y-11792900D01*
X12280271Y-11864329D01*
X12265986Y-11921471D01*
X12251700Y-11950043D01*
X12237414Y-11964329D01*
X12208843Y-11978614D01*
X12180271Y-11978614D01*
X12151700Y-11964329D01*
X12137414Y-11950043D01*
X12123128Y-11921471D01*
X12108843Y-11864329D01*
X12108843Y-11792900D01*
X12123128Y-11735757D01*
X12137414Y-11707186D01*
X12151700Y-11692900D01*
X12180271Y-11678614D01*
X12380271Y-11678614D02*
X12580271Y-11678614D01*
X12451700Y-11978614D01*
X12708843Y-11978614D02*
X12765986Y-11978614D01*
X12794557Y-11964329D01*
X12808843Y-11950043D01*
X12837414Y-11907186D01*
X12851700Y-11850043D01*
X12851700Y-11735757D01*
X12837414Y-11707186D01*
X12823128Y-11692900D01*
X12794557Y-11678614D01*
X12737414Y-11678614D01*
X12708843Y-11692900D01*
X12694557Y-11707186D01*
X12680271Y-11735757D01*
X12680271Y-11807186D01*
X12694557Y-11835757D01*
X12708843Y-11850043D01*
X12737414Y-11864329D01*
X12794557Y-11864329D01*
X12823128Y-11850043D01*
X12837414Y-11835757D01*
X12851700Y-11807186D01*
X12965986Y-11678614D02*
X12965986Y-11735757D01*
X13080271Y-11678614D02*
X13080271Y-11735757D01*
X13523128Y-12092900D02*
X13508843Y-12078614D01*
X13480271Y-12035757D01*
X13465986Y-12007186D01*
X13451700Y-11964329D01*
X13437414Y-11892900D01*
X13437414Y-11835757D01*
X13451700Y-11764329D01*
X13465986Y-11721471D01*
X13480271Y-11692900D01*
X13508843Y-11650043D01*
X13523128Y-11635757D01*
X13694557Y-11678614D02*
X13723128Y-11678614D01*
X13751700Y-11692900D01*
X13765986Y-11707186D01*
X13780271Y-11735757D01*
X13794557Y-11792900D01*
X13794557Y-11864329D01*
X13780271Y-11921471D01*
X13765986Y-11950043D01*
X13751700Y-11964329D01*
X13723128Y-11978614D01*
X13694557Y-11978614D01*
X13665986Y-11964329D01*
X13651700Y-11950043D01*
X13637414Y-11921471D01*
X13623128Y-11864329D01*
X13623128Y-11792900D01*
X13637414Y-11735757D01*
X13651700Y-11707186D01*
X13665986Y-11692900D01*
X13694557Y-11678614D01*
X14151700Y-11978614D02*
X14151700Y-11678614D01*
X14280271Y-11978614D02*
X14280271Y-11821471D01*
X14265986Y-11792900D01*
X14237414Y-11778614D01*
X14194557Y-11778614D01*
X14165986Y-11792900D01*
X14151700Y-11807186D01*
X14465986Y-11978614D02*
X14437414Y-11964329D01*
X14423128Y-11950043D01*
X14408843Y-11921471D01*
X14408843Y-11835757D01*
X14423128Y-11807186D01*
X14437414Y-11792900D01*
X14465986Y-11778614D01*
X14508843Y-11778614D01*
X14537414Y-11792900D01*
X14551700Y-11807186D01*
X14565986Y-11835757D01*
X14565986Y-11921471D01*
X14551700Y-11950043D01*
X14537414Y-11964329D01*
X14508843Y-11978614D01*
X14465986Y-11978614D01*
X14737414Y-11978614D02*
X14708843Y-11964329D01*
X14694557Y-11935757D01*
X14694557Y-11678614D01*
X14965986Y-11964329D02*
X14937414Y-11978614D01*
X14880271Y-11978614D01*
X14851700Y-11964329D01*
X14837414Y-11935757D01*
X14837414Y-11821471D01*
X14851700Y-11792900D01*
X14880271Y-11778614D01*
X14937414Y-11778614D01*
X14965986Y-11792900D01*
X14980271Y-11821471D01*
X14980271Y-11850043D01*
X14837414Y-11878614D01*
X15094557Y-11964329D02*
X15123128Y-11978614D01*
X15180271Y-11978614D01*
X15208843Y-11964329D01*
X15223128Y-11935757D01*
X15223128Y-11921471D01*
X15208843Y-11892900D01*
X15180271Y-11878614D01*
X15137414Y-11878614D01*
X15108843Y-11864329D01*
X15094557Y-11835757D01*
X15094557Y-11821471D01*
X15108843Y-11792900D01*
X15137414Y-11778614D01*
X15180271Y-11778614D01*
X15208843Y-11792900D01*
X15580271Y-11864329D02*
X15808843Y-11864329D01*
X15694557Y-11978614D02*
X15694557Y-11750043D01*
X16165986Y-11707186D02*
X16180271Y-11692900D01*
X16208843Y-11678614D01*
X16280271Y-11678614D01*
X16308843Y-11692900D01*
X16323128Y-11707186D01*
X16337414Y-11735757D01*
X16337414Y-11764329D01*
X16323128Y-11807186D01*
X16151700Y-11978614D01*
X16337414Y-11978614D01*
X16680271Y-11964329D02*
X16708843Y-11978614D01*
X16765986Y-11978614D01*
X16794557Y-11964329D01*
X16808843Y-11935757D01*
X16808843Y-11921471D01*
X16794557Y-11892900D01*
X16765986Y-11878614D01*
X16723128Y-11878614D01*
X16694557Y-11864329D01*
X16680271Y-11835757D01*
X16680271Y-11821471D01*
X16694557Y-11792900D01*
X16723128Y-11778614D01*
X16765986Y-11778614D01*
X16794557Y-11792900D01*
X16980271Y-11978614D02*
X16951700Y-11964329D01*
X16937414Y-11935757D01*
X16937414Y-11678614D01*
X17137414Y-11978614D02*
X17108843Y-11964329D01*
X17094557Y-11950043D01*
X17080271Y-11921471D01*
X17080271Y-11835757D01*
X17094557Y-11807186D01*
X17108843Y-11792900D01*
X17137414Y-11778614D01*
X17180271Y-11778614D01*
X17208843Y-11792900D01*
X17223128Y-11807186D01*
X17237414Y-11835757D01*
X17237414Y-11921471D01*
X17223128Y-11950043D01*
X17208843Y-11964329D01*
X17180271Y-11978614D01*
X17137414Y-11978614D01*
X17323128Y-11778614D02*
X17437414Y-11778614D01*
X17365986Y-11678614D02*
X17365986Y-11935757D01*
X17380271Y-11964329D01*
X17408843Y-11978614D01*
X17437414Y-11978614D01*
X17523128Y-11964329D02*
X17551700Y-11978614D01*
X17608843Y-11978614D01*
X17637414Y-11964329D01*
X17651700Y-11935757D01*
X17651700Y-11921471D01*
X17637414Y-11892900D01*
X17608843Y-11878614D01*
X17565986Y-11878614D01*
X17537414Y-11864329D01*
X17523128Y-11835757D01*
X17523128Y-11821471D01*
X17537414Y-11792900D01*
X17565986Y-11778614D01*
X17608843Y-11778614D01*
X17637414Y-11792900D01*
X17751700Y-12092900D02*
X17765986Y-12078614D01*
X17794557Y-12035757D01*
X17808843Y-12007186D01*
X17823128Y-11964329D01*
X17837414Y-11892900D01*
X17837414Y-11835757D01*
X17823128Y-11764329D01*
X17808843Y-11721471D01*
X17794557Y-11692900D01*
X17765986Y-11650043D01*
X17751700Y-11635757D01*
M02*
