M48
; DRILL file {KiCad (5.1.4)-1} date 25.10.2021 09:37:39
; FORMAT={-:-/ absolute / metric / decimal}
; #@! TF.CreationDate,2021-10-25T09:37:39+02:00
; #@! TF.GenerationSoftware,Kicad,Pcbnew,(5.1.4)-1
; #@! TF.FileFunction,Plated,1,2,PTH
FMAT,2
METRIC
T1C0.400
T2C0.900
T3C1.000
T4C1.200
T5C2.000
%
G90
G05
T1
X91.948Y-76.962
X91.948Y-80.518
X95.504Y-73.152
X96.774Y-86.868
X98.044Y-74.422
X98.044Y-80.518
X100.33Y-81.28
X100.838Y-73.152
X101.6Y-69.088
X101.854Y-76.708
X104.394Y-69.088
X104.394Y-74.676
X104.394Y-77.47
X104.648Y-70.612
X105.41Y-58.42
X105.918Y-68.072
X107.188Y-74.93
X107.95Y-69.85
X108.204Y-68.326
X108.966Y-85.598
X109.22Y-83.058
X115.062Y-61.214
X116.586Y-70.612
X117.348Y-61.214
X118.11Y-79.756
X118.618Y-87.884
X118.872Y-76.2
X119.126Y-66.802
X120.142Y-53.34
X120.65Y-74.422
X122.936Y-88.138
X123.19Y-70.612
X123.698Y-60.452
X124.46Y-62.23
X124.968Y-68.58
X127.0Y-73.152
X127.508Y-56.388
X127.762Y-76.454
X129.032Y-57.404
X129.286Y-68.326
X129.794Y-84.328
X130.302Y-65.024
X131.064Y-69.342
X134.366Y-69.088
X135.128Y-57.404
X136.652Y-80.264
X138.43Y-57.404
T2
X112.776Y-65.278
X114.046Y-62.738
X115.316Y-65.278
X116.586Y-62.738
X117.856Y-65.278
X119.126Y-62.738
X120.396Y-65.278
X121.666Y-62.738
T3
X113.792Y-83.058
X116.292Y-83.058
T4
X133.604Y-73.152
X133.604Y-76.652
X101.91Y-52.832
X105.41Y-52.832
X122.992Y-81.026
X126.492Y-81.026
X94.742Y-65.532
X94.742Y-69.032
X133.604Y-59.69
X133.604Y-63.19
X133.604Y-66.69
X94.742Y-75.184
X94.742Y-78.684
X94.742Y-82.184
T5
X92.826Y-59.944G85X91.326Y-59.944
G05
X100.826Y-59.944G85X99.326Y-59.944
G05
T0
M30
