%TF.GenerationSoftware,KiCad,Pcbnew,(5.1.4)-1*%
%TF.CreationDate,2021-10-25T09:38:00+02:00*%
%TF.ProjectId,bbb-diffcape-receiver,6262622d-6469-4666-9663-6170652d7265,rev?*%
%TF.SameCoordinates,Original*%
%TF.FileFunction,Legend,Top*%
%TF.FilePolarity,Positive*%
%FSLAX46Y46*%
G04 Gerber Fmt 4.6, Leading zero omitted, Abs format (unit mm)*
G04 Created by KiCad (PCBNEW (5.1.4)-1) date 2021-10-25 09:38:00*
%MOMM*%
%LPD*%
G04 APERTURE LIST*
%ADD10C,0.150000*%
%ADD11C,0.180000*%
%ADD12C,0.200000*%
%ADD13C,0.120000*%
G04 APERTURE END LIST*
D10*
X89987428Y-78811428D02*
X89939809Y-78954285D01*
X89892190Y-79001904D01*
X89796952Y-79049523D01*
X89654095Y-79049523D01*
X89558857Y-79001904D01*
X89511238Y-78954285D01*
X89463619Y-78859047D01*
X89463619Y-78478095D01*
X90463619Y-78478095D01*
X90463619Y-78811428D01*
X90416000Y-78906666D01*
X90368380Y-78954285D01*
X90273142Y-79001904D01*
X90177904Y-79001904D01*
X90082666Y-78954285D01*
X90035047Y-78906666D01*
X89987428Y-78811428D01*
X89987428Y-78478095D01*
X89749333Y-74945904D02*
X89749333Y-75422095D01*
X89463619Y-74850666D02*
X90463619Y-75184000D01*
X89463619Y-75517333D01*
X90416000Y-81534095D02*
X90463619Y-81438857D01*
X90463619Y-81296000D01*
X90416000Y-81153142D01*
X90320761Y-81057904D01*
X90225523Y-81010285D01*
X90035047Y-80962666D01*
X89892190Y-80962666D01*
X89701714Y-81010285D01*
X89606476Y-81057904D01*
X89511238Y-81153142D01*
X89463619Y-81296000D01*
X89463619Y-81391238D01*
X89511238Y-81534095D01*
X89558857Y-81581714D01*
X89892190Y-81581714D01*
X89892190Y-81391238D01*
X89463619Y-82010285D02*
X90463619Y-82010285D01*
X89463619Y-82581714D01*
X90463619Y-82581714D01*
X89463619Y-83057904D02*
X90463619Y-83057904D01*
X90463619Y-83296000D01*
X90416000Y-83438857D01*
X90320761Y-83534095D01*
X90225523Y-83581714D01*
X90035047Y-83629333D01*
X89892190Y-83629333D01*
X89701714Y-83581714D01*
X89606476Y-83534095D01*
X89511238Y-83438857D01*
X89463619Y-83296000D01*
X89463619Y-83057904D01*
X104283023Y-58094619D02*
X104330642Y-58047000D01*
X104425880Y-57999380D01*
X104663976Y-57999380D01*
X104759214Y-58047000D01*
X104806833Y-58094619D01*
X104854452Y-58189857D01*
X104854452Y-58285095D01*
X104806833Y-58427952D01*
X104235404Y-58999380D01*
X104854452Y-58999380D01*
X105711595Y-58332714D02*
X105711595Y-58999380D01*
X105473500Y-57951761D02*
X105235404Y-58666047D01*
X105854452Y-58666047D01*
X106092547Y-57999380D02*
X106425880Y-58999380D01*
X106759214Y-57999380D01*
X98417000Y-51625595D02*
X98464619Y-51530357D01*
X98464619Y-51387500D01*
X98417000Y-51244642D01*
X98321761Y-51149404D01*
X98226523Y-51101785D01*
X98036047Y-51054166D01*
X97893190Y-51054166D01*
X97702714Y-51101785D01*
X97607476Y-51149404D01*
X97512238Y-51244642D01*
X97464619Y-51387500D01*
X97464619Y-51482738D01*
X97512238Y-51625595D01*
X97559857Y-51673214D01*
X97893190Y-51673214D01*
X97893190Y-51482738D01*
X97464619Y-52101785D02*
X98464619Y-52101785D01*
X97464619Y-52673214D01*
X98464619Y-52673214D01*
X97464619Y-53149404D02*
X98464619Y-53149404D01*
X98464619Y-53387500D01*
X98417000Y-53530357D01*
X98321761Y-53625595D01*
X98226523Y-53673214D01*
X98036047Y-53720833D01*
X97893190Y-53720833D01*
X97702714Y-53673214D01*
X97607476Y-53625595D01*
X97512238Y-53530357D01*
X97464619Y-53387500D01*
X97464619Y-53149404D01*
D11*
X89971571Y-63166880D02*
X89971571Y-63928785D01*
X89590619Y-63547833D02*
X90352523Y-63547833D01*
X90590619Y-64881166D02*
X90590619Y-64404976D01*
X90114428Y-64357357D01*
X90162047Y-64404976D01*
X90209666Y-64500214D01*
X90209666Y-64738309D01*
X90162047Y-64833547D01*
X90114428Y-64881166D01*
X90019190Y-64928785D01*
X89781095Y-64928785D01*
X89685857Y-64881166D01*
X89638238Y-64833547D01*
X89590619Y-64738309D01*
X89590619Y-64500214D01*
X89638238Y-64404976D01*
X89685857Y-64357357D01*
X90590619Y-65214500D02*
X89590619Y-65547833D01*
X90590619Y-65881166D01*
X89590619Y-66214500D02*
X90590619Y-66214500D01*
X89590619Y-66690690D02*
X90590619Y-66690690D01*
X89590619Y-67262119D01*
X90590619Y-67262119D01*
D10*
X90543000Y-68643595D02*
X90590619Y-68548357D01*
X90590619Y-68405500D01*
X90543000Y-68262642D01*
X90447761Y-68167404D01*
X90352523Y-68119785D01*
X90162047Y-68072166D01*
X90019190Y-68072166D01*
X89828714Y-68119785D01*
X89733476Y-68167404D01*
X89638238Y-68262642D01*
X89590619Y-68405500D01*
X89590619Y-68500738D01*
X89638238Y-68643595D01*
X89685857Y-68691214D01*
X90019190Y-68691214D01*
X90019190Y-68500738D01*
X89590619Y-69119785D02*
X90590619Y-69119785D01*
X89590619Y-69691214D01*
X90590619Y-69691214D01*
X89590619Y-70167404D02*
X90590619Y-70167404D01*
X90590619Y-70405500D01*
X90543000Y-70548357D01*
X90447761Y-70643595D01*
X90352523Y-70691214D01*
X90162047Y-70738833D01*
X90019190Y-70738833D01*
X89828714Y-70691214D01*
X89733476Y-70643595D01*
X89638238Y-70548357D01*
X89590619Y-70405500D01*
X89590619Y-70167404D01*
X110051857Y-85616761D02*
X110051857Y-85350095D01*
X110470904Y-85235809D02*
X110470904Y-85616761D01*
X109670904Y-85616761D01*
X109670904Y-85235809D01*
X110470904Y-84969142D02*
X109937571Y-84550095D01*
X109937571Y-84969142D02*
X110470904Y-84550095D01*
X109937571Y-84359619D02*
X109937571Y-84054857D01*
X109670904Y-84245333D02*
X110356619Y-84245333D01*
X110432809Y-84207238D01*
X110470904Y-84131047D01*
X110470904Y-84054857D01*
X110394714Y-83788190D02*
X110432809Y-83750095D01*
X110470904Y-83788190D01*
X110432809Y-83826285D01*
X110394714Y-83788190D01*
X110470904Y-83788190D01*
X110470904Y-82416761D02*
X110470904Y-82797714D01*
X109670904Y-82797714D01*
X110051857Y-82150095D02*
X110051857Y-81883428D01*
X110470904Y-81769142D02*
X110470904Y-82150095D01*
X109670904Y-82150095D01*
X109670904Y-81769142D01*
X110470904Y-81426285D02*
X109670904Y-81426285D01*
X109670904Y-81235809D01*
X109709000Y-81121523D01*
X109785190Y-81045333D01*
X109861380Y-81007238D01*
X110013761Y-80969142D01*
X110128047Y-80969142D01*
X110280428Y-81007238D01*
X110356619Y-81045333D01*
X110432809Y-81121523D01*
X110470904Y-81235809D01*
X110470904Y-81426285D01*
D11*
X111680785Y-86875928D02*
X112442690Y-86875928D01*
X112061738Y-87256880D02*
X112061738Y-86494976D01*
X113395071Y-86256880D02*
X112918880Y-86256880D01*
X112871261Y-86733071D01*
X112918880Y-86685452D01*
X113014119Y-86637833D01*
X113252214Y-86637833D01*
X113347452Y-86685452D01*
X113395071Y-86733071D01*
X113442690Y-86828309D01*
X113442690Y-87066404D01*
X113395071Y-87161642D01*
X113347452Y-87209261D01*
X113252214Y-87256880D01*
X113014119Y-87256880D01*
X112918880Y-87209261D01*
X112871261Y-87161642D01*
X113728404Y-86256880D02*
X114061738Y-87256880D01*
X114395071Y-86256880D01*
D10*
X115760595Y-86304500D02*
X115665357Y-86256880D01*
X115522500Y-86256880D01*
X115379642Y-86304500D01*
X115284404Y-86399738D01*
X115236785Y-86494976D01*
X115189166Y-86685452D01*
X115189166Y-86828309D01*
X115236785Y-87018785D01*
X115284404Y-87114023D01*
X115379642Y-87209261D01*
X115522500Y-87256880D01*
X115617738Y-87256880D01*
X115760595Y-87209261D01*
X115808214Y-87161642D01*
X115808214Y-86828309D01*
X115617738Y-86828309D01*
X116236785Y-87256880D02*
X116236785Y-86256880D01*
X116808214Y-87256880D01*
X116808214Y-86256880D01*
X117284404Y-87256880D02*
X117284404Y-86256880D01*
X117522500Y-86256880D01*
X117665357Y-86304500D01*
X117760595Y-86399738D01*
X117808214Y-86494976D01*
X117855833Y-86685452D01*
X117855833Y-86828309D01*
X117808214Y-87018785D01*
X117760595Y-87114023D01*
X117665357Y-87209261D01*
X117522500Y-87256880D01*
X117284404Y-87256880D01*
D11*
X125206285Y-86875928D02*
X125968190Y-86875928D01*
X125587238Y-87256880D02*
X125587238Y-86494976D01*
X126920571Y-86256880D02*
X126444380Y-86256880D01*
X126396761Y-86733071D01*
X126444380Y-86685452D01*
X126539619Y-86637833D01*
X126777714Y-86637833D01*
X126872952Y-86685452D01*
X126920571Y-86733071D01*
X126968190Y-86828309D01*
X126968190Y-87066404D01*
X126920571Y-87161642D01*
X126872952Y-87209261D01*
X126777714Y-87256880D01*
X126539619Y-87256880D01*
X126444380Y-87209261D01*
X126396761Y-87161642D01*
X127253904Y-86256880D02*
X127587238Y-87256880D01*
X127920571Y-86256880D01*
D10*
X122174095Y-86368000D02*
X122078857Y-86320380D01*
X121936000Y-86320380D01*
X121793142Y-86368000D01*
X121697904Y-86463238D01*
X121650285Y-86558476D01*
X121602666Y-86748952D01*
X121602666Y-86891809D01*
X121650285Y-87082285D01*
X121697904Y-87177523D01*
X121793142Y-87272761D01*
X121936000Y-87320380D01*
X122031238Y-87320380D01*
X122174095Y-87272761D01*
X122221714Y-87225142D01*
X122221714Y-86891809D01*
X122031238Y-86891809D01*
X122650285Y-87320380D02*
X122650285Y-86320380D01*
X123221714Y-87320380D01*
X123221714Y-86320380D01*
X123697904Y-87320380D02*
X123697904Y-86320380D01*
X123936000Y-86320380D01*
X124078857Y-86368000D01*
X124174095Y-86463238D01*
X124221714Y-86558476D01*
X124269333Y-86748952D01*
X124269333Y-86891809D01*
X124221714Y-87082285D01*
X124174095Y-87177523D01*
X124078857Y-87272761D01*
X123936000Y-87320380D01*
X123697904Y-87320380D01*
D11*
X139517428Y-74374214D02*
X139517428Y-73612309D01*
X139898380Y-73993261D02*
X139136476Y-73993261D01*
X138898380Y-72659928D02*
X138898380Y-73136119D01*
X139374571Y-73183738D01*
X139326952Y-73136119D01*
X139279333Y-73040880D01*
X139279333Y-72802785D01*
X139326952Y-72707547D01*
X139374571Y-72659928D01*
X139469809Y-72612309D01*
X139707904Y-72612309D01*
X139803142Y-72659928D01*
X139850761Y-72707547D01*
X139898380Y-72802785D01*
X139898380Y-73040880D01*
X139850761Y-73136119D01*
X139803142Y-73183738D01*
X138898380Y-72326595D02*
X139898380Y-71993261D01*
X138898380Y-71659928D01*
D10*
X139009500Y-77406404D02*
X138961880Y-77501642D01*
X138961880Y-77644500D01*
X139009500Y-77787357D01*
X139104738Y-77882595D01*
X139199976Y-77930214D01*
X139390452Y-77977833D01*
X139533309Y-77977833D01*
X139723785Y-77930214D01*
X139819023Y-77882595D01*
X139914261Y-77787357D01*
X139961880Y-77644500D01*
X139961880Y-77549261D01*
X139914261Y-77406404D01*
X139866642Y-77358785D01*
X139533309Y-77358785D01*
X139533309Y-77549261D01*
X139961880Y-76930214D02*
X138961880Y-76930214D01*
X139961880Y-76358785D01*
X138961880Y-76358785D01*
X139961880Y-75882595D02*
X138961880Y-75882595D01*
X138961880Y-75644500D01*
X139009500Y-75501642D01*
X139104738Y-75406404D01*
X139199976Y-75358785D01*
X139390452Y-75311166D01*
X139533309Y-75311166D01*
X139723785Y-75358785D01*
X139819023Y-75406404D01*
X139914261Y-75501642D01*
X139961880Y-75644500D01*
X139961880Y-75882595D01*
X140025380Y-67238500D02*
X139025380Y-67238500D01*
X139025380Y-67000404D01*
X139073000Y-66857547D01*
X139168238Y-66762309D01*
X139263476Y-66714690D01*
X139453952Y-66667071D01*
X139596809Y-66667071D01*
X139787285Y-66714690D01*
X139882523Y-66762309D01*
X139977761Y-66857547D01*
X140025380Y-67000404D01*
X140025380Y-67238500D01*
X140025380Y-66238500D02*
X139025380Y-66238500D01*
X139073000Y-64007904D02*
X139025380Y-64103142D01*
X139025380Y-64246000D01*
X139073000Y-64388857D01*
X139168238Y-64484095D01*
X139263476Y-64531714D01*
X139453952Y-64579333D01*
X139596809Y-64579333D01*
X139787285Y-64531714D01*
X139882523Y-64484095D01*
X139977761Y-64388857D01*
X140025380Y-64246000D01*
X140025380Y-64150761D01*
X139977761Y-64007904D01*
X139930142Y-63960285D01*
X139596809Y-63960285D01*
X139596809Y-64150761D01*
X140025380Y-63531714D02*
X139025380Y-63531714D01*
X140025380Y-62960285D01*
X139025380Y-62960285D01*
X140025380Y-62484095D02*
X139025380Y-62484095D01*
X139025380Y-62246000D01*
X139073000Y-62103142D01*
X139168238Y-62007904D01*
X139263476Y-61960285D01*
X139453952Y-61912666D01*
X139596809Y-61912666D01*
X139787285Y-61960285D01*
X139882523Y-62007904D01*
X139977761Y-62103142D01*
X140025380Y-62246000D01*
X140025380Y-62484095D01*
D11*
X139580928Y-60975714D02*
X139580928Y-60213809D01*
X139961880Y-60594761D02*
X139199976Y-60594761D01*
X138961880Y-59261428D02*
X138961880Y-59737619D01*
X139438071Y-59785238D01*
X139390452Y-59737619D01*
X139342833Y-59642380D01*
X139342833Y-59404285D01*
X139390452Y-59309047D01*
X139438071Y-59261428D01*
X139533309Y-59213809D01*
X139771404Y-59213809D01*
X139866642Y-59261428D01*
X139914261Y-59309047D01*
X139961880Y-59404285D01*
X139961880Y-59642380D01*
X139914261Y-59737619D01*
X139866642Y-59785238D01*
X138961880Y-58928095D02*
X139961880Y-58594761D01*
X138961880Y-58261428D01*
X97989047Y-89098380D02*
X97417619Y-89098380D01*
X97703333Y-89098380D02*
X97703333Y-88098380D01*
X97608095Y-88241238D01*
X97512857Y-88336476D01*
X97417619Y-88384095D01*
X98941428Y-89098380D02*
X98370000Y-89098380D01*
X98655714Y-89098380D02*
X98655714Y-88098380D01*
X98560476Y-88241238D01*
X98465238Y-88336476D01*
X98370000Y-88384095D01*
X100084285Y-88050761D02*
X99227142Y-89336476D01*
X100370000Y-88193619D02*
X100417619Y-88146000D01*
X100512857Y-88098380D01*
X100750952Y-88098380D01*
X100846190Y-88146000D01*
X100893809Y-88193619D01*
X100941428Y-88288857D01*
X100941428Y-88384095D01*
X100893809Y-88526952D01*
X100322380Y-89098380D01*
X100941428Y-89098380D01*
X101560476Y-88098380D02*
X101655714Y-88098380D01*
X101750952Y-88146000D01*
X101798571Y-88193619D01*
X101846190Y-88288857D01*
X101893809Y-88479333D01*
X101893809Y-88717428D01*
X101846190Y-88907904D01*
X101798571Y-89003142D01*
X101750952Y-89050761D01*
X101655714Y-89098380D01*
X101560476Y-89098380D01*
X101465238Y-89050761D01*
X101417619Y-89003142D01*
X101370000Y-88907904D01*
X101322380Y-88717428D01*
X101322380Y-88479333D01*
X101370000Y-88288857D01*
X101417619Y-88193619D01*
X101465238Y-88146000D01*
X101560476Y-88098380D01*
X102274761Y-88193619D02*
X102322380Y-88146000D01*
X102417619Y-88098380D01*
X102655714Y-88098380D01*
X102750952Y-88146000D01*
X102798571Y-88193619D01*
X102846190Y-88288857D01*
X102846190Y-88384095D01*
X102798571Y-88526952D01*
X102227142Y-89098380D01*
X102846190Y-89098380D01*
X103798571Y-89098380D02*
X103227142Y-89098380D01*
X103512857Y-89098380D02*
X103512857Y-88098380D01*
X103417619Y-88241238D01*
X103322380Y-88336476D01*
X103227142Y-88384095D01*
X105322380Y-88574571D02*
X105465238Y-88622190D01*
X105512857Y-88669809D01*
X105560476Y-88765047D01*
X105560476Y-88907904D01*
X105512857Y-89003142D01*
X105465238Y-89050761D01*
X105370000Y-89098380D01*
X104989047Y-89098380D01*
X104989047Y-88098380D01*
X105322380Y-88098380D01*
X105417619Y-88146000D01*
X105465238Y-88193619D01*
X105512857Y-88288857D01*
X105512857Y-88384095D01*
X105465238Y-88479333D01*
X105417619Y-88526952D01*
X105322380Y-88574571D01*
X104989047Y-88574571D01*
X105989047Y-88574571D02*
X106322380Y-88574571D01*
X106465238Y-89098380D02*
X105989047Y-89098380D01*
X105989047Y-88098380D01*
X106465238Y-88098380D01*
X106893809Y-89098380D02*
X106893809Y-88098380D01*
X107274761Y-88098380D01*
X107370000Y-88146000D01*
X107417619Y-88193619D01*
X107465238Y-88288857D01*
X107465238Y-88431714D01*
X107417619Y-88526952D01*
X107370000Y-88574571D01*
X107274761Y-88622190D01*
X106893809Y-88622190D01*
X107846190Y-88812666D02*
X108322380Y-88812666D01*
X107750952Y-89098380D02*
X108084285Y-88098380D01*
X108417619Y-89098380D01*
D12*
X97680071Y-90338285D02*
X97851499Y-90395428D01*
X97908642Y-90452571D01*
X97965785Y-90566857D01*
X97965785Y-90738285D01*
X97908642Y-90852571D01*
X97851499Y-90909714D01*
X97737214Y-90966857D01*
X97280071Y-90966857D01*
X97280071Y-89766857D01*
X97680071Y-89766857D01*
X97794357Y-89824000D01*
X97851499Y-89881142D01*
X97908642Y-89995428D01*
X97908642Y-90109714D01*
X97851499Y-90224000D01*
X97794357Y-90281142D01*
X97680071Y-90338285D01*
X97280071Y-90338285D01*
X98880071Y-90338285D02*
X99051499Y-90395428D01*
X99108642Y-90452571D01*
X99165785Y-90566857D01*
X99165785Y-90738285D01*
X99108642Y-90852571D01*
X99051499Y-90909714D01*
X98937214Y-90966857D01*
X98480071Y-90966857D01*
X98480071Y-89766857D01*
X98880071Y-89766857D01*
X98994357Y-89824000D01*
X99051499Y-89881142D01*
X99108642Y-89995428D01*
X99108642Y-90109714D01*
X99051499Y-90224000D01*
X98994357Y-90281142D01*
X98880071Y-90338285D01*
X98480071Y-90338285D01*
X100080071Y-90338285D02*
X100251499Y-90395428D01*
X100308642Y-90452571D01*
X100365785Y-90566857D01*
X100365785Y-90738285D01*
X100308642Y-90852571D01*
X100251499Y-90909714D01*
X100137214Y-90966857D01*
X99680071Y-90966857D01*
X99680071Y-89766857D01*
X100080071Y-89766857D01*
X100194357Y-89824000D01*
X100251499Y-89881142D01*
X100308642Y-89995428D01*
X100308642Y-90109714D01*
X100251499Y-90224000D01*
X100194357Y-90281142D01*
X100080071Y-90338285D01*
X99680071Y-90338285D01*
X101794357Y-90966857D02*
X101794357Y-89766857D01*
X102080071Y-89766857D01*
X102251499Y-89824000D01*
X102365785Y-89938285D01*
X102422928Y-90052571D01*
X102480071Y-90281142D01*
X102480071Y-90452571D01*
X102422928Y-90681142D01*
X102365785Y-90795428D01*
X102251499Y-90909714D01*
X102080071Y-90966857D01*
X101794357Y-90966857D01*
X102994357Y-90966857D02*
X102994357Y-90166857D01*
X102994357Y-89766857D02*
X102937214Y-89824000D01*
X102994357Y-89881142D01*
X103051499Y-89824000D01*
X102994357Y-89766857D01*
X102994357Y-89881142D01*
X103394357Y-90166857D02*
X103851499Y-90166857D01*
X103565785Y-90966857D02*
X103565785Y-89938285D01*
X103622928Y-89824000D01*
X103737214Y-89766857D01*
X103851499Y-89766857D01*
X104080071Y-90166857D02*
X104537214Y-90166857D01*
X104251499Y-90966857D02*
X104251499Y-89938285D01*
X104308642Y-89824000D01*
X104422928Y-89766857D01*
X104537214Y-89766857D01*
X105622928Y-90852571D02*
X105565785Y-90909714D01*
X105394357Y-90966857D01*
X105280071Y-90966857D01*
X105108642Y-90909714D01*
X104994357Y-90795428D01*
X104937214Y-90681142D01*
X104880071Y-90452571D01*
X104880071Y-90281142D01*
X104937214Y-90052571D01*
X104994357Y-89938285D01*
X105108642Y-89824000D01*
X105280071Y-89766857D01*
X105394357Y-89766857D01*
X105565785Y-89824000D01*
X105622928Y-89881142D01*
X106651499Y-90966857D02*
X106651499Y-90338285D01*
X106594357Y-90224000D01*
X106480071Y-90166857D01*
X106251499Y-90166857D01*
X106137214Y-90224000D01*
X106651499Y-90909714D02*
X106537214Y-90966857D01*
X106251499Y-90966857D01*
X106137214Y-90909714D01*
X106080071Y-90795428D01*
X106080071Y-90681142D01*
X106137214Y-90566857D01*
X106251499Y-90509714D01*
X106537214Y-90509714D01*
X106651499Y-90452571D01*
X107222928Y-90166857D02*
X107222928Y-91366857D01*
X107222928Y-90224000D02*
X107337214Y-90166857D01*
X107565785Y-90166857D01*
X107680071Y-90224000D01*
X107737214Y-90281142D01*
X107794357Y-90395428D01*
X107794357Y-90738285D01*
X107737214Y-90852571D01*
X107680071Y-90909714D01*
X107565785Y-90966857D01*
X107337214Y-90966857D01*
X107222928Y-90909714D01*
X108765785Y-90909714D02*
X108651499Y-90966857D01*
X108422928Y-90966857D01*
X108308642Y-90909714D01*
X108251499Y-90795428D01*
X108251499Y-90338285D01*
X108308642Y-90224000D01*
X108422928Y-90166857D01*
X108651499Y-90166857D01*
X108765785Y-90224000D01*
X108822928Y-90338285D01*
X108822928Y-90452571D01*
X108251499Y-90566857D01*
X110937214Y-90966857D02*
X110537214Y-90395428D01*
X110251499Y-90966857D02*
X110251499Y-89766857D01*
X110708642Y-89766857D01*
X110822928Y-89824000D01*
X110880071Y-89881142D01*
X110937214Y-89995428D01*
X110937214Y-90166857D01*
X110880071Y-90281142D01*
X110822928Y-90338285D01*
X110708642Y-90395428D01*
X110251499Y-90395428D01*
X111908642Y-90909714D02*
X111794357Y-90966857D01*
X111565785Y-90966857D01*
X111451499Y-90909714D01*
X111394357Y-90795428D01*
X111394357Y-90338285D01*
X111451499Y-90224000D01*
X111565785Y-90166857D01*
X111794357Y-90166857D01*
X111908642Y-90224000D01*
X111965785Y-90338285D01*
X111965785Y-90452571D01*
X111394357Y-90566857D01*
X112994357Y-90909714D02*
X112880071Y-90966857D01*
X112651499Y-90966857D01*
X112537214Y-90909714D01*
X112480071Y-90852571D01*
X112422928Y-90738285D01*
X112422928Y-90395428D01*
X112480071Y-90281142D01*
X112537214Y-90224000D01*
X112651499Y-90166857D01*
X112880071Y-90166857D01*
X112994357Y-90224000D01*
X113965785Y-90909714D02*
X113851500Y-90966857D01*
X113622928Y-90966857D01*
X113508642Y-90909714D01*
X113451500Y-90795428D01*
X113451500Y-90338285D01*
X113508642Y-90224000D01*
X113622928Y-90166857D01*
X113851500Y-90166857D01*
X113965785Y-90224000D01*
X114022928Y-90338285D01*
X114022928Y-90452571D01*
X113451500Y-90566857D01*
X114537214Y-90966857D02*
X114537214Y-90166857D01*
X114537214Y-89766857D02*
X114480071Y-89824000D01*
X114537214Y-89881142D01*
X114594357Y-89824000D01*
X114537214Y-89766857D01*
X114537214Y-89881142D01*
X114994357Y-90166857D02*
X115280071Y-90966857D01*
X115565785Y-90166857D01*
X116480071Y-90909714D02*
X116365785Y-90966857D01*
X116137214Y-90966857D01*
X116022928Y-90909714D01*
X115965785Y-90795428D01*
X115965785Y-90338285D01*
X116022928Y-90224000D01*
X116137214Y-90166857D01*
X116365785Y-90166857D01*
X116480071Y-90224000D01*
X116537214Y-90338285D01*
X116537214Y-90452571D01*
X115965785Y-90566857D01*
X117051500Y-90966857D02*
X117051500Y-90166857D01*
X117051500Y-90395428D02*
X117108642Y-90281142D01*
X117165785Y-90224000D01*
X117280071Y-90166857D01*
X117394357Y-90166857D01*
D13*
%TO.C,J8*%
X125666000Y-62238000D02*
X125166000Y-62738000D01*
X125666000Y-63238000D02*
X125666000Y-62238000D01*
X125166000Y-62738000D02*
X125666000Y-63238000D01*
X109366000Y-66528000D02*
X125086000Y-66528000D01*
X125086000Y-66528000D02*
X125086000Y-49788000D01*
X109356000Y-66528000D02*
X109356000Y-49788000D01*
X109356000Y-49788000D02*
X125086000Y-49788000D01*
%TO.C,J7*%
X108360000Y-57582000D02*
X106360000Y-57582000D01*
X108360000Y-56332000D02*
X108360000Y-57582000D01*
X100410000Y-50582000D02*
X101160000Y-50582000D01*
X100410000Y-54882000D02*
X100410000Y-50582000D01*
X101160000Y-54882000D02*
X100410000Y-54882000D01*
X101160000Y-55232000D02*
X101160000Y-54882000D01*
X100660000Y-55232000D02*
X101160000Y-55232000D01*
X100410000Y-56232000D02*
X100660000Y-55232000D01*
X103410000Y-56232000D02*
X100410000Y-56232000D01*
X103160000Y-55232000D02*
X103410000Y-56232000D01*
X102660000Y-55232000D02*
X103160000Y-55232000D01*
X102660000Y-54882000D02*
X102660000Y-55232000D01*
X103410000Y-54882000D02*
X102660000Y-54882000D01*
X103410000Y-50582000D02*
X103410000Y-54882000D01*
X102660000Y-50582000D02*
X103410000Y-50582000D01*
X103910000Y-50582000D02*
X104660000Y-50582000D01*
X103910000Y-54882000D02*
X103910000Y-50582000D01*
X104660000Y-54882000D02*
X103910000Y-54882000D01*
X104660000Y-55232000D02*
X104660000Y-54882000D01*
X104160000Y-55232000D02*
X104660000Y-55232000D01*
X103910000Y-56232000D02*
X104160000Y-55232000D01*
X106910000Y-56232000D02*
X103910000Y-56232000D01*
X106660000Y-55232000D02*
X106910000Y-56232000D01*
X106160000Y-55232000D02*
X106660000Y-55232000D01*
X106160000Y-54882000D02*
X106160000Y-55232000D01*
X106910000Y-54882000D02*
X106160000Y-54882000D01*
X106910000Y-50582000D02*
X106910000Y-54882000D01*
X106160000Y-50582000D02*
X106910000Y-50582000D01*
X99350000Y-57192000D02*
X107970000Y-57192000D01*
X99350000Y-49722000D02*
X99350000Y-57192000D01*
X107970000Y-49722000D02*
X99350000Y-49722000D01*
X107970000Y-57192000D02*
X107970000Y-49722000D01*
X101160353Y-50582155D02*
G75*
G03X102660000Y-50582000I749647J1700155D01*
G01*
X104660353Y-50582155D02*
G75*
G03X106160000Y-50582000I749647J1700155D01*
G01*
D10*
%TO.C,U1*%
X114597000Y-77201000D02*
X115997000Y-77201000D01*
X114597000Y-72101000D02*
X110447000Y-72101000D01*
X114597000Y-77251000D02*
X110447000Y-77251000D01*
X114597000Y-72101000D02*
X114597000Y-72246000D01*
X110447000Y-72101000D02*
X110447000Y-72246000D01*
X110447000Y-77251000D02*
X110447000Y-77106000D01*
X114597000Y-77251000D02*
X114597000Y-77201000D01*
D13*
%TO.C,R5*%
X127878721Y-67312000D02*
X128204279Y-67312000D01*
X127878721Y-66292000D02*
X128204279Y-66292000D01*
%TO.C,R4*%
X119517279Y-70610000D02*
X119191721Y-70610000D01*
X119517279Y-71630000D02*
X119191721Y-71630000D01*
%TO.C,R3*%
X103723221Y-79250000D02*
X104048779Y-79250000D01*
X103723221Y-78230000D02*
X104048779Y-78230000D01*
%TO.C,R2*%
X103723221Y-73662000D02*
X104048779Y-73662000D01*
X103723221Y-72642000D02*
X104048779Y-72642000D01*
%TO.C,R1*%
X100074000Y-75757721D02*
X100074000Y-76083279D01*
X101094000Y-75757721D02*
X101094000Y-76083279D01*
%TO.C,J6*%
X110882000Y-85668000D02*
X113382000Y-85668000D01*
X110882000Y-83168000D02*
X110882000Y-85668000D01*
X117902000Y-83868000D02*
X117902000Y-85368000D01*
X118902000Y-83868000D02*
X117902000Y-83868000D01*
X112182000Y-83868000D02*
X112182000Y-85368000D01*
X111182000Y-83868000D02*
X112182000Y-83868000D01*
X118402000Y-83058000D02*
X118902000Y-83058000D01*
X118402000Y-81848000D02*
X118402000Y-83058000D01*
X111682000Y-81848000D02*
X118402000Y-81848000D01*
X111682000Y-83058000D02*
X111682000Y-81848000D01*
X111182000Y-83058000D02*
X111682000Y-83058000D01*
X118902000Y-81348000D02*
X111182000Y-81348000D01*
X118902000Y-85368000D02*
X118902000Y-81348000D01*
X111182000Y-85368000D02*
X118902000Y-85368000D01*
X111182000Y-81348000D02*
X111182000Y-85368000D01*
%TO.C,J5*%
X138354000Y-56740000D02*
X138354000Y-58740000D01*
X137104000Y-56740000D02*
X138354000Y-56740000D01*
X131354000Y-68190000D02*
X131354000Y-67440000D01*
X135654000Y-68190000D02*
X131354000Y-68190000D01*
X135654000Y-67440000D02*
X135654000Y-68190000D01*
X136004000Y-67440000D02*
X135654000Y-67440000D01*
X136004000Y-67940000D02*
X136004000Y-67440000D01*
X137004000Y-68190000D02*
X136004000Y-67940000D01*
X137004000Y-65190000D02*
X137004000Y-68190000D01*
X136004000Y-65440000D02*
X137004000Y-65190000D01*
X136004000Y-65940000D02*
X136004000Y-65440000D01*
X135654000Y-65940000D02*
X136004000Y-65940000D01*
X135654000Y-65190000D02*
X135654000Y-65940000D01*
X131354000Y-65190000D02*
X135654000Y-65190000D01*
X131354000Y-65940000D02*
X131354000Y-65190000D01*
X131354000Y-64690000D02*
X131354000Y-63940000D01*
X135654000Y-64690000D02*
X131354000Y-64690000D01*
X135654000Y-63940000D02*
X135654000Y-64690000D01*
X136004000Y-63940000D02*
X135654000Y-63940000D01*
X136004000Y-64440000D02*
X136004000Y-63940000D01*
X137004000Y-64690000D02*
X136004000Y-64440000D01*
X137004000Y-61690000D02*
X137004000Y-64690000D01*
X136004000Y-61940000D02*
X137004000Y-61690000D01*
X136004000Y-62440000D02*
X136004000Y-61940000D01*
X135654000Y-62440000D02*
X136004000Y-62440000D01*
X135654000Y-61690000D02*
X135654000Y-62440000D01*
X131354000Y-61690000D02*
X135654000Y-61690000D01*
X131354000Y-62440000D02*
X131354000Y-61690000D01*
X131354000Y-61190000D02*
X131354000Y-60440000D01*
X135654000Y-61190000D02*
X131354000Y-61190000D01*
X135654000Y-60440000D02*
X135654000Y-61190000D01*
X136004000Y-60440000D02*
X135654000Y-60440000D01*
X136004000Y-60940000D02*
X136004000Y-60440000D01*
X137004000Y-61190000D02*
X136004000Y-60940000D01*
X137004000Y-58190000D02*
X137004000Y-61190000D01*
X136004000Y-58440000D02*
X137004000Y-58190000D01*
X136004000Y-58940000D02*
X136004000Y-58440000D01*
X135654000Y-58940000D02*
X136004000Y-58940000D01*
X135654000Y-58190000D02*
X135654000Y-58940000D01*
X131354000Y-58190000D02*
X135654000Y-58190000D01*
X131354000Y-58940000D02*
X131354000Y-58190000D01*
X137964000Y-69250000D02*
X137964000Y-57130000D01*
X130494000Y-69250000D02*
X137964000Y-69250000D01*
X130494000Y-57130000D02*
X130494000Y-69250000D01*
X137964000Y-57130000D02*
X130494000Y-57130000D01*
X131354155Y-67439647D02*
G75*
G03X131354000Y-65940000I-1700155J749647D01*
G01*
X131354155Y-63939647D02*
G75*
G03X131354000Y-62440000I-1700155J749647D01*
G01*
X131354155Y-60439647D02*
G75*
G03X131354000Y-58940000I-1700155J749647D01*
G01*
%TO.C,J4*%
X138354000Y-70202000D02*
X138354000Y-72202000D01*
X137104000Y-70202000D02*
X138354000Y-70202000D01*
X131354000Y-78152000D02*
X131354000Y-77402000D01*
X135654000Y-78152000D02*
X131354000Y-78152000D01*
X135654000Y-77402000D02*
X135654000Y-78152000D01*
X136004000Y-77402000D02*
X135654000Y-77402000D01*
X136004000Y-77902000D02*
X136004000Y-77402000D01*
X137004000Y-78152000D02*
X136004000Y-77902000D01*
X137004000Y-75152000D02*
X137004000Y-78152000D01*
X136004000Y-75402000D02*
X137004000Y-75152000D01*
X136004000Y-75902000D02*
X136004000Y-75402000D01*
X135654000Y-75902000D02*
X136004000Y-75902000D01*
X135654000Y-75152000D02*
X135654000Y-75902000D01*
X131354000Y-75152000D02*
X135654000Y-75152000D01*
X131354000Y-75902000D02*
X131354000Y-75152000D01*
X131354000Y-74652000D02*
X131354000Y-73902000D01*
X135654000Y-74652000D02*
X131354000Y-74652000D01*
X135654000Y-73902000D02*
X135654000Y-74652000D01*
X136004000Y-73902000D02*
X135654000Y-73902000D01*
X136004000Y-74402000D02*
X136004000Y-73902000D01*
X137004000Y-74652000D02*
X136004000Y-74402000D01*
X137004000Y-71652000D02*
X137004000Y-74652000D01*
X136004000Y-71902000D02*
X137004000Y-71652000D01*
X136004000Y-72402000D02*
X136004000Y-71902000D01*
X135654000Y-72402000D02*
X136004000Y-72402000D01*
X135654000Y-71652000D02*
X135654000Y-72402000D01*
X131354000Y-71652000D02*
X135654000Y-71652000D01*
X131354000Y-72402000D02*
X131354000Y-71652000D01*
X137964000Y-79212000D02*
X137964000Y-70592000D01*
X130494000Y-79212000D02*
X137964000Y-79212000D01*
X130494000Y-70592000D02*
X130494000Y-79212000D01*
X137964000Y-70592000D02*
X130494000Y-70592000D01*
X131354155Y-77401647D02*
G75*
G03X131354000Y-75902000I-1700155J749647D01*
G01*
X131354155Y-73901647D02*
G75*
G03X131354000Y-72402000I-1700155J749647D01*
G01*
%TO.C,J3*%
X129442000Y-85776000D02*
X127442000Y-85776000D01*
X129442000Y-84526000D02*
X129442000Y-85776000D01*
X121492000Y-78776000D02*
X122242000Y-78776000D01*
X121492000Y-83076000D02*
X121492000Y-78776000D01*
X122242000Y-83076000D02*
X121492000Y-83076000D01*
X122242000Y-83426000D02*
X122242000Y-83076000D01*
X121742000Y-83426000D02*
X122242000Y-83426000D01*
X121492000Y-84426000D02*
X121742000Y-83426000D01*
X124492000Y-84426000D02*
X121492000Y-84426000D01*
X124242000Y-83426000D02*
X124492000Y-84426000D01*
X123742000Y-83426000D02*
X124242000Y-83426000D01*
X123742000Y-83076000D02*
X123742000Y-83426000D01*
X124492000Y-83076000D02*
X123742000Y-83076000D01*
X124492000Y-78776000D02*
X124492000Y-83076000D01*
X123742000Y-78776000D02*
X124492000Y-78776000D01*
X124992000Y-78776000D02*
X125742000Y-78776000D01*
X124992000Y-83076000D02*
X124992000Y-78776000D01*
X125742000Y-83076000D02*
X124992000Y-83076000D01*
X125742000Y-83426000D02*
X125742000Y-83076000D01*
X125242000Y-83426000D02*
X125742000Y-83426000D01*
X124992000Y-84426000D02*
X125242000Y-83426000D01*
X127992000Y-84426000D02*
X124992000Y-84426000D01*
X127742000Y-83426000D02*
X127992000Y-84426000D01*
X127242000Y-83426000D02*
X127742000Y-83426000D01*
X127242000Y-83076000D02*
X127242000Y-83426000D01*
X127992000Y-83076000D02*
X127242000Y-83076000D01*
X127992000Y-78776000D02*
X127992000Y-83076000D01*
X127242000Y-78776000D02*
X127992000Y-78776000D01*
X120432000Y-85386000D02*
X129052000Y-85386000D01*
X120432000Y-77916000D02*
X120432000Y-85386000D01*
X129052000Y-77916000D02*
X120432000Y-77916000D01*
X129052000Y-85386000D02*
X129052000Y-77916000D01*
X122242353Y-78776155D02*
G75*
G03X123742000Y-78776000I749647J1700155D01*
G01*
X125742353Y-78776155D02*
G75*
G03X127242000Y-78776000I749647J1700155D01*
G01*
%TO.C,J2*%
X99492000Y-72234000D02*
X99492000Y-74234000D01*
X98242000Y-72234000D02*
X99492000Y-72234000D01*
X92492000Y-83684000D02*
X92492000Y-82934000D01*
X96792000Y-83684000D02*
X92492000Y-83684000D01*
X96792000Y-82934000D02*
X96792000Y-83684000D01*
X97142000Y-82934000D02*
X96792000Y-82934000D01*
X97142000Y-83434000D02*
X97142000Y-82934000D01*
X98142000Y-83684000D02*
X97142000Y-83434000D01*
X98142000Y-80684000D02*
X98142000Y-83684000D01*
X97142000Y-80934000D02*
X98142000Y-80684000D01*
X97142000Y-81434000D02*
X97142000Y-80934000D01*
X96792000Y-81434000D02*
X97142000Y-81434000D01*
X96792000Y-80684000D02*
X96792000Y-81434000D01*
X92492000Y-80684000D02*
X96792000Y-80684000D01*
X92492000Y-81434000D02*
X92492000Y-80684000D01*
X92492000Y-80184000D02*
X92492000Y-79434000D01*
X96792000Y-80184000D02*
X92492000Y-80184000D01*
X96792000Y-79434000D02*
X96792000Y-80184000D01*
X97142000Y-79434000D02*
X96792000Y-79434000D01*
X97142000Y-79934000D02*
X97142000Y-79434000D01*
X98142000Y-80184000D02*
X97142000Y-79934000D01*
X98142000Y-77184000D02*
X98142000Y-80184000D01*
X97142000Y-77434000D02*
X98142000Y-77184000D01*
X97142000Y-77934000D02*
X97142000Y-77434000D01*
X96792000Y-77934000D02*
X97142000Y-77934000D01*
X96792000Y-77184000D02*
X96792000Y-77934000D01*
X92492000Y-77184000D02*
X96792000Y-77184000D01*
X92492000Y-77934000D02*
X92492000Y-77184000D01*
X92492000Y-76684000D02*
X92492000Y-75934000D01*
X96792000Y-76684000D02*
X92492000Y-76684000D01*
X96792000Y-75934000D02*
X96792000Y-76684000D01*
X97142000Y-75934000D02*
X96792000Y-75934000D01*
X97142000Y-76434000D02*
X97142000Y-75934000D01*
X98142000Y-76684000D02*
X97142000Y-76434000D01*
X98142000Y-73684000D02*
X98142000Y-76684000D01*
X97142000Y-73934000D02*
X98142000Y-73684000D01*
X97142000Y-74434000D02*
X97142000Y-73934000D01*
X96792000Y-74434000D02*
X97142000Y-74434000D01*
X96792000Y-73684000D02*
X96792000Y-74434000D01*
X92492000Y-73684000D02*
X96792000Y-73684000D01*
X92492000Y-74434000D02*
X92492000Y-73684000D01*
X99102000Y-84744000D02*
X99102000Y-72624000D01*
X91632000Y-84744000D02*
X99102000Y-84744000D01*
X91632000Y-72624000D02*
X91632000Y-84744000D01*
X99102000Y-72624000D02*
X91632000Y-72624000D01*
X92492155Y-82933647D02*
G75*
G03X92492000Y-81434000I-1700155J749647D01*
G01*
X92492155Y-79433647D02*
G75*
G03X92492000Y-77934000I-1700155J749647D01*
G01*
X92492155Y-75933647D02*
G75*
G03X92492000Y-74434000I-1700155J749647D01*
G01*
%TO.C,J1*%
X99492000Y-62582000D02*
X99492000Y-64582000D01*
X98242000Y-62582000D02*
X99492000Y-62582000D01*
X92492000Y-70532000D02*
X92492000Y-69782000D01*
X96792000Y-70532000D02*
X92492000Y-70532000D01*
X96792000Y-69782000D02*
X96792000Y-70532000D01*
X97142000Y-69782000D02*
X96792000Y-69782000D01*
X97142000Y-70282000D02*
X97142000Y-69782000D01*
X98142000Y-70532000D02*
X97142000Y-70282000D01*
X98142000Y-67532000D02*
X98142000Y-70532000D01*
X97142000Y-67782000D02*
X98142000Y-67532000D01*
X97142000Y-68282000D02*
X97142000Y-67782000D01*
X96792000Y-68282000D02*
X97142000Y-68282000D01*
X96792000Y-67532000D02*
X96792000Y-68282000D01*
X92492000Y-67532000D02*
X96792000Y-67532000D01*
X92492000Y-68282000D02*
X92492000Y-67532000D01*
X92492000Y-67032000D02*
X92492000Y-66282000D01*
X96792000Y-67032000D02*
X92492000Y-67032000D01*
X96792000Y-66282000D02*
X96792000Y-67032000D01*
X97142000Y-66282000D02*
X96792000Y-66282000D01*
X97142000Y-66782000D02*
X97142000Y-66282000D01*
X98142000Y-67032000D02*
X97142000Y-66782000D01*
X98142000Y-64032000D02*
X98142000Y-67032000D01*
X97142000Y-64282000D02*
X98142000Y-64032000D01*
X97142000Y-64782000D02*
X97142000Y-64282000D01*
X96792000Y-64782000D02*
X97142000Y-64782000D01*
X96792000Y-64032000D02*
X96792000Y-64782000D01*
X92492000Y-64032000D02*
X96792000Y-64032000D01*
X92492000Y-64782000D02*
X92492000Y-64032000D01*
X99102000Y-71592000D02*
X99102000Y-62972000D01*
X91632000Y-71592000D02*
X99102000Y-71592000D01*
X91632000Y-62972000D02*
X91632000Y-71592000D01*
X99102000Y-62972000D02*
X91632000Y-62972000D01*
X92492155Y-69781647D02*
G75*
G03X92492000Y-68282000I-1700155J749647D01*
G01*
X92492155Y-66281647D02*
G75*
G03X92492000Y-64782000I-1700155J749647D01*
G01*
%TO.C,F1*%
X97676000Y-61944000D02*
X94476000Y-61944000D01*
X94476000Y-57944000D02*
X97676000Y-57944000D01*
X96826000Y-59944000D02*
X95226000Y-59944000D01*
%TO.C,D2*%
X123671000Y-74637000D02*
X123671000Y-72352000D01*
X122201000Y-74637000D02*
X123671000Y-74637000D01*
X122201000Y-72352000D02*
X122201000Y-74637000D01*
%TO.C,D1*%
X104646000Y-77526000D02*
X103186000Y-77526000D01*
X104646000Y-74366000D02*
X102486000Y-74366000D01*
X104646000Y-74366000D02*
X104646000Y-75296000D01*
X104646000Y-77526000D02*
X104646000Y-76596000D01*
%TO.C,C4*%
X112613221Y-71630000D02*
X112938779Y-71630000D01*
X112613221Y-70610000D02*
X112938779Y-70610000D01*
%TO.C,C3*%
X105916000Y-65369221D02*
X105916000Y-65694779D01*
X106936000Y-65369221D02*
X106936000Y-65694779D01*
%TO.C,C2*%
X103484000Y-64167936D02*
X103484000Y-65372064D01*
X105304000Y-64167936D02*
X105304000Y-65372064D01*
%TO.C,C1*%
X100944000Y-64167936D02*
X100944000Y-65372064D01*
X102764000Y-64167936D02*
X102764000Y-65372064D01*
%TO.C,J8*%
D10*
X123110666Y-67778380D02*
X123110666Y-68492666D01*
X123063047Y-68635523D01*
X122967809Y-68730761D01*
X122824952Y-68778380D01*
X122729714Y-68778380D01*
X123729714Y-68206952D02*
X123634476Y-68159333D01*
X123586857Y-68111714D01*
X123539238Y-68016476D01*
X123539238Y-67968857D01*
X123586857Y-67873619D01*
X123634476Y-67826000D01*
X123729714Y-67778380D01*
X123920190Y-67778380D01*
X124015428Y-67826000D01*
X124063047Y-67873619D01*
X124110666Y-67968857D01*
X124110666Y-68016476D01*
X124063047Y-68111714D01*
X124015428Y-68159333D01*
X123920190Y-68206952D01*
X123729714Y-68206952D01*
X123634476Y-68254571D01*
X123586857Y-68302190D01*
X123539238Y-68397428D01*
X123539238Y-68587904D01*
X123586857Y-68683142D01*
X123634476Y-68730761D01*
X123729714Y-68778380D01*
X123920190Y-68778380D01*
X124015428Y-68730761D01*
X124063047Y-68683142D01*
X124110666Y-68587904D01*
X124110666Y-68397428D01*
X124063047Y-68302190D01*
X124015428Y-68254571D01*
X123920190Y-68206952D01*
%TO.C,J7*%
X97710666Y-56094380D02*
X97710666Y-56808666D01*
X97663047Y-56951523D01*
X97567809Y-57046761D01*
X97424952Y-57094380D01*
X97329714Y-57094380D01*
X98091619Y-56094380D02*
X98758285Y-56094380D01*
X98329714Y-57094380D01*
%TO.C,U1*%
X111760095Y-77628380D02*
X111760095Y-78437904D01*
X111807714Y-78533142D01*
X111855333Y-78580761D01*
X111950571Y-78628380D01*
X112141047Y-78628380D01*
X112236285Y-78580761D01*
X112283904Y-78533142D01*
X112331523Y-78437904D01*
X112331523Y-77628380D01*
X113331523Y-78628380D02*
X112760095Y-78628380D01*
X113045809Y-78628380D02*
X113045809Y-77628380D01*
X112950571Y-77771238D01*
X112855333Y-77866476D01*
X112760095Y-77914095D01*
%TO.C,R5*%
X127874833Y-65824380D02*
X127541500Y-65348190D01*
X127303404Y-65824380D02*
X127303404Y-64824380D01*
X127684357Y-64824380D01*
X127779595Y-64872000D01*
X127827214Y-64919619D01*
X127874833Y-65014857D01*
X127874833Y-65157714D01*
X127827214Y-65252952D01*
X127779595Y-65300571D01*
X127684357Y-65348190D01*
X127303404Y-65348190D01*
X128779595Y-64824380D02*
X128303404Y-64824380D01*
X128255785Y-65300571D01*
X128303404Y-65252952D01*
X128398642Y-65205333D01*
X128636738Y-65205333D01*
X128731976Y-65252952D01*
X128779595Y-65300571D01*
X128827214Y-65395809D01*
X128827214Y-65633904D01*
X128779595Y-65729142D01*
X128731976Y-65776761D01*
X128636738Y-65824380D01*
X128398642Y-65824380D01*
X128303404Y-65776761D01*
X128255785Y-65729142D01*
%TO.C,R4*%
X119187833Y-73002380D02*
X118854500Y-72526190D01*
X118616404Y-73002380D02*
X118616404Y-72002380D01*
X118997357Y-72002380D01*
X119092595Y-72050000D01*
X119140214Y-72097619D01*
X119187833Y-72192857D01*
X119187833Y-72335714D01*
X119140214Y-72430952D01*
X119092595Y-72478571D01*
X118997357Y-72526190D01*
X118616404Y-72526190D01*
X120044976Y-72335714D02*
X120044976Y-73002380D01*
X119806880Y-71954761D02*
X119568785Y-72669047D01*
X120187833Y-72669047D01*
%TO.C,R3*%
X103719333Y-80970380D02*
X103386000Y-80494190D01*
X103147904Y-80970380D02*
X103147904Y-79970380D01*
X103528857Y-79970380D01*
X103624095Y-80018000D01*
X103671714Y-80065619D01*
X103719333Y-80160857D01*
X103719333Y-80303714D01*
X103671714Y-80398952D01*
X103624095Y-80446571D01*
X103528857Y-80494190D01*
X103147904Y-80494190D01*
X104052666Y-79970380D02*
X104671714Y-79970380D01*
X104338380Y-80351333D01*
X104481238Y-80351333D01*
X104576476Y-80398952D01*
X104624095Y-80446571D01*
X104671714Y-80541809D01*
X104671714Y-80779904D01*
X104624095Y-80875142D01*
X104576476Y-80922761D01*
X104481238Y-80970380D01*
X104195523Y-80970380D01*
X104100285Y-80922761D01*
X104052666Y-80875142D01*
%TO.C,R2*%
X103719333Y-72174380D02*
X103386000Y-71698190D01*
X103147904Y-72174380D02*
X103147904Y-71174380D01*
X103528857Y-71174380D01*
X103624095Y-71222000D01*
X103671714Y-71269619D01*
X103719333Y-71364857D01*
X103719333Y-71507714D01*
X103671714Y-71602952D01*
X103624095Y-71650571D01*
X103528857Y-71698190D01*
X103147904Y-71698190D01*
X104100285Y-71269619D02*
X104147904Y-71222000D01*
X104243142Y-71174380D01*
X104481238Y-71174380D01*
X104576476Y-71222000D01*
X104624095Y-71269619D01*
X104671714Y-71364857D01*
X104671714Y-71460095D01*
X104624095Y-71602952D01*
X104052666Y-72174380D01*
X104671714Y-72174380D01*
%TO.C,R1*%
X101036380Y-73801166D02*
X100560190Y-74134500D01*
X101036380Y-74372595D02*
X100036380Y-74372595D01*
X100036380Y-73991642D01*
X100084000Y-73896404D01*
X100131619Y-73848785D01*
X100226857Y-73801166D01*
X100369714Y-73801166D01*
X100464952Y-73848785D01*
X100512571Y-73896404D01*
X100560190Y-73991642D01*
X100560190Y-74372595D01*
X101036380Y-72848785D02*
X101036380Y-73420214D01*
X101036380Y-73134500D02*
X100036380Y-73134500D01*
X100179238Y-73229738D01*
X100274476Y-73324976D01*
X100322095Y-73420214D01*
%TO.C,J6*%
X114708666Y-79710380D02*
X114708666Y-80424666D01*
X114661047Y-80567523D01*
X114565809Y-80662761D01*
X114422952Y-80710380D01*
X114327714Y-80710380D01*
X115613428Y-79710380D02*
X115422952Y-79710380D01*
X115327714Y-79758000D01*
X115280095Y-79805619D01*
X115184857Y-79948476D01*
X115137238Y-80138952D01*
X115137238Y-80519904D01*
X115184857Y-80615142D01*
X115232476Y-80662761D01*
X115327714Y-80710380D01*
X115518190Y-80710380D01*
X115613428Y-80662761D01*
X115661047Y-80615142D01*
X115708666Y-80519904D01*
X115708666Y-80281809D01*
X115661047Y-80186571D01*
X115613428Y-80138952D01*
X115518190Y-80091333D01*
X115327714Y-80091333D01*
X115232476Y-80138952D01*
X115184857Y-80186571D01*
X115137238Y-80281809D01*
%TO.C,J5*%
X128484380Y-60150333D02*
X129198666Y-60150333D01*
X129341523Y-60197952D01*
X129436761Y-60293190D01*
X129484380Y-60436047D01*
X129484380Y-60531285D01*
X128484380Y-59197952D02*
X128484380Y-59674142D01*
X128960571Y-59721761D01*
X128912952Y-59674142D01*
X128865333Y-59578904D01*
X128865333Y-59340809D01*
X128912952Y-59245571D01*
X128960571Y-59197952D01*
X129055809Y-59150333D01*
X129293904Y-59150333D01*
X129389142Y-59197952D01*
X129436761Y-59245571D01*
X129484380Y-59340809D01*
X129484380Y-59578904D01*
X129436761Y-59674142D01*
X129389142Y-59721761D01*
%TO.C,J4*%
X128674880Y-72850333D02*
X129389166Y-72850333D01*
X129532023Y-72897952D01*
X129627261Y-72993190D01*
X129674880Y-73136047D01*
X129674880Y-73231285D01*
X129008214Y-71945571D02*
X129674880Y-71945571D01*
X128627261Y-72183666D02*
X129341547Y-72421761D01*
X129341547Y-71802714D01*
%TO.C,J3*%
X120507166Y-76096880D02*
X120507166Y-76811166D01*
X120459547Y-76954023D01*
X120364309Y-77049261D01*
X120221452Y-77096880D01*
X120126214Y-77096880D01*
X120888119Y-76096880D02*
X121507166Y-76096880D01*
X121173833Y-76477833D01*
X121316690Y-76477833D01*
X121411928Y-76525452D01*
X121459547Y-76573071D01*
X121507166Y-76668309D01*
X121507166Y-76906404D01*
X121459547Y-77001642D01*
X121411928Y-77049261D01*
X121316690Y-77096880D01*
X121030976Y-77096880D01*
X120935738Y-77049261D01*
X120888119Y-77001642D01*
%TO.C,J2*%
X99644380Y-79017333D02*
X100358666Y-79017333D01*
X100501523Y-79064952D01*
X100596761Y-79160190D01*
X100644380Y-79303047D01*
X100644380Y-79398285D01*
X99739619Y-78588761D02*
X99692000Y-78541142D01*
X99644380Y-78445904D01*
X99644380Y-78207809D01*
X99692000Y-78112571D01*
X99739619Y-78064952D01*
X99834857Y-78017333D01*
X99930095Y-78017333D01*
X100072952Y-78064952D01*
X100644380Y-78636380D01*
X100644380Y-78017333D01*
%TO.C,J1*%
X99644380Y-67615333D02*
X100358666Y-67615333D01*
X100501523Y-67662952D01*
X100596761Y-67758190D01*
X100644380Y-67901047D01*
X100644380Y-67996285D01*
X100644380Y-66615333D02*
X100644380Y-67186761D01*
X100644380Y-66901047D02*
X99644380Y-66901047D01*
X99787238Y-66996285D01*
X99882476Y-67091523D01*
X99930095Y-67186761D01*
%TO.C,F1*%
X103806666Y-60126571D02*
X103473333Y-60126571D01*
X103473333Y-60650380D02*
X103473333Y-59650380D01*
X103949523Y-59650380D01*
X104854285Y-60650380D02*
X104282857Y-60650380D01*
X104568571Y-60650380D02*
X104568571Y-59650380D01*
X104473333Y-59793238D01*
X104378095Y-59888476D01*
X104282857Y-59936095D01*
%TO.C,D2*%
X121958380Y-73890095D02*
X120958380Y-73890095D01*
X120958380Y-73652000D01*
X121006000Y-73509142D01*
X121101238Y-73413904D01*
X121196476Y-73366285D01*
X121386952Y-73318666D01*
X121529809Y-73318666D01*
X121720285Y-73366285D01*
X121815523Y-73413904D01*
X121910761Y-73509142D01*
X121958380Y-73652000D01*
X121958380Y-73890095D01*
X121053619Y-72937714D02*
X121006000Y-72890095D01*
X120958380Y-72794857D01*
X120958380Y-72556761D01*
X121006000Y-72461523D01*
X121053619Y-72413904D01*
X121148857Y-72366285D01*
X121244095Y-72366285D01*
X121386952Y-72413904D01*
X121958380Y-72985333D01*
X121958380Y-72366285D01*
%TO.C,D1*%
X105687904Y-74874380D02*
X105687904Y-73874380D01*
X105926000Y-73874380D01*
X106068857Y-73922000D01*
X106164095Y-74017238D01*
X106211714Y-74112476D01*
X106259333Y-74302952D01*
X106259333Y-74445809D01*
X106211714Y-74636285D01*
X106164095Y-74731523D01*
X106068857Y-74826761D01*
X105926000Y-74874380D01*
X105687904Y-74874380D01*
X107211714Y-74874380D02*
X106640285Y-74874380D01*
X106926000Y-74874380D02*
X106926000Y-73874380D01*
X106830761Y-74017238D01*
X106735523Y-74112476D01*
X106640285Y-74160095D01*
%TO.C,C4*%
X110069333Y-71477142D02*
X110021714Y-71524761D01*
X109878857Y-71572380D01*
X109783619Y-71572380D01*
X109640761Y-71524761D01*
X109545523Y-71429523D01*
X109497904Y-71334285D01*
X109450285Y-71143809D01*
X109450285Y-71000952D01*
X109497904Y-70810476D01*
X109545523Y-70715238D01*
X109640761Y-70620000D01*
X109783619Y-70572380D01*
X109878857Y-70572380D01*
X110021714Y-70620000D01*
X110069333Y-70667619D01*
X110926476Y-70905714D02*
X110926476Y-71572380D01*
X110688380Y-70524761D02*
X110450285Y-71239047D01*
X111069333Y-71239047D01*
%TO.C,C3*%
X108213142Y-65698666D02*
X108260761Y-65746285D01*
X108308380Y-65889142D01*
X108308380Y-65984380D01*
X108260761Y-66127238D01*
X108165523Y-66222476D01*
X108070285Y-66270095D01*
X107879809Y-66317714D01*
X107736952Y-66317714D01*
X107546476Y-66270095D01*
X107451238Y-66222476D01*
X107356000Y-66127238D01*
X107308380Y-65984380D01*
X107308380Y-65889142D01*
X107356000Y-65746285D01*
X107403619Y-65698666D01*
X107308380Y-65365333D02*
X107308380Y-64746285D01*
X107689333Y-65079619D01*
X107689333Y-64936761D01*
X107736952Y-64841523D01*
X107784571Y-64793904D01*
X107879809Y-64746285D01*
X108117904Y-64746285D01*
X108213142Y-64793904D01*
X108260761Y-64841523D01*
X108308380Y-64936761D01*
X108308380Y-65222476D01*
X108260761Y-65317714D01*
X108213142Y-65365333D01*
%TO.C,C2*%
X104481333Y-68175142D02*
X104433714Y-68222761D01*
X104290857Y-68270380D01*
X104195619Y-68270380D01*
X104052761Y-68222761D01*
X103957523Y-68127523D01*
X103909904Y-68032285D01*
X103862285Y-67841809D01*
X103862285Y-67698952D01*
X103909904Y-67508476D01*
X103957523Y-67413238D01*
X104052761Y-67318000D01*
X104195619Y-67270380D01*
X104290857Y-67270380D01*
X104433714Y-67318000D01*
X104481333Y-67365619D01*
X104862285Y-67365619D02*
X104909904Y-67318000D01*
X105005142Y-67270380D01*
X105243238Y-67270380D01*
X105338476Y-67318000D01*
X105386095Y-67365619D01*
X105433714Y-67460857D01*
X105433714Y-67556095D01*
X105386095Y-67698952D01*
X104814666Y-68270380D01*
X105433714Y-68270380D01*
%TO.C,C1*%
X100433142Y-64936666D02*
X100480761Y-64984285D01*
X100528380Y-65127142D01*
X100528380Y-65222380D01*
X100480761Y-65365238D01*
X100385523Y-65460476D01*
X100290285Y-65508095D01*
X100099809Y-65555714D01*
X99956952Y-65555714D01*
X99766476Y-65508095D01*
X99671238Y-65460476D01*
X99576000Y-65365238D01*
X99528380Y-65222380D01*
X99528380Y-65127142D01*
X99576000Y-64984285D01*
X99623619Y-64936666D01*
X100528380Y-63984285D02*
X100528380Y-64555714D01*
X100528380Y-64270000D02*
X99528380Y-64270000D01*
X99671238Y-64365238D01*
X99766476Y-64460476D01*
X99814095Y-64555714D01*
%TD*%
M02*
