%TF.GenerationSoftware,KiCad,Pcbnew,(5.1.4)-1*%
%TF.CreationDate,2021-10-25T09:14:50+02:00*%
%TF.ProjectId,bbb-diffcape,6262622d-6469-4666-9663-6170652e6b69,rev?*%
%TF.SameCoordinates,Original*%
%TF.FileFunction,Soldermask,Bot*%
%TF.FilePolarity,Negative*%
%FSLAX46Y46*%
G04 Gerber Fmt 4.6, Leading zero omitted, Abs format (unit mm)*
G04 Created by KiCad (PCBNEW (5.1.4)-1) date 2021-10-25 09:14:50*
%MOMM*%
%LPD*%
G04 APERTURE LIST*
%ADD10R,1.727200X1.727200*%
%ADD11O,1.727200X1.727200*%
%ADD12O,5.300000X3.800000*%
%ADD13O,5.500000X3.800000*%
%ADD14O,3.600000X1.800000*%
%ADD15C,0.100000*%
%ADD16C,1.800000*%
%ADD17O,1.800000X3.600000*%
%ADD18O,2.000000X1.600000*%
%ADD19C,2.600000*%
G04 APERTURE END LIST*
D10*
%TO.C,P8*%
X164630100Y-62382400D03*
D11*
X167170100Y-62382400D03*
X164630100Y-64922400D03*
X167170100Y-64922400D03*
X164630100Y-67462400D03*
X167170100Y-67462400D03*
X164630100Y-70002400D03*
X167170100Y-70002400D03*
X164630100Y-72542400D03*
X167170100Y-72542400D03*
X164630100Y-75082400D03*
X167170100Y-75082400D03*
X164630100Y-77622400D03*
X167170100Y-77622400D03*
X164630100Y-80162400D03*
X167170100Y-80162400D03*
X164630100Y-82702400D03*
X167170100Y-82702400D03*
X164630100Y-85242400D03*
X167170100Y-85242400D03*
X164630100Y-87782400D03*
X167170100Y-87782400D03*
X164630100Y-90322400D03*
X167170100Y-90322400D03*
X164630100Y-92862400D03*
X167170100Y-92862400D03*
X164630100Y-95402400D03*
X167170100Y-95402400D03*
X164630100Y-97942400D03*
X167170100Y-97942400D03*
X164630100Y-100482400D03*
X167170100Y-100482400D03*
X164630100Y-103022400D03*
X167170100Y-103022400D03*
X164630100Y-105562400D03*
X167170100Y-105562400D03*
X164630100Y-108102400D03*
X167170100Y-108102400D03*
X164630100Y-110642400D03*
X167170100Y-110642400D03*
X164630100Y-113182400D03*
X167170100Y-113182400D03*
X164630100Y-115722400D03*
X167170100Y-115722400D03*
X164630100Y-118262400D03*
X167170100Y-118262400D03*
%TD*%
D12*
%TO.C,F1*%
X126656100Y-55778400D03*
D13*
X118656100Y-55778400D03*
%TD*%
D14*
%TO.C,J9*%
X138214100Y-73868400D03*
X138214100Y-77368400D03*
D15*
G36*
X139788604Y-79969604D02*
G01*
X139812873Y-79973204D01*
X139836671Y-79979165D01*
X139859771Y-79987430D01*
X139881949Y-79997920D01*
X139902993Y-80010533D01*
X139922698Y-80025147D01*
X139940877Y-80041623D01*
X139957353Y-80059802D01*
X139971967Y-80079507D01*
X139984580Y-80100551D01*
X139995070Y-80122729D01*
X140003335Y-80145829D01*
X140009296Y-80169627D01*
X140012896Y-80193896D01*
X140014100Y-80218400D01*
X140014100Y-81518400D01*
X140012896Y-81542904D01*
X140009296Y-81567173D01*
X140003335Y-81590971D01*
X139995070Y-81614071D01*
X139984580Y-81636249D01*
X139971967Y-81657293D01*
X139957353Y-81676998D01*
X139940877Y-81695177D01*
X139922698Y-81711653D01*
X139902993Y-81726267D01*
X139881949Y-81738880D01*
X139859771Y-81749370D01*
X139836671Y-81757635D01*
X139812873Y-81763596D01*
X139788604Y-81767196D01*
X139764100Y-81768400D01*
X136664100Y-81768400D01*
X136639596Y-81767196D01*
X136615327Y-81763596D01*
X136591529Y-81757635D01*
X136568429Y-81749370D01*
X136546251Y-81738880D01*
X136525207Y-81726267D01*
X136505502Y-81711653D01*
X136487323Y-81695177D01*
X136470847Y-81676998D01*
X136456233Y-81657293D01*
X136443620Y-81636249D01*
X136433130Y-81614071D01*
X136424865Y-81590971D01*
X136418904Y-81567173D01*
X136415304Y-81542904D01*
X136414100Y-81518400D01*
X136414100Y-80218400D01*
X136415304Y-80193896D01*
X136418904Y-80169627D01*
X136424865Y-80145829D01*
X136433130Y-80122729D01*
X136443620Y-80100551D01*
X136456233Y-80079507D01*
X136470847Y-80059802D01*
X136487323Y-80041623D01*
X136505502Y-80025147D01*
X136525207Y-80010533D01*
X136546251Y-79997920D01*
X136568429Y-79987430D01*
X136591529Y-79979165D01*
X136615327Y-79973204D01*
X136639596Y-79969604D01*
X136664100Y-79968400D01*
X139764100Y-79968400D01*
X139788604Y-79969604D01*
X139788604Y-79969604D01*
G37*
D16*
X138214100Y-80868400D03*
%TD*%
D14*
%TO.C,J8*%
X147612100Y-73868400D03*
X147612100Y-77368400D03*
D15*
G36*
X149186604Y-79969604D02*
G01*
X149210873Y-79973204D01*
X149234671Y-79979165D01*
X149257771Y-79987430D01*
X149279949Y-79997920D01*
X149300993Y-80010533D01*
X149320698Y-80025147D01*
X149338877Y-80041623D01*
X149355353Y-80059802D01*
X149369967Y-80079507D01*
X149382580Y-80100551D01*
X149393070Y-80122729D01*
X149401335Y-80145829D01*
X149407296Y-80169627D01*
X149410896Y-80193896D01*
X149412100Y-80218400D01*
X149412100Y-81518400D01*
X149410896Y-81542904D01*
X149407296Y-81567173D01*
X149401335Y-81590971D01*
X149393070Y-81614071D01*
X149382580Y-81636249D01*
X149369967Y-81657293D01*
X149355353Y-81676998D01*
X149338877Y-81695177D01*
X149320698Y-81711653D01*
X149300993Y-81726267D01*
X149279949Y-81738880D01*
X149257771Y-81749370D01*
X149234671Y-81757635D01*
X149210873Y-81763596D01*
X149186604Y-81767196D01*
X149162100Y-81768400D01*
X146062100Y-81768400D01*
X146037596Y-81767196D01*
X146013327Y-81763596D01*
X145989529Y-81757635D01*
X145966429Y-81749370D01*
X145944251Y-81738880D01*
X145923207Y-81726267D01*
X145903502Y-81711653D01*
X145885323Y-81695177D01*
X145868847Y-81676998D01*
X145854233Y-81657293D01*
X145841620Y-81636249D01*
X145831130Y-81614071D01*
X145822865Y-81590971D01*
X145816904Y-81567173D01*
X145813304Y-81542904D01*
X145812100Y-81518400D01*
X145812100Y-80218400D01*
X145813304Y-80193896D01*
X145816904Y-80169627D01*
X145822865Y-80145829D01*
X145831130Y-80122729D01*
X145841620Y-80100551D01*
X145854233Y-80079507D01*
X145868847Y-80059802D01*
X145885323Y-80041623D01*
X145903502Y-80025147D01*
X145923207Y-80010533D01*
X145944251Y-79997920D01*
X145966429Y-79987430D01*
X145989529Y-79979165D01*
X146013327Y-79973204D01*
X146037596Y-79969604D01*
X146062100Y-79968400D01*
X149162100Y-79968400D01*
X149186604Y-79969604D01*
X149186604Y-79969604D01*
G37*
D16*
X147612100Y-80868400D03*
%TD*%
D14*
%TO.C,J7*%
X138214100Y-87068900D03*
X138214100Y-90568900D03*
D15*
G36*
X139788604Y-93170104D02*
G01*
X139812873Y-93173704D01*
X139836671Y-93179665D01*
X139859771Y-93187930D01*
X139881949Y-93198420D01*
X139902993Y-93211033D01*
X139922698Y-93225647D01*
X139940877Y-93242123D01*
X139957353Y-93260302D01*
X139971967Y-93280007D01*
X139984580Y-93301051D01*
X139995070Y-93323229D01*
X140003335Y-93346329D01*
X140009296Y-93370127D01*
X140012896Y-93394396D01*
X140014100Y-93418900D01*
X140014100Y-94718900D01*
X140012896Y-94743404D01*
X140009296Y-94767673D01*
X140003335Y-94791471D01*
X139995070Y-94814571D01*
X139984580Y-94836749D01*
X139971967Y-94857793D01*
X139957353Y-94877498D01*
X139940877Y-94895677D01*
X139922698Y-94912153D01*
X139902993Y-94926767D01*
X139881949Y-94939380D01*
X139859771Y-94949870D01*
X139836671Y-94958135D01*
X139812873Y-94964096D01*
X139788604Y-94967696D01*
X139764100Y-94968900D01*
X136664100Y-94968900D01*
X136639596Y-94967696D01*
X136615327Y-94964096D01*
X136591529Y-94958135D01*
X136568429Y-94949870D01*
X136546251Y-94939380D01*
X136525207Y-94926767D01*
X136505502Y-94912153D01*
X136487323Y-94895677D01*
X136470847Y-94877498D01*
X136456233Y-94857793D01*
X136443620Y-94836749D01*
X136433130Y-94814571D01*
X136424865Y-94791471D01*
X136418904Y-94767673D01*
X136415304Y-94743404D01*
X136414100Y-94718900D01*
X136414100Y-93418900D01*
X136415304Y-93394396D01*
X136418904Y-93370127D01*
X136424865Y-93346329D01*
X136433130Y-93323229D01*
X136443620Y-93301051D01*
X136456233Y-93280007D01*
X136470847Y-93260302D01*
X136487323Y-93242123D01*
X136505502Y-93225647D01*
X136525207Y-93211033D01*
X136546251Y-93198420D01*
X136568429Y-93187930D01*
X136591529Y-93179665D01*
X136615327Y-93173704D01*
X136639596Y-93170104D01*
X136664100Y-93168900D01*
X139764100Y-93168900D01*
X139788604Y-93170104D01*
X139788604Y-93170104D01*
G37*
D16*
X138214100Y-94068900D03*
%TD*%
D14*
%TO.C,J6*%
X147612100Y-87076400D03*
X147612100Y-90576400D03*
D15*
G36*
X149186604Y-93177604D02*
G01*
X149210873Y-93181204D01*
X149234671Y-93187165D01*
X149257771Y-93195430D01*
X149279949Y-93205920D01*
X149300993Y-93218533D01*
X149320698Y-93233147D01*
X149338877Y-93249623D01*
X149355353Y-93267802D01*
X149369967Y-93287507D01*
X149382580Y-93308551D01*
X149393070Y-93330729D01*
X149401335Y-93353829D01*
X149407296Y-93377627D01*
X149410896Y-93401896D01*
X149412100Y-93426400D01*
X149412100Y-94726400D01*
X149410896Y-94750904D01*
X149407296Y-94775173D01*
X149401335Y-94798971D01*
X149393070Y-94822071D01*
X149382580Y-94844249D01*
X149369967Y-94865293D01*
X149355353Y-94884998D01*
X149338877Y-94903177D01*
X149320698Y-94919653D01*
X149300993Y-94934267D01*
X149279949Y-94946880D01*
X149257771Y-94957370D01*
X149234671Y-94965635D01*
X149210873Y-94971596D01*
X149186604Y-94975196D01*
X149162100Y-94976400D01*
X146062100Y-94976400D01*
X146037596Y-94975196D01*
X146013327Y-94971596D01*
X145989529Y-94965635D01*
X145966429Y-94957370D01*
X145944251Y-94946880D01*
X145923207Y-94934267D01*
X145903502Y-94919653D01*
X145885323Y-94903177D01*
X145868847Y-94884998D01*
X145854233Y-94865293D01*
X145841620Y-94844249D01*
X145831130Y-94822071D01*
X145822865Y-94798971D01*
X145816904Y-94775173D01*
X145813304Y-94750904D01*
X145812100Y-94726400D01*
X145812100Y-93426400D01*
X145813304Y-93401896D01*
X145816904Y-93377627D01*
X145822865Y-93353829D01*
X145831130Y-93330729D01*
X145841620Y-93308551D01*
X145854233Y-93287507D01*
X145868847Y-93267802D01*
X145885323Y-93249623D01*
X145903502Y-93233147D01*
X145923207Y-93218533D01*
X145944251Y-93205920D01*
X145966429Y-93195430D01*
X145989529Y-93187165D01*
X146013327Y-93181204D01*
X146037596Y-93177604D01*
X146062100Y-93176400D01*
X149162100Y-93176400D01*
X149186604Y-93177604D01*
X149186604Y-93177604D01*
G37*
D16*
X147612100Y-94076400D03*
%TD*%
D14*
%TO.C,J5*%
X138214100Y-100284400D03*
X138214100Y-103784400D03*
D15*
G36*
X139788604Y-106385604D02*
G01*
X139812873Y-106389204D01*
X139836671Y-106395165D01*
X139859771Y-106403430D01*
X139881949Y-106413920D01*
X139902993Y-106426533D01*
X139922698Y-106441147D01*
X139940877Y-106457623D01*
X139957353Y-106475802D01*
X139971967Y-106495507D01*
X139984580Y-106516551D01*
X139995070Y-106538729D01*
X140003335Y-106561829D01*
X140009296Y-106585627D01*
X140012896Y-106609896D01*
X140014100Y-106634400D01*
X140014100Y-107934400D01*
X140012896Y-107958904D01*
X140009296Y-107983173D01*
X140003335Y-108006971D01*
X139995070Y-108030071D01*
X139984580Y-108052249D01*
X139971967Y-108073293D01*
X139957353Y-108092998D01*
X139940877Y-108111177D01*
X139922698Y-108127653D01*
X139902993Y-108142267D01*
X139881949Y-108154880D01*
X139859771Y-108165370D01*
X139836671Y-108173635D01*
X139812873Y-108179596D01*
X139788604Y-108183196D01*
X139764100Y-108184400D01*
X136664100Y-108184400D01*
X136639596Y-108183196D01*
X136615327Y-108179596D01*
X136591529Y-108173635D01*
X136568429Y-108165370D01*
X136546251Y-108154880D01*
X136525207Y-108142267D01*
X136505502Y-108127653D01*
X136487323Y-108111177D01*
X136470847Y-108092998D01*
X136456233Y-108073293D01*
X136443620Y-108052249D01*
X136433130Y-108030071D01*
X136424865Y-108006971D01*
X136418904Y-107983173D01*
X136415304Y-107958904D01*
X136414100Y-107934400D01*
X136414100Y-106634400D01*
X136415304Y-106609896D01*
X136418904Y-106585627D01*
X136424865Y-106561829D01*
X136433130Y-106538729D01*
X136443620Y-106516551D01*
X136456233Y-106495507D01*
X136470847Y-106475802D01*
X136487323Y-106457623D01*
X136505502Y-106441147D01*
X136525207Y-106426533D01*
X136546251Y-106413920D01*
X136568429Y-106403430D01*
X136591529Y-106395165D01*
X136615327Y-106389204D01*
X136639596Y-106385604D01*
X136664100Y-106384400D01*
X139764100Y-106384400D01*
X139788604Y-106385604D01*
X139788604Y-106385604D01*
G37*
D16*
X138214100Y-107284400D03*
%TD*%
D14*
%TO.C,J4*%
X147612100Y-100284400D03*
X147612100Y-103784400D03*
D15*
G36*
X149186604Y-106385604D02*
G01*
X149210873Y-106389204D01*
X149234671Y-106395165D01*
X149257771Y-106403430D01*
X149279949Y-106413920D01*
X149300993Y-106426533D01*
X149320698Y-106441147D01*
X149338877Y-106457623D01*
X149355353Y-106475802D01*
X149369967Y-106495507D01*
X149382580Y-106516551D01*
X149393070Y-106538729D01*
X149401335Y-106561829D01*
X149407296Y-106585627D01*
X149410896Y-106609896D01*
X149412100Y-106634400D01*
X149412100Y-107934400D01*
X149410896Y-107958904D01*
X149407296Y-107983173D01*
X149401335Y-108006971D01*
X149393070Y-108030071D01*
X149382580Y-108052249D01*
X149369967Y-108073293D01*
X149355353Y-108092998D01*
X149338877Y-108111177D01*
X149320698Y-108127653D01*
X149300993Y-108142267D01*
X149279949Y-108154880D01*
X149257771Y-108165370D01*
X149234671Y-108173635D01*
X149210873Y-108179596D01*
X149186604Y-108183196D01*
X149162100Y-108184400D01*
X146062100Y-108184400D01*
X146037596Y-108183196D01*
X146013327Y-108179596D01*
X145989529Y-108173635D01*
X145966429Y-108165370D01*
X145944251Y-108154880D01*
X145923207Y-108142267D01*
X145903502Y-108127653D01*
X145885323Y-108111177D01*
X145868847Y-108092998D01*
X145854233Y-108073293D01*
X145841620Y-108052249D01*
X145831130Y-108030071D01*
X145822865Y-108006971D01*
X145816904Y-107983173D01*
X145813304Y-107958904D01*
X145812100Y-107934400D01*
X145812100Y-106634400D01*
X145813304Y-106609896D01*
X145816904Y-106585627D01*
X145822865Y-106561829D01*
X145831130Y-106538729D01*
X145841620Y-106516551D01*
X145854233Y-106495507D01*
X145868847Y-106475802D01*
X145885323Y-106457623D01*
X145903502Y-106441147D01*
X145923207Y-106426533D01*
X145944251Y-106413920D01*
X145966429Y-106403430D01*
X145989529Y-106395165D01*
X146013327Y-106389204D01*
X146037596Y-106385604D01*
X146062100Y-106384400D01*
X149162100Y-106384400D01*
X149186604Y-106385604D01*
X149186604Y-106385604D01*
G37*
D16*
X147612100Y-107284400D03*
%TD*%
D14*
%TO.C,J3*%
X138214100Y-113619400D03*
X138214100Y-117119400D03*
D15*
G36*
X139788604Y-119720604D02*
G01*
X139812873Y-119724204D01*
X139836671Y-119730165D01*
X139859771Y-119738430D01*
X139881949Y-119748920D01*
X139902993Y-119761533D01*
X139922698Y-119776147D01*
X139940877Y-119792623D01*
X139957353Y-119810802D01*
X139971967Y-119830507D01*
X139984580Y-119851551D01*
X139995070Y-119873729D01*
X140003335Y-119896829D01*
X140009296Y-119920627D01*
X140012896Y-119944896D01*
X140014100Y-119969400D01*
X140014100Y-121269400D01*
X140012896Y-121293904D01*
X140009296Y-121318173D01*
X140003335Y-121341971D01*
X139995070Y-121365071D01*
X139984580Y-121387249D01*
X139971967Y-121408293D01*
X139957353Y-121427998D01*
X139940877Y-121446177D01*
X139922698Y-121462653D01*
X139902993Y-121477267D01*
X139881949Y-121489880D01*
X139859771Y-121500370D01*
X139836671Y-121508635D01*
X139812873Y-121514596D01*
X139788604Y-121518196D01*
X139764100Y-121519400D01*
X136664100Y-121519400D01*
X136639596Y-121518196D01*
X136615327Y-121514596D01*
X136591529Y-121508635D01*
X136568429Y-121500370D01*
X136546251Y-121489880D01*
X136525207Y-121477267D01*
X136505502Y-121462653D01*
X136487323Y-121446177D01*
X136470847Y-121427998D01*
X136456233Y-121408293D01*
X136443620Y-121387249D01*
X136433130Y-121365071D01*
X136424865Y-121341971D01*
X136418904Y-121318173D01*
X136415304Y-121293904D01*
X136414100Y-121269400D01*
X136414100Y-119969400D01*
X136415304Y-119944896D01*
X136418904Y-119920627D01*
X136424865Y-119896829D01*
X136433130Y-119873729D01*
X136443620Y-119851551D01*
X136456233Y-119830507D01*
X136470847Y-119810802D01*
X136487323Y-119792623D01*
X136505502Y-119776147D01*
X136525207Y-119761533D01*
X136546251Y-119748920D01*
X136568429Y-119738430D01*
X136591529Y-119730165D01*
X136615327Y-119724204D01*
X136639596Y-119720604D01*
X136664100Y-119719400D01*
X139764100Y-119719400D01*
X139788604Y-119720604D01*
X139788604Y-119720604D01*
G37*
D16*
X138214100Y-120619400D03*
%TD*%
D14*
%TO.C,J2*%
X147612100Y-113619400D03*
X147612100Y-117119400D03*
D15*
G36*
X149186604Y-119720604D02*
G01*
X149210873Y-119724204D01*
X149234671Y-119730165D01*
X149257771Y-119738430D01*
X149279949Y-119748920D01*
X149300993Y-119761533D01*
X149320698Y-119776147D01*
X149338877Y-119792623D01*
X149355353Y-119810802D01*
X149369967Y-119830507D01*
X149382580Y-119851551D01*
X149393070Y-119873729D01*
X149401335Y-119896829D01*
X149407296Y-119920627D01*
X149410896Y-119944896D01*
X149412100Y-119969400D01*
X149412100Y-121269400D01*
X149410896Y-121293904D01*
X149407296Y-121318173D01*
X149401335Y-121341971D01*
X149393070Y-121365071D01*
X149382580Y-121387249D01*
X149369967Y-121408293D01*
X149355353Y-121427998D01*
X149338877Y-121446177D01*
X149320698Y-121462653D01*
X149300993Y-121477267D01*
X149279949Y-121489880D01*
X149257771Y-121500370D01*
X149234671Y-121508635D01*
X149210873Y-121514596D01*
X149186604Y-121518196D01*
X149162100Y-121519400D01*
X146062100Y-121519400D01*
X146037596Y-121518196D01*
X146013327Y-121514596D01*
X145989529Y-121508635D01*
X145966429Y-121500370D01*
X145944251Y-121489880D01*
X145923207Y-121477267D01*
X145903502Y-121462653D01*
X145885323Y-121446177D01*
X145868847Y-121427998D01*
X145854233Y-121408293D01*
X145841620Y-121387249D01*
X145831130Y-121365071D01*
X145822865Y-121341971D01*
X145816904Y-121318173D01*
X145813304Y-121293904D01*
X145812100Y-121269400D01*
X145812100Y-119969400D01*
X145813304Y-119944896D01*
X145816904Y-119920627D01*
X145822865Y-119896829D01*
X145831130Y-119873729D01*
X145841620Y-119851551D01*
X145854233Y-119830507D01*
X145868847Y-119810802D01*
X145885323Y-119792623D01*
X145903502Y-119776147D01*
X145923207Y-119761533D01*
X145944251Y-119748920D01*
X145966429Y-119738430D01*
X145989529Y-119730165D01*
X146013327Y-119724204D01*
X146037596Y-119720604D01*
X146062100Y-119719400D01*
X149162100Y-119719400D01*
X149186604Y-119720604D01*
X149186604Y-119720604D01*
G37*
D16*
X147612100Y-120619400D03*
%TD*%
D17*
%TO.C,J1*%
X121823600Y-48158400D03*
D15*
G36*
X125998104Y-46359604D02*
G01*
X126022373Y-46363204D01*
X126046171Y-46369165D01*
X126069271Y-46377430D01*
X126091449Y-46387920D01*
X126112493Y-46400533D01*
X126132198Y-46415147D01*
X126150377Y-46431623D01*
X126166853Y-46449802D01*
X126181467Y-46469507D01*
X126194080Y-46490551D01*
X126204570Y-46512729D01*
X126212835Y-46535829D01*
X126218796Y-46559627D01*
X126222396Y-46583896D01*
X126223600Y-46608400D01*
X126223600Y-49708400D01*
X126222396Y-49732904D01*
X126218796Y-49757173D01*
X126212835Y-49780971D01*
X126204570Y-49804071D01*
X126194080Y-49826249D01*
X126181467Y-49847293D01*
X126166853Y-49866998D01*
X126150377Y-49885177D01*
X126132198Y-49901653D01*
X126112493Y-49916267D01*
X126091449Y-49928880D01*
X126069271Y-49939370D01*
X126046171Y-49947635D01*
X126022373Y-49953596D01*
X125998104Y-49957196D01*
X125973600Y-49958400D01*
X124673600Y-49958400D01*
X124649096Y-49957196D01*
X124624827Y-49953596D01*
X124601029Y-49947635D01*
X124577929Y-49939370D01*
X124555751Y-49928880D01*
X124534707Y-49916267D01*
X124515002Y-49901653D01*
X124496823Y-49885177D01*
X124480347Y-49866998D01*
X124465733Y-49847293D01*
X124453120Y-49826249D01*
X124442630Y-49804071D01*
X124434365Y-49780971D01*
X124428404Y-49757173D01*
X124424804Y-49732904D01*
X124423600Y-49708400D01*
X124423600Y-46608400D01*
X124424804Y-46583896D01*
X124428404Y-46559627D01*
X124434365Y-46535829D01*
X124442630Y-46512729D01*
X124453120Y-46490551D01*
X124465733Y-46469507D01*
X124480347Y-46449802D01*
X124496823Y-46431623D01*
X124515002Y-46415147D01*
X124534707Y-46400533D01*
X124555751Y-46387920D01*
X124577929Y-46377430D01*
X124601029Y-46369165D01*
X124624827Y-46363204D01*
X124649096Y-46359604D01*
X124673600Y-46358400D01*
X125973600Y-46358400D01*
X125998104Y-46359604D01*
X125998104Y-46359604D01*
G37*
D16*
X125323600Y-48158400D03*
%TD*%
D18*
%TO.C,Brd1*%
X155926100Y-60540400D03*
X155926100Y-58000400D03*
X155926100Y-52920400D03*
X155926100Y-55460400D03*
D19*
X155994100Y-68732400D03*
X155994100Y-44856400D03*
X132118100Y-44856400D03*
X132118100Y-68732400D03*
%TD*%
D10*
%TO.C,P9*%
X116370100Y-62382400D03*
D11*
X118910100Y-62382400D03*
X116370100Y-64922400D03*
X118910100Y-64922400D03*
X116370100Y-67462400D03*
X118910100Y-67462400D03*
X116370100Y-70002400D03*
X118910100Y-70002400D03*
X116370100Y-72542400D03*
X118910100Y-72542400D03*
X116370100Y-75082400D03*
X118910100Y-75082400D03*
X116370100Y-77622400D03*
X118910100Y-77622400D03*
X116370100Y-80162400D03*
X118910100Y-80162400D03*
X116370100Y-82702400D03*
X118910100Y-82702400D03*
X116370100Y-85242400D03*
X118910100Y-85242400D03*
X116370100Y-87782400D03*
X118910100Y-87782400D03*
X116370100Y-90322400D03*
X118910100Y-90322400D03*
X116370100Y-92862400D03*
X118910100Y-92862400D03*
X116370100Y-95402400D03*
X118910100Y-95402400D03*
X116370100Y-97942400D03*
X118910100Y-97942400D03*
X116370100Y-100482400D03*
X118910100Y-100482400D03*
X116370100Y-103022400D03*
X118910100Y-103022400D03*
X116370100Y-105562400D03*
X118910100Y-105562400D03*
X116370100Y-108102400D03*
X118910100Y-108102400D03*
X116370100Y-110642400D03*
X118910100Y-110642400D03*
X116370100Y-113182400D03*
X118910100Y-113182400D03*
X116370100Y-115722400D03*
X118910100Y-115722400D03*
X116370100Y-118262400D03*
X118910100Y-118262400D03*
%TD*%
M02*
