%TF.GenerationSoftware,KiCad,Pcbnew,(5.1.4)-1*%
%TF.CreationDate,2021-10-25T09:14:49+02:00*%
%TF.ProjectId,bbb-diffcape,6262622d-6469-4666-9663-6170652e6b69,rev?*%
%TF.SameCoordinates,Original*%
%TF.FileFunction,Copper,L2,Bot*%
%TF.FilePolarity,Positive*%
%FSLAX46Y46*%
G04 Gerber Fmt 4.6, Leading zero omitted, Abs format (unit mm)*
G04 Created by KiCad (PCBNEW (5.1.4)-1) date 2021-10-25 09:14:49*
%MOMM*%
%LPD*%
G04 APERTURE LIST*
%TA.AperFunction,ComponentPad*%
%ADD10R,1.727200X1.727200*%
%TD*%
%TA.AperFunction,ComponentPad*%
%ADD11O,1.727200X1.727200*%
%TD*%
%TA.AperFunction,ComponentPad*%
%ADD12O,5.300000X3.800000*%
%TD*%
%TA.AperFunction,ComponentPad*%
%ADD13O,5.500000X3.800000*%
%TD*%
%TA.AperFunction,ComponentPad*%
%ADD14O,3.600000X1.800000*%
%TD*%
%TA.AperFunction,Conductor*%
%ADD15C,0.100000*%
%TD*%
%TA.AperFunction,ComponentPad*%
%ADD16C,1.800000*%
%TD*%
%TA.AperFunction,ComponentPad*%
%ADD17O,1.800000X3.600000*%
%TD*%
%TA.AperFunction,ComponentPad*%
%ADD18O,2.000000X1.600000*%
%TD*%
%TA.AperFunction,ComponentPad*%
%ADD19C,2.600000*%
%TD*%
%TA.AperFunction,ViaPad*%
%ADD20C,0.600000*%
%TD*%
%TA.AperFunction,Conductor*%
%ADD21C,0.250000*%
%TD*%
%TA.AperFunction,Conductor*%
%ADD22C,0.400000*%
%TD*%
%TA.AperFunction,Conductor*%
%ADD23C,0.254000*%
%TD*%
G04 APERTURE END LIST*
D10*
%TO.P,P8,1*%
%TO.N,GNDD*%
X164630100Y-62382400D03*
D11*
%TO.P,P8,2*%
X167170100Y-62382400D03*
%TO.P,P8,3*%
%TO.N,Net-(P8-Pad3)*%
X164630100Y-64922400D03*
%TO.P,P8,4*%
%TO.N,Net-(P8-Pad4)*%
X167170100Y-64922400D03*
%TO.P,P8,5*%
%TO.N,Net-(P8-Pad5)*%
X164630100Y-67462400D03*
%TO.P,P8,6*%
%TO.N,Net-(P8-Pad6)*%
X167170100Y-67462400D03*
%TO.P,P8,7*%
%TO.N,Net-(P8-Pad7)*%
X164630100Y-70002400D03*
%TO.P,P8,8*%
%TO.N,Net-(P8-Pad8)*%
X167170100Y-70002400D03*
%TO.P,P8,9*%
%TO.N,Net-(P8-Pad9)*%
X164630100Y-72542400D03*
%TO.P,P8,10*%
%TO.N,Net-(P8-Pad10)*%
X167170100Y-72542400D03*
%TO.P,P8,11*%
%TO.N,Net-(P8-Pad11)*%
X164630100Y-75082400D03*
%TO.P,P8,12*%
%TO.N,Net-(P8-Pad12)*%
X167170100Y-75082400D03*
%TO.P,P8,13*%
%TO.N,Net-(P8-Pad13)*%
X164630100Y-77622400D03*
%TO.P,P8,14*%
%TO.N,Net-(P8-Pad14)*%
X167170100Y-77622400D03*
%TO.P,P8,15*%
%TO.N,Net-(P8-Pad15)*%
X164630100Y-80162400D03*
%TO.P,P8,16*%
%TO.N,Net-(P8-Pad16)*%
X167170100Y-80162400D03*
%TO.P,P8,17*%
%TO.N,Net-(P8-Pad17)*%
X164630100Y-82702400D03*
%TO.P,P8,18*%
%TO.N,Net-(P8-Pad18)*%
X167170100Y-82702400D03*
%TO.P,P8,19*%
%TO.N,Net-(P8-Pad19)*%
X164630100Y-85242400D03*
%TO.P,P8,20*%
%TO.N,Net-(P8-Pad20)*%
X167170100Y-85242400D03*
%TO.P,P8,21*%
%TO.N,Net-(P8-Pad21)*%
X164630100Y-87782400D03*
%TO.P,P8,22*%
%TO.N,Net-(P8-Pad22)*%
X167170100Y-87782400D03*
%TO.P,P8,23*%
%TO.N,Net-(P8-Pad23)*%
X164630100Y-90322400D03*
%TO.P,P8,24*%
%TO.N,Net-(P8-Pad24)*%
X167170100Y-90322400D03*
%TO.P,P8,25*%
%TO.N,Net-(P8-Pad25)*%
X164630100Y-92862400D03*
%TO.P,P8,26*%
%TO.N,Net-(P8-Pad26)*%
X167170100Y-92862400D03*
%TO.P,P8,27*%
%TO.N,String2*%
X164630100Y-95402400D03*
%TO.P,P8,28*%
%TO.N,String1*%
X167170100Y-95402400D03*
%TO.P,P8,29*%
%TO.N,String4*%
X164630100Y-97942400D03*
%TO.P,P8,30*%
%TO.N,String3*%
X167170100Y-97942400D03*
%TO.P,P8,31*%
%TO.N,Net-(P8-Pad31)*%
X164630100Y-100482400D03*
%TO.P,P8,32*%
%TO.N,Net-(P8-Pad32)*%
X167170100Y-100482400D03*
%TO.P,P8,33*%
%TO.N,Net-(P8-Pad33)*%
X164630100Y-103022400D03*
%TO.P,P8,34*%
%TO.N,Net-(P8-Pad34)*%
X167170100Y-103022400D03*
%TO.P,P8,35*%
%TO.N,Net-(P8-Pad35)*%
X164630100Y-105562400D03*
%TO.P,P8,36*%
%TO.N,Net-(P8-Pad36)*%
X167170100Y-105562400D03*
%TO.P,P8,37*%
%TO.N,Net-(P8-Pad37)*%
X164630100Y-108102400D03*
%TO.P,P8,38*%
%TO.N,Net-(P8-Pad38)*%
X167170100Y-108102400D03*
%TO.P,P8,39*%
%TO.N,String6*%
X164630100Y-110642400D03*
%TO.P,P8,40*%
%TO.N,String5*%
X167170100Y-110642400D03*
%TO.P,P8,41*%
%TO.N,String8*%
X164630100Y-113182400D03*
%TO.P,P8,42*%
%TO.N,String7*%
X167170100Y-113182400D03*
%TO.P,P8,43*%
%TO.N,Net-(P8-Pad43)*%
X164630100Y-115722400D03*
%TO.P,P8,44*%
%TO.N,Net-(P8-Pad44)*%
X167170100Y-115722400D03*
%TO.P,P8,45*%
%TO.N,Net-(P8-Pad45)*%
X164630100Y-118262400D03*
%TO.P,P8,46*%
%TO.N,Net-(P8-Pad46)*%
X167170100Y-118262400D03*
%TD*%
D12*
%TO.P,F1,2*%
%TO.N,/5Vin*%
X126656100Y-55778400D03*
D13*
%TO.P,F1,1*%
%TO.N,+5V*%
X118656100Y-55778400D03*
%TD*%
D14*
%TO.P,J9,3*%
%TO.N,GNDD*%
X138214100Y-73868400D03*
%TO.P,J9,2*%
%TO.N,Net-(D9-Pad2)*%
X138214100Y-77368400D03*
D15*
%TD*%
%TO.N,Net-(D9-Pad1)*%
%TO.C,J9*%
G36*
X139788604Y-79969604D02*
G01*
X139812873Y-79973204D01*
X139836671Y-79979165D01*
X139859771Y-79987430D01*
X139881949Y-79997920D01*
X139902993Y-80010533D01*
X139922698Y-80025147D01*
X139940877Y-80041623D01*
X139957353Y-80059802D01*
X139971967Y-80079507D01*
X139984580Y-80100551D01*
X139995070Y-80122729D01*
X140003335Y-80145829D01*
X140009296Y-80169627D01*
X140012896Y-80193896D01*
X140014100Y-80218400D01*
X140014100Y-81518400D01*
X140012896Y-81542904D01*
X140009296Y-81567173D01*
X140003335Y-81590971D01*
X139995070Y-81614071D01*
X139984580Y-81636249D01*
X139971967Y-81657293D01*
X139957353Y-81676998D01*
X139940877Y-81695177D01*
X139922698Y-81711653D01*
X139902993Y-81726267D01*
X139881949Y-81738880D01*
X139859771Y-81749370D01*
X139836671Y-81757635D01*
X139812873Y-81763596D01*
X139788604Y-81767196D01*
X139764100Y-81768400D01*
X136664100Y-81768400D01*
X136639596Y-81767196D01*
X136615327Y-81763596D01*
X136591529Y-81757635D01*
X136568429Y-81749370D01*
X136546251Y-81738880D01*
X136525207Y-81726267D01*
X136505502Y-81711653D01*
X136487323Y-81695177D01*
X136470847Y-81676998D01*
X136456233Y-81657293D01*
X136443620Y-81636249D01*
X136433130Y-81614071D01*
X136424865Y-81590971D01*
X136418904Y-81567173D01*
X136415304Y-81542904D01*
X136414100Y-81518400D01*
X136414100Y-80218400D01*
X136415304Y-80193896D01*
X136418904Y-80169627D01*
X136424865Y-80145829D01*
X136433130Y-80122729D01*
X136443620Y-80100551D01*
X136456233Y-80079507D01*
X136470847Y-80059802D01*
X136487323Y-80041623D01*
X136505502Y-80025147D01*
X136525207Y-80010533D01*
X136546251Y-79997920D01*
X136568429Y-79987430D01*
X136591529Y-79979165D01*
X136615327Y-79973204D01*
X136639596Y-79969604D01*
X136664100Y-79968400D01*
X139764100Y-79968400D01*
X139788604Y-79969604D01*
X139788604Y-79969604D01*
G37*
D16*
%TO.P,J9,1*%
%TO.N,Net-(D9-Pad1)*%
X138214100Y-80868400D03*
%TD*%
D14*
%TO.P,J8,3*%
%TO.N,GNDD*%
X147612100Y-73868400D03*
%TO.P,J8,2*%
%TO.N,Net-(D8-Pad2)*%
X147612100Y-77368400D03*
D15*
%TD*%
%TO.N,Net-(D8-Pad1)*%
%TO.C,J8*%
G36*
X149186604Y-79969604D02*
G01*
X149210873Y-79973204D01*
X149234671Y-79979165D01*
X149257771Y-79987430D01*
X149279949Y-79997920D01*
X149300993Y-80010533D01*
X149320698Y-80025147D01*
X149338877Y-80041623D01*
X149355353Y-80059802D01*
X149369967Y-80079507D01*
X149382580Y-80100551D01*
X149393070Y-80122729D01*
X149401335Y-80145829D01*
X149407296Y-80169627D01*
X149410896Y-80193896D01*
X149412100Y-80218400D01*
X149412100Y-81518400D01*
X149410896Y-81542904D01*
X149407296Y-81567173D01*
X149401335Y-81590971D01*
X149393070Y-81614071D01*
X149382580Y-81636249D01*
X149369967Y-81657293D01*
X149355353Y-81676998D01*
X149338877Y-81695177D01*
X149320698Y-81711653D01*
X149300993Y-81726267D01*
X149279949Y-81738880D01*
X149257771Y-81749370D01*
X149234671Y-81757635D01*
X149210873Y-81763596D01*
X149186604Y-81767196D01*
X149162100Y-81768400D01*
X146062100Y-81768400D01*
X146037596Y-81767196D01*
X146013327Y-81763596D01*
X145989529Y-81757635D01*
X145966429Y-81749370D01*
X145944251Y-81738880D01*
X145923207Y-81726267D01*
X145903502Y-81711653D01*
X145885323Y-81695177D01*
X145868847Y-81676998D01*
X145854233Y-81657293D01*
X145841620Y-81636249D01*
X145831130Y-81614071D01*
X145822865Y-81590971D01*
X145816904Y-81567173D01*
X145813304Y-81542904D01*
X145812100Y-81518400D01*
X145812100Y-80218400D01*
X145813304Y-80193896D01*
X145816904Y-80169627D01*
X145822865Y-80145829D01*
X145831130Y-80122729D01*
X145841620Y-80100551D01*
X145854233Y-80079507D01*
X145868847Y-80059802D01*
X145885323Y-80041623D01*
X145903502Y-80025147D01*
X145923207Y-80010533D01*
X145944251Y-79997920D01*
X145966429Y-79987430D01*
X145989529Y-79979165D01*
X146013327Y-79973204D01*
X146037596Y-79969604D01*
X146062100Y-79968400D01*
X149162100Y-79968400D01*
X149186604Y-79969604D01*
X149186604Y-79969604D01*
G37*
D16*
%TO.P,J8,1*%
%TO.N,Net-(D8-Pad1)*%
X147612100Y-80868400D03*
%TD*%
D14*
%TO.P,J7,3*%
%TO.N,GNDD*%
X138214100Y-87068900D03*
%TO.P,J7,2*%
%TO.N,Net-(D7-Pad2)*%
X138214100Y-90568900D03*
D15*
%TD*%
%TO.N,Net-(D7-Pad1)*%
%TO.C,J7*%
G36*
X139788604Y-93170104D02*
G01*
X139812873Y-93173704D01*
X139836671Y-93179665D01*
X139859771Y-93187930D01*
X139881949Y-93198420D01*
X139902993Y-93211033D01*
X139922698Y-93225647D01*
X139940877Y-93242123D01*
X139957353Y-93260302D01*
X139971967Y-93280007D01*
X139984580Y-93301051D01*
X139995070Y-93323229D01*
X140003335Y-93346329D01*
X140009296Y-93370127D01*
X140012896Y-93394396D01*
X140014100Y-93418900D01*
X140014100Y-94718900D01*
X140012896Y-94743404D01*
X140009296Y-94767673D01*
X140003335Y-94791471D01*
X139995070Y-94814571D01*
X139984580Y-94836749D01*
X139971967Y-94857793D01*
X139957353Y-94877498D01*
X139940877Y-94895677D01*
X139922698Y-94912153D01*
X139902993Y-94926767D01*
X139881949Y-94939380D01*
X139859771Y-94949870D01*
X139836671Y-94958135D01*
X139812873Y-94964096D01*
X139788604Y-94967696D01*
X139764100Y-94968900D01*
X136664100Y-94968900D01*
X136639596Y-94967696D01*
X136615327Y-94964096D01*
X136591529Y-94958135D01*
X136568429Y-94949870D01*
X136546251Y-94939380D01*
X136525207Y-94926767D01*
X136505502Y-94912153D01*
X136487323Y-94895677D01*
X136470847Y-94877498D01*
X136456233Y-94857793D01*
X136443620Y-94836749D01*
X136433130Y-94814571D01*
X136424865Y-94791471D01*
X136418904Y-94767673D01*
X136415304Y-94743404D01*
X136414100Y-94718900D01*
X136414100Y-93418900D01*
X136415304Y-93394396D01*
X136418904Y-93370127D01*
X136424865Y-93346329D01*
X136433130Y-93323229D01*
X136443620Y-93301051D01*
X136456233Y-93280007D01*
X136470847Y-93260302D01*
X136487323Y-93242123D01*
X136505502Y-93225647D01*
X136525207Y-93211033D01*
X136546251Y-93198420D01*
X136568429Y-93187930D01*
X136591529Y-93179665D01*
X136615327Y-93173704D01*
X136639596Y-93170104D01*
X136664100Y-93168900D01*
X139764100Y-93168900D01*
X139788604Y-93170104D01*
X139788604Y-93170104D01*
G37*
D16*
%TO.P,J7,1*%
%TO.N,Net-(D7-Pad1)*%
X138214100Y-94068900D03*
%TD*%
D14*
%TO.P,J6,3*%
%TO.N,GNDD*%
X147612100Y-87076400D03*
%TO.P,J6,2*%
%TO.N,Net-(D6-Pad2)*%
X147612100Y-90576400D03*
D15*
%TD*%
%TO.N,Net-(D6-Pad1)*%
%TO.C,J6*%
G36*
X149186604Y-93177604D02*
G01*
X149210873Y-93181204D01*
X149234671Y-93187165D01*
X149257771Y-93195430D01*
X149279949Y-93205920D01*
X149300993Y-93218533D01*
X149320698Y-93233147D01*
X149338877Y-93249623D01*
X149355353Y-93267802D01*
X149369967Y-93287507D01*
X149382580Y-93308551D01*
X149393070Y-93330729D01*
X149401335Y-93353829D01*
X149407296Y-93377627D01*
X149410896Y-93401896D01*
X149412100Y-93426400D01*
X149412100Y-94726400D01*
X149410896Y-94750904D01*
X149407296Y-94775173D01*
X149401335Y-94798971D01*
X149393070Y-94822071D01*
X149382580Y-94844249D01*
X149369967Y-94865293D01*
X149355353Y-94884998D01*
X149338877Y-94903177D01*
X149320698Y-94919653D01*
X149300993Y-94934267D01*
X149279949Y-94946880D01*
X149257771Y-94957370D01*
X149234671Y-94965635D01*
X149210873Y-94971596D01*
X149186604Y-94975196D01*
X149162100Y-94976400D01*
X146062100Y-94976400D01*
X146037596Y-94975196D01*
X146013327Y-94971596D01*
X145989529Y-94965635D01*
X145966429Y-94957370D01*
X145944251Y-94946880D01*
X145923207Y-94934267D01*
X145903502Y-94919653D01*
X145885323Y-94903177D01*
X145868847Y-94884998D01*
X145854233Y-94865293D01*
X145841620Y-94844249D01*
X145831130Y-94822071D01*
X145822865Y-94798971D01*
X145816904Y-94775173D01*
X145813304Y-94750904D01*
X145812100Y-94726400D01*
X145812100Y-93426400D01*
X145813304Y-93401896D01*
X145816904Y-93377627D01*
X145822865Y-93353829D01*
X145831130Y-93330729D01*
X145841620Y-93308551D01*
X145854233Y-93287507D01*
X145868847Y-93267802D01*
X145885323Y-93249623D01*
X145903502Y-93233147D01*
X145923207Y-93218533D01*
X145944251Y-93205920D01*
X145966429Y-93195430D01*
X145989529Y-93187165D01*
X146013327Y-93181204D01*
X146037596Y-93177604D01*
X146062100Y-93176400D01*
X149162100Y-93176400D01*
X149186604Y-93177604D01*
X149186604Y-93177604D01*
G37*
D16*
%TO.P,J6,1*%
%TO.N,Net-(D6-Pad1)*%
X147612100Y-94076400D03*
%TD*%
D14*
%TO.P,J5,3*%
%TO.N,GNDD*%
X138214100Y-100284400D03*
%TO.P,J5,2*%
%TO.N,Net-(D5-Pad2)*%
X138214100Y-103784400D03*
D15*
%TD*%
%TO.N,Net-(D5-Pad1)*%
%TO.C,J5*%
G36*
X139788604Y-106385604D02*
G01*
X139812873Y-106389204D01*
X139836671Y-106395165D01*
X139859771Y-106403430D01*
X139881949Y-106413920D01*
X139902993Y-106426533D01*
X139922698Y-106441147D01*
X139940877Y-106457623D01*
X139957353Y-106475802D01*
X139971967Y-106495507D01*
X139984580Y-106516551D01*
X139995070Y-106538729D01*
X140003335Y-106561829D01*
X140009296Y-106585627D01*
X140012896Y-106609896D01*
X140014100Y-106634400D01*
X140014100Y-107934400D01*
X140012896Y-107958904D01*
X140009296Y-107983173D01*
X140003335Y-108006971D01*
X139995070Y-108030071D01*
X139984580Y-108052249D01*
X139971967Y-108073293D01*
X139957353Y-108092998D01*
X139940877Y-108111177D01*
X139922698Y-108127653D01*
X139902993Y-108142267D01*
X139881949Y-108154880D01*
X139859771Y-108165370D01*
X139836671Y-108173635D01*
X139812873Y-108179596D01*
X139788604Y-108183196D01*
X139764100Y-108184400D01*
X136664100Y-108184400D01*
X136639596Y-108183196D01*
X136615327Y-108179596D01*
X136591529Y-108173635D01*
X136568429Y-108165370D01*
X136546251Y-108154880D01*
X136525207Y-108142267D01*
X136505502Y-108127653D01*
X136487323Y-108111177D01*
X136470847Y-108092998D01*
X136456233Y-108073293D01*
X136443620Y-108052249D01*
X136433130Y-108030071D01*
X136424865Y-108006971D01*
X136418904Y-107983173D01*
X136415304Y-107958904D01*
X136414100Y-107934400D01*
X136414100Y-106634400D01*
X136415304Y-106609896D01*
X136418904Y-106585627D01*
X136424865Y-106561829D01*
X136433130Y-106538729D01*
X136443620Y-106516551D01*
X136456233Y-106495507D01*
X136470847Y-106475802D01*
X136487323Y-106457623D01*
X136505502Y-106441147D01*
X136525207Y-106426533D01*
X136546251Y-106413920D01*
X136568429Y-106403430D01*
X136591529Y-106395165D01*
X136615327Y-106389204D01*
X136639596Y-106385604D01*
X136664100Y-106384400D01*
X139764100Y-106384400D01*
X139788604Y-106385604D01*
X139788604Y-106385604D01*
G37*
D16*
%TO.P,J5,1*%
%TO.N,Net-(D5-Pad1)*%
X138214100Y-107284400D03*
%TD*%
D14*
%TO.P,J4,3*%
%TO.N,GNDD*%
X147612100Y-100284400D03*
%TO.P,J4,2*%
%TO.N,Net-(D4-Pad2)*%
X147612100Y-103784400D03*
D15*
%TD*%
%TO.N,Net-(D4-Pad1)*%
%TO.C,J4*%
G36*
X149186604Y-106385604D02*
G01*
X149210873Y-106389204D01*
X149234671Y-106395165D01*
X149257771Y-106403430D01*
X149279949Y-106413920D01*
X149300993Y-106426533D01*
X149320698Y-106441147D01*
X149338877Y-106457623D01*
X149355353Y-106475802D01*
X149369967Y-106495507D01*
X149382580Y-106516551D01*
X149393070Y-106538729D01*
X149401335Y-106561829D01*
X149407296Y-106585627D01*
X149410896Y-106609896D01*
X149412100Y-106634400D01*
X149412100Y-107934400D01*
X149410896Y-107958904D01*
X149407296Y-107983173D01*
X149401335Y-108006971D01*
X149393070Y-108030071D01*
X149382580Y-108052249D01*
X149369967Y-108073293D01*
X149355353Y-108092998D01*
X149338877Y-108111177D01*
X149320698Y-108127653D01*
X149300993Y-108142267D01*
X149279949Y-108154880D01*
X149257771Y-108165370D01*
X149234671Y-108173635D01*
X149210873Y-108179596D01*
X149186604Y-108183196D01*
X149162100Y-108184400D01*
X146062100Y-108184400D01*
X146037596Y-108183196D01*
X146013327Y-108179596D01*
X145989529Y-108173635D01*
X145966429Y-108165370D01*
X145944251Y-108154880D01*
X145923207Y-108142267D01*
X145903502Y-108127653D01*
X145885323Y-108111177D01*
X145868847Y-108092998D01*
X145854233Y-108073293D01*
X145841620Y-108052249D01*
X145831130Y-108030071D01*
X145822865Y-108006971D01*
X145816904Y-107983173D01*
X145813304Y-107958904D01*
X145812100Y-107934400D01*
X145812100Y-106634400D01*
X145813304Y-106609896D01*
X145816904Y-106585627D01*
X145822865Y-106561829D01*
X145831130Y-106538729D01*
X145841620Y-106516551D01*
X145854233Y-106495507D01*
X145868847Y-106475802D01*
X145885323Y-106457623D01*
X145903502Y-106441147D01*
X145923207Y-106426533D01*
X145944251Y-106413920D01*
X145966429Y-106403430D01*
X145989529Y-106395165D01*
X146013327Y-106389204D01*
X146037596Y-106385604D01*
X146062100Y-106384400D01*
X149162100Y-106384400D01*
X149186604Y-106385604D01*
X149186604Y-106385604D01*
G37*
D16*
%TO.P,J4,1*%
%TO.N,Net-(D4-Pad1)*%
X147612100Y-107284400D03*
%TD*%
D14*
%TO.P,J3,3*%
%TO.N,GNDD*%
X138214100Y-113619400D03*
%TO.P,J3,2*%
%TO.N,Net-(D2-Pad2)*%
X138214100Y-117119400D03*
D15*
%TD*%
%TO.N,Net-(D2-Pad1)*%
%TO.C,J3*%
G36*
X139788604Y-119720604D02*
G01*
X139812873Y-119724204D01*
X139836671Y-119730165D01*
X139859771Y-119738430D01*
X139881949Y-119748920D01*
X139902993Y-119761533D01*
X139922698Y-119776147D01*
X139940877Y-119792623D01*
X139957353Y-119810802D01*
X139971967Y-119830507D01*
X139984580Y-119851551D01*
X139995070Y-119873729D01*
X140003335Y-119896829D01*
X140009296Y-119920627D01*
X140012896Y-119944896D01*
X140014100Y-119969400D01*
X140014100Y-121269400D01*
X140012896Y-121293904D01*
X140009296Y-121318173D01*
X140003335Y-121341971D01*
X139995070Y-121365071D01*
X139984580Y-121387249D01*
X139971967Y-121408293D01*
X139957353Y-121427998D01*
X139940877Y-121446177D01*
X139922698Y-121462653D01*
X139902993Y-121477267D01*
X139881949Y-121489880D01*
X139859771Y-121500370D01*
X139836671Y-121508635D01*
X139812873Y-121514596D01*
X139788604Y-121518196D01*
X139764100Y-121519400D01*
X136664100Y-121519400D01*
X136639596Y-121518196D01*
X136615327Y-121514596D01*
X136591529Y-121508635D01*
X136568429Y-121500370D01*
X136546251Y-121489880D01*
X136525207Y-121477267D01*
X136505502Y-121462653D01*
X136487323Y-121446177D01*
X136470847Y-121427998D01*
X136456233Y-121408293D01*
X136443620Y-121387249D01*
X136433130Y-121365071D01*
X136424865Y-121341971D01*
X136418904Y-121318173D01*
X136415304Y-121293904D01*
X136414100Y-121269400D01*
X136414100Y-119969400D01*
X136415304Y-119944896D01*
X136418904Y-119920627D01*
X136424865Y-119896829D01*
X136433130Y-119873729D01*
X136443620Y-119851551D01*
X136456233Y-119830507D01*
X136470847Y-119810802D01*
X136487323Y-119792623D01*
X136505502Y-119776147D01*
X136525207Y-119761533D01*
X136546251Y-119748920D01*
X136568429Y-119738430D01*
X136591529Y-119730165D01*
X136615327Y-119724204D01*
X136639596Y-119720604D01*
X136664100Y-119719400D01*
X139764100Y-119719400D01*
X139788604Y-119720604D01*
X139788604Y-119720604D01*
G37*
D16*
%TO.P,J3,1*%
%TO.N,Net-(D2-Pad1)*%
X138214100Y-120619400D03*
%TD*%
D14*
%TO.P,J2,3*%
%TO.N,GNDD*%
X147612100Y-113619400D03*
%TO.P,J2,2*%
%TO.N,Net-(D1-Pad2)*%
X147612100Y-117119400D03*
D15*
%TD*%
%TO.N,Net-(D1-Pad1)*%
%TO.C,J2*%
G36*
X149186604Y-119720604D02*
G01*
X149210873Y-119724204D01*
X149234671Y-119730165D01*
X149257771Y-119738430D01*
X149279949Y-119748920D01*
X149300993Y-119761533D01*
X149320698Y-119776147D01*
X149338877Y-119792623D01*
X149355353Y-119810802D01*
X149369967Y-119830507D01*
X149382580Y-119851551D01*
X149393070Y-119873729D01*
X149401335Y-119896829D01*
X149407296Y-119920627D01*
X149410896Y-119944896D01*
X149412100Y-119969400D01*
X149412100Y-121269400D01*
X149410896Y-121293904D01*
X149407296Y-121318173D01*
X149401335Y-121341971D01*
X149393070Y-121365071D01*
X149382580Y-121387249D01*
X149369967Y-121408293D01*
X149355353Y-121427998D01*
X149338877Y-121446177D01*
X149320698Y-121462653D01*
X149300993Y-121477267D01*
X149279949Y-121489880D01*
X149257771Y-121500370D01*
X149234671Y-121508635D01*
X149210873Y-121514596D01*
X149186604Y-121518196D01*
X149162100Y-121519400D01*
X146062100Y-121519400D01*
X146037596Y-121518196D01*
X146013327Y-121514596D01*
X145989529Y-121508635D01*
X145966429Y-121500370D01*
X145944251Y-121489880D01*
X145923207Y-121477267D01*
X145903502Y-121462653D01*
X145885323Y-121446177D01*
X145868847Y-121427998D01*
X145854233Y-121408293D01*
X145841620Y-121387249D01*
X145831130Y-121365071D01*
X145822865Y-121341971D01*
X145816904Y-121318173D01*
X145813304Y-121293904D01*
X145812100Y-121269400D01*
X145812100Y-119969400D01*
X145813304Y-119944896D01*
X145816904Y-119920627D01*
X145822865Y-119896829D01*
X145831130Y-119873729D01*
X145841620Y-119851551D01*
X145854233Y-119830507D01*
X145868847Y-119810802D01*
X145885323Y-119792623D01*
X145903502Y-119776147D01*
X145923207Y-119761533D01*
X145944251Y-119748920D01*
X145966429Y-119738430D01*
X145989529Y-119730165D01*
X146013327Y-119724204D01*
X146037596Y-119720604D01*
X146062100Y-119719400D01*
X149162100Y-119719400D01*
X149186604Y-119720604D01*
X149186604Y-119720604D01*
G37*
D16*
%TO.P,J2,1*%
%TO.N,Net-(D1-Pad1)*%
X147612100Y-120619400D03*
%TD*%
D17*
%TO.P,J1,2*%
%TO.N,GNDD*%
X121823600Y-48158400D03*
D15*
%TD*%
%TO.N,/5Vin*%
%TO.C,J1*%
G36*
X125998104Y-46359604D02*
G01*
X126022373Y-46363204D01*
X126046171Y-46369165D01*
X126069271Y-46377430D01*
X126091449Y-46387920D01*
X126112493Y-46400533D01*
X126132198Y-46415147D01*
X126150377Y-46431623D01*
X126166853Y-46449802D01*
X126181467Y-46469507D01*
X126194080Y-46490551D01*
X126204570Y-46512729D01*
X126212835Y-46535829D01*
X126218796Y-46559627D01*
X126222396Y-46583896D01*
X126223600Y-46608400D01*
X126223600Y-49708400D01*
X126222396Y-49732904D01*
X126218796Y-49757173D01*
X126212835Y-49780971D01*
X126204570Y-49804071D01*
X126194080Y-49826249D01*
X126181467Y-49847293D01*
X126166853Y-49866998D01*
X126150377Y-49885177D01*
X126132198Y-49901653D01*
X126112493Y-49916267D01*
X126091449Y-49928880D01*
X126069271Y-49939370D01*
X126046171Y-49947635D01*
X126022373Y-49953596D01*
X125998104Y-49957196D01*
X125973600Y-49958400D01*
X124673600Y-49958400D01*
X124649096Y-49957196D01*
X124624827Y-49953596D01*
X124601029Y-49947635D01*
X124577929Y-49939370D01*
X124555751Y-49928880D01*
X124534707Y-49916267D01*
X124515002Y-49901653D01*
X124496823Y-49885177D01*
X124480347Y-49866998D01*
X124465733Y-49847293D01*
X124453120Y-49826249D01*
X124442630Y-49804071D01*
X124434365Y-49780971D01*
X124428404Y-49757173D01*
X124424804Y-49732904D01*
X124423600Y-49708400D01*
X124423600Y-46608400D01*
X124424804Y-46583896D01*
X124428404Y-46559627D01*
X124434365Y-46535829D01*
X124442630Y-46512729D01*
X124453120Y-46490551D01*
X124465733Y-46469507D01*
X124480347Y-46449802D01*
X124496823Y-46431623D01*
X124515002Y-46415147D01*
X124534707Y-46400533D01*
X124555751Y-46387920D01*
X124577929Y-46377430D01*
X124601029Y-46369165D01*
X124624827Y-46363204D01*
X124649096Y-46359604D01*
X124673600Y-46358400D01*
X125973600Y-46358400D01*
X125998104Y-46359604D01*
X125998104Y-46359604D01*
G37*
D16*
%TO.P,J1,1*%
%TO.N,/5Vin*%
X125323600Y-48158400D03*
%TD*%
D18*
%TO.P,Brd1,4*%
%TO.N,OLED_SDA*%
X155926100Y-60540400D03*
%TO.P,Brd1,3*%
%TO.N,OLED_SCL*%
X155926100Y-58000400D03*
%TO.P,Brd1,1*%
%TO.N,GNDD*%
X155926100Y-52920400D03*
%TO.P,Brd1,2*%
%TO.N,+3V3*%
X155926100Y-55460400D03*
D19*
%TO.P,Brd1,*%
%TO.N,*%
X155994100Y-68732400D03*
X155994100Y-44856400D03*
X132118100Y-44856400D03*
X132118100Y-68732400D03*
%TD*%
D10*
%TO.P,P9,1*%
%TO.N,GNDD*%
X116370100Y-62382400D03*
D11*
%TO.P,P9,2*%
X118910100Y-62382400D03*
%TO.P,P9,3*%
%TO.N,+3V3*%
X116370100Y-64922400D03*
%TO.P,P9,4*%
X118910100Y-64922400D03*
%TO.P,P9,5*%
%TO.N,+5V*%
X116370100Y-67462400D03*
%TO.P,P9,6*%
X118910100Y-67462400D03*
%TO.P,P9,7*%
%TO.N,SYS_5V*%
X116370100Y-70002400D03*
%TO.P,P9,8*%
X118910100Y-70002400D03*
%TO.P,P9,9*%
%TO.N,PWR_BUT*%
X116370100Y-72542400D03*
%TO.P,P9,10*%
%TO.N,SYS_RESETN*%
X118910100Y-72542400D03*
%TO.P,P9,11*%
%TO.N,Net-(P9-Pad11)*%
X116370100Y-75082400D03*
%TO.P,P9,12*%
%TO.N,Net-(P9-Pad12)*%
X118910100Y-75082400D03*
%TO.P,P9,13*%
%TO.N,Net-(P9-Pad13)*%
X116370100Y-77622400D03*
%TO.P,P9,14*%
%TO.N,Net-(P9-Pad14)*%
X118910100Y-77622400D03*
%TO.P,P9,15*%
%TO.N,Net-(P9-Pad15)*%
X116370100Y-80162400D03*
%TO.P,P9,16*%
%TO.N,Net-(P9-Pad16)*%
X118910100Y-80162400D03*
%TO.P,P9,17*%
%TO.N,Net-(P9-Pad17)*%
X116370100Y-82702400D03*
%TO.P,P9,18*%
%TO.N,Net-(P9-Pad18)*%
X118910100Y-82702400D03*
%TO.P,P9,19*%
%TO.N,OLED_SCL*%
X116370100Y-85242400D03*
%TO.P,P9,20*%
%TO.N,OLED_SDA*%
X118910100Y-85242400D03*
%TO.P,P9,21*%
%TO.N,Net-(P9-Pad21)*%
X116370100Y-87782400D03*
%TO.P,P9,22*%
%TO.N,Net-(P9-Pad22)*%
X118910100Y-87782400D03*
%TO.P,P9,23*%
%TO.N,Net-(P9-Pad23)*%
X116370100Y-90322400D03*
%TO.P,P9,24*%
%TO.N,Net-(P9-Pad24)*%
X118910100Y-90322400D03*
%TO.P,P9,25*%
%TO.N,Net-(P9-Pad25)*%
X116370100Y-92862400D03*
%TO.P,P9,26*%
%TO.N,Net-(P9-Pad26)*%
X118910100Y-92862400D03*
%TO.P,P9,27*%
%TO.N,Net-(P9-Pad27)*%
X116370100Y-95402400D03*
%TO.P,P9,28*%
%TO.N,Net-(P9-Pad28)*%
X118910100Y-95402400D03*
%TO.P,P9,29*%
%TO.N,Net-(P9-Pad29)*%
X116370100Y-97942400D03*
%TO.P,P9,30*%
%TO.N,Net-(P9-Pad30)*%
X118910100Y-97942400D03*
%TO.P,P9,31*%
%TO.N,Net-(P9-Pad31)*%
X116370100Y-100482400D03*
%TO.P,P9,32*%
%TO.N,VDD_ADC*%
X118910100Y-100482400D03*
%TO.P,P9,33*%
%TO.N,Net-(P9-Pad33)*%
X116370100Y-103022400D03*
%TO.P,P9,34*%
%TO.N,GNDA_ADC*%
X118910100Y-103022400D03*
%TO.P,P9,35*%
%TO.N,Net-(P9-Pad35)*%
X116370100Y-105562400D03*
%TO.P,P9,36*%
%TO.N,Net-(P9-Pad36)*%
X118910100Y-105562400D03*
%TO.P,P9,37*%
%TO.N,Net-(P9-Pad37)*%
X116370100Y-108102400D03*
%TO.P,P9,38*%
%TO.N,Net-(P9-Pad38)*%
X118910100Y-108102400D03*
%TO.P,P9,39*%
%TO.N,Net-(P9-Pad39)*%
X116370100Y-110642400D03*
%TO.P,P9,40*%
%TO.N,Net-(P9-Pad40)*%
X118910100Y-110642400D03*
%TO.P,P9,41*%
%TO.N,Net-(P9-Pad41)*%
X116370100Y-113182400D03*
%TO.P,P9,42*%
%TO.N,Net-(P9-Pad42)*%
X118910100Y-113182400D03*
%TO.P,P9,43*%
%TO.N,GNDD*%
X116370100Y-115722400D03*
%TO.P,P9,44*%
X118910100Y-115722400D03*
%TO.P,P9,45*%
X116370100Y-118262400D03*
%TO.P,P9,46*%
X118910100Y-118262400D03*
%TD*%
D20*
%TO.N,*%
X134912100Y-51968400D03*
X151358600Y-127660400D03*
%TO.N,GNDD*%
X121450100Y-66700400D03*
X117894100Y-45110400D03*
X122974100Y-43840400D03*
X129070100Y-43840400D03*
X115862100Y-50444400D03*
X115354100Y-58318400D03*
X118910100Y-60096400D03*
X131356100Y-58572400D03*
X133896100Y-64414400D03*
X128562100Y-68986400D03*
X123228100Y-70002400D03*
X130086100Y-72796400D03*
X127546100Y-62890400D03*
X126276100Y-60604400D03*
X123228100Y-62128400D03*
X123228100Y-59588400D03*
X121450100Y-68478400D03*
X125006100Y-74574400D03*
X159042100Y-117754400D03*
X158534100Y-114198400D03*
X159042100Y-101498400D03*
X159042100Y-105054400D03*
X125260100Y-108229400D03*
X125387100Y-114833400D03*
X155105100Y-48539400D03*
X158851600Y-44792900D03*
X165392100Y-44602400D03*
X167678100Y-50825400D03*
X167741600Y-58064400D03*
X159042100Y-57556400D03*
X150025100Y-65049400D03*
X142595600Y-65049400D03*
X151803100Y-68160900D03*
X143040100Y-68287900D03*
X135547100Y-68478400D03*
X155359100Y-65176400D03*
X156502100Y-64033400D03*
X161201100Y-69684900D03*
X162090100Y-62255400D03*
X162344100Y-78828900D03*
X159613600Y-72605900D03*
X152438100Y-71780400D03*
X154597100Y-73367900D03*
X157645100Y-82765900D03*
X161963100Y-84035900D03*
X152184100Y-84099400D03*
X152057100Y-86575900D03*
X158597600Y-86004400D03*
X162026600Y-91020900D03*
X161772600Y-94894400D03*
X161137600Y-97053400D03*
X158724600Y-93814900D03*
X156946600Y-96037400D03*
X153200100Y-97624900D03*
X151803100Y-98577400D03*
X154406600Y-101117400D03*
X154787600Y-103149400D03*
X161391600Y-104101900D03*
X162217100Y-110007400D03*
X160502600Y-105816400D03*
X158089600Y-109626400D03*
X151676100Y-109689900D03*
X151612600Y-111277400D03*
X155295600Y-111150400D03*
X138150600Y-111467900D03*
X131229100Y-111213900D03*
X126847600Y-109562900D03*
X121513600Y-108546900D03*
X121196100Y-111086900D03*
X129514600Y-112547400D03*
X134150100Y-112991900D03*
X130213100Y-114833400D03*
X124498100Y-116674900D03*
X122783600Y-117881400D03*
X126657100Y-118135400D03*
X121196100Y-119786400D03*
X126022100Y-123977400D03*
X127228600Y-122580400D03*
X139674600Y-124167900D03*
X150977600Y-124167900D03*
X117005100Y-120802400D03*
X119418100Y-124040900D03*
X124180600Y-127469900D03*
X131864100Y-128358900D03*
X139674600Y-128295400D03*
X155613100Y-128041400D03*
X160312100Y-127342900D03*
X164439600Y-125120400D03*
X166852600Y-121754900D03*
X162407600Y-119913400D03*
X157518100Y-124231400D03*
X161963100Y-118008400D03*
X151803100Y-114261900D03*
X142278100Y-120865900D03*
X142024100Y-114833400D03*
X142087600Y-112801400D03*
X142151100Y-111340900D03*
X141897100Y-106070400D03*
X141833600Y-98704400D03*
X141897100Y-90131900D03*
X142659100Y-86702900D03*
X143548100Y-98704400D03*
X143230600Y-103720900D03*
X143738600Y-88290400D03*
X142214600Y-81559400D03*
X142278100Y-74002900D03*
X141452600Y-71145400D03*
X121704100Y-92163900D03*
X121132600Y-97688400D03*
X123418600Y-94576900D03*
X124879100Y-94195900D03*
X126149100Y-97751900D03*
X130022600Y-100228400D03*
X132753100Y-98513900D03*
X130022600Y-85877400D03*
X134531100Y-86131400D03*
X131356100Y-88607900D03*
X121513600Y-84543900D03*
X123037600Y-82194400D03*
X124307600Y-84353400D03*
X124561600Y-101815900D03*
X125196600Y-100037900D03*
X154724100Y-113944400D03*
%TO.N,+3V3*%
X123736100Y-80924400D03*
X123710600Y-77139900D03*
X122212100Y-66192400D03*
X123736100Y-111785400D03*
X123736100Y-107086400D03*
%TO.N,OLED_SCL*%
X123990100Y-65938400D03*
%TO.N,String3*%
X161836100Y-96164400D03*
%TO.N,String6*%
X160566100Y-111150400D03*
%TO.N,String8*%
X142786100Y-109880400D03*
%TO.N,String7*%
X159550100Y-112166400D03*
%TO.N,Net-(R1-Pad2)*%
X158280100Y-115976400D03*
X156502100Y-121485410D03*
%TO.N,Net-(R8-Pad2)*%
X158026100Y-100736400D03*
X156248100Y-108102400D03*
%TO.N,Net-(R14-Pad2)*%
X158026100Y-88798400D03*
X155740100Y-94640400D03*
%TO.N,Net-(R20-Pad2)*%
X158026100Y-73812400D03*
X154978100Y-81178400D03*
%TD*%
D21*
%TO.N,GNDD*%
X121450100Y-68095270D02*
X121450100Y-68478400D01*
X119465831Y-66111001D02*
X121450100Y-68095270D01*
X118339571Y-66111001D02*
X119465831Y-66111001D01*
X117721499Y-65492929D02*
X118339571Y-66111001D01*
X117721499Y-63733799D02*
X117721499Y-65492929D01*
X116370100Y-62382400D02*
X117721499Y-63733799D01*
X125006100Y-71780400D02*
X123228100Y-70002400D01*
X125006100Y-74574400D02*
X125006100Y-71780400D01*
X159042100Y-114706400D02*
X158534100Y-114198400D01*
X159042100Y-117754400D02*
X159042100Y-114706400D01*
X159042100Y-101498400D02*
X159042100Y-105054400D01*
X125387100Y-108356400D02*
X125260100Y-108229400D01*
X125387100Y-114833400D02*
X125387100Y-108356400D01*
%TO.N,+3V3*%
X123736100Y-77165400D02*
X123710600Y-77139900D01*
X123736100Y-80924400D02*
X123736100Y-77165400D01*
X120942100Y-64922400D02*
X122212100Y-66192400D01*
X118910100Y-64922400D02*
X120942100Y-64922400D01*
X123736100Y-111785400D02*
X123736100Y-107086400D01*
D22*
%TO.N,+5V*%
X116370100Y-67462400D02*
X118910100Y-67462400D01*
D21*
%TO.N,OLED_SDA*%
X151477940Y-67107399D02*
X155926100Y-62659239D01*
X155926100Y-62659239D02*
X155926100Y-60540400D01*
X121958100Y-69494400D02*
X124345101Y-67107399D01*
X118910100Y-85242400D02*
X121958100Y-82194400D01*
X124345101Y-67107399D02*
X151477940Y-67107399D01*
X121958100Y-82194400D02*
X121958100Y-69494400D01*
%TO.N,OLED_SCL*%
X154601090Y-59325410D02*
X155926100Y-58000400D01*
X154601090Y-63347839D02*
X154601090Y-59325410D01*
X152010529Y-65938400D02*
X154601090Y-63347839D01*
X123990100Y-65938400D02*
X152010529Y-65938400D01*
%TO.N,String3*%
X165981499Y-96753799D02*
X167170100Y-97942400D01*
X162425499Y-96753799D02*
X165981499Y-96753799D01*
X161836100Y-96164400D02*
X162425499Y-96753799D01*
%TO.N,String6*%
X164122100Y-111150400D02*
X164630100Y-110642400D01*
X160566100Y-111150400D02*
X164122100Y-111150400D01*
%TO.N,String8*%
X151168100Y-113182400D02*
X151866600Y-113182400D01*
X147866100Y-109880400D02*
X151168100Y-113182400D01*
X142786100Y-109880400D02*
X147866100Y-109880400D01*
X151866600Y-113182400D02*
X164630100Y-113182400D01*
%TO.N,String7*%
X165854101Y-111866401D02*
X167170100Y-113182400D01*
X159850099Y-111866401D02*
X165854101Y-111866401D01*
X159550100Y-112166400D02*
X159850099Y-111866401D01*
%TO.N,Net-(R1-Pad2)*%
X158280100Y-115976400D02*
X158280100Y-120040400D01*
X156835090Y-121485410D02*
X156502100Y-121485410D01*
X158280100Y-120040400D02*
X156835090Y-121485410D01*
%TO.N,Net-(R8-Pad2)*%
X158026100Y-100736400D02*
X158026100Y-107340400D01*
X158026100Y-107340400D02*
X157264100Y-108102400D01*
X157264100Y-108102400D02*
X156248100Y-108102400D01*
%TO.N,Net-(R14-Pad2)*%
X158026100Y-88798400D02*
X158026100Y-93116400D01*
X156502100Y-94640400D02*
X155740100Y-94640400D01*
X158026100Y-93116400D02*
X156502100Y-94640400D01*
%TO.N,Net-(R20-Pad2)*%
X158026100Y-73812400D02*
X158026100Y-80162400D01*
X158026100Y-80162400D02*
X158026100Y-80670400D01*
X157518100Y-81178400D02*
X154978100Y-81178400D01*
X158026100Y-80670400D02*
X157518100Y-81178400D01*
D22*
%TO.N,/5Vin*%
X125323600Y-56731900D02*
X126276100Y-57684400D01*
X125323600Y-48158400D02*
X125323600Y-56731900D01*
%TD*%
D23*
%TO.N,GNDD*%
G36*
X154491087Y-43622909D02*
G01*
X154279325Y-43939834D01*
X154133461Y-44291981D01*
X154059100Y-44665819D01*
X154059100Y-45046981D01*
X154133461Y-45420819D01*
X154279325Y-45772966D01*
X154491087Y-46089891D01*
X154760609Y-46359413D01*
X155077534Y-46571175D01*
X155429681Y-46717039D01*
X155803519Y-46791400D01*
X156184681Y-46791400D01*
X156558519Y-46717039D01*
X156910666Y-46571175D01*
X157227591Y-46359413D01*
X157497113Y-46089891D01*
X157708875Y-45772966D01*
X157854739Y-45420819D01*
X157929100Y-45046981D01*
X157929100Y-44665819D01*
X157854739Y-44291981D01*
X157708875Y-43939834D01*
X157497113Y-43622909D01*
X157334874Y-43460670D01*
X162673392Y-43460670D01*
X163598300Y-43537157D01*
X164476731Y-43751739D01*
X165310777Y-44101097D01*
X166079902Y-44576626D01*
X166765167Y-45166615D01*
X167349708Y-45856550D01*
X167819117Y-46629424D01*
X168161844Y-47466216D01*
X168369594Y-48346940D01*
X168438831Y-49249575D01*
X168438831Y-61588780D01*
X168276954Y-61372107D01*
X168058588Y-61175583D01*
X167806078Y-61025436D01*
X167529127Y-60927437D01*
X167297100Y-61047936D01*
X167297100Y-62255400D01*
X167317100Y-62255400D01*
X167317100Y-62509400D01*
X167297100Y-62509400D01*
X167297100Y-62529400D01*
X167043100Y-62529400D01*
X167043100Y-62509400D01*
X164757100Y-62509400D01*
X164757100Y-62529400D01*
X164503100Y-62529400D01*
X164503100Y-62509400D01*
X163290250Y-62509400D01*
X163131500Y-62668150D01*
X163128428Y-63246000D01*
X163140688Y-63370482D01*
X163176998Y-63490180D01*
X163235963Y-63600494D01*
X163315315Y-63697185D01*
X163412006Y-63776537D01*
X163522320Y-63835502D01*
X163573365Y-63850986D01*
X163565303Y-63857603D01*
X163378031Y-64085794D01*
X163238875Y-64346136D01*
X163153184Y-64628623D01*
X163124249Y-64922400D01*
X163153184Y-65216177D01*
X163238875Y-65498664D01*
X163378031Y-65759006D01*
X163565303Y-65987197D01*
X163793494Y-66174469D01*
X163827040Y-66192400D01*
X163793494Y-66210331D01*
X163565303Y-66397603D01*
X163378031Y-66625794D01*
X163238875Y-66886136D01*
X163153184Y-67168623D01*
X163124249Y-67462400D01*
X163153184Y-67756177D01*
X163238875Y-68038664D01*
X163378031Y-68299006D01*
X163565303Y-68527197D01*
X163793494Y-68714469D01*
X163827040Y-68732400D01*
X163793494Y-68750331D01*
X163565303Y-68937603D01*
X163378031Y-69165794D01*
X163238875Y-69426136D01*
X163153184Y-69708623D01*
X163124249Y-70002400D01*
X163153184Y-70296177D01*
X163238875Y-70578664D01*
X163378031Y-70839006D01*
X163565303Y-71067197D01*
X163793494Y-71254469D01*
X163827040Y-71272400D01*
X163793494Y-71290331D01*
X163565303Y-71477603D01*
X163378031Y-71705794D01*
X163238875Y-71966136D01*
X163153184Y-72248623D01*
X163124249Y-72542400D01*
X163153184Y-72836177D01*
X163238875Y-73118664D01*
X163378031Y-73379006D01*
X163565303Y-73607197D01*
X163793494Y-73794469D01*
X163827040Y-73812400D01*
X163793494Y-73830331D01*
X163565303Y-74017603D01*
X163378031Y-74245794D01*
X163238875Y-74506136D01*
X163153184Y-74788623D01*
X163124249Y-75082400D01*
X163153184Y-75376177D01*
X163238875Y-75658664D01*
X163378031Y-75919006D01*
X163565303Y-76147197D01*
X163793494Y-76334469D01*
X163827040Y-76352400D01*
X163793494Y-76370331D01*
X163565303Y-76557603D01*
X163378031Y-76785794D01*
X163238875Y-77046136D01*
X163153184Y-77328623D01*
X163124249Y-77622400D01*
X163153184Y-77916177D01*
X163238875Y-78198664D01*
X163378031Y-78459006D01*
X163565303Y-78687197D01*
X163793494Y-78874469D01*
X163827040Y-78892400D01*
X163793494Y-78910331D01*
X163565303Y-79097603D01*
X163378031Y-79325794D01*
X163238875Y-79586136D01*
X163153184Y-79868623D01*
X163124249Y-80162400D01*
X163153184Y-80456177D01*
X163238875Y-80738664D01*
X163378031Y-80999006D01*
X163565303Y-81227197D01*
X163793494Y-81414469D01*
X163827040Y-81432400D01*
X163793494Y-81450331D01*
X163565303Y-81637603D01*
X163378031Y-81865794D01*
X163238875Y-82126136D01*
X163153184Y-82408623D01*
X163124249Y-82702400D01*
X163153184Y-82996177D01*
X163238875Y-83278664D01*
X163378031Y-83539006D01*
X163565303Y-83767197D01*
X163793494Y-83954469D01*
X163827040Y-83972400D01*
X163793494Y-83990331D01*
X163565303Y-84177603D01*
X163378031Y-84405794D01*
X163238875Y-84666136D01*
X163153184Y-84948623D01*
X163124249Y-85242400D01*
X163153184Y-85536177D01*
X163238875Y-85818664D01*
X163378031Y-86079006D01*
X163565303Y-86307197D01*
X163793494Y-86494469D01*
X163827040Y-86512400D01*
X163793494Y-86530331D01*
X163565303Y-86717603D01*
X163378031Y-86945794D01*
X163238875Y-87206136D01*
X163153184Y-87488623D01*
X163124249Y-87782400D01*
X163153184Y-88076177D01*
X163238875Y-88358664D01*
X163378031Y-88619006D01*
X163565303Y-88847197D01*
X163793494Y-89034469D01*
X163827040Y-89052400D01*
X163793494Y-89070331D01*
X163565303Y-89257603D01*
X163378031Y-89485794D01*
X163238875Y-89746136D01*
X163153184Y-90028623D01*
X163124249Y-90322400D01*
X163153184Y-90616177D01*
X163238875Y-90898664D01*
X163378031Y-91159006D01*
X163565303Y-91387197D01*
X163793494Y-91574469D01*
X163827040Y-91592400D01*
X163793494Y-91610331D01*
X163565303Y-91797603D01*
X163378031Y-92025794D01*
X163238875Y-92286136D01*
X163153184Y-92568623D01*
X163124249Y-92862400D01*
X163153184Y-93156177D01*
X163238875Y-93438664D01*
X163378031Y-93699006D01*
X163565303Y-93927197D01*
X163793494Y-94114469D01*
X163827040Y-94132400D01*
X163793494Y-94150331D01*
X163565303Y-94337603D01*
X163378031Y-94565794D01*
X163238875Y-94826136D01*
X163153184Y-95108623D01*
X163124249Y-95402400D01*
X163153184Y-95696177D01*
X163238875Y-95978664D01*
X163246965Y-95993799D01*
X162755483Y-95993799D01*
X162735168Y-95891671D01*
X162664686Y-95721511D01*
X162562362Y-95568372D01*
X162432128Y-95438138D01*
X162278989Y-95335814D01*
X162108829Y-95265332D01*
X161928189Y-95229400D01*
X161744011Y-95229400D01*
X161563371Y-95265332D01*
X161393211Y-95335814D01*
X161240072Y-95438138D01*
X161109838Y-95568372D01*
X161007514Y-95721511D01*
X160937032Y-95891671D01*
X160901100Y-96072311D01*
X160901100Y-96256489D01*
X160937032Y-96437129D01*
X161007514Y-96607289D01*
X161109838Y-96760428D01*
X161240072Y-96890662D01*
X161393211Y-96992986D01*
X161563371Y-97063468D01*
X161684451Y-97087553D01*
X161861699Y-97264801D01*
X161885498Y-97293800D01*
X161914496Y-97317598D01*
X162001222Y-97388773D01*
X162133252Y-97459345D01*
X162276513Y-97502802D01*
X162388166Y-97513799D01*
X162388175Y-97513799D01*
X162425498Y-97517475D01*
X162462821Y-97513799D01*
X163194082Y-97513799D01*
X163153184Y-97648623D01*
X163124249Y-97942400D01*
X163153184Y-98236177D01*
X163238875Y-98518664D01*
X163378031Y-98779006D01*
X163565303Y-99007197D01*
X163793494Y-99194469D01*
X163827040Y-99212400D01*
X163793494Y-99230331D01*
X163565303Y-99417603D01*
X163378031Y-99645794D01*
X163238875Y-99906136D01*
X163153184Y-100188623D01*
X163124249Y-100482400D01*
X163153184Y-100776177D01*
X163238875Y-101058664D01*
X163378031Y-101319006D01*
X163565303Y-101547197D01*
X163793494Y-101734469D01*
X163827040Y-101752400D01*
X163793494Y-101770331D01*
X163565303Y-101957603D01*
X163378031Y-102185794D01*
X163238875Y-102446136D01*
X163153184Y-102728623D01*
X163124249Y-103022400D01*
X163153184Y-103316177D01*
X163238875Y-103598664D01*
X163378031Y-103859006D01*
X163565303Y-104087197D01*
X163793494Y-104274469D01*
X163827040Y-104292400D01*
X163793494Y-104310331D01*
X163565303Y-104497603D01*
X163378031Y-104725794D01*
X163238875Y-104986136D01*
X163153184Y-105268623D01*
X163124249Y-105562400D01*
X163153184Y-105856177D01*
X163238875Y-106138664D01*
X163378031Y-106399006D01*
X163565303Y-106627197D01*
X163793494Y-106814469D01*
X163827040Y-106832400D01*
X163793494Y-106850331D01*
X163565303Y-107037603D01*
X163378031Y-107265794D01*
X163238875Y-107526136D01*
X163153184Y-107808623D01*
X163124249Y-108102400D01*
X163153184Y-108396177D01*
X163238875Y-108678664D01*
X163378031Y-108939006D01*
X163565303Y-109167197D01*
X163793494Y-109354469D01*
X163827040Y-109372400D01*
X163793494Y-109390331D01*
X163565303Y-109577603D01*
X163378031Y-109805794D01*
X163238875Y-110066136D01*
X163153184Y-110348623D01*
X163149069Y-110390400D01*
X161111635Y-110390400D01*
X161008989Y-110321814D01*
X160838829Y-110251332D01*
X160658189Y-110215400D01*
X160474011Y-110215400D01*
X160293371Y-110251332D01*
X160123211Y-110321814D01*
X159970072Y-110424138D01*
X159839838Y-110554372D01*
X159737514Y-110707511D01*
X159667032Y-110877671D01*
X159631100Y-111058311D01*
X159631100Y-111138636D01*
X159557852Y-111160855D01*
X159425823Y-111231427D01*
X159415569Y-111239842D01*
X159277371Y-111267332D01*
X159107211Y-111337814D01*
X158954072Y-111440138D01*
X158823838Y-111570372D01*
X158721514Y-111723511D01*
X158651032Y-111893671D01*
X158615100Y-112074311D01*
X158615100Y-112258489D01*
X158647704Y-112422400D01*
X151482902Y-112422400D01*
X148429904Y-109369403D01*
X148406101Y-109340399D01*
X148290376Y-109245426D01*
X148158347Y-109174854D01*
X148015086Y-109131397D01*
X147903433Y-109120400D01*
X147903422Y-109120400D01*
X147866100Y-109116724D01*
X147828778Y-109120400D01*
X143331635Y-109120400D01*
X143228989Y-109051814D01*
X143058829Y-108981332D01*
X142878189Y-108945400D01*
X142694011Y-108945400D01*
X142513371Y-108981332D01*
X142343211Y-109051814D01*
X142190072Y-109154138D01*
X142059838Y-109284372D01*
X141957514Y-109437511D01*
X141887032Y-109607671D01*
X141851100Y-109788311D01*
X141851100Y-109972489D01*
X141887032Y-110153129D01*
X141957514Y-110323289D01*
X142059838Y-110476428D01*
X142190072Y-110606662D01*
X142343211Y-110708986D01*
X142513371Y-110779468D01*
X142694011Y-110815400D01*
X142878189Y-110815400D01*
X143058829Y-110779468D01*
X143228989Y-110708986D01*
X143331635Y-110640400D01*
X147551299Y-110640400D01*
X149123956Y-112213057D01*
X148936123Y-112138671D01*
X148639100Y-112084400D01*
X147739100Y-112084400D01*
X147739100Y-113492400D01*
X149882478Y-113492400D01*
X150003136Y-113254660D01*
X149978855Y-113149313D01*
X149916816Y-113005918D01*
X150604301Y-113693403D01*
X150628099Y-113722401D01*
X150743824Y-113817374D01*
X150875853Y-113887946D01*
X151019114Y-113931403D01*
X151130767Y-113942400D01*
X151130776Y-113942400D01*
X151168099Y-113946076D01*
X151205422Y-113942400D01*
X163337084Y-113942400D01*
X163378031Y-114019006D01*
X163565303Y-114247197D01*
X163793494Y-114434469D01*
X163827040Y-114452400D01*
X163793494Y-114470331D01*
X163565303Y-114657603D01*
X163378031Y-114885794D01*
X163238875Y-115146136D01*
X163153184Y-115428623D01*
X163124249Y-115722400D01*
X163153184Y-116016177D01*
X163238875Y-116298664D01*
X163378031Y-116559006D01*
X163565303Y-116787197D01*
X163793494Y-116974469D01*
X163827040Y-116992400D01*
X163793494Y-117010331D01*
X163565303Y-117197603D01*
X163378031Y-117425794D01*
X163238875Y-117686136D01*
X163153184Y-117968623D01*
X163124249Y-118262400D01*
X163153184Y-118556177D01*
X163238875Y-118838664D01*
X163378031Y-119099006D01*
X163565303Y-119327197D01*
X163793494Y-119514469D01*
X164053836Y-119653625D01*
X164336323Y-119739316D01*
X164556481Y-119761000D01*
X164703719Y-119761000D01*
X164923877Y-119739316D01*
X165206364Y-119653625D01*
X165466706Y-119514469D01*
X165694897Y-119327197D01*
X165882169Y-119099006D01*
X165900100Y-119065460D01*
X165918031Y-119099006D01*
X166105303Y-119327197D01*
X166333494Y-119514469D01*
X166593836Y-119653625D01*
X166876323Y-119739316D01*
X167096481Y-119761000D01*
X167243719Y-119761000D01*
X167463877Y-119739316D01*
X167746364Y-119653625D01*
X167997742Y-119519260D01*
X167766864Y-120324430D01*
X167253667Y-121569537D01*
X166604882Y-122749674D01*
X165828586Y-123850144D01*
X164934462Y-124857219D01*
X163933653Y-125758351D01*
X162838639Y-126542304D01*
X161663061Y-127199313D01*
X160421563Y-127721191D01*
X159129638Y-128101425D01*
X157803368Y-128335282D01*
X156442664Y-128420891D01*
X156374031Y-128421130D01*
X151903043Y-128421130D01*
X151954628Y-128386662D01*
X152084862Y-128256428D01*
X152187186Y-128103289D01*
X152257668Y-127933129D01*
X152293600Y-127752489D01*
X152293600Y-127568311D01*
X152257668Y-127387671D01*
X152187186Y-127217511D01*
X152084862Y-127064372D01*
X151954628Y-126934138D01*
X151801489Y-126831814D01*
X151631329Y-126761332D01*
X151450689Y-126725400D01*
X151266511Y-126725400D01*
X151085871Y-126761332D01*
X150915711Y-126831814D01*
X150762572Y-126934138D01*
X150632338Y-127064372D01*
X150530014Y-127217511D01*
X150459532Y-127387671D01*
X150423600Y-127568311D01*
X150423600Y-127752489D01*
X150459532Y-127933129D01*
X150530014Y-128103289D01*
X150632338Y-128256428D01*
X150762572Y-128386662D01*
X150814157Y-128421130D01*
X127182875Y-128421130D01*
X125820482Y-128344961D01*
X124492617Y-128120369D01*
X123198070Y-127749164D01*
X121952963Y-127235967D01*
X120772826Y-126587182D01*
X119672356Y-125810886D01*
X118665281Y-124916762D01*
X117764149Y-123915953D01*
X116980196Y-122820939D01*
X116323187Y-121645361D01*
X115801309Y-120403863D01*
X115673440Y-119969400D01*
X135776028Y-119969400D01*
X135776028Y-121269400D01*
X135793092Y-121442654D01*
X135843628Y-121609250D01*
X135925695Y-121762786D01*
X136036138Y-121897362D01*
X136170714Y-122007805D01*
X136324250Y-122089872D01*
X136490846Y-122140408D01*
X136664100Y-122157472D01*
X139764100Y-122157472D01*
X139937354Y-122140408D01*
X140103950Y-122089872D01*
X140257486Y-122007805D01*
X140392062Y-121897362D01*
X140502505Y-121762786D01*
X140584572Y-121609250D01*
X140635108Y-121442654D01*
X140652172Y-121269400D01*
X140652172Y-119969400D01*
X145174028Y-119969400D01*
X145174028Y-121269400D01*
X145191092Y-121442654D01*
X145241628Y-121609250D01*
X145323695Y-121762786D01*
X145434138Y-121897362D01*
X145568714Y-122007805D01*
X145722250Y-122089872D01*
X145888846Y-122140408D01*
X146062100Y-122157472D01*
X149162100Y-122157472D01*
X149335354Y-122140408D01*
X149501950Y-122089872D01*
X149655486Y-122007805D01*
X149790062Y-121897362D01*
X149900505Y-121762786D01*
X149982572Y-121609250D01*
X150033108Y-121442654D01*
X150037966Y-121393321D01*
X155567100Y-121393321D01*
X155567100Y-121577499D01*
X155603032Y-121758139D01*
X155673514Y-121928299D01*
X155775838Y-122081438D01*
X155906072Y-122211672D01*
X156059211Y-122313996D01*
X156229371Y-122384478D01*
X156410011Y-122420410D01*
X156594189Y-122420410D01*
X156774829Y-122384478D01*
X156944989Y-122313996D01*
X157098128Y-122211672D01*
X157115146Y-122194654D01*
X157127337Y-122190956D01*
X157259366Y-122120384D01*
X157375091Y-122025411D01*
X157398894Y-121996407D01*
X158791103Y-120604199D01*
X158820101Y-120580401D01*
X158915074Y-120464676D01*
X158985646Y-120332647D01*
X159029103Y-120189386D01*
X159040100Y-120077733D01*
X159040100Y-120077725D01*
X159043776Y-120040400D01*
X159040100Y-120003075D01*
X159040100Y-116521935D01*
X159108686Y-116419289D01*
X159179168Y-116249129D01*
X159215100Y-116068489D01*
X159215100Y-115884311D01*
X159179168Y-115703671D01*
X159108686Y-115533511D01*
X159006362Y-115380372D01*
X158876128Y-115250138D01*
X158722989Y-115147814D01*
X158552829Y-115077332D01*
X158372189Y-115041400D01*
X158188011Y-115041400D01*
X158007371Y-115077332D01*
X157837211Y-115147814D01*
X157684072Y-115250138D01*
X157553838Y-115380372D01*
X157451514Y-115533511D01*
X157381032Y-115703671D01*
X157345100Y-115884311D01*
X157345100Y-116068489D01*
X157381032Y-116249129D01*
X157451514Y-116419289D01*
X157520100Y-116521936D01*
X157520101Y-119725597D01*
X156678515Y-120567184D01*
X156594189Y-120550410D01*
X156410011Y-120550410D01*
X156229371Y-120586342D01*
X156059211Y-120656824D01*
X155906072Y-120759148D01*
X155775838Y-120889382D01*
X155673514Y-121042521D01*
X155603032Y-121212681D01*
X155567100Y-121393321D01*
X150037966Y-121393321D01*
X150050172Y-121269400D01*
X150050172Y-119969400D01*
X150033108Y-119796146D01*
X149982572Y-119629550D01*
X149900505Y-119476014D01*
X149790062Y-119341438D01*
X149655486Y-119230995D01*
X149501950Y-119148928D01*
X149335354Y-119098392D01*
X149162100Y-119081328D01*
X146062100Y-119081328D01*
X145888846Y-119098392D01*
X145722250Y-119148928D01*
X145568714Y-119230995D01*
X145434138Y-119341438D01*
X145323695Y-119476014D01*
X145241628Y-119629550D01*
X145191092Y-119796146D01*
X145174028Y-119969400D01*
X140652172Y-119969400D01*
X140635108Y-119796146D01*
X140584572Y-119629550D01*
X140502505Y-119476014D01*
X140392062Y-119341438D01*
X140257486Y-119230995D01*
X140103950Y-119148928D01*
X139937354Y-119098392D01*
X139764100Y-119081328D01*
X136664100Y-119081328D01*
X136490846Y-119098392D01*
X136324250Y-119148928D01*
X136170714Y-119230995D01*
X136036138Y-119341438D01*
X135925695Y-119476014D01*
X135843628Y-119629550D01*
X135793092Y-119796146D01*
X135776028Y-119969400D01*
X115673440Y-119969400D01*
X115535692Y-119501374D01*
X115734122Y-119619364D01*
X116011073Y-119717363D01*
X116243100Y-119596864D01*
X116243100Y-118389400D01*
X116497100Y-118389400D01*
X116497100Y-119596864D01*
X116729127Y-119717363D01*
X117006078Y-119619364D01*
X117258588Y-119469217D01*
X117476954Y-119272693D01*
X117640100Y-119054322D01*
X117803246Y-119272693D01*
X118021612Y-119469217D01*
X118274122Y-119619364D01*
X118551073Y-119717363D01*
X118783100Y-119596864D01*
X118783100Y-118389400D01*
X119037100Y-118389400D01*
X119037100Y-119596864D01*
X119269127Y-119717363D01*
X119546078Y-119619364D01*
X119798588Y-119469217D01*
X120016954Y-119272693D01*
X120192784Y-119037344D01*
X120319322Y-118772214D01*
X120365058Y-118621426D01*
X120243917Y-118389400D01*
X119037100Y-118389400D01*
X118783100Y-118389400D01*
X116497100Y-118389400D01*
X116243100Y-118389400D01*
X116223100Y-118389400D01*
X116223100Y-118135400D01*
X116243100Y-118135400D01*
X116243100Y-115849400D01*
X116497100Y-115849400D01*
X116497100Y-118135400D01*
X118783100Y-118135400D01*
X118783100Y-115849400D01*
X119037100Y-115849400D01*
X119037100Y-118135400D01*
X120243917Y-118135400D01*
X120365058Y-117903374D01*
X120319322Y-117752586D01*
X120192784Y-117487456D01*
X120016954Y-117252107D01*
X119869498Y-117119400D01*
X135771673Y-117119400D01*
X135801310Y-117420313D01*
X135889083Y-117709661D01*
X136031619Y-117976327D01*
X136223439Y-118210061D01*
X136457173Y-118401881D01*
X136723839Y-118544417D01*
X137013187Y-118632190D01*
X137238692Y-118654400D01*
X139189508Y-118654400D01*
X139415013Y-118632190D01*
X139704361Y-118544417D01*
X139971027Y-118401881D01*
X140204761Y-118210061D01*
X140396581Y-117976327D01*
X140539117Y-117709661D01*
X140626890Y-117420313D01*
X140656527Y-117119400D01*
X145169673Y-117119400D01*
X145199310Y-117420313D01*
X145287083Y-117709661D01*
X145429619Y-117976327D01*
X145621439Y-118210061D01*
X145855173Y-118401881D01*
X146121839Y-118544417D01*
X146411187Y-118632190D01*
X146636692Y-118654400D01*
X148587508Y-118654400D01*
X148813013Y-118632190D01*
X149102361Y-118544417D01*
X149369027Y-118401881D01*
X149602761Y-118210061D01*
X149794581Y-117976327D01*
X149937117Y-117709661D01*
X150024890Y-117420313D01*
X150054527Y-117119400D01*
X150024890Y-116818487D01*
X149937117Y-116529139D01*
X149794581Y-116262473D01*
X149602761Y-116028739D01*
X149369027Y-115836919D01*
X149102361Y-115694383D01*
X148813013Y-115606610D01*
X148587508Y-115584400D01*
X146636692Y-115584400D01*
X146411187Y-115606610D01*
X146121839Y-115694383D01*
X145855173Y-115836919D01*
X145621439Y-116028739D01*
X145429619Y-116262473D01*
X145287083Y-116529139D01*
X145199310Y-116818487D01*
X145169673Y-117119400D01*
X140656527Y-117119400D01*
X140626890Y-116818487D01*
X140539117Y-116529139D01*
X140396581Y-116262473D01*
X140204761Y-116028739D01*
X139971027Y-115836919D01*
X139704361Y-115694383D01*
X139415013Y-115606610D01*
X139189508Y-115584400D01*
X137238692Y-115584400D01*
X137013187Y-115606610D01*
X136723839Y-115694383D01*
X136457173Y-115836919D01*
X136223439Y-116028739D01*
X136031619Y-116262473D01*
X135889083Y-116529139D01*
X135801310Y-116818487D01*
X135771673Y-117119400D01*
X119869498Y-117119400D01*
X119798588Y-117055583D01*
X119692330Y-116992400D01*
X119798588Y-116929217D01*
X120016954Y-116732693D01*
X120192784Y-116497344D01*
X120319322Y-116232214D01*
X120365058Y-116081426D01*
X120243917Y-115849400D01*
X119037100Y-115849400D01*
X118783100Y-115849400D01*
X116497100Y-115849400D01*
X116243100Y-115849400D01*
X116223100Y-115849400D01*
X116223100Y-115595400D01*
X116243100Y-115595400D01*
X116243100Y-115575400D01*
X116497100Y-115575400D01*
X116497100Y-115595400D01*
X118783100Y-115595400D01*
X118783100Y-115575400D01*
X119037100Y-115575400D01*
X119037100Y-115595400D01*
X120243917Y-115595400D01*
X120365058Y-115363374D01*
X120319322Y-115212586D01*
X120192784Y-114947456D01*
X120016954Y-114712107D01*
X119798588Y-114515583D01*
X119702190Y-114458263D01*
X119746706Y-114434469D01*
X119974897Y-114247197D01*
X120162169Y-114019006D01*
X120180805Y-113984140D01*
X135823064Y-113984140D01*
X135847345Y-114089487D01*
X135967238Y-114366604D01*
X136138890Y-114615006D01*
X136355704Y-114825148D01*
X136609349Y-114988954D01*
X136890077Y-115100129D01*
X137187100Y-115154400D01*
X138087100Y-115154400D01*
X138087100Y-113746400D01*
X138341100Y-113746400D01*
X138341100Y-115154400D01*
X139241100Y-115154400D01*
X139538123Y-115100129D01*
X139818851Y-114988954D01*
X140072496Y-114825148D01*
X140289310Y-114615006D01*
X140460962Y-114366604D01*
X140580855Y-114089487D01*
X140605136Y-113984140D01*
X145221064Y-113984140D01*
X145245345Y-114089487D01*
X145365238Y-114366604D01*
X145536890Y-114615006D01*
X145753704Y-114825148D01*
X146007349Y-114988954D01*
X146288077Y-115100129D01*
X146585100Y-115154400D01*
X147485100Y-115154400D01*
X147485100Y-113746400D01*
X147739100Y-113746400D01*
X147739100Y-115154400D01*
X148639100Y-115154400D01*
X148936123Y-115100129D01*
X149216851Y-114988954D01*
X149470496Y-114825148D01*
X149687310Y-114615006D01*
X149858962Y-114366604D01*
X149978855Y-114089487D01*
X150003136Y-113984140D01*
X149882478Y-113746400D01*
X147739100Y-113746400D01*
X147485100Y-113746400D01*
X145341722Y-113746400D01*
X145221064Y-113984140D01*
X140605136Y-113984140D01*
X140484478Y-113746400D01*
X138341100Y-113746400D01*
X138087100Y-113746400D01*
X135943722Y-113746400D01*
X135823064Y-113984140D01*
X120180805Y-113984140D01*
X120301325Y-113758664D01*
X120387016Y-113476177D01*
X120408833Y-113254660D01*
X135823064Y-113254660D01*
X135943722Y-113492400D01*
X138087100Y-113492400D01*
X138087100Y-112084400D01*
X138341100Y-112084400D01*
X138341100Y-113492400D01*
X140484478Y-113492400D01*
X140605136Y-113254660D01*
X145221064Y-113254660D01*
X145341722Y-113492400D01*
X147485100Y-113492400D01*
X147485100Y-112084400D01*
X146585100Y-112084400D01*
X146288077Y-112138671D01*
X146007349Y-112249846D01*
X145753704Y-112413652D01*
X145536890Y-112623794D01*
X145365238Y-112872196D01*
X145245345Y-113149313D01*
X145221064Y-113254660D01*
X140605136Y-113254660D01*
X140580855Y-113149313D01*
X140460962Y-112872196D01*
X140289310Y-112623794D01*
X140072496Y-112413652D01*
X139818851Y-112249846D01*
X139538123Y-112138671D01*
X139241100Y-112084400D01*
X138341100Y-112084400D01*
X138087100Y-112084400D01*
X137187100Y-112084400D01*
X136890077Y-112138671D01*
X136609349Y-112249846D01*
X136355704Y-112413652D01*
X136138890Y-112623794D01*
X135967238Y-112872196D01*
X135847345Y-113149313D01*
X135823064Y-113254660D01*
X120408833Y-113254660D01*
X120415951Y-113182400D01*
X120387016Y-112888623D01*
X120301325Y-112606136D01*
X120162169Y-112345794D01*
X119974897Y-112117603D01*
X119746706Y-111930331D01*
X119713160Y-111912400D01*
X119746706Y-111894469D01*
X119974897Y-111707197D01*
X120162169Y-111479006D01*
X120301325Y-111218664D01*
X120387016Y-110936177D01*
X120415951Y-110642400D01*
X120387016Y-110348623D01*
X120301325Y-110066136D01*
X120162169Y-109805794D01*
X119974897Y-109577603D01*
X119746706Y-109390331D01*
X119713160Y-109372400D01*
X119746706Y-109354469D01*
X119974897Y-109167197D01*
X120162169Y-108939006D01*
X120301325Y-108678664D01*
X120387016Y-108396177D01*
X120415951Y-108102400D01*
X120387016Y-107808623D01*
X120301325Y-107526136D01*
X120162169Y-107265794D01*
X119974897Y-107037603D01*
X119922146Y-106994311D01*
X122801100Y-106994311D01*
X122801100Y-107178489D01*
X122837032Y-107359129D01*
X122907514Y-107529289D01*
X122976101Y-107631937D01*
X122976100Y-111239864D01*
X122907514Y-111342511D01*
X122837032Y-111512671D01*
X122801100Y-111693311D01*
X122801100Y-111877489D01*
X122837032Y-112058129D01*
X122907514Y-112228289D01*
X123009838Y-112381428D01*
X123140072Y-112511662D01*
X123293211Y-112613986D01*
X123463371Y-112684468D01*
X123644011Y-112720400D01*
X123828189Y-112720400D01*
X124008829Y-112684468D01*
X124178989Y-112613986D01*
X124332128Y-112511662D01*
X124462362Y-112381428D01*
X124564686Y-112228289D01*
X124635168Y-112058129D01*
X124671100Y-111877489D01*
X124671100Y-111693311D01*
X124635168Y-111512671D01*
X124564686Y-111342511D01*
X124496100Y-111239865D01*
X124496100Y-107631935D01*
X124564686Y-107529289D01*
X124635168Y-107359129D01*
X124671100Y-107178489D01*
X124671100Y-106994311D01*
X124635168Y-106813671D01*
X124564686Y-106643511D01*
X124558599Y-106634400D01*
X135776028Y-106634400D01*
X135776028Y-107934400D01*
X135793092Y-108107654D01*
X135843628Y-108274250D01*
X135925695Y-108427786D01*
X136036138Y-108562362D01*
X136170714Y-108672805D01*
X136324250Y-108754872D01*
X136490846Y-108805408D01*
X136664100Y-108822472D01*
X139764100Y-108822472D01*
X139937354Y-108805408D01*
X140103950Y-108754872D01*
X140257486Y-108672805D01*
X140392062Y-108562362D01*
X140502505Y-108427786D01*
X140584572Y-108274250D01*
X140635108Y-108107654D01*
X140652172Y-107934400D01*
X140652172Y-106634400D01*
X145174028Y-106634400D01*
X145174028Y-107934400D01*
X145191092Y-108107654D01*
X145241628Y-108274250D01*
X145323695Y-108427786D01*
X145434138Y-108562362D01*
X145568714Y-108672805D01*
X145722250Y-108754872D01*
X145888846Y-108805408D01*
X146062100Y-108822472D01*
X149162100Y-108822472D01*
X149335354Y-108805408D01*
X149501950Y-108754872D01*
X149655486Y-108672805D01*
X149790062Y-108562362D01*
X149900505Y-108427786D01*
X149982572Y-108274250D01*
X150033108Y-108107654D01*
X150042695Y-108010311D01*
X155313100Y-108010311D01*
X155313100Y-108194489D01*
X155349032Y-108375129D01*
X155419514Y-108545289D01*
X155521838Y-108698428D01*
X155652072Y-108828662D01*
X155805211Y-108930986D01*
X155975371Y-109001468D01*
X156156011Y-109037400D01*
X156340189Y-109037400D01*
X156520829Y-109001468D01*
X156690989Y-108930986D01*
X156793635Y-108862400D01*
X157226778Y-108862400D01*
X157264100Y-108866076D01*
X157301422Y-108862400D01*
X157301433Y-108862400D01*
X157413086Y-108851403D01*
X157556347Y-108807946D01*
X157688376Y-108737374D01*
X157804101Y-108642401D01*
X157827903Y-108613398D01*
X158537102Y-107904199D01*
X158566101Y-107880401D01*
X158661074Y-107764676D01*
X158731646Y-107632647D01*
X158775103Y-107489386D01*
X158786100Y-107377733D01*
X158786100Y-107377725D01*
X158789776Y-107340400D01*
X158786100Y-107303075D01*
X158786100Y-101281935D01*
X158854686Y-101179289D01*
X158925168Y-101009129D01*
X158961100Y-100828489D01*
X158961100Y-100644311D01*
X158925168Y-100463671D01*
X158854686Y-100293511D01*
X158752362Y-100140372D01*
X158622128Y-100010138D01*
X158468989Y-99907814D01*
X158298829Y-99837332D01*
X158118189Y-99801400D01*
X157934011Y-99801400D01*
X157753371Y-99837332D01*
X157583211Y-99907814D01*
X157430072Y-100010138D01*
X157299838Y-100140372D01*
X157197514Y-100293511D01*
X157127032Y-100463671D01*
X157091100Y-100644311D01*
X157091100Y-100828489D01*
X157127032Y-101009129D01*
X157197514Y-101179289D01*
X157266100Y-101281936D01*
X157266101Y-107025597D01*
X156949299Y-107342400D01*
X156793635Y-107342400D01*
X156690989Y-107273814D01*
X156520829Y-107203332D01*
X156340189Y-107167400D01*
X156156011Y-107167400D01*
X155975371Y-107203332D01*
X155805211Y-107273814D01*
X155652072Y-107376138D01*
X155521838Y-107506372D01*
X155419514Y-107659511D01*
X155349032Y-107829671D01*
X155313100Y-108010311D01*
X150042695Y-108010311D01*
X150050172Y-107934400D01*
X150050172Y-106634400D01*
X150033108Y-106461146D01*
X149982572Y-106294550D01*
X149900505Y-106141014D01*
X149790062Y-106006438D01*
X149655486Y-105895995D01*
X149501950Y-105813928D01*
X149335354Y-105763392D01*
X149162100Y-105746328D01*
X146062100Y-105746328D01*
X145888846Y-105763392D01*
X145722250Y-105813928D01*
X145568714Y-105895995D01*
X145434138Y-106006438D01*
X145323695Y-106141014D01*
X145241628Y-106294550D01*
X145191092Y-106461146D01*
X145174028Y-106634400D01*
X140652172Y-106634400D01*
X140635108Y-106461146D01*
X140584572Y-106294550D01*
X140502505Y-106141014D01*
X140392062Y-106006438D01*
X140257486Y-105895995D01*
X140103950Y-105813928D01*
X139937354Y-105763392D01*
X139764100Y-105746328D01*
X136664100Y-105746328D01*
X136490846Y-105763392D01*
X136324250Y-105813928D01*
X136170714Y-105895995D01*
X136036138Y-106006438D01*
X135925695Y-106141014D01*
X135843628Y-106294550D01*
X135793092Y-106461146D01*
X135776028Y-106634400D01*
X124558599Y-106634400D01*
X124462362Y-106490372D01*
X124332128Y-106360138D01*
X124178989Y-106257814D01*
X124008829Y-106187332D01*
X123828189Y-106151400D01*
X123644011Y-106151400D01*
X123463371Y-106187332D01*
X123293211Y-106257814D01*
X123140072Y-106360138D01*
X123009838Y-106490372D01*
X122907514Y-106643511D01*
X122837032Y-106813671D01*
X122801100Y-106994311D01*
X119922146Y-106994311D01*
X119746706Y-106850331D01*
X119713160Y-106832400D01*
X119746706Y-106814469D01*
X119974897Y-106627197D01*
X120162169Y-106399006D01*
X120301325Y-106138664D01*
X120387016Y-105856177D01*
X120415951Y-105562400D01*
X120387016Y-105268623D01*
X120301325Y-104986136D01*
X120162169Y-104725794D01*
X119974897Y-104497603D01*
X119746706Y-104310331D01*
X119713160Y-104292400D01*
X119746706Y-104274469D01*
X119974897Y-104087197D01*
X120162169Y-103859006D01*
X120202046Y-103784400D01*
X135771673Y-103784400D01*
X135801310Y-104085313D01*
X135889083Y-104374661D01*
X136031619Y-104641327D01*
X136223439Y-104875061D01*
X136457173Y-105066881D01*
X136723839Y-105209417D01*
X137013187Y-105297190D01*
X137238692Y-105319400D01*
X139189508Y-105319400D01*
X139415013Y-105297190D01*
X139704361Y-105209417D01*
X139971027Y-105066881D01*
X140204761Y-104875061D01*
X140396581Y-104641327D01*
X140539117Y-104374661D01*
X140626890Y-104085313D01*
X140656527Y-103784400D01*
X145169673Y-103784400D01*
X145199310Y-104085313D01*
X145287083Y-104374661D01*
X145429619Y-104641327D01*
X145621439Y-104875061D01*
X145855173Y-105066881D01*
X146121839Y-105209417D01*
X146411187Y-105297190D01*
X146636692Y-105319400D01*
X148587508Y-105319400D01*
X148813013Y-105297190D01*
X149102361Y-105209417D01*
X149369027Y-105066881D01*
X149602761Y-104875061D01*
X149794581Y-104641327D01*
X149937117Y-104374661D01*
X150024890Y-104085313D01*
X150054527Y-103784400D01*
X150024890Y-103483487D01*
X149937117Y-103194139D01*
X149794581Y-102927473D01*
X149602761Y-102693739D01*
X149369027Y-102501919D01*
X149102361Y-102359383D01*
X148813013Y-102271610D01*
X148587508Y-102249400D01*
X146636692Y-102249400D01*
X146411187Y-102271610D01*
X146121839Y-102359383D01*
X145855173Y-102501919D01*
X145621439Y-102693739D01*
X145429619Y-102927473D01*
X145287083Y-103194139D01*
X145199310Y-103483487D01*
X145169673Y-103784400D01*
X140656527Y-103784400D01*
X140626890Y-103483487D01*
X140539117Y-103194139D01*
X140396581Y-102927473D01*
X140204761Y-102693739D01*
X139971027Y-102501919D01*
X139704361Y-102359383D01*
X139415013Y-102271610D01*
X139189508Y-102249400D01*
X137238692Y-102249400D01*
X137013187Y-102271610D01*
X136723839Y-102359383D01*
X136457173Y-102501919D01*
X136223439Y-102693739D01*
X136031619Y-102927473D01*
X135889083Y-103194139D01*
X135801310Y-103483487D01*
X135771673Y-103784400D01*
X120202046Y-103784400D01*
X120301325Y-103598664D01*
X120387016Y-103316177D01*
X120415951Y-103022400D01*
X120387016Y-102728623D01*
X120301325Y-102446136D01*
X120162169Y-102185794D01*
X119974897Y-101957603D01*
X119746706Y-101770331D01*
X119713160Y-101752400D01*
X119746706Y-101734469D01*
X119974897Y-101547197D01*
X120162169Y-101319006D01*
X120301325Y-101058664D01*
X120387016Y-100776177D01*
X120399528Y-100649140D01*
X135823064Y-100649140D01*
X135847345Y-100754487D01*
X135967238Y-101031604D01*
X136138890Y-101280006D01*
X136355704Y-101490148D01*
X136609349Y-101653954D01*
X136890077Y-101765129D01*
X137187100Y-101819400D01*
X138087100Y-101819400D01*
X138087100Y-100411400D01*
X138341100Y-100411400D01*
X138341100Y-101819400D01*
X139241100Y-101819400D01*
X139538123Y-101765129D01*
X139818851Y-101653954D01*
X140072496Y-101490148D01*
X140289310Y-101280006D01*
X140460962Y-101031604D01*
X140580855Y-100754487D01*
X140605136Y-100649140D01*
X145221064Y-100649140D01*
X145245345Y-100754487D01*
X145365238Y-101031604D01*
X145536890Y-101280006D01*
X145753704Y-101490148D01*
X146007349Y-101653954D01*
X146288077Y-101765129D01*
X146585100Y-101819400D01*
X147485100Y-101819400D01*
X147485100Y-100411400D01*
X147739100Y-100411400D01*
X147739100Y-101819400D01*
X148639100Y-101819400D01*
X148936123Y-101765129D01*
X149216851Y-101653954D01*
X149470496Y-101490148D01*
X149687310Y-101280006D01*
X149858962Y-101031604D01*
X149978855Y-100754487D01*
X150003136Y-100649140D01*
X149882478Y-100411400D01*
X147739100Y-100411400D01*
X147485100Y-100411400D01*
X145341722Y-100411400D01*
X145221064Y-100649140D01*
X140605136Y-100649140D01*
X140484478Y-100411400D01*
X138341100Y-100411400D01*
X138087100Y-100411400D01*
X135943722Y-100411400D01*
X135823064Y-100649140D01*
X120399528Y-100649140D01*
X120415951Y-100482400D01*
X120387016Y-100188623D01*
X120305428Y-99919660D01*
X135823064Y-99919660D01*
X135943722Y-100157400D01*
X138087100Y-100157400D01*
X138087100Y-98749400D01*
X138341100Y-98749400D01*
X138341100Y-100157400D01*
X140484478Y-100157400D01*
X140605136Y-99919660D01*
X145221064Y-99919660D01*
X145341722Y-100157400D01*
X147485100Y-100157400D01*
X147485100Y-98749400D01*
X147739100Y-98749400D01*
X147739100Y-100157400D01*
X149882478Y-100157400D01*
X150003136Y-99919660D01*
X149978855Y-99814313D01*
X149858962Y-99537196D01*
X149687310Y-99288794D01*
X149470496Y-99078652D01*
X149216851Y-98914846D01*
X148936123Y-98803671D01*
X148639100Y-98749400D01*
X147739100Y-98749400D01*
X147485100Y-98749400D01*
X146585100Y-98749400D01*
X146288077Y-98803671D01*
X146007349Y-98914846D01*
X145753704Y-99078652D01*
X145536890Y-99288794D01*
X145365238Y-99537196D01*
X145245345Y-99814313D01*
X145221064Y-99919660D01*
X140605136Y-99919660D01*
X140580855Y-99814313D01*
X140460962Y-99537196D01*
X140289310Y-99288794D01*
X140072496Y-99078652D01*
X139818851Y-98914846D01*
X139538123Y-98803671D01*
X139241100Y-98749400D01*
X138341100Y-98749400D01*
X138087100Y-98749400D01*
X137187100Y-98749400D01*
X136890077Y-98803671D01*
X136609349Y-98914846D01*
X136355704Y-99078652D01*
X136138890Y-99288794D01*
X135967238Y-99537196D01*
X135847345Y-99814313D01*
X135823064Y-99919660D01*
X120305428Y-99919660D01*
X120301325Y-99906136D01*
X120162169Y-99645794D01*
X119974897Y-99417603D01*
X119746706Y-99230331D01*
X119713160Y-99212400D01*
X119746706Y-99194469D01*
X119974897Y-99007197D01*
X120162169Y-98779006D01*
X120301325Y-98518664D01*
X120387016Y-98236177D01*
X120415951Y-97942400D01*
X120387016Y-97648623D01*
X120301325Y-97366136D01*
X120162169Y-97105794D01*
X119974897Y-96877603D01*
X119746706Y-96690331D01*
X119713160Y-96672400D01*
X119746706Y-96654469D01*
X119974897Y-96467197D01*
X120162169Y-96239006D01*
X120301325Y-95978664D01*
X120387016Y-95696177D01*
X120415951Y-95402400D01*
X120387016Y-95108623D01*
X120301325Y-94826136D01*
X120162169Y-94565794D01*
X119974897Y-94337603D01*
X119746706Y-94150331D01*
X119713160Y-94132400D01*
X119746706Y-94114469D01*
X119974897Y-93927197D01*
X120162169Y-93699006D01*
X120301325Y-93438664D01*
X120307320Y-93418900D01*
X135776028Y-93418900D01*
X135776028Y-94718900D01*
X135793092Y-94892154D01*
X135843628Y-95058750D01*
X135925695Y-95212286D01*
X136036138Y-95346862D01*
X136170714Y-95457305D01*
X136324250Y-95539372D01*
X136490846Y-95589908D01*
X136664100Y-95606972D01*
X139764100Y-95606972D01*
X139937354Y-95589908D01*
X140103950Y-95539372D01*
X140257486Y-95457305D01*
X140392062Y-95346862D01*
X140502505Y-95212286D01*
X140584572Y-95058750D01*
X140635108Y-94892154D01*
X140652172Y-94718900D01*
X140652172Y-93426400D01*
X145174028Y-93426400D01*
X145174028Y-94726400D01*
X145191092Y-94899654D01*
X145241628Y-95066250D01*
X145323695Y-95219786D01*
X145434138Y-95354362D01*
X145568714Y-95464805D01*
X145722250Y-95546872D01*
X145888846Y-95597408D01*
X146062100Y-95614472D01*
X149162100Y-95614472D01*
X149335354Y-95597408D01*
X149501950Y-95546872D01*
X149655486Y-95464805D01*
X149790062Y-95354362D01*
X149900505Y-95219786D01*
X149982572Y-95066250D01*
X150033108Y-94899654D01*
X150050172Y-94726400D01*
X150050172Y-94548311D01*
X154805100Y-94548311D01*
X154805100Y-94732489D01*
X154841032Y-94913129D01*
X154911514Y-95083289D01*
X155013838Y-95236428D01*
X155144072Y-95366662D01*
X155297211Y-95468986D01*
X155467371Y-95539468D01*
X155648011Y-95575400D01*
X155832189Y-95575400D01*
X156012829Y-95539468D01*
X156182989Y-95468986D01*
X156285635Y-95400400D01*
X156464778Y-95400400D01*
X156502100Y-95404076D01*
X156539422Y-95400400D01*
X156539433Y-95400400D01*
X156651086Y-95389403D01*
X156794347Y-95345946D01*
X156926376Y-95275374D01*
X157042101Y-95180401D01*
X157065903Y-95151398D01*
X158537108Y-93680195D01*
X158566101Y-93656401D01*
X158589895Y-93627408D01*
X158589899Y-93627404D01*
X158661073Y-93540677D01*
X158661074Y-93540676D01*
X158731646Y-93408647D01*
X158775103Y-93265386D01*
X158786100Y-93153733D01*
X158786100Y-93153724D01*
X158789776Y-93116401D01*
X158786100Y-93079078D01*
X158786100Y-89343935D01*
X158854686Y-89241289D01*
X158925168Y-89071129D01*
X158961100Y-88890489D01*
X158961100Y-88706311D01*
X158925168Y-88525671D01*
X158854686Y-88355511D01*
X158752362Y-88202372D01*
X158622128Y-88072138D01*
X158468989Y-87969814D01*
X158298829Y-87899332D01*
X158118189Y-87863400D01*
X157934011Y-87863400D01*
X157753371Y-87899332D01*
X157583211Y-87969814D01*
X157430072Y-88072138D01*
X157299838Y-88202372D01*
X157197514Y-88355511D01*
X157127032Y-88525671D01*
X157091100Y-88706311D01*
X157091100Y-88890489D01*
X157127032Y-89071129D01*
X157197514Y-89241289D01*
X157266100Y-89343936D01*
X157266101Y-92801596D01*
X156226687Y-93841012D01*
X156182989Y-93811814D01*
X156012829Y-93741332D01*
X155832189Y-93705400D01*
X155648011Y-93705400D01*
X155467371Y-93741332D01*
X155297211Y-93811814D01*
X155144072Y-93914138D01*
X155013838Y-94044372D01*
X154911514Y-94197511D01*
X154841032Y-94367671D01*
X154805100Y-94548311D01*
X150050172Y-94548311D01*
X150050172Y-93426400D01*
X150033108Y-93253146D01*
X149982572Y-93086550D01*
X149900505Y-92933014D01*
X149790062Y-92798438D01*
X149655486Y-92687995D01*
X149501950Y-92605928D01*
X149335354Y-92555392D01*
X149162100Y-92538328D01*
X146062100Y-92538328D01*
X145888846Y-92555392D01*
X145722250Y-92605928D01*
X145568714Y-92687995D01*
X145434138Y-92798438D01*
X145323695Y-92933014D01*
X145241628Y-93086550D01*
X145191092Y-93253146D01*
X145174028Y-93426400D01*
X140652172Y-93426400D01*
X140652172Y-93418900D01*
X140635108Y-93245646D01*
X140584572Y-93079050D01*
X140502505Y-92925514D01*
X140392062Y-92790938D01*
X140257486Y-92680495D01*
X140103950Y-92598428D01*
X139937354Y-92547892D01*
X139764100Y-92530828D01*
X136664100Y-92530828D01*
X136490846Y-92547892D01*
X136324250Y-92598428D01*
X136170714Y-92680495D01*
X136036138Y-92790938D01*
X135925695Y-92925514D01*
X135843628Y-93079050D01*
X135793092Y-93245646D01*
X135776028Y-93418900D01*
X120307320Y-93418900D01*
X120387016Y-93156177D01*
X120415951Y-92862400D01*
X120387016Y-92568623D01*
X120301325Y-92286136D01*
X120162169Y-92025794D01*
X119974897Y-91797603D01*
X119746706Y-91610331D01*
X119713160Y-91592400D01*
X119746706Y-91574469D01*
X119974897Y-91387197D01*
X120162169Y-91159006D01*
X120301325Y-90898664D01*
X120387016Y-90616177D01*
X120391672Y-90568900D01*
X135771673Y-90568900D01*
X135801310Y-90869813D01*
X135889083Y-91159161D01*
X136031619Y-91425827D01*
X136223439Y-91659561D01*
X136457173Y-91851381D01*
X136723839Y-91993917D01*
X137013187Y-92081690D01*
X137238692Y-92103900D01*
X139189508Y-92103900D01*
X139415013Y-92081690D01*
X139704361Y-91993917D01*
X139971027Y-91851381D01*
X140204761Y-91659561D01*
X140396581Y-91425827D01*
X140539117Y-91159161D01*
X140626890Y-90869813D01*
X140655788Y-90576400D01*
X145169673Y-90576400D01*
X145199310Y-90877313D01*
X145287083Y-91166661D01*
X145429619Y-91433327D01*
X145621439Y-91667061D01*
X145855173Y-91858881D01*
X146121839Y-92001417D01*
X146411187Y-92089190D01*
X146636692Y-92111400D01*
X148587508Y-92111400D01*
X148813013Y-92089190D01*
X149102361Y-92001417D01*
X149369027Y-91858881D01*
X149602761Y-91667061D01*
X149794581Y-91433327D01*
X149937117Y-91166661D01*
X150024890Y-90877313D01*
X150054527Y-90576400D01*
X150024890Y-90275487D01*
X149937117Y-89986139D01*
X149794581Y-89719473D01*
X149602761Y-89485739D01*
X149369027Y-89293919D01*
X149102361Y-89151383D01*
X148813013Y-89063610D01*
X148587508Y-89041400D01*
X146636692Y-89041400D01*
X146411187Y-89063610D01*
X146121839Y-89151383D01*
X145855173Y-89293919D01*
X145621439Y-89485739D01*
X145429619Y-89719473D01*
X145287083Y-89986139D01*
X145199310Y-90275487D01*
X145169673Y-90576400D01*
X140655788Y-90576400D01*
X140656527Y-90568900D01*
X140626890Y-90267987D01*
X140539117Y-89978639D01*
X140396581Y-89711973D01*
X140204761Y-89478239D01*
X139971027Y-89286419D01*
X139704361Y-89143883D01*
X139415013Y-89056110D01*
X139189508Y-89033900D01*
X137238692Y-89033900D01*
X137013187Y-89056110D01*
X136723839Y-89143883D01*
X136457173Y-89286419D01*
X136223439Y-89478239D01*
X136031619Y-89711973D01*
X135889083Y-89978639D01*
X135801310Y-90267987D01*
X135771673Y-90568900D01*
X120391672Y-90568900D01*
X120415951Y-90322400D01*
X120387016Y-90028623D01*
X120301325Y-89746136D01*
X120162169Y-89485794D01*
X119974897Y-89257603D01*
X119746706Y-89070331D01*
X119713160Y-89052400D01*
X119746706Y-89034469D01*
X119974897Y-88847197D01*
X120162169Y-88619006D01*
X120301325Y-88358664D01*
X120387016Y-88076177D01*
X120415951Y-87782400D01*
X120387016Y-87488623D01*
X120370338Y-87433640D01*
X135823064Y-87433640D01*
X135847345Y-87538987D01*
X135967238Y-87816104D01*
X136138890Y-88064506D01*
X136355704Y-88274648D01*
X136609349Y-88438454D01*
X136890077Y-88549629D01*
X137187100Y-88603900D01*
X138087100Y-88603900D01*
X138087100Y-87195900D01*
X138341100Y-87195900D01*
X138341100Y-88603900D01*
X139241100Y-88603900D01*
X139538123Y-88549629D01*
X139818851Y-88438454D01*
X140072496Y-88274648D01*
X140289310Y-88064506D01*
X140460962Y-87816104D01*
X140580855Y-87538987D01*
X140603407Y-87441140D01*
X145221064Y-87441140D01*
X145245345Y-87546487D01*
X145365238Y-87823604D01*
X145536890Y-88072006D01*
X145753704Y-88282148D01*
X146007349Y-88445954D01*
X146288077Y-88557129D01*
X146585100Y-88611400D01*
X147485100Y-88611400D01*
X147485100Y-87203400D01*
X147739100Y-87203400D01*
X147739100Y-88611400D01*
X148639100Y-88611400D01*
X148936123Y-88557129D01*
X149216851Y-88445954D01*
X149470496Y-88282148D01*
X149687310Y-88072006D01*
X149858962Y-87823604D01*
X149978855Y-87546487D01*
X150003136Y-87441140D01*
X149882478Y-87203400D01*
X147739100Y-87203400D01*
X147485100Y-87203400D01*
X145341722Y-87203400D01*
X145221064Y-87441140D01*
X140603407Y-87441140D01*
X140605136Y-87433640D01*
X140484478Y-87195900D01*
X138341100Y-87195900D01*
X138087100Y-87195900D01*
X135943722Y-87195900D01*
X135823064Y-87433640D01*
X120370338Y-87433640D01*
X120301325Y-87206136D01*
X120162169Y-86945794D01*
X119974897Y-86717603D01*
X119958517Y-86704160D01*
X135823064Y-86704160D01*
X135943722Y-86941900D01*
X138087100Y-86941900D01*
X138087100Y-85533900D01*
X138341100Y-85533900D01*
X138341100Y-86941900D01*
X140484478Y-86941900D01*
X140601329Y-86711660D01*
X145221064Y-86711660D01*
X145341722Y-86949400D01*
X147485100Y-86949400D01*
X147485100Y-85541400D01*
X147739100Y-85541400D01*
X147739100Y-86949400D01*
X149882478Y-86949400D01*
X150003136Y-86711660D01*
X149978855Y-86606313D01*
X149858962Y-86329196D01*
X149687310Y-86080794D01*
X149470496Y-85870652D01*
X149216851Y-85706846D01*
X148936123Y-85595671D01*
X148639100Y-85541400D01*
X147739100Y-85541400D01*
X147485100Y-85541400D01*
X146585100Y-85541400D01*
X146288077Y-85595671D01*
X146007349Y-85706846D01*
X145753704Y-85870652D01*
X145536890Y-86080794D01*
X145365238Y-86329196D01*
X145245345Y-86606313D01*
X145221064Y-86711660D01*
X140601329Y-86711660D01*
X140605136Y-86704160D01*
X140580855Y-86598813D01*
X140460962Y-86321696D01*
X140289310Y-86073294D01*
X140072496Y-85863152D01*
X139818851Y-85699346D01*
X139538123Y-85588171D01*
X139241100Y-85533900D01*
X138341100Y-85533900D01*
X138087100Y-85533900D01*
X137187100Y-85533900D01*
X136890077Y-85588171D01*
X136609349Y-85699346D01*
X136355704Y-85863152D01*
X136138890Y-86073294D01*
X135967238Y-86321696D01*
X135847345Y-86598813D01*
X135823064Y-86704160D01*
X119958517Y-86704160D01*
X119746706Y-86530331D01*
X119713160Y-86512400D01*
X119746706Y-86494469D01*
X119974897Y-86307197D01*
X120162169Y-86079006D01*
X120301325Y-85818664D01*
X120387016Y-85536177D01*
X120415951Y-85242400D01*
X120387016Y-84948623D01*
X120361801Y-84865500D01*
X122469104Y-82758198D01*
X122498101Y-82734401D01*
X122524432Y-82702317D01*
X122593074Y-82618677D01*
X122663646Y-82486647D01*
X122663646Y-82486646D01*
X122707103Y-82343386D01*
X122718100Y-82231733D01*
X122718100Y-82231723D01*
X122721776Y-82194400D01*
X122718100Y-82157077D01*
X122718100Y-77047811D01*
X122775600Y-77047811D01*
X122775600Y-77231989D01*
X122811532Y-77412629D01*
X122882014Y-77582789D01*
X122976101Y-77723600D01*
X122976100Y-80378864D01*
X122907514Y-80481511D01*
X122837032Y-80651671D01*
X122801100Y-80832311D01*
X122801100Y-81016489D01*
X122837032Y-81197129D01*
X122907514Y-81367289D01*
X123009838Y-81520428D01*
X123140072Y-81650662D01*
X123293211Y-81752986D01*
X123463371Y-81823468D01*
X123644011Y-81859400D01*
X123828189Y-81859400D01*
X124008829Y-81823468D01*
X124178989Y-81752986D01*
X124332128Y-81650662D01*
X124462362Y-81520428D01*
X124564686Y-81367289D01*
X124635168Y-81197129D01*
X124671100Y-81016489D01*
X124671100Y-80832311D01*
X124635168Y-80651671D01*
X124564686Y-80481511D01*
X124496100Y-80378865D01*
X124496100Y-80218400D01*
X135776028Y-80218400D01*
X135776028Y-81518400D01*
X135793092Y-81691654D01*
X135843628Y-81858250D01*
X135925695Y-82011786D01*
X136036138Y-82146362D01*
X136170714Y-82256805D01*
X136324250Y-82338872D01*
X136490846Y-82389408D01*
X136664100Y-82406472D01*
X139764100Y-82406472D01*
X139937354Y-82389408D01*
X140103950Y-82338872D01*
X140257486Y-82256805D01*
X140392062Y-82146362D01*
X140502505Y-82011786D01*
X140584572Y-81858250D01*
X140635108Y-81691654D01*
X140652172Y-81518400D01*
X140652172Y-80218400D01*
X145174028Y-80218400D01*
X145174028Y-81518400D01*
X145191092Y-81691654D01*
X145241628Y-81858250D01*
X145323695Y-82011786D01*
X145434138Y-82146362D01*
X145568714Y-82256805D01*
X145722250Y-82338872D01*
X145888846Y-82389408D01*
X146062100Y-82406472D01*
X149162100Y-82406472D01*
X149335354Y-82389408D01*
X149501950Y-82338872D01*
X149655486Y-82256805D01*
X149790062Y-82146362D01*
X149900505Y-82011786D01*
X149982572Y-81858250D01*
X150033108Y-81691654D01*
X150050172Y-81518400D01*
X150050172Y-81086311D01*
X154043100Y-81086311D01*
X154043100Y-81270489D01*
X154079032Y-81451129D01*
X154149514Y-81621289D01*
X154251838Y-81774428D01*
X154382072Y-81904662D01*
X154535211Y-82006986D01*
X154705371Y-82077468D01*
X154886011Y-82113400D01*
X155070189Y-82113400D01*
X155250829Y-82077468D01*
X155420989Y-82006986D01*
X155523635Y-81938400D01*
X157480778Y-81938400D01*
X157518100Y-81942076D01*
X157555422Y-81938400D01*
X157555433Y-81938400D01*
X157667086Y-81927403D01*
X157810347Y-81883946D01*
X157942376Y-81813374D01*
X158058101Y-81718401D01*
X158081903Y-81689398D01*
X158537102Y-81234200D01*
X158566101Y-81210401D01*
X158661074Y-81094676D01*
X158731646Y-80962647D01*
X158775103Y-80819386D01*
X158786100Y-80707733D01*
X158786100Y-80707724D01*
X158789776Y-80670401D01*
X158786100Y-80633078D01*
X158786100Y-74357935D01*
X158854686Y-74255289D01*
X158925168Y-74085129D01*
X158961100Y-73904489D01*
X158961100Y-73720311D01*
X158925168Y-73539671D01*
X158854686Y-73369511D01*
X158752362Y-73216372D01*
X158622128Y-73086138D01*
X158468989Y-72983814D01*
X158298829Y-72913332D01*
X158118189Y-72877400D01*
X157934011Y-72877400D01*
X157753371Y-72913332D01*
X157583211Y-72983814D01*
X157430072Y-73086138D01*
X157299838Y-73216372D01*
X157197514Y-73369511D01*
X157127032Y-73539671D01*
X157091100Y-73720311D01*
X157091100Y-73904489D01*
X157127032Y-74085129D01*
X157197514Y-74255289D01*
X157266100Y-74357936D01*
X157266101Y-80125058D01*
X157266100Y-80125068D01*
X157266100Y-80355598D01*
X157203299Y-80418400D01*
X155523635Y-80418400D01*
X155420989Y-80349814D01*
X155250829Y-80279332D01*
X155070189Y-80243400D01*
X154886011Y-80243400D01*
X154705371Y-80279332D01*
X154535211Y-80349814D01*
X154382072Y-80452138D01*
X154251838Y-80582372D01*
X154149514Y-80735511D01*
X154079032Y-80905671D01*
X154043100Y-81086311D01*
X150050172Y-81086311D01*
X150050172Y-80218400D01*
X150033108Y-80045146D01*
X149982572Y-79878550D01*
X149900505Y-79725014D01*
X149790062Y-79590438D01*
X149655486Y-79479995D01*
X149501950Y-79397928D01*
X149335354Y-79347392D01*
X149162100Y-79330328D01*
X146062100Y-79330328D01*
X145888846Y-79347392D01*
X145722250Y-79397928D01*
X145568714Y-79479995D01*
X145434138Y-79590438D01*
X145323695Y-79725014D01*
X145241628Y-79878550D01*
X145191092Y-80045146D01*
X145174028Y-80218400D01*
X140652172Y-80218400D01*
X140635108Y-80045146D01*
X140584572Y-79878550D01*
X140502505Y-79725014D01*
X140392062Y-79590438D01*
X140257486Y-79479995D01*
X140103950Y-79397928D01*
X139937354Y-79347392D01*
X139764100Y-79330328D01*
X136664100Y-79330328D01*
X136490846Y-79347392D01*
X136324250Y-79397928D01*
X136170714Y-79479995D01*
X136036138Y-79590438D01*
X135925695Y-79725014D01*
X135843628Y-79878550D01*
X135793092Y-80045146D01*
X135776028Y-80218400D01*
X124496100Y-80218400D01*
X124496100Y-77647272D01*
X124539186Y-77582789D01*
X124609668Y-77412629D01*
X124618465Y-77368400D01*
X135771673Y-77368400D01*
X135801310Y-77669313D01*
X135889083Y-77958661D01*
X136031619Y-78225327D01*
X136223439Y-78459061D01*
X136457173Y-78650881D01*
X136723839Y-78793417D01*
X137013187Y-78881190D01*
X137238692Y-78903400D01*
X139189508Y-78903400D01*
X139415013Y-78881190D01*
X139704361Y-78793417D01*
X139971027Y-78650881D01*
X140204761Y-78459061D01*
X140396581Y-78225327D01*
X140539117Y-77958661D01*
X140626890Y-77669313D01*
X140656527Y-77368400D01*
X145169673Y-77368400D01*
X145199310Y-77669313D01*
X145287083Y-77958661D01*
X145429619Y-78225327D01*
X145621439Y-78459061D01*
X145855173Y-78650881D01*
X146121839Y-78793417D01*
X146411187Y-78881190D01*
X146636692Y-78903400D01*
X148587508Y-78903400D01*
X148813013Y-78881190D01*
X149102361Y-78793417D01*
X149369027Y-78650881D01*
X149602761Y-78459061D01*
X149794581Y-78225327D01*
X149937117Y-77958661D01*
X150024890Y-77669313D01*
X150054527Y-77368400D01*
X150024890Y-77067487D01*
X149937117Y-76778139D01*
X149794581Y-76511473D01*
X149602761Y-76277739D01*
X149369027Y-76085919D01*
X149102361Y-75943383D01*
X148813013Y-75855610D01*
X148587508Y-75833400D01*
X146636692Y-75833400D01*
X146411187Y-75855610D01*
X146121839Y-75943383D01*
X145855173Y-76085919D01*
X145621439Y-76277739D01*
X145429619Y-76511473D01*
X145287083Y-76778139D01*
X145199310Y-77067487D01*
X145169673Y-77368400D01*
X140656527Y-77368400D01*
X140626890Y-77067487D01*
X140539117Y-76778139D01*
X140396581Y-76511473D01*
X140204761Y-76277739D01*
X139971027Y-76085919D01*
X139704361Y-75943383D01*
X139415013Y-75855610D01*
X139189508Y-75833400D01*
X137238692Y-75833400D01*
X137013187Y-75855610D01*
X136723839Y-75943383D01*
X136457173Y-76085919D01*
X136223439Y-76277739D01*
X136031619Y-76511473D01*
X135889083Y-76778139D01*
X135801310Y-77067487D01*
X135771673Y-77368400D01*
X124618465Y-77368400D01*
X124645600Y-77231989D01*
X124645600Y-77047811D01*
X124609668Y-76867171D01*
X124539186Y-76697011D01*
X124436862Y-76543872D01*
X124306628Y-76413638D01*
X124153489Y-76311314D01*
X123983329Y-76240832D01*
X123802689Y-76204900D01*
X123618511Y-76204900D01*
X123437871Y-76240832D01*
X123267711Y-76311314D01*
X123114572Y-76413638D01*
X122984338Y-76543872D01*
X122882014Y-76697011D01*
X122811532Y-76867171D01*
X122775600Y-77047811D01*
X122718100Y-77047811D01*
X122718100Y-74233140D01*
X135823064Y-74233140D01*
X135847345Y-74338487D01*
X135967238Y-74615604D01*
X136138890Y-74864006D01*
X136355704Y-75074148D01*
X136609349Y-75237954D01*
X136890077Y-75349129D01*
X137187100Y-75403400D01*
X138087100Y-75403400D01*
X138087100Y-73995400D01*
X138341100Y-73995400D01*
X138341100Y-75403400D01*
X139241100Y-75403400D01*
X139538123Y-75349129D01*
X139818851Y-75237954D01*
X140072496Y-75074148D01*
X140289310Y-74864006D01*
X140460962Y-74615604D01*
X140580855Y-74338487D01*
X140605136Y-74233140D01*
X145221064Y-74233140D01*
X145245345Y-74338487D01*
X145365238Y-74615604D01*
X145536890Y-74864006D01*
X145753704Y-75074148D01*
X146007349Y-75237954D01*
X146288077Y-75349129D01*
X146585100Y-75403400D01*
X147485100Y-75403400D01*
X147485100Y-73995400D01*
X147739100Y-73995400D01*
X147739100Y-75403400D01*
X148639100Y-75403400D01*
X148936123Y-75349129D01*
X149216851Y-75237954D01*
X149470496Y-75074148D01*
X149687310Y-74864006D01*
X149858962Y-74615604D01*
X149978855Y-74338487D01*
X150003136Y-74233140D01*
X149882478Y-73995400D01*
X147739100Y-73995400D01*
X147485100Y-73995400D01*
X145341722Y-73995400D01*
X145221064Y-74233140D01*
X140605136Y-74233140D01*
X140484478Y-73995400D01*
X138341100Y-73995400D01*
X138087100Y-73995400D01*
X135943722Y-73995400D01*
X135823064Y-74233140D01*
X122718100Y-74233140D01*
X122718100Y-73503660D01*
X135823064Y-73503660D01*
X135943722Y-73741400D01*
X138087100Y-73741400D01*
X138087100Y-72333400D01*
X138341100Y-72333400D01*
X138341100Y-73741400D01*
X140484478Y-73741400D01*
X140605136Y-73503660D01*
X145221064Y-73503660D01*
X145341722Y-73741400D01*
X147485100Y-73741400D01*
X147485100Y-72333400D01*
X147739100Y-72333400D01*
X147739100Y-73741400D01*
X149882478Y-73741400D01*
X150003136Y-73503660D01*
X149978855Y-73398313D01*
X149858962Y-73121196D01*
X149687310Y-72872794D01*
X149470496Y-72662652D01*
X149216851Y-72498846D01*
X148936123Y-72387671D01*
X148639100Y-72333400D01*
X147739100Y-72333400D01*
X147485100Y-72333400D01*
X146585100Y-72333400D01*
X146288077Y-72387671D01*
X146007349Y-72498846D01*
X145753704Y-72662652D01*
X145536890Y-72872794D01*
X145365238Y-73121196D01*
X145245345Y-73398313D01*
X145221064Y-73503660D01*
X140605136Y-73503660D01*
X140580855Y-73398313D01*
X140460962Y-73121196D01*
X140289310Y-72872794D01*
X140072496Y-72662652D01*
X139818851Y-72498846D01*
X139538123Y-72387671D01*
X139241100Y-72333400D01*
X138341100Y-72333400D01*
X138087100Y-72333400D01*
X137187100Y-72333400D01*
X136890077Y-72387671D01*
X136609349Y-72498846D01*
X136355704Y-72662652D01*
X136138890Y-72872794D01*
X135967238Y-73121196D01*
X135847345Y-73398313D01*
X135823064Y-73503660D01*
X122718100Y-73503660D01*
X122718100Y-69809201D01*
X124659903Y-67867399D01*
X130381966Y-67867399D01*
X130257461Y-68167981D01*
X130183100Y-68541819D01*
X130183100Y-68922981D01*
X130257461Y-69296819D01*
X130403325Y-69648966D01*
X130615087Y-69965891D01*
X130884609Y-70235413D01*
X131201534Y-70447175D01*
X131553681Y-70593039D01*
X131927519Y-70667400D01*
X132308681Y-70667400D01*
X132682519Y-70593039D01*
X133034666Y-70447175D01*
X133351591Y-70235413D01*
X133621113Y-69965891D01*
X133832875Y-69648966D01*
X133978739Y-69296819D01*
X134053100Y-68922981D01*
X134053100Y-68541819D01*
X154059100Y-68541819D01*
X154059100Y-68922981D01*
X154133461Y-69296819D01*
X154279325Y-69648966D01*
X154491087Y-69965891D01*
X154760609Y-70235413D01*
X155077534Y-70447175D01*
X155429681Y-70593039D01*
X155803519Y-70667400D01*
X156184681Y-70667400D01*
X156558519Y-70593039D01*
X156910666Y-70447175D01*
X157227591Y-70235413D01*
X157497113Y-69965891D01*
X157708875Y-69648966D01*
X157854739Y-69296819D01*
X157929100Y-68922981D01*
X157929100Y-68541819D01*
X157854739Y-68167981D01*
X157708875Y-67815834D01*
X157497113Y-67498909D01*
X157227591Y-67229387D01*
X156910666Y-67017625D01*
X156558519Y-66871761D01*
X156184681Y-66797400D01*
X155803519Y-66797400D01*
X155429681Y-66871761D01*
X155077534Y-67017625D01*
X154760609Y-67229387D01*
X154491087Y-67498909D01*
X154279325Y-67815834D01*
X154133461Y-68167981D01*
X154059100Y-68541819D01*
X134053100Y-68541819D01*
X133978739Y-68167981D01*
X133854234Y-67867399D01*
X151440618Y-67867399D01*
X151477940Y-67871075D01*
X151515262Y-67867399D01*
X151515273Y-67867399D01*
X151626926Y-67856402D01*
X151770187Y-67812945D01*
X151902216Y-67742373D01*
X152017941Y-67647400D01*
X152041744Y-67618396D01*
X156437104Y-63223037D01*
X156466101Y-63199240D01*
X156561074Y-63083515D01*
X156631646Y-62951486D01*
X156675103Y-62808225D01*
X156686100Y-62696572D01*
X156686100Y-62696563D01*
X156689776Y-62659240D01*
X156686100Y-62621917D01*
X156686100Y-61868203D01*
X156927201Y-61739332D01*
X157145708Y-61560008D01*
X157179526Y-61518800D01*
X163128428Y-61518800D01*
X163131500Y-62096650D01*
X163290250Y-62255400D01*
X164503100Y-62255400D01*
X164503100Y-61042550D01*
X164757100Y-61042550D01*
X164757100Y-62255400D01*
X167043100Y-62255400D01*
X167043100Y-61047936D01*
X166811073Y-60927437D01*
X166534122Y-61025436D01*
X166281612Y-61175583D01*
X166102153Y-61337092D01*
X166083202Y-61274620D01*
X166024237Y-61164306D01*
X165944885Y-61067615D01*
X165848194Y-60988263D01*
X165737880Y-60929298D01*
X165618182Y-60892988D01*
X165493700Y-60880728D01*
X164915850Y-60883800D01*
X164757100Y-61042550D01*
X164503100Y-61042550D01*
X164344350Y-60883800D01*
X163766500Y-60880728D01*
X163642018Y-60892988D01*
X163522320Y-60929298D01*
X163412006Y-60988263D01*
X163315315Y-61067615D01*
X163235963Y-61164306D01*
X163176998Y-61274620D01*
X163140688Y-61394318D01*
X163128428Y-61518800D01*
X157179526Y-61518800D01*
X157325032Y-61341501D01*
X157458282Y-61092208D01*
X157540336Y-60821709D01*
X157568043Y-60540400D01*
X157540336Y-60259091D01*
X157458282Y-59988592D01*
X157325032Y-59739299D01*
X157145708Y-59520792D01*
X156927201Y-59341468D01*
X156794242Y-59270400D01*
X156927201Y-59199332D01*
X157145708Y-59020008D01*
X157325032Y-58801501D01*
X157458282Y-58552208D01*
X157540336Y-58281709D01*
X157568043Y-58000400D01*
X157540336Y-57719091D01*
X157458282Y-57448592D01*
X157325032Y-57199299D01*
X157145708Y-56980792D01*
X156927201Y-56801468D01*
X156794242Y-56730400D01*
X156927201Y-56659332D01*
X157145708Y-56480008D01*
X157325032Y-56261501D01*
X157458282Y-56012208D01*
X157540336Y-55741709D01*
X157568043Y-55460400D01*
X157540336Y-55179091D01*
X157458282Y-54908592D01*
X157325032Y-54659299D01*
X157145708Y-54440792D01*
X156927201Y-54261468D01*
X156797755Y-54192278D01*
X156815327Y-54184830D01*
X157048762Y-54026073D01*
X157246739Y-53824825D01*
X157401651Y-53588821D01*
X157507544Y-53327130D01*
X157518004Y-53269439D01*
X157396015Y-53047400D01*
X156053100Y-53047400D01*
X156053100Y-53067400D01*
X155799100Y-53067400D01*
X155799100Y-53047400D01*
X154456185Y-53047400D01*
X154334196Y-53269439D01*
X154344656Y-53327130D01*
X154450549Y-53588821D01*
X154605461Y-53824825D01*
X154803438Y-54026073D01*
X155036873Y-54184830D01*
X155054445Y-54192278D01*
X154924999Y-54261468D01*
X154706492Y-54440792D01*
X154527168Y-54659299D01*
X154393918Y-54908592D01*
X154311864Y-55179091D01*
X154284157Y-55460400D01*
X154311864Y-55741709D01*
X154393918Y-56012208D01*
X154527168Y-56261501D01*
X154706492Y-56480008D01*
X154924999Y-56659332D01*
X155057958Y-56730400D01*
X154924999Y-56801468D01*
X154706492Y-56980792D01*
X154527168Y-57199299D01*
X154393918Y-57448592D01*
X154311864Y-57719091D01*
X154284157Y-58000400D01*
X154311864Y-58281709D01*
X154371941Y-58479758D01*
X154090088Y-58761611D01*
X154061090Y-58785409D01*
X154037292Y-58814407D01*
X154037291Y-58814408D01*
X153966116Y-58901134D01*
X153895544Y-59033164D01*
X153852088Y-59176425D01*
X153837414Y-59325410D01*
X153841091Y-59362742D01*
X153841090Y-63033037D01*
X153836370Y-63037757D01*
X153836370Y-52571361D01*
X154334196Y-52571361D01*
X154456185Y-52793400D01*
X155799100Y-52793400D01*
X155799100Y-51640926D01*
X156053100Y-51640926D01*
X156053100Y-52793400D01*
X157396015Y-52793400D01*
X157518004Y-52571361D01*
X157507544Y-52513670D01*
X157401651Y-52251979D01*
X157246739Y-52015975D01*
X157048762Y-51814727D01*
X156815327Y-51655970D01*
X156555406Y-51545804D01*
X156278987Y-51488463D01*
X156053100Y-51640926D01*
X155799100Y-51640926D01*
X155573213Y-51488463D01*
X155296794Y-51545804D01*
X155036873Y-51655970D01*
X154803438Y-51814727D01*
X154605461Y-52015975D01*
X154450549Y-52251979D01*
X154344656Y-52513670D01*
X154334196Y-52571361D01*
X153836370Y-52571361D01*
X153836370Y-43460670D01*
X154653326Y-43460670D01*
X154491087Y-43622909D01*
X154491087Y-43622909D01*
G37*
X154491087Y-43622909D02*
X154279325Y-43939834D01*
X154133461Y-44291981D01*
X154059100Y-44665819D01*
X154059100Y-45046981D01*
X154133461Y-45420819D01*
X154279325Y-45772966D01*
X154491087Y-46089891D01*
X154760609Y-46359413D01*
X155077534Y-46571175D01*
X155429681Y-46717039D01*
X155803519Y-46791400D01*
X156184681Y-46791400D01*
X156558519Y-46717039D01*
X156910666Y-46571175D01*
X157227591Y-46359413D01*
X157497113Y-46089891D01*
X157708875Y-45772966D01*
X157854739Y-45420819D01*
X157929100Y-45046981D01*
X157929100Y-44665819D01*
X157854739Y-44291981D01*
X157708875Y-43939834D01*
X157497113Y-43622909D01*
X157334874Y-43460670D01*
X162673392Y-43460670D01*
X163598300Y-43537157D01*
X164476731Y-43751739D01*
X165310777Y-44101097D01*
X166079902Y-44576626D01*
X166765167Y-45166615D01*
X167349708Y-45856550D01*
X167819117Y-46629424D01*
X168161844Y-47466216D01*
X168369594Y-48346940D01*
X168438831Y-49249575D01*
X168438831Y-61588780D01*
X168276954Y-61372107D01*
X168058588Y-61175583D01*
X167806078Y-61025436D01*
X167529127Y-60927437D01*
X167297100Y-61047936D01*
X167297100Y-62255400D01*
X167317100Y-62255400D01*
X167317100Y-62509400D01*
X167297100Y-62509400D01*
X167297100Y-62529400D01*
X167043100Y-62529400D01*
X167043100Y-62509400D01*
X164757100Y-62509400D01*
X164757100Y-62529400D01*
X164503100Y-62529400D01*
X164503100Y-62509400D01*
X163290250Y-62509400D01*
X163131500Y-62668150D01*
X163128428Y-63246000D01*
X163140688Y-63370482D01*
X163176998Y-63490180D01*
X163235963Y-63600494D01*
X163315315Y-63697185D01*
X163412006Y-63776537D01*
X163522320Y-63835502D01*
X163573365Y-63850986D01*
X163565303Y-63857603D01*
X163378031Y-64085794D01*
X163238875Y-64346136D01*
X163153184Y-64628623D01*
X163124249Y-64922400D01*
X163153184Y-65216177D01*
X163238875Y-65498664D01*
X163378031Y-65759006D01*
X163565303Y-65987197D01*
X163793494Y-66174469D01*
X163827040Y-66192400D01*
X163793494Y-66210331D01*
X163565303Y-66397603D01*
X163378031Y-66625794D01*
X163238875Y-66886136D01*
X163153184Y-67168623D01*
X163124249Y-67462400D01*
X163153184Y-67756177D01*
X163238875Y-68038664D01*
X163378031Y-68299006D01*
X163565303Y-68527197D01*
X163793494Y-68714469D01*
X163827040Y-68732400D01*
X163793494Y-68750331D01*
X163565303Y-68937603D01*
X163378031Y-69165794D01*
X163238875Y-69426136D01*
X163153184Y-69708623D01*
X163124249Y-70002400D01*
X163153184Y-70296177D01*
X163238875Y-70578664D01*
X163378031Y-70839006D01*
X163565303Y-71067197D01*
X163793494Y-71254469D01*
X163827040Y-71272400D01*
X163793494Y-71290331D01*
X163565303Y-71477603D01*
X163378031Y-71705794D01*
X163238875Y-71966136D01*
X163153184Y-72248623D01*
X163124249Y-72542400D01*
X163153184Y-72836177D01*
X163238875Y-73118664D01*
X163378031Y-73379006D01*
X163565303Y-73607197D01*
X163793494Y-73794469D01*
X163827040Y-73812400D01*
X163793494Y-73830331D01*
X163565303Y-74017603D01*
X163378031Y-74245794D01*
X163238875Y-74506136D01*
X163153184Y-74788623D01*
X163124249Y-75082400D01*
X163153184Y-75376177D01*
X163238875Y-75658664D01*
X163378031Y-75919006D01*
X163565303Y-76147197D01*
X163793494Y-76334469D01*
X163827040Y-76352400D01*
X163793494Y-76370331D01*
X163565303Y-76557603D01*
X163378031Y-76785794D01*
X163238875Y-77046136D01*
X163153184Y-77328623D01*
X163124249Y-77622400D01*
X163153184Y-77916177D01*
X163238875Y-78198664D01*
X163378031Y-78459006D01*
X163565303Y-78687197D01*
X163793494Y-78874469D01*
X163827040Y-78892400D01*
X163793494Y-78910331D01*
X163565303Y-79097603D01*
X163378031Y-79325794D01*
X163238875Y-79586136D01*
X163153184Y-79868623D01*
X163124249Y-80162400D01*
X163153184Y-80456177D01*
X163238875Y-80738664D01*
X163378031Y-80999006D01*
X163565303Y-81227197D01*
X163793494Y-81414469D01*
X163827040Y-81432400D01*
X163793494Y-81450331D01*
X163565303Y-81637603D01*
X163378031Y-81865794D01*
X163238875Y-82126136D01*
X163153184Y-82408623D01*
X163124249Y-82702400D01*
X163153184Y-82996177D01*
X163238875Y-83278664D01*
X163378031Y-83539006D01*
X163565303Y-83767197D01*
X163793494Y-83954469D01*
X163827040Y-83972400D01*
X163793494Y-83990331D01*
X163565303Y-84177603D01*
X163378031Y-84405794D01*
X163238875Y-84666136D01*
X163153184Y-84948623D01*
X163124249Y-85242400D01*
X163153184Y-85536177D01*
X163238875Y-85818664D01*
X163378031Y-86079006D01*
X163565303Y-86307197D01*
X163793494Y-86494469D01*
X163827040Y-86512400D01*
X163793494Y-86530331D01*
X163565303Y-86717603D01*
X163378031Y-86945794D01*
X163238875Y-87206136D01*
X163153184Y-87488623D01*
X163124249Y-87782400D01*
X163153184Y-88076177D01*
X163238875Y-88358664D01*
X163378031Y-88619006D01*
X163565303Y-88847197D01*
X163793494Y-89034469D01*
X163827040Y-89052400D01*
X163793494Y-89070331D01*
X163565303Y-89257603D01*
X163378031Y-89485794D01*
X163238875Y-89746136D01*
X163153184Y-90028623D01*
X163124249Y-90322400D01*
X163153184Y-90616177D01*
X163238875Y-90898664D01*
X163378031Y-91159006D01*
X163565303Y-91387197D01*
X163793494Y-91574469D01*
X163827040Y-91592400D01*
X163793494Y-91610331D01*
X163565303Y-91797603D01*
X163378031Y-92025794D01*
X163238875Y-92286136D01*
X163153184Y-92568623D01*
X163124249Y-92862400D01*
X163153184Y-93156177D01*
X163238875Y-93438664D01*
X163378031Y-93699006D01*
X163565303Y-93927197D01*
X163793494Y-94114469D01*
X163827040Y-94132400D01*
X163793494Y-94150331D01*
X163565303Y-94337603D01*
X163378031Y-94565794D01*
X163238875Y-94826136D01*
X163153184Y-95108623D01*
X163124249Y-95402400D01*
X163153184Y-95696177D01*
X163238875Y-95978664D01*
X163246965Y-95993799D01*
X162755483Y-95993799D01*
X162735168Y-95891671D01*
X162664686Y-95721511D01*
X162562362Y-95568372D01*
X162432128Y-95438138D01*
X162278989Y-95335814D01*
X162108829Y-95265332D01*
X161928189Y-95229400D01*
X161744011Y-95229400D01*
X161563371Y-95265332D01*
X161393211Y-95335814D01*
X161240072Y-95438138D01*
X161109838Y-95568372D01*
X161007514Y-95721511D01*
X160937032Y-95891671D01*
X160901100Y-96072311D01*
X160901100Y-96256489D01*
X160937032Y-96437129D01*
X161007514Y-96607289D01*
X161109838Y-96760428D01*
X161240072Y-96890662D01*
X161393211Y-96992986D01*
X161563371Y-97063468D01*
X161684451Y-97087553D01*
X161861699Y-97264801D01*
X161885498Y-97293800D01*
X161914496Y-97317598D01*
X162001222Y-97388773D01*
X162133252Y-97459345D01*
X162276513Y-97502802D01*
X162388166Y-97513799D01*
X162388175Y-97513799D01*
X162425498Y-97517475D01*
X162462821Y-97513799D01*
X163194082Y-97513799D01*
X163153184Y-97648623D01*
X163124249Y-97942400D01*
X163153184Y-98236177D01*
X163238875Y-98518664D01*
X163378031Y-98779006D01*
X163565303Y-99007197D01*
X163793494Y-99194469D01*
X163827040Y-99212400D01*
X163793494Y-99230331D01*
X163565303Y-99417603D01*
X163378031Y-99645794D01*
X163238875Y-99906136D01*
X163153184Y-100188623D01*
X163124249Y-100482400D01*
X163153184Y-100776177D01*
X163238875Y-101058664D01*
X163378031Y-101319006D01*
X163565303Y-101547197D01*
X163793494Y-101734469D01*
X163827040Y-101752400D01*
X163793494Y-101770331D01*
X163565303Y-101957603D01*
X163378031Y-102185794D01*
X163238875Y-102446136D01*
X163153184Y-102728623D01*
X163124249Y-103022400D01*
X163153184Y-103316177D01*
X163238875Y-103598664D01*
X163378031Y-103859006D01*
X163565303Y-104087197D01*
X163793494Y-104274469D01*
X163827040Y-104292400D01*
X163793494Y-104310331D01*
X163565303Y-104497603D01*
X163378031Y-104725794D01*
X163238875Y-104986136D01*
X163153184Y-105268623D01*
X163124249Y-105562400D01*
X163153184Y-105856177D01*
X163238875Y-106138664D01*
X163378031Y-106399006D01*
X163565303Y-106627197D01*
X163793494Y-106814469D01*
X163827040Y-106832400D01*
X163793494Y-106850331D01*
X163565303Y-107037603D01*
X163378031Y-107265794D01*
X163238875Y-107526136D01*
X163153184Y-107808623D01*
X163124249Y-108102400D01*
X163153184Y-108396177D01*
X163238875Y-108678664D01*
X163378031Y-108939006D01*
X163565303Y-109167197D01*
X163793494Y-109354469D01*
X163827040Y-109372400D01*
X163793494Y-109390331D01*
X163565303Y-109577603D01*
X163378031Y-109805794D01*
X163238875Y-110066136D01*
X163153184Y-110348623D01*
X163149069Y-110390400D01*
X161111635Y-110390400D01*
X161008989Y-110321814D01*
X160838829Y-110251332D01*
X160658189Y-110215400D01*
X160474011Y-110215400D01*
X160293371Y-110251332D01*
X160123211Y-110321814D01*
X159970072Y-110424138D01*
X159839838Y-110554372D01*
X159737514Y-110707511D01*
X159667032Y-110877671D01*
X159631100Y-111058311D01*
X159631100Y-111138636D01*
X159557852Y-111160855D01*
X159425823Y-111231427D01*
X159415569Y-111239842D01*
X159277371Y-111267332D01*
X159107211Y-111337814D01*
X158954072Y-111440138D01*
X158823838Y-111570372D01*
X158721514Y-111723511D01*
X158651032Y-111893671D01*
X158615100Y-112074311D01*
X158615100Y-112258489D01*
X158647704Y-112422400D01*
X151482902Y-112422400D01*
X148429904Y-109369403D01*
X148406101Y-109340399D01*
X148290376Y-109245426D01*
X148158347Y-109174854D01*
X148015086Y-109131397D01*
X147903433Y-109120400D01*
X147903422Y-109120400D01*
X147866100Y-109116724D01*
X147828778Y-109120400D01*
X143331635Y-109120400D01*
X143228989Y-109051814D01*
X143058829Y-108981332D01*
X142878189Y-108945400D01*
X142694011Y-108945400D01*
X142513371Y-108981332D01*
X142343211Y-109051814D01*
X142190072Y-109154138D01*
X142059838Y-109284372D01*
X141957514Y-109437511D01*
X141887032Y-109607671D01*
X141851100Y-109788311D01*
X141851100Y-109972489D01*
X141887032Y-110153129D01*
X141957514Y-110323289D01*
X142059838Y-110476428D01*
X142190072Y-110606662D01*
X142343211Y-110708986D01*
X142513371Y-110779468D01*
X142694011Y-110815400D01*
X142878189Y-110815400D01*
X143058829Y-110779468D01*
X143228989Y-110708986D01*
X143331635Y-110640400D01*
X147551299Y-110640400D01*
X149123956Y-112213057D01*
X148936123Y-112138671D01*
X148639100Y-112084400D01*
X147739100Y-112084400D01*
X147739100Y-113492400D01*
X149882478Y-113492400D01*
X150003136Y-113254660D01*
X149978855Y-113149313D01*
X149916816Y-113005918D01*
X150604301Y-113693403D01*
X150628099Y-113722401D01*
X150743824Y-113817374D01*
X150875853Y-113887946D01*
X151019114Y-113931403D01*
X151130767Y-113942400D01*
X151130776Y-113942400D01*
X151168099Y-113946076D01*
X151205422Y-113942400D01*
X163337084Y-113942400D01*
X163378031Y-114019006D01*
X163565303Y-114247197D01*
X163793494Y-114434469D01*
X163827040Y-114452400D01*
X163793494Y-114470331D01*
X163565303Y-114657603D01*
X163378031Y-114885794D01*
X163238875Y-115146136D01*
X163153184Y-115428623D01*
X163124249Y-115722400D01*
X163153184Y-116016177D01*
X163238875Y-116298664D01*
X163378031Y-116559006D01*
X163565303Y-116787197D01*
X163793494Y-116974469D01*
X163827040Y-116992400D01*
X163793494Y-117010331D01*
X163565303Y-117197603D01*
X163378031Y-117425794D01*
X163238875Y-117686136D01*
X163153184Y-117968623D01*
X163124249Y-118262400D01*
X163153184Y-118556177D01*
X163238875Y-118838664D01*
X163378031Y-119099006D01*
X163565303Y-119327197D01*
X163793494Y-119514469D01*
X164053836Y-119653625D01*
X164336323Y-119739316D01*
X164556481Y-119761000D01*
X164703719Y-119761000D01*
X164923877Y-119739316D01*
X165206364Y-119653625D01*
X165466706Y-119514469D01*
X165694897Y-119327197D01*
X165882169Y-119099006D01*
X165900100Y-119065460D01*
X165918031Y-119099006D01*
X166105303Y-119327197D01*
X166333494Y-119514469D01*
X166593836Y-119653625D01*
X166876323Y-119739316D01*
X167096481Y-119761000D01*
X167243719Y-119761000D01*
X167463877Y-119739316D01*
X167746364Y-119653625D01*
X167997742Y-119519260D01*
X167766864Y-120324430D01*
X167253667Y-121569537D01*
X166604882Y-122749674D01*
X165828586Y-123850144D01*
X164934462Y-124857219D01*
X163933653Y-125758351D01*
X162838639Y-126542304D01*
X161663061Y-127199313D01*
X160421563Y-127721191D01*
X159129638Y-128101425D01*
X157803368Y-128335282D01*
X156442664Y-128420891D01*
X156374031Y-128421130D01*
X151903043Y-128421130D01*
X151954628Y-128386662D01*
X152084862Y-128256428D01*
X152187186Y-128103289D01*
X152257668Y-127933129D01*
X152293600Y-127752489D01*
X152293600Y-127568311D01*
X152257668Y-127387671D01*
X152187186Y-127217511D01*
X152084862Y-127064372D01*
X151954628Y-126934138D01*
X151801489Y-126831814D01*
X151631329Y-126761332D01*
X151450689Y-126725400D01*
X151266511Y-126725400D01*
X151085871Y-126761332D01*
X150915711Y-126831814D01*
X150762572Y-126934138D01*
X150632338Y-127064372D01*
X150530014Y-127217511D01*
X150459532Y-127387671D01*
X150423600Y-127568311D01*
X150423600Y-127752489D01*
X150459532Y-127933129D01*
X150530014Y-128103289D01*
X150632338Y-128256428D01*
X150762572Y-128386662D01*
X150814157Y-128421130D01*
X127182875Y-128421130D01*
X125820482Y-128344961D01*
X124492617Y-128120369D01*
X123198070Y-127749164D01*
X121952963Y-127235967D01*
X120772826Y-126587182D01*
X119672356Y-125810886D01*
X118665281Y-124916762D01*
X117764149Y-123915953D01*
X116980196Y-122820939D01*
X116323187Y-121645361D01*
X115801309Y-120403863D01*
X115673440Y-119969400D01*
X135776028Y-119969400D01*
X135776028Y-121269400D01*
X135793092Y-121442654D01*
X135843628Y-121609250D01*
X135925695Y-121762786D01*
X136036138Y-121897362D01*
X136170714Y-122007805D01*
X136324250Y-122089872D01*
X136490846Y-122140408D01*
X136664100Y-122157472D01*
X139764100Y-122157472D01*
X139937354Y-122140408D01*
X140103950Y-122089872D01*
X140257486Y-122007805D01*
X140392062Y-121897362D01*
X140502505Y-121762786D01*
X140584572Y-121609250D01*
X140635108Y-121442654D01*
X140652172Y-121269400D01*
X140652172Y-119969400D01*
X145174028Y-119969400D01*
X145174028Y-121269400D01*
X145191092Y-121442654D01*
X145241628Y-121609250D01*
X145323695Y-121762786D01*
X145434138Y-121897362D01*
X145568714Y-122007805D01*
X145722250Y-122089872D01*
X145888846Y-122140408D01*
X146062100Y-122157472D01*
X149162100Y-122157472D01*
X149335354Y-122140408D01*
X149501950Y-122089872D01*
X149655486Y-122007805D01*
X149790062Y-121897362D01*
X149900505Y-121762786D01*
X149982572Y-121609250D01*
X150033108Y-121442654D01*
X150037966Y-121393321D01*
X155567100Y-121393321D01*
X155567100Y-121577499D01*
X155603032Y-121758139D01*
X155673514Y-121928299D01*
X155775838Y-122081438D01*
X155906072Y-122211672D01*
X156059211Y-122313996D01*
X156229371Y-122384478D01*
X156410011Y-122420410D01*
X156594189Y-122420410D01*
X156774829Y-122384478D01*
X156944989Y-122313996D01*
X157098128Y-122211672D01*
X157115146Y-122194654D01*
X157127337Y-122190956D01*
X157259366Y-122120384D01*
X157375091Y-122025411D01*
X157398894Y-121996407D01*
X158791103Y-120604199D01*
X158820101Y-120580401D01*
X158915074Y-120464676D01*
X158985646Y-120332647D01*
X159029103Y-120189386D01*
X159040100Y-120077733D01*
X159040100Y-120077725D01*
X159043776Y-120040400D01*
X159040100Y-120003075D01*
X159040100Y-116521935D01*
X159108686Y-116419289D01*
X159179168Y-116249129D01*
X159215100Y-116068489D01*
X159215100Y-115884311D01*
X159179168Y-115703671D01*
X159108686Y-115533511D01*
X159006362Y-115380372D01*
X158876128Y-115250138D01*
X158722989Y-115147814D01*
X158552829Y-115077332D01*
X158372189Y-115041400D01*
X158188011Y-115041400D01*
X158007371Y-115077332D01*
X157837211Y-115147814D01*
X157684072Y-115250138D01*
X157553838Y-115380372D01*
X157451514Y-115533511D01*
X157381032Y-115703671D01*
X157345100Y-115884311D01*
X157345100Y-116068489D01*
X157381032Y-116249129D01*
X157451514Y-116419289D01*
X157520100Y-116521936D01*
X157520101Y-119725597D01*
X156678515Y-120567184D01*
X156594189Y-120550410D01*
X156410011Y-120550410D01*
X156229371Y-120586342D01*
X156059211Y-120656824D01*
X155906072Y-120759148D01*
X155775838Y-120889382D01*
X155673514Y-121042521D01*
X155603032Y-121212681D01*
X155567100Y-121393321D01*
X150037966Y-121393321D01*
X150050172Y-121269400D01*
X150050172Y-119969400D01*
X150033108Y-119796146D01*
X149982572Y-119629550D01*
X149900505Y-119476014D01*
X149790062Y-119341438D01*
X149655486Y-119230995D01*
X149501950Y-119148928D01*
X149335354Y-119098392D01*
X149162100Y-119081328D01*
X146062100Y-119081328D01*
X145888846Y-119098392D01*
X145722250Y-119148928D01*
X145568714Y-119230995D01*
X145434138Y-119341438D01*
X145323695Y-119476014D01*
X145241628Y-119629550D01*
X145191092Y-119796146D01*
X145174028Y-119969400D01*
X140652172Y-119969400D01*
X140635108Y-119796146D01*
X140584572Y-119629550D01*
X140502505Y-119476014D01*
X140392062Y-119341438D01*
X140257486Y-119230995D01*
X140103950Y-119148928D01*
X139937354Y-119098392D01*
X139764100Y-119081328D01*
X136664100Y-119081328D01*
X136490846Y-119098392D01*
X136324250Y-119148928D01*
X136170714Y-119230995D01*
X136036138Y-119341438D01*
X135925695Y-119476014D01*
X135843628Y-119629550D01*
X135793092Y-119796146D01*
X135776028Y-119969400D01*
X115673440Y-119969400D01*
X115535692Y-119501374D01*
X115734122Y-119619364D01*
X116011073Y-119717363D01*
X116243100Y-119596864D01*
X116243100Y-118389400D01*
X116497100Y-118389400D01*
X116497100Y-119596864D01*
X116729127Y-119717363D01*
X117006078Y-119619364D01*
X117258588Y-119469217D01*
X117476954Y-119272693D01*
X117640100Y-119054322D01*
X117803246Y-119272693D01*
X118021612Y-119469217D01*
X118274122Y-119619364D01*
X118551073Y-119717363D01*
X118783100Y-119596864D01*
X118783100Y-118389400D01*
X119037100Y-118389400D01*
X119037100Y-119596864D01*
X119269127Y-119717363D01*
X119546078Y-119619364D01*
X119798588Y-119469217D01*
X120016954Y-119272693D01*
X120192784Y-119037344D01*
X120319322Y-118772214D01*
X120365058Y-118621426D01*
X120243917Y-118389400D01*
X119037100Y-118389400D01*
X118783100Y-118389400D01*
X116497100Y-118389400D01*
X116243100Y-118389400D01*
X116223100Y-118389400D01*
X116223100Y-118135400D01*
X116243100Y-118135400D01*
X116243100Y-115849400D01*
X116497100Y-115849400D01*
X116497100Y-118135400D01*
X118783100Y-118135400D01*
X118783100Y-115849400D01*
X119037100Y-115849400D01*
X119037100Y-118135400D01*
X120243917Y-118135400D01*
X120365058Y-117903374D01*
X120319322Y-117752586D01*
X120192784Y-117487456D01*
X120016954Y-117252107D01*
X119869498Y-117119400D01*
X135771673Y-117119400D01*
X135801310Y-117420313D01*
X135889083Y-117709661D01*
X136031619Y-117976327D01*
X136223439Y-118210061D01*
X136457173Y-118401881D01*
X136723839Y-118544417D01*
X137013187Y-118632190D01*
X137238692Y-118654400D01*
X139189508Y-118654400D01*
X139415013Y-118632190D01*
X139704361Y-118544417D01*
X139971027Y-118401881D01*
X140204761Y-118210061D01*
X140396581Y-117976327D01*
X140539117Y-117709661D01*
X140626890Y-117420313D01*
X140656527Y-117119400D01*
X145169673Y-117119400D01*
X145199310Y-117420313D01*
X145287083Y-117709661D01*
X145429619Y-117976327D01*
X145621439Y-118210061D01*
X145855173Y-118401881D01*
X146121839Y-118544417D01*
X146411187Y-118632190D01*
X146636692Y-118654400D01*
X148587508Y-118654400D01*
X148813013Y-118632190D01*
X149102361Y-118544417D01*
X149369027Y-118401881D01*
X149602761Y-118210061D01*
X149794581Y-117976327D01*
X149937117Y-117709661D01*
X150024890Y-117420313D01*
X150054527Y-117119400D01*
X150024890Y-116818487D01*
X149937117Y-116529139D01*
X149794581Y-116262473D01*
X149602761Y-116028739D01*
X149369027Y-115836919D01*
X149102361Y-115694383D01*
X148813013Y-115606610D01*
X148587508Y-115584400D01*
X146636692Y-115584400D01*
X146411187Y-115606610D01*
X146121839Y-115694383D01*
X145855173Y-115836919D01*
X145621439Y-116028739D01*
X145429619Y-116262473D01*
X145287083Y-116529139D01*
X145199310Y-116818487D01*
X145169673Y-117119400D01*
X140656527Y-117119400D01*
X140626890Y-116818487D01*
X140539117Y-116529139D01*
X140396581Y-116262473D01*
X140204761Y-116028739D01*
X139971027Y-115836919D01*
X139704361Y-115694383D01*
X139415013Y-115606610D01*
X139189508Y-115584400D01*
X137238692Y-115584400D01*
X137013187Y-115606610D01*
X136723839Y-115694383D01*
X136457173Y-115836919D01*
X136223439Y-116028739D01*
X136031619Y-116262473D01*
X135889083Y-116529139D01*
X135801310Y-116818487D01*
X135771673Y-117119400D01*
X119869498Y-117119400D01*
X119798588Y-117055583D01*
X119692330Y-116992400D01*
X119798588Y-116929217D01*
X120016954Y-116732693D01*
X120192784Y-116497344D01*
X120319322Y-116232214D01*
X120365058Y-116081426D01*
X120243917Y-115849400D01*
X119037100Y-115849400D01*
X118783100Y-115849400D01*
X116497100Y-115849400D01*
X116243100Y-115849400D01*
X116223100Y-115849400D01*
X116223100Y-115595400D01*
X116243100Y-115595400D01*
X116243100Y-115575400D01*
X116497100Y-115575400D01*
X116497100Y-115595400D01*
X118783100Y-115595400D01*
X118783100Y-115575400D01*
X119037100Y-115575400D01*
X119037100Y-115595400D01*
X120243917Y-115595400D01*
X120365058Y-115363374D01*
X120319322Y-115212586D01*
X120192784Y-114947456D01*
X120016954Y-114712107D01*
X119798588Y-114515583D01*
X119702190Y-114458263D01*
X119746706Y-114434469D01*
X119974897Y-114247197D01*
X120162169Y-114019006D01*
X120180805Y-113984140D01*
X135823064Y-113984140D01*
X135847345Y-114089487D01*
X135967238Y-114366604D01*
X136138890Y-114615006D01*
X136355704Y-114825148D01*
X136609349Y-114988954D01*
X136890077Y-115100129D01*
X137187100Y-115154400D01*
X138087100Y-115154400D01*
X138087100Y-113746400D01*
X138341100Y-113746400D01*
X138341100Y-115154400D01*
X139241100Y-115154400D01*
X139538123Y-115100129D01*
X139818851Y-114988954D01*
X140072496Y-114825148D01*
X140289310Y-114615006D01*
X140460962Y-114366604D01*
X140580855Y-114089487D01*
X140605136Y-113984140D01*
X145221064Y-113984140D01*
X145245345Y-114089487D01*
X145365238Y-114366604D01*
X145536890Y-114615006D01*
X145753704Y-114825148D01*
X146007349Y-114988954D01*
X146288077Y-115100129D01*
X146585100Y-115154400D01*
X147485100Y-115154400D01*
X147485100Y-113746400D01*
X147739100Y-113746400D01*
X147739100Y-115154400D01*
X148639100Y-115154400D01*
X148936123Y-115100129D01*
X149216851Y-114988954D01*
X149470496Y-114825148D01*
X149687310Y-114615006D01*
X149858962Y-114366604D01*
X149978855Y-114089487D01*
X150003136Y-113984140D01*
X149882478Y-113746400D01*
X147739100Y-113746400D01*
X147485100Y-113746400D01*
X145341722Y-113746400D01*
X145221064Y-113984140D01*
X140605136Y-113984140D01*
X140484478Y-113746400D01*
X138341100Y-113746400D01*
X138087100Y-113746400D01*
X135943722Y-113746400D01*
X135823064Y-113984140D01*
X120180805Y-113984140D01*
X120301325Y-113758664D01*
X120387016Y-113476177D01*
X120408833Y-113254660D01*
X135823064Y-113254660D01*
X135943722Y-113492400D01*
X138087100Y-113492400D01*
X138087100Y-112084400D01*
X138341100Y-112084400D01*
X138341100Y-113492400D01*
X140484478Y-113492400D01*
X140605136Y-113254660D01*
X145221064Y-113254660D01*
X145341722Y-113492400D01*
X147485100Y-113492400D01*
X147485100Y-112084400D01*
X146585100Y-112084400D01*
X146288077Y-112138671D01*
X146007349Y-112249846D01*
X145753704Y-112413652D01*
X145536890Y-112623794D01*
X145365238Y-112872196D01*
X145245345Y-113149313D01*
X145221064Y-113254660D01*
X140605136Y-113254660D01*
X140580855Y-113149313D01*
X140460962Y-112872196D01*
X140289310Y-112623794D01*
X140072496Y-112413652D01*
X139818851Y-112249846D01*
X139538123Y-112138671D01*
X139241100Y-112084400D01*
X138341100Y-112084400D01*
X138087100Y-112084400D01*
X137187100Y-112084400D01*
X136890077Y-112138671D01*
X136609349Y-112249846D01*
X136355704Y-112413652D01*
X136138890Y-112623794D01*
X135967238Y-112872196D01*
X135847345Y-113149313D01*
X135823064Y-113254660D01*
X120408833Y-113254660D01*
X120415951Y-113182400D01*
X120387016Y-112888623D01*
X120301325Y-112606136D01*
X120162169Y-112345794D01*
X119974897Y-112117603D01*
X119746706Y-111930331D01*
X119713160Y-111912400D01*
X119746706Y-111894469D01*
X119974897Y-111707197D01*
X120162169Y-111479006D01*
X120301325Y-111218664D01*
X120387016Y-110936177D01*
X120415951Y-110642400D01*
X120387016Y-110348623D01*
X120301325Y-110066136D01*
X120162169Y-109805794D01*
X119974897Y-109577603D01*
X119746706Y-109390331D01*
X119713160Y-109372400D01*
X119746706Y-109354469D01*
X119974897Y-109167197D01*
X120162169Y-108939006D01*
X120301325Y-108678664D01*
X120387016Y-108396177D01*
X120415951Y-108102400D01*
X120387016Y-107808623D01*
X120301325Y-107526136D01*
X120162169Y-107265794D01*
X119974897Y-107037603D01*
X119922146Y-106994311D01*
X122801100Y-106994311D01*
X122801100Y-107178489D01*
X122837032Y-107359129D01*
X122907514Y-107529289D01*
X122976101Y-107631937D01*
X122976100Y-111239864D01*
X122907514Y-111342511D01*
X122837032Y-111512671D01*
X122801100Y-111693311D01*
X122801100Y-111877489D01*
X122837032Y-112058129D01*
X122907514Y-112228289D01*
X123009838Y-112381428D01*
X123140072Y-112511662D01*
X123293211Y-112613986D01*
X123463371Y-112684468D01*
X123644011Y-112720400D01*
X123828189Y-112720400D01*
X124008829Y-112684468D01*
X124178989Y-112613986D01*
X124332128Y-112511662D01*
X124462362Y-112381428D01*
X124564686Y-112228289D01*
X124635168Y-112058129D01*
X124671100Y-111877489D01*
X124671100Y-111693311D01*
X124635168Y-111512671D01*
X124564686Y-111342511D01*
X124496100Y-111239865D01*
X124496100Y-107631935D01*
X124564686Y-107529289D01*
X124635168Y-107359129D01*
X124671100Y-107178489D01*
X124671100Y-106994311D01*
X124635168Y-106813671D01*
X124564686Y-106643511D01*
X124558599Y-106634400D01*
X135776028Y-106634400D01*
X135776028Y-107934400D01*
X135793092Y-108107654D01*
X135843628Y-108274250D01*
X135925695Y-108427786D01*
X136036138Y-108562362D01*
X136170714Y-108672805D01*
X136324250Y-108754872D01*
X136490846Y-108805408D01*
X136664100Y-108822472D01*
X139764100Y-108822472D01*
X139937354Y-108805408D01*
X140103950Y-108754872D01*
X140257486Y-108672805D01*
X140392062Y-108562362D01*
X140502505Y-108427786D01*
X140584572Y-108274250D01*
X140635108Y-108107654D01*
X140652172Y-107934400D01*
X140652172Y-106634400D01*
X145174028Y-106634400D01*
X145174028Y-107934400D01*
X145191092Y-108107654D01*
X145241628Y-108274250D01*
X145323695Y-108427786D01*
X145434138Y-108562362D01*
X145568714Y-108672805D01*
X145722250Y-108754872D01*
X145888846Y-108805408D01*
X146062100Y-108822472D01*
X149162100Y-108822472D01*
X149335354Y-108805408D01*
X149501950Y-108754872D01*
X149655486Y-108672805D01*
X149790062Y-108562362D01*
X149900505Y-108427786D01*
X149982572Y-108274250D01*
X150033108Y-108107654D01*
X150042695Y-108010311D01*
X155313100Y-108010311D01*
X155313100Y-108194489D01*
X155349032Y-108375129D01*
X155419514Y-108545289D01*
X155521838Y-108698428D01*
X155652072Y-108828662D01*
X155805211Y-108930986D01*
X155975371Y-109001468D01*
X156156011Y-109037400D01*
X156340189Y-109037400D01*
X156520829Y-109001468D01*
X156690989Y-108930986D01*
X156793635Y-108862400D01*
X157226778Y-108862400D01*
X157264100Y-108866076D01*
X157301422Y-108862400D01*
X157301433Y-108862400D01*
X157413086Y-108851403D01*
X157556347Y-108807946D01*
X157688376Y-108737374D01*
X157804101Y-108642401D01*
X157827903Y-108613398D01*
X158537102Y-107904199D01*
X158566101Y-107880401D01*
X158661074Y-107764676D01*
X158731646Y-107632647D01*
X158775103Y-107489386D01*
X158786100Y-107377733D01*
X158786100Y-107377725D01*
X158789776Y-107340400D01*
X158786100Y-107303075D01*
X158786100Y-101281935D01*
X158854686Y-101179289D01*
X158925168Y-101009129D01*
X158961100Y-100828489D01*
X158961100Y-100644311D01*
X158925168Y-100463671D01*
X158854686Y-100293511D01*
X158752362Y-100140372D01*
X158622128Y-100010138D01*
X158468989Y-99907814D01*
X158298829Y-99837332D01*
X158118189Y-99801400D01*
X157934011Y-99801400D01*
X157753371Y-99837332D01*
X157583211Y-99907814D01*
X157430072Y-100010138D01*
X157299838Y-100140372D01*
X157197514Y-100293511D01*
X157127032Y-100463671D01*
X157091100Y-100644311D01*
X157091100Y-100828489D01*
X157127032Y-101009129D01*
X157197514Y-101179289D01*
X157266100Y-101281936D01*
X157266101Y-107025597D01*
X156949299Y-107342400D01*
X156793635Y-107342400D01*
X156690989Y-107273814D01*
X156520829Y-107203332D01*
X156340189Y-107167400D01*
X156156011Y-107167400D01*
X155975371Y-107203332D01*
X155805211Y-107273814D01*
X155652072Y-107376138D01*
X155521838Y-107506372D01*
X155419514Y-107659511D01*
X155349032Y-107829671D01*
X155313100Y-108010311D01*
X150042695Y-108010311D01*
X150050172Y-107934400D01*
X150050172Y-106634400D01*
X150033108Y-106461146D01*
X149982572Y-106294550D01*
X149900505Y-106141014D01*
X149790062Y-106006438D01*
X149655486Y-105895995D01*
X149501950Y-105813928D01*
X149335354Y-105763392D01*
X149162100Y-105746328D01*
X146062100Y-105746328D01*
X145888846Y-105763392D01*
X145722250Y-105813928D01*
X145568714Y-105895995D01*
X145434138Y-106006438D01*
X145323695Y-106141014D01*
X145241628Y-106294550D01*
X145191092Y-106461146D01*
X145174028Y-106634400D01*
X140652172Y-106634400D01*
X140635108Y-106461146D01*
X140584572Y-106294550D01*
X140502505Y-106141014D01*
X140392062Y-106006438D01*
X140257486Y-105895995D01*
X140103950Y-105813928D01*
X139937354Y-105763392D01*
X139764100Y-105746328D01*
X136664100Y-105746328D01*
X136490846Y-105763392D01*
X136324250Y-105813928D01*
X136170714Y-105895995D01*
X136036138Y-106006438D01*
X135925695Y-106141014D01*
X135843628Y-106294550D01*
X135793092Y-106461146D01*
X135776028Y-106634400D01*
X124558599Y-106634400D01*
X124462362Y-106490372D01*
X124332128Y-106360138D01*
X124178989Y-106257814D01*
X124008829Y-106187332D01*
X123828189Y-106151400D01*
X123644011Y-106151400D01*
X123463371Y-106187332D01*
X123293211Y-106257814D01*
X123140072Y-106360138D01*
X123009838Y-106490372D01*
X122907514Y-106643511D01*
X122837032Y-106813671D01*
X122801100Y-106994311D01*
X119922146Y-106994311D01*
X119746706Y-106850331D01*
X119713160Y-106832400D01*
X119746706Y-106814469D01*
X119974897Y-106627197D01*
X120162169Y-106399006D01*
X120301325Y-106138664D01*
X120387016Y-105856177D01*
X120415951Y-105562400D01*
X120387016Y-105268623D01*
X120301325Y-104986136D01*
X120162169Y-104725794D01*
X119974897Y-104497603D01*
X119746706Y-104310331D01*
X119713160Y-104292400D01*
X119746706Y-104274469D01*
X119974897Y-104087197D01*
X120162169Y-103859006D01*
X120202046Y-103784400D01*
X135771673Y-103784400D01*
X135801310Y-104085313D01*
X135889083Y-104374661D01*
X136031619Y-104641327D01*
X136223439Y-104875061D01*
X136457173Y-105066881D01*
X136723839Y-105209417D01*
X137013187Y-105297190D01*
X137238692Y-105319400D01*
X139189508Y-105319400D01*
X139415013Y-105297190D01*
X139704361Y-105209417D01*
X139971027Y-105066881D01*
X140204761Y-104875061D01*
X140396581Y-104641327D01*
X140539117Y-104374661D01*
X140626890Y-104085313D01*
X140656527Y-103784400D01*
X145169673Y-103784400D01*
X145199310Y-104085313D01*
X145287083Y-104374661D01*
X145429619Y-104641327D01*
X145621439Y-104875061D01*
X145855173Y-105066881D01*
X146121839Y-105209417D01*
X146411187Y-105297190D01*
X146636692Y-105319400D01*
X148587508Y-105319400D01*
X148813013Y-105297190D01*
X149102361Y-105209417D01*
X149369027Y-105066881D01*
X149602761Y-104875061D01*
X149794581Y-104641327D01*
X149937117Y-104374661D01*
X150024890Y-104085313D01*
X150054527Y-103784400D01*
X150024890Y-103483487D01*
X149937117Y-103194139D01*
X149794581Y-102927473D01*
X149602761Y-102693739D01*
X149369027Y-102501919D01*
X149102361Y-102359383D01*
X148813013Y-102271610D01*
X148587508Y-102249400D01*
X146636692Y-102249400D01*
X146411187Y-102271610D01*
X146121839Y-102359383D01*
X145855173Y-102501919D01*
X145621439Y-102693739D01*
X145429619Y-102927473D01*
X145287083Y-103194139D01*
X145199310Y-103483487D01*
X145169673Y-103784400D01*
X140656527Y-103784400D01*
X140626890Y-103483487D01*
X140539117Y-103194139D01*
X140396581Y-102927473D01*
X140204761Y-102693739D01*
X139971027Y-102501919D01*
X139704361Y-102359383D01*
X139415013Y-102271610D01*
X139189508Y-102249400D01*
X137238692Y-102249400D01*
X137013187Y-102271610D01*
X136723839Y-102359383D01*
X136457173Y-102501919D01*
X136223439Y-102693739D01*
X136031619Y-102927473D01*
X135889083Y-103194139D01*
X135801310Y-103483487D01*
X135771673Y-103784400D01*
X120202046Y-103784400D01*
X120301325Y-103598664D01*
X120387016Y-103316177D01*
X120415951Y-103022400D01*
X120387016Y-102728623D01*
X120301325Y-102446136D01*
X120162169Y-102185794D01*
X119974897Y-101957603D01*
X119746706Y-101770331D01*
X119713160Y-101752400D01*
X119746706Y-101734469D01*
X119974897Y-101547197D01*
X120162169Y-101319006D01*
X120301325Y-101058664D01*
X120387016Y-100776177D01*
X120399528Y-100649140D01*
X135823064Y-100649140D01*
X135847345Y-100754487D01*
X135967238Y-101031604D01*
X136138890Y-101280006D01*
X136355704Y-101490148D01*
X136609349Y-101653954D01*
X136890077Y-101765129D01*
X137187100Y-101819400D01*
X138087100Y-101819400D01*
X138087100Y-100411400D01*
X138341100Y-100411400D01*
X138341100Y-101819400D01*
X139241100Y-101819400D01*
X139538123Y-101765129D01*
X139818851Y-101653954D01*
X140072496Y-101490148D01*
X140289310Y-101280006D01*
X140460962Y-101031604D01*
X140580855Y-100754487D01*
X140605136Y-100649140D01*
X145221064Y-100649140D01*
X145245345Y-100754487D01*
X145365238Y-101031604D01*
X145536890Y-101280006D01*
X145753704Y-101490148D01*
X146007349Y-101653954D01*
X146288077Y-101765129D01*
X146585100Y-101819400D01*
X147485100Y-101819400D01*
X147485100Y-100411400D01*
X147739100Y-100411400D01*
X147739100Y-101819400D01*
X148639100Y-101819400D01*
X148936123Y-101765129D01*
X149216851Y-101653954D01*
X149470496Y-101490148D01*
X149687310Y-101280006D01*
X149858962Y-101031604D01*
X149978855Y-100754487D01*
X150003136Y-100649140D01*
X149882478Y-100411400D01*
X147739100Y-100411400D01*
X147485100Y-100411400D01*
X145341722Y-100411400D01*
X145221064Y-100649140D01*
X140605136Y-100649140D01*
X140484478Y-100411400D01*
X138341100Y-100411400D01*
X138087100Y-100411400D01*
X135943722Y-100411400D01*
X135823064Y-100649140D01*
X120399528Y-100649140D01*
X120415951Y-100482400D01*
X120387016Y-100188623D01*
X120305428Y-99919660D01*
X135823064Y-99919660D01*
X135943722Y-100157400D01*
X138087100Y-100157400D01*
X138087100Y-98749400D01*
X138341100Y-98749400D01*
X138341100Y-100157400D01*
X140484478Y-100157400D01*
X140605136Y-99919660D01*
X145221064Y-99919660D01*
X145341722Y-100157400D01*
X147485100Y-100157400D01*
X147485100Y-98749400D01*
X147739100Y-98749400D01*
X147739100Y-100157400D01*
X149882478Y-100157400D01*
X150003136Y-99919660D01*
X149978855Y-99814313D01*
X149858962Y-99537196D01*
X149687310Y-99288794D01*
X149470496Y-99078652D01*
X149216851Y-98914846D01*
X148936123Y-98803671D01*
X148639100Y-98749400D01*
X147739100Y-98749400D01*
X147485100Y-98749400D01*
X146585100Y-98749400D01*
X146288077Y-98803671D01*
X146007349Y-98914846D01*
X145753704Y-99078652D01*
X145536890Y-99288794D01*
X145365238Y-99537196D01*
X145245345Y-99814313D01*
X145221064Y-99919660D01*
X140605136Y-99919660D01*
X140580855Y-99814313D01*
X140460962Y-99537196D01*
X140289310Y-99288794D01*
X140072496Y-99078652D01*
X139818851Y-98914846D01*
X139538123Y-98803671D01*
X139241100Y-98749400D01*
X138341100Y-98749400D01*
X138087100Y-98749400D01*
X137187100Y-98749400D01*
X136890077Y-98803671D01*
X136609349Y-98914846D01*
X136355704Y-99078652D01*
X136138890Y-99288794D01*
X135967238Y-99537196D01*
X135847345Y-99814313D01*
X135823064Y-99919660D01*
X120305428Y-99919660D01*
X120301325Y-99906136D01*
X120162169Y-99645794D01*
X119974897Y-99417603D01*
X119746706Y-99230331D01*
X119713160Y-99212400D01*
X119746706Y-99194469D01*
X119974897Y-99007197D01*
X120162169Y-98779006D01*
X120301325Y-98518664D01*
X120387016Y-98236177D01*
X120415951Y-97942400D01*
X120387016Y-97648623D01*
X120301325Y-97366136D01*
X120162169Y-97105794D01*
X119974897Y-96877603D01*
X119746706Y-96690331D01*
X119713160Y-96672400D01*
X119746706Y-96654469D01*
X119974897Y-96467197D01*
X120162169Y-96239006D01*
X120301325Y-95978664D01*
X120387016Y-95696177D01*
X120415951Y-95402400D01*
X120387016Y-95108623D01*
X120301325Y-94826136D01*
X120162169Y-94565794D01*
X119974897Y-94337603D01*
X119746706Y-94150331D01*
X119713160Y-94132400D01*
X119746706Y-94114469D01*
X119974897Y-93927197D01*
X120162169Y-93699006D01*
X120301325Y-93438664D01*
X120307320Y-93418900D01*
X135776028Y-93418900D01*
X135776028Y-94718900D01*
X135793092Y-94892154D01*
X135843628Y-95058750D01*
X135925695Y-95212286D01*
X136036138Y-95346862D01*
X136170714Y-95457305D01*
X136324250Y-95539372D01*
X136490846Y-95589908D01*
X136664100Y-95606972D01*
X139764100Y-95606972D01*
X139937354Y-95589908D01*
X140103950Y-95539372D01*
X140257486Y-95457305D01*
X140392062Y-95346862D01*
X140502505Y-95212286D01*
X140584572Y-95058750D01*
X140635108Y-94892154D01*
X140652172Y-94718900D01*
X140652172Y-93426400D01*
X145174028Y-93426400D01*
X145174028Y-94726400D01*
X145191092Y-94899654D01*
X145241628Y-95066250D01*
X145323695Y-95219786D01*
X145434138Y-95354362D01*
X145568714Y-95464805D01*
X145722250Y-95546872D01*
X145888846Y-95597408D01*
X146062100Y-95614472D01*
X149162100Y-95614472D01*
X149335354Y-95597408D01*
X149501950Y-95546872D01*
X149655486Y-95464805D01*
X149790062Y-95354362D01*
X149900505Y-95219786D01*
X149982572Y-95066250D01*
X150033108Y-94899654D01*
X150050172Y-94726400D01*
X150050172Y-94548311D01*
X154805100Y-94548311D01*
X154805100Y-94732489D01*
X154841032Y-94913129D01*
X154911514Y-95083289D01*
X155013838Y-95236428D01*
X155144072Y-95366662D01*
X155297211Y-95468986D01*
X155467371Y-95539468D01*
X155648011Y-95575400D01*
X155832189Y-95575400D01*
X156012829Y-95539468D01*
X156182989Y-95468986D01*
X156285635Y-95400400D01*
X156464778Y-95400400D01*
X156502100Y-95404076D01*
X156539422Y-95400400D01*
X156539433Y-95400400D01*
X156651086Y-95389403D01*
X156794347Y-95345946D01*
X156926376Y-95275374D01*
X157042101Y-95180401D01*
X157065903Y-95151398D01*
X158537108Y-93680195D01*
X158566101Y-93656401D01*
X158589895Y-93627408D01*
X158589899Y-93627404D01*
X158661073Y-93540677D01*
X158661074Y-93540676D01*
X158731646Y-93408647D01*
X158775103Y-93265386D01*
X158786100Y-93153733D01*
X158786100Y-93153724D01*
X158789776Y-93116401D01*
X158786100Y-93079078D01*
X158786100Y-89343935D01*
X158854686Y-89241289D01*
X158925168Y-89071129D01*
X158961100Y-88890489D01*
X158961100Y-88706311D01*
X158925168Y-88525671D01*
X158854686Y-88355511D01*
X158752362Y-88202372D01*
X158622128Y-88072138D01*
X158468989Y-87969814D01*
X158298829Y-87899332D01*
X158118189Y-87863400D01*
X157934011Y-87863400D01*
X157753371Y-87899332D01*
X157583211Y-87969814D01*
X157430072Y-88072138D01*
X157299838Y-88202372D01*
X157197514Y-88355511D01*
X157127032Y-88525671D01*
X157091100Y-88706311D01*
X157091100Y-88890489D01*
X157127032Y-89071129D01*
X157197514Y-89241289D01*
X157266100Y-89343936D01*
X157266101Y-92801596D01*
X156226687Y-93841012D01*
X156182989Y-93811814D01*
X156012829Y-93741332D01*
X155832189Y-93705400D01*
X155648011Y-93705400D01*
X155467371Y-93741332D01*
X155297211Y-93811814D01*
X155144072Y-93914138D01*
X155013838Y-94044372D01*
X154911514Y-94197511D01*
X154841032Y-94367671D01*
X154805100Y-94548311D01*
X150050172Y-94548311D01*
X150050172Y-93426400D01*
X150033108Y-93253146D01*
X149982572Y-93086550D01*
X149900505Y-92933014D01*
X149790062Y-92798438D01*
X149655486Y-92687995D01*
X149501950Y-92605928D01*
X149335354Y-92555392D01*
X149162100Y-92538328D01*
X146062100Y-92538328D01*
X145888846Y-92555392D01*
X145722250Y-92605928D01*
X145568714Y-92687995D01*
X145434138Y-92798438D01*
X145323695Y-92933014D01*
X145241628Y-93086550D01*
X145191092Y-93253146D01*
X145174028Y-93426400D01*
X140652172Y-93426400D01*
X140652172Y-93418900D01*
X140635108Y-93245646D01*
X140584572Y-93079050D01*
X140502505Y-92925514D01*
X140392062Y-92790938D01*
X140257486Y-92680495D01*
X140103950Y-92598428D01*
X139937354Y-92547892D01*
X139764100Y-92530828D01*
X136664100Y-92530828D01*
X136490846Y-92547892D01*
X136324250Y-92598428D01*
X136170714Y-92680495D01*
X136036138Y-92790938D01*
X135925695Y-92925514D01*
X135843628Y-93079050D01*
X135793092Y-93245646D01*
X135776028Y-93418900D01*
X120307320Y-93418900D01*
X120387016Y-93156177D01*
X120415951Y-92862400D01*
X120387016Y-92568623D01*
X120301325Y-92286136D01*
X120162169Y-92025794D01*
X119974897Y-91797603D01*
X119746706Y-91610331D01*
X119713160Y-91592400D01*
X119746706Y-91574469D01*
X119974897Y-91387197D01*
X120162169Y-91159006D01*
X120301325Y-90898664D01*
X120387016Y-90616177D01*
X120391672Y-90568900D01*
X135771673Y-90568900D01*
X135801310Y-90869813D01*
X135889083Y-91159161D01*
X136031619Y-91425827D01*
X136223439Y-91659561D01*
X136457173Y-91851381D01*
X136723839Y-91993917D01*
X137013187Y-92081690D01*
X137238692Y-92103900D01*
X139189508Y-92103900D01*
X139415013Y-92081690D01*
X139704361Y-91993917D01*
X139971027Y-91851381D01*
X140204761Y-91659561D01*
X140396581Y-91425827D01*
X140539117Y-91159161D01*
X140626890Y-90869813D01*
X140655788Y-90576400D01*
X145169673Y-90576400D01*
X145199310Y-90877313D01*
X145287083Y-91166661D01*
X145429619Y-91433327D01*
X145621439Y-91667061D01*
X145855173Y-91858881D01*
X146121839Y-92001417D01*
X146411187Y-92089190D01*
X146636692Y-92111400D01*
X148587508Y-92111400D01*
X148813013Y-92089190D01*
X149102361Y-92001417D01*
X149369027Y-91858881D01*
X149602761Y-91667061D01*
X149794581Y-91433327D01*
X149937117Y-91166661D01*
X150024890Y-90877313D01*
X150054527Y-90576400D01*
X150024890Y-90275487D01*
X149937117Y-89986139D01*
X149794581Y-89719473D01*
X149602761Y-89485739D01*
X149369027Y-89293919D01*
X149102361Y-89151383D01*
X148813013Y-89063610D01*
X148587508Y-89041400D01*
X146636692Y-89041400D01*
X146411187Y-89063610D01*
X146121839Y-89151383D01*
X145855173Y-89293919D01*
X145621439Y-89485739D01*
X145429619Y-89719473D01*
X145287083Y-89986139D01*
X145199310Y-90275487D01*
X145169673Y-90576400D01*
X140655788Y-90576400D01*
X140656527Y-90568900D01*
X140626890Y-90267987D01*
X140539117Y-89978639D01*
X140396581Y-89711973D01*
X140204761Y-89478239D01*
X139971027Y-89286419D01*
X139704361Y-89143883D01*
X139415013Y-89056110D01*
X139189508Y-89033900D01*
X137238692Y-89033900D01*
X137013187Y-89056110D01*
X136723839Y-89143883D01*
X136457173Y-89286419D01*
X136223439Y-89478239D01*
X136031619Y-89711973D01*
X135889083Y-89978639D01*
X135801310Y-90267987D01*
X135771673Y-90568900D01*
X120391672Y-90568900D01*
X120415951Y-90322400D01*
X120387016Y-90028623D01*
X120301325Y-89746136D01*
X120162169Y-89485794D01*
X119974897Y-89257603D01*
X119746706Y-89070331D01*
X119713160Y-89052400D01*
X119746706Y-89034469D01*
X119974897Y-88847197D01*
X120162169Y-88619006D01*
X120301325Y-88358664D01*
X120387016Y-88076177D01*
X120415951Y-87782400D01*
X120387016Y-87488623D01*
X120370338Y-87433640D01*
X135823064Y-87433640D01*
X135847345Y-87538987D01*
X135967238Y-87816104D01*
X136138890Y-88064506D01*
X136355704Y-88274648D01*
X136609349Y-88438454D01*
X136890077Y-88549629D01*
X137187100Y-88603900D01*
X138087100Y-88603900D01*
X138087100Y-87195900D01*
X138341100Y-87195900D01*
X138341100Y-88603900D01*
X139241100Y-88603900D01*
X139538123Y-88549629D01*
X139818851Y-88438454D01*
X140072496Y-88274648D01*
X140289310Y-88064506D01*
X140460962Y-87816104D01*
X140580855Y-87538987D01*
X140603407Y-87441140D01*
X145221064Y-87441140D01*
X145245345Y-87546487D01*
X145365238Y-87823604D01*
X145536890Y-88072006D01*
X145753704Y-88282148D01*
X146007349Y-88445954D01*
X146288077Y-88557129D01*
X146585100Y-88611400D01*
X147485100Y-88611400D01*
X147485100Y-87203400D01*
X147739100Y-87203400D01*
X147739100Y-88611400D01*
X148639100Y-88611400D01*
X148936123Y-88557129D01*
X149216851Y-88445954D01*
X149470496Y-88282148D01*
X149687310Y-88072006D01*
X149858962Y-87823604D01*
X149978855Y-87546487D01*
X150003136Y-87441140D01*
X149882478Y-87203400D01*
X147739100Y-87203400D01*
X147485100Y-87203400D01*
X145341722Y-87203400D01*
X145221064Y-87441140D01*
X140603407Y-87441140D01*
X140605136Y-87433640D01*
X140484478Y-87195900D01*
X138341100Y-87195900D01*
X138087100Y-87195900D01*
X135943722Y-87195900D01*
X135823064Y-87433640D01*
X120370338Y-87433640D01*
X120301325Y-87206136D01*
X120162169Y-86945794D01*
X119974897Y-86717603D01*
X119958517Y-86704160D01*
X135823064Y-86704160D01*
X135943722Y-86941900D01*
X138087100Y-86941900D01*
X138087100Y-85533900D01*
X138341100Y-85533900D01*
X138341100Y-86941900D01*
X140484478Y-86941900D01*
X140601329Y-86711660D01*
X145221064Y-86711660D01*
X145341722Y-86949400D01*
X147485100Y-86949400D01*
X147485100Y-85541400D01*
X147739100Y-85541400D01*
X147739100Y-86949400D01*
X149882478Y-86949400D01*
X150003136Y-86711660D01*
X149978855Y-86606313D01*
X149858962Y-86329196D01*
X149687310Y-86080794D01*
X149470496Y-85870652D01*
X149216851Y-85706846D01*
X148936123Y-85595671D01*
X148639100Y-85541400D01*
X147739100Y-85541400D01*
X147485100Y-85541400D01*
X146585100Y-85541400D01*
X146288077Y-85595671D01*
X146007349Y-85706846D01*
X145753704Y-85870652D01*
X145536890Y-86080794D01*
X145365238Y-86329196D01*
X145245345Y-86606313D01*
X145221064Y-86711660D01*
X140601329Y-86711660D01*
X140605136Y-86704160D01*
X140580855Y-86598813D01*
X140460962Y-86321696D01*
X140289310Y-86073294D01*
X140072496Y-85863152D01*
X139818851Y-85699346D01*
X139538123Y-85588171D01*
X139241100Y-85533900D01*
X138341100Y-85533900D01*
X138087100Y-85533900D01*
X137187100Y-85533900D01*
X136890077Y-85588171D01*
X136609349Y-85699346D01*
X136355704Y-85863152D01*
X136138890Y-86073294D01*
X135967238Y-86321696D01*
X135847345Y-86598813D01*
X135823064Y-86704160D01*
X119958517Y-86704160D01*
X119746706Y-86530331D01*
X119713160Y-86512400D01*
X119746706Y-86494469D01*
X119974897Y-86307197D01*
X120162169Y-86079006D01*
X120301325Y-85818664D01*
X120387016Y-85536177D01*
X120415951Y-85242400D01*
X120387016Y-84948623D01*
X120361801Y-84865500D01*
X122469104Y-82758198D01*
X122498101Y-82734401D01*
X122524432Y-82702317D01*
X122593074Y-82618677D01*
X122663646Y-82486647D01*
X122663646Y-82486646D01*
X122707103Y-82343386D01*
X122718100Y-82231733D01*
X122718100Y-82231723D01*
X122721776Y-82194400D01*
X122718100Y-82157077D01*
X122718100Y-77047811D01*
X122775600Y-77047811D01*
X122775600Y-77231989D01*
X122811532Y-77412629D01*
X122882014Y-77582789D01*
X122976101Y-77723600D01*
X122976100Y-80378864D01*
X122907514Y-80481511D01*
X122837032Y-80651671D01*
X122801100Y-80832311D01*
X122801100Y-81016489D01*
X122837032Y-81197129D01*
X122907514Y-81367289D01*
X123009838Y-81520428D01*
X123140072Y-81650662D01*
X123293211Y-81752986D01*
X123463371Y-81823468D01*
X123644011Y-81859400D01*
X123828189Y-81859400D01*
X124008829Y-81823468D01*
X124178989Y-81752986D01*
X124332128Y-81650662D01*
X124462362Y-81520428D01*
X124564686Y-81367289D01*
X124635168Y-81197129D01*
X124671100Y-81016489D01*
X124671100Y-80832311D01*
X124635168Y-80651671D01*
X124564686Y-80481511D01*
X124496100Y-80378865D01*
X124496100Y-80218400D01*
X135776028Y-80218400D01*
X135776028Y-81518400D01*
X135793092Y-81691654D01*
X135843628Y-81858250D01*
X135925695Y-82011786D01*
X136036138Y-82146362D01*
X136170714Y-82256805D01*
X136324250Y-82338872D01*
X136490846Y-82389408D01*
X136664100Y-82406472D01*
X139764100Y-82406472D01*
X139937354Y-82389408D01*
X140103950Y-82338872D01*
X140257486Y-82256805D01*
X140392062Y-82146362D01*
X140502505Y-82011786D01*
X140584572Y-81858250D01*
X140635108Y-81691654D01*
X140652172Y-81518400D01*
X140652172Y-80218400D01*
X145174028Y-80218400D01*
X145174028Y-81518400D01*
X145191092Y-81691654D01*
X145241628Y-81858250D01*
X145323695Y-82011786D01*
X145434138Y-82146362D01*
X145568714Y-82256805D01*
X145722250Y-82338872D01*
X145888846Y-82389408D01*
X146062100Y-82406472D01*
X149162100Y-82406472D01*
X149335354Y-82389408D01*
X149501950Y-82338872D01*
X149655486Y-82256805D01*
X149790062Y-82146362D01*
X149900505Y-82011786D01*
X149982572Y-81858250D01*
X150033108Y-81691654D01*
X150050172Y-81518400D01*
X150050172Y-81086311D01*
X154043100Y-81086311D01*
X154043100Y-81270489D01*
X154079032Y-81451129D01*
X154149514Y-81621289D01*
X154251838Y-81774428D01*
X154382072Y-81904662D01*
X154535211Y-82006986D01*
X154705371Y-82077468D01*
X154886011Y-82113400D01*
X155070189Y-82113400D01*
X155250829Y-82077468D01*
X155420989Y-82006986D01*
X155523635Y-81938400D01*
X157480778Y-81938400D01*
X157518100Y-81942076D01*
X157555422Y-81938400D01*
X157555433Y-81938400D01*
X157667086Y-81927403D01*
X157810347Y-81883946D01*
X157942376Y-81813374D01*
X158058101Y-81718401D01*
X158081903Y-81689398D01*
X158537102Y-81234200D01*
X158566101Y-81210401D01*
X158661074Y-81094676D01*
X158731646Y-80962647D01*
X158775103Y-80819386D01*
X158786100Y-80707733D01*
X158786100Y-80707724D01*
X158789776Y-80670401D01*
X158786100Y-80633078D01*
X158786100Y-74357935D01*
X158854686Y-74255289D01*
X158925168Y-74085129D01*
X158961100Y-73904489D01*
X158961100Y-73720311D01*
X158925168Y-73539671D01*
X158854686Y-73369511D01*
X158752362Y-73216372D01*
X158622128Y-73086138D01*
X158468989Y-72983814D01*
X158298829Y-72913332D01*
X158118189Y-72877400D01*
X157934011Y-72877400D01*
X157753371Y-72913332D01*
X157583211Y-72983814D01*
X157430072Y-73086138D01*
X157299838Y-73216372D01*
X157197514Y-73369511D01*
X157127032Y-73539671D01*
X157091100Y-73720311D01*
X157091100Y-73904489D01*
X157127032Y-74085129D01*
X157197514Y-74255289D01*
X157266100Y-74357936D01*
X157266101Y-80125058D01*
X157266100Y-80125068D01*
X157266100Y-80355598D01*
X157203299Y-80418400D01*
X155523635Y-80418400D01*
X155420989Y-80349814D01*
X155250829Y-80279332D01*
X155070189Y-80243400D01*
X154886011Y-80243400D01*
X154705371Y-80279332D01*
X154535211Y-80349814D01*
X154382072Y-80452138D01*
X154251838Y-80582372D01*
X154149514Y-80735511D01*
X154079032Y-80905671D01*
X154043100Y-81086311D01*
X150050172Y-81086311D01*
X150050172Y-80218400D01*
X150033108Y-80045146D01*
X149982572Y-79878550D01*
X149900505Y-79725014D01*
X149790062Y-79590438D01*
X149655486Y-79479995D01*
X149501950Y-79397928D01*
X149335354Y-79347392D01*
X149162100Y-79330328D01*
X146062100Y-79330328D01*
X145888846Y-79347392D01*
X145722250Y-79397928D01*
X145568714Y-79479995D01*
X145434138Y-79590438D01*
X145323695Y-79725014D01*
X145241628Y-79878550D01*
X145191092Y-80045146D01*
X145174028Y-80218400D01*
X140652172Y-80218400D01*
X140635108Y-80045146D01*
X140584572Y-79878550D01*
X140502505Y-79725014D01*
X140392062Y-79590438D01*
X140257486Y-79479995D01*
X140103950Y-79397928D01*
X139937354Y-79347392D01*
X139764100Y-79330328D01*
X136664100Y-79330328D01*
X136490846Y-79347392D01*
X136324250Y-79397928D01*
X136170714Y-79479995D01*
X136036138Y-79590438D01*
X135925695Y-79725014D01*
X135843628Y-79878550D01*
X135793092Y-80045146D01*
X135776028Y-80218400D01*
X124496100Y-80218400D01*
X124496100Y-77647272D01*
X124539186Y-77582789D01*
X124609668Y-77412629D01*
X124618465Y-77368400D01*
X135771673Y-77368400D01*
X135801310Y-77669313D01*
X135889083Y-77958661D01*
X136031619Y-78225327D01*
X136223439Y-78459061D01*
X136457173Y-78650881D01*
X136723839Y-78793417D01*
X137013187Y-78881190D01*
X137238692Y-78903400D01*
X139189508Y-78903400D01*
X139415013Y-78881190D01*
X139704361Y-78793417D01*
X139971027Y-78650881D01*
X140204761Y-78459061D01*
X140396581Y-78225327D01*
X140539117Y-77958661D01*
X140626890Y-77669313D01*
X140656527Y-77368400D01*
X145169673Y-77368400D01*
X145199310Y-77669313D01*
X145287083Y-77958661D01*
X145429619Y-78225327D01*
X145621439Y-78459061D01*
X145855173Y-78650881D01*
X146121839Y-78793417D01*
X146411187Y-78881190D01*
X146636692Y-78903400D01*
X148587508Y-78903400D01*
X148813013Y-78881190D01*
X149102361Y-78793417D01*
X149369027Y-78650881D01*
X149602761Y-78459061D01*
X149794581Y-78225327D01*
X149937117Y-77958661D01*
X150024890Y-77669313D01*
X150054527Y-77368400D01*
X150024890Y-77067487D01*
X149937117Y-76778139D01*
X149794581Y-76511473D01*
X149602761Y-76277739D01*
X149369027Y-76085919D01*
X149102361Y-75943383D01*
X148813013Y-75855610D01*
X148587508Y-75833400D01*
X146636692Y-75833400D01*
X146411187Y-75855610D01*
X146121839Y-75943383D01*
X145855173Y-76085919D01*
X145621439Y-76277739D01*
X145429619Y-76511473D01*
X145287083Y-76778139D01*
X145199310Y-77067487D01*
X145169673Y-77368400D01*
X140656527Y-77368400D01*
X140626890Y-77067487D01*
X140539117Y-76778139D01*
X140396581Y-76511473D01*
X140204761Y-76277739D01*
X139971027Y-76085919D01*
X139704361Y-75943383D01*
X139415013Y-75855610D01*
X139189508Y-75833400D01*
X137238692Y-75833400D01*
X137013187Y-75855610D01*
X136723839Y-75943383D01*
X136457173Y-76085919D01*
X136223439Y-76277739D01*
X136031619Y-76511473D01*
X135889083Y-76778139D01*
X135801310Y-77067487D01*
X135771673Y-77368400D01*
X124618465Y-77368400D01*
X124645600Y-77231989D01*
X124645600Y-77047811D01*
X124609668Y-76867171D01*
X124539186Y-76697011D01*
X124436862Y-76543872D01*
X124306628Y-76413638D01*
X124153489Y-76311314D01*
X123983329Y-76240832D01*
X123802689Y-76204900D01*
X123618511Y-76204900D01*
X123437871Y-76240832D01*
X123267711Y-76311314D01*
X123114572Y-76413638D01*
X122984338Y-76543872D01*
X122882014Y-76697011D01*
X122811532Y-76867171D01*
X122775600Y-77047811D01*
X122718100Y-77047811D01*
X122718100Y-74233140D01*
X135823064Y-74233140D01*
X135847345Y-74338487D01*
X135967238Y-74615604D01*
X136138890Y-74864006D01*
X136355704Y-75074148D01*
X136609349Y-75237954D01*
X136890077Y-75349129D01*
X137187100Y-75403400D01*
X138087100Y-75403400D01*
X138087100Y-73995400D01*
X138341100Y-73995400D01*
X138341100Y-75403400D01*
X139241100Y-75403400D01*
X139538123Y-75349129D01*
X139818851Y-75237954D01*
X140072496Y-75074148D01*
X140289310Y-74864006D01*
X140460962Y-74615604D01*
X140580855Y-74338487D01*
X140605136Y-74233140D01*
X145221064Y-74233140D01*
X145245345Y-74338487D01*
X145365238Y-74615604D01*
X145536890Y-74864006D01*
X145753704Y-75074148D01*
X146007349Y-75237954D01*
X146288077Y-75349129D01*
X146585100Y-75403400D01*
X147485100Y-75403400D01*
X147485100Y-73995400D01*
X147739100Y-73995400D01*
X147739100Y-75403400D01*
X148639100Y-75403400D01*
X148936123Y-75349129D01*
X149216851Y-75237954D01*
X149470496Y-75074148D01*
X149687310Y-74864006D01*
X149858962Y-74615604D01*
X149978855Y-74338487D01*
X150003136Y-74233140D01*
X149882478Y-73995400D01*
X147739100Y-73995400D01*
X147485100Y-73995400D01*
X145341722Y-73995400D01*
X145221064Y-74233140D01*
X140605136Y-74233140D01*
X140484478Y-73995400D01*
X138341100Y-73995400D01*
X138087100Y-73995400D01*
X135943722Y-73995400D01*
X135823064Y-74233140D01*
X122718100Y-74233140D01*
X122718100Y-73503660D01*
X135823064Y-73503660D01*
X135943722Y-73741400D01*
X138087100Y-73741400D01*
X138087100Y-72333400D01*
X138341100Y-72333400D01*
X138341100Y-73741400D01*
X140484478Y-73741400D01*
X140605136Y-73503660D01*
X145221064Y-73503660D01*
X145341722Y-73741400D01*
X147485100Y-73741400D01*
X147485100Y-72333400D01*
X147739100Y-72333400D01*
X147739100Y-73741400D01*
X149882478Y-73741400D01*
X150003136Y-73503660D01*
X149978855Y-73398313D01*
X149858962Y-73121196D01*
X149687310Y-72872794D01*
X149470496Y-72662652D01*
X149216851Y-72498846D01*
X148936123Y-72387671D01*
X148639100Y-72333400D01*
X147739100Y-72333400D01*
X147485100Y-72333400D01*
X146585100Y-72333400D01*
X146288077Y-72387671D01*
X146007349Y-72498846D01*
X145753704Y-72662652D01*
X145536890Y-72872794D01*
X145365238Y-73121196D01*
X145245345Y-73398313D01*
X145221064Y-73503660D01*
X140605136Y-73503660D01*
X140580855Y-73398313D01*
X140460962Y-73121196D01*
X140289310Y-72872794D01*
X140072496Y-72662652D01*
X139818851Y-72498846D01*
X139538123Y-72387671D01*
X139241100Y-72333400D01*
X138341100Y-72333400D01*
X138087100Y-72333400D01*
X137187100Y-72333400D01*
X136890077Y-72387671D01*
X136609349Y-72498846D01*
X136355704Y-72662652D01*
X136138890Y-72872794D01*
X135967238Y-73121196D01*
X135847345Y-73398313D01*
X135823064Y-73503660D01*
X122718100Y-73503660D01*
X122718100Y-69809201D01*
X124659903Y-67867399D01*
X130381966Y-67867399D01*
X130257461Y-68167981D01*
X130183100Y-68541819D01*
X130183100Y-68922981D01*
X130257461Y-69296819D01*
X130403325Y-69648966D01*
X130615087Y-69965891D01*
X130884609Y-70235413D01*
X131201534Y-70447175D01*
X131553681Y-70593039D01*
X131927519Y-70667400D01*
X132308681Y-70667400D01*
X132682519Y-70593039D01*
X133034666Y-70447175D01*
X133351591Y-70235413D01*
X133621113Y-69965891D01*
X133832875Y-69648966D01*
X133978739Y-69296819D01*
X134053100Y-68922981D01*
X134053100Y-68541819D01*
X154059100Y-68541819D01*
X154059100Y-68922981D01*
X154133461Y-69296819D01*
X154279325Y-69648966D01*
X154491087Y-69965891D01*
X154760609Y-70235413D01*
X155077534Y-70447175D01*
X155429681Y-70593039D01*
X155803519Y-70667400D01*
X156184681Y-70667400D01*
X156558519Y-70593039D01*
X156910666Y-70447175D01*
X157227591Y-70235413D01*
X157497113Y-69965891D01*
X157708875Y-69648966D01*
X157854739Y-69296819D01*
X157929100Y-68922981D01*
X157929100Y-68541819D01*
X157854739Y-68167981D01*
X157708875Y-67815834D01*
X157497113Y-67498909D01*
X157227591Y-67229387D01*
X156910666Y-67017625D01*
X156558519Y-66871761D01*
X156184681Y-66797400D01*
X155803519Y-66797400D01*
X155429681Y-66871761D01*
X155077534Y-67017625D01*
X154760609Y-67229387D01*
X154491087Y-67498909D01*
X154279325Y-67815834D01*
X154133461Y-68167981D01*
X154059100Y-68541819D01*
X134053100Y-68541819D01*
X133978739Y-68167981D01*
X133854234Y-67867399D01*
X151440618Y-67867399D01*
X151477940Y-67871075D01*
X151515262Y-67867399D01*
X151515273Y-67867399D01*
X151626926Y-67856402D01*
X151770187Y-67812945D01*
X151902216Y-67742373D01*
X152017941Y-67647400D01*
X152041744Y-67618396D01*
X156437104Y-63223037D01*
X156466101Y-63199240D01*
X156561074Y-63083515D01*
X156631646Y-62951486D01*
X156675103Y-62808225D01*
X156686100Y-62696572D01*
X156686100Y-62696563D01*
X156689776Y-62659240D01*
X156686100Y-62621917D01*
X156686100Y-61868203D01*
X156927201Y-61739332D01*
X157145708Y-61560008D01*
X157179526Y-61518800D01*
X163128428Y-61518800D01*
X163131500Y-62096650D01*
X163290250Y-62255400D01*
X164503100Y-62255400D01*
X164503100Y-61042550D01*
X164757100Y-61042550D01*
X164757100Y-62255400D01*
X167043100Y-62255400D01*
X167043100Y-61047936D01*
X166811073Y-60927437D01*
X166534122Y-61025436D01*
X166281612Y-61175583D01*
X166102153Y-61337092D01*
X166083202Y-61274620D01*
X166024237Y-61164306D01*
X165944885Y-61067615D01*
X165848194Y-60988263D01*
X165737880Y-60929298D01*
X165618182Y-60892988D01*
X165493700Y-60880728D01*
X164915850Y-60883800D01*
X164757100Y-61042550D01*
X164503100Y-61042550D01*
X164344350Y-60883800D01*
X163766500Y-60880728D01*
X163642018Y-60892988D01*
X163522320Y-60929298D01*
X163412006Y-60988263D01*
X163315315Y-61067615D01*
X163235963Y-61164306D01*
X163176998Y-61274620D01*
X163140688Y-61394318D01*
X163128428Y-61518800D01*
X157179526Y-61518800D01*
X157325032Y-61341501D01*
X157458282Y-61092208D01*
X157540336Y-60821709D01*
X157568043Y-60540400D01*
X157540336Y-60259091D01*
X157458282Y-59988592D01*
X157325032Y-59739299D01*
X157145708Y-59520792D01*
X156927201Y-59341468D01*
X156794242Y-59270400D01*
X156927201Y-59199332D01*
X157145708Y-59020008D01*
X157325032Y-58801501D01*
X157458282Y-58552208D01*
X157540336Y-58281709D01*
X157568043Y-58000400D01*
X157540336Y-57719091D01*
X157458282Y-57448592D01*
X157325032Y-57199299D01*
X157145708Y-56980792D01*
X156927201Y-56801468D01*
X156794242Y-56730400D01*
X156927201Y-56659332D01*
X157145708Y-56480008D01*
X157325032Y-56261501D01*
X157458282Y-56012208D01*
X157540336Y-55741709D01*
X157568043Y-55460400D01*
X157540336Y-55179091D01*
X157458282Y-54908592D01*
X157325032Y-54659299D01*
X157145708Y-54440792D01*
X156927201Y-54261468D01*
X156797755Y-54192278D01*
X156815327Y-54184830D01*
X157048762Y-54026073D01*
X157246739Y-53824825D01*
X157401651Y-53588821D01*
X157507544Y-53327130D01*
X157518004Y-53269439D01*
X157396015Y-53047400D01*
X156053100Y-53047400D01*
X156053100Y-53067400D01*
X155799100Y-53067400D01*
X155799100Y-53047400D01*
X154456185Y-53047400D01*
X154334196Y-53269439D01*
X154344656Y-53327130D01*
X154450549Y-53588821D01*
X154605461Y-53824825D01*
X154803438Y-54026073D01*
X155036873Y-54184830D01*
X155054445Y-54192278D01*
X154924999Y-54261468D01*
X154706492Y-54440792D01*
X154527168Y-54659299D01*
X154393918Y-54908592D01*
X154311864Y-55179091D01*
X154284157Y-55460400D01*
X154311864Y-55741709D01*
X154393918Y-56012208D01*
X154527168Y-56261501D01*
X154706492Y-56480008D01*
X154924999Y-56659332D01*
X155057958Y-56730400D01*
X154924999Y-56801468D01*
X154706492Y-56980792D01*
X154527168Y-57199299D01*
X154393918Y-57448592D01*
X154311864Y-57719091D01*
X154284157Y-58000400D01*
X154311864Y-58281709D01*
X154371941Y-58479758D01*
X154090088Y-58761611D01*
X154061090Y-58785409D01*
X154037292Y-58814407D01*
X154037291Y-58814408D01*
X153966116Y-58901134D01*
X153895544Y-59033164D01*
X153852088Y-59176425D01*
X153837414Y-59325410D01*
X153841091Y-59362742D01*
X153841090Y-63033037D01*
X153836370Y-63037757D01*
X153836370Y-52571361D01*
X154334196Y-52571361D01*
X154456185Y-52793400D01*
X155799100Y-52793400D01*
X155799100Y-51640926D01*
X156053100Y-51640926D01*
X156053100Y-52793400D01*
X157396015Y-52793400D01*
X157518004Y-52571361D01*
X157507544Y-52513670D01*
X157401651Y-52251979D01*
X157246739Y-52015975D01*
X157048762Y-51814727D01*
X156815327Y-51655970D01*
X156555406Y-51545804D01*
X156278987Y-51488463D01*
X156053100Y-51640926D01*
X155799100Y-51640926D01*
X155573213Y-51488463D01*
X155296794Y-51545804D01*
X155036873Y-51655970D01*
X154803438Y-51814727D01*
X154605461Y-52015975D01*
X154450549Y-52251979D01*
X154344656Y-52513670D01*
X154334196Y-52571361D01*
X153836370Y-52571361D01*
X153836370Y-43460670D01*
X154653326Y-43460670D01*
X154491087Y-43622909D01*
G36*
X121288947Y-66344049D02*
G01*
X121313032Y-66465129D01*
X121383514Y-66635289D01*
X121485838Y-66788428D01*
X121616072Y-66918662D01*
X121769211Y-67020986D01*
X121939371Y-67091468D01*
X122120011Y-67127400D01*
X122304189Y-67127400D01*
X122484829Y-67091468D01*
X122654989Y-67020986D01*
X122808128Y-66918662D01*
X122938362Y-66788428D01*
X123040686Y-66635289D01*
X123111168Y-66465129D01*
X123138768Y-66326375D01*
X123161514Y-66381289D01*
X123263838Y-66534428D01*
X123394072Y-66664662D01*
X123547211Y-66766986D01*
X123592113Y-66785585D01*
X121447098Y-68930601D01*
X121418100Y-68954399D01*
X121394302Y-68983397D01*
X121394301Y-68983398D01*
X121323126Y-69070124D01*
X121252554Y-69202154D01*
X121223839Y-69296819D01*
X121209098Y-69345414D01*
X121198101Y-69457067D01*
X121194424Y-69494400D01*
X121198101Y-69531732D01*
X121198100Y-81879598D01*
X120412306Y-82665392D01*
X120387016Y-82408623D01*
X120301325Y-82126136D01*
X120162169Y-81865794D01*
X119974897Y-81637603D01*
X119746706Y-81450331D01*
X119713160Y-81432400D01*
X119746706Y-81414469D01*
X119974897Y-81227197D01*
X120162169Y-80999006D01*
X120301325Y-80738664D01*
X120387016Y-80456177D01*
X120415951Y-80162400D01*
X120387016Y-79868623D01*
X120301325Y-79586136D01*
X120162169Y-79325794D01*
X119974897Y-79097603D01*
X119746706Y-78910331D01*
X119713160Y-78892400D01*
X119746706Y-78874469D01*
X119974897Y-78687197D01*
X120162169Y-78459006D01*
X120301325Y-78198664D01*
X120387016Y-77916177D01*
X120415951Y-77622400D01*
X120387016Y-77328623D01*
X120301325Y-77046136D01*
X120162169Y-76785794D01*
X119974897Y-76557603D01*
X119746706Y-76370331D01*
X119713160Y-76352400D01*
X119746706Y-76334469D01*
X119974897Y-76147197D01*
X120162169Y-75919006D01*
X120301325Y-75658664D01*
X120387016Y-75376177D01*
X120415951Y-75082400D01*
X120387016Y-74788623D01*
X120301325Y-74506136D01*
X120162169Y-74245794D01*
X119974897Y-74017603D01*
X119746706Y-73830331D01*
X119713160Y-73812400D01*
X119746706Y-73794469D01*
X119974897Y-73607197D01*
X120162169Y-73379006D01*
X120301325Y-73118664D01*
X120387016Y-72836177D01*
X120415951Y-72542400D01*
X120387016Y-72248623D01*
X120301325Y-71966136D01*
X120162169Y-71705794D01*
X119974897Y-71477603D01*
X119746706Y-71290331D01*
X119713160Y-71272400D01*
X119746706Y-71254469D01*
X119974897Y-71067197D01*
X120162169Y-70839006D01*
X120301325Y-70578664D01*
X120387016Y-70296177D01*
X120415951Y-70002400D01*
X120387016Y-69708623D01*
X120301325Y-69426136D01*
X120162169Y-69165794D01*
X119974897Y-68937603D01*
X119746706Y-68750331D01*
X119713160Y-68732400D01*
X119746706Y-68714469D01*
X119974897Y-68527197D01*
X120162169Y-68299006D01*
X120301325Y-68038664D01*
X120387016Y-67756177D01*
X120415951Y-67462400D01*
X120387016Y-67168623D01*
X120301325Y-66886136D01*
X120162169Y-66625794D01*
X119974897Y-66397603D01*
X119746706Y-66210331D01*
X119713160Y-66192400D01*
X119746706Y-66174469D01*
X119974897Y-65987197D01*
X120162169Y-65759006D01*
X120203116Y-65682400D01*
X120627299Y-65682400D01*
X121288947Y-66344049D01*
X121288947Y-66344049D01*
G37*
X121288947Y-66344049D02*
X121313032Y-66465129D01*
X121383514Y-66635289D01*
X121485838Y-66788428D01*
X121616072Y-66918662D01*
X121769211Y-67020986D01*
X121939371Y-67091468D01*
X122120011Y-67127400D01*
X122304189Y-67127400D01*
X122484829Y-67091468D01*
X122654989Y-67020986D01*
X122808128Y-66918662D01*
X122938362Y-66788428D01*
X123040686Y-66635289D01*
X123111168Y-66465129D01*
X123138768Y-66326375D01*
X123161514Y-66381289D01*
X123263838Y-66534428D01*
X123394072Y-66664662D01*
X123547211Y-66766986D01*
X123592113Y-66785585D01*
X121447098Y-68930601D01*
X121418100Y-68954399D01*
X121394302Y-68983397D01*
X121394301Y-68983398D01*
X121323126Y-69070124D01*
X121252554Y-69202154D01*
X121223839Y-69296819D01*
X121209098Y-69345414D01*
X121198101Y-69457067D01*
X121194424Y-69494400D01*
X121198101Y-69531732D01*
X121198100Y-81879598D01*
X120412306Y-82665392D01*
X120387016Y-82408623D01*
X120301325Y-82126136D01*
X120162169Y-81865794D01*
X119974897Y-81637603D01*
X119746706Y-81450331D01*
X119713160Y-81432400D01*
X119746706Y-81414469D01*
X119974897Y-81227197D01*
X120162169Y-80999006D01*
X120301325Y-80738664D01*
X120387016Y-80456177D01*
X120415951Y-80162400D01*
X120387016Y-79868623D01*
X120301325Y-79586136D01*
X120162169Y-79325794D01*
X119974897Y-79097603D01*
X119746706Y-78910331D01*
X119713160Y-78892400D01*
X119746706Y-78874469D01*
X119974897Y-78687197D01*
X120162169Y-78459006D01*
X120301325Y-78198664D01*
X120387016Y-77916177D01*
X120415951Y-77622400D01*
X120387016Y-77328623D01*
X120301325Y-77046136D01*
X120162169Y-76785794D01*
X119974897Y-76557603D01*
X119746706Y-76370331D01*
X119713160Y-76352400D01*
X119746706Y-76334469D01*
X119974897Y-76147197D01*
X120162169Y-75919006D01*
X120301325Y-75658664D01*
X120387016Y-75376177D01*
X120415951Y-75082400D01*
X120387016Y-74788623D01*
X120301325Y-74506136D01*
X120162169Y-74245794D01*
X119974897Y-74017603D01*
X119746706Y-73830331D01*
X119713160Y-73812400D01*
X119746706Y-73794469D01*
X119974897Y-73607197D01*
X120162169Y-73379006D01*
X120301325Y-73118664D01*
X120387016Y-72836177D01*
X120415951Y-72542400D01*
X120387016Y-72248623D01*
X120301325Y-71966136D01*
X120162169Y-71705794D01*
X119974897Y-71477603D01*
X119746706Y-71290331D01*
X119713160Y-71272400D01*
X119746706Y-71254469D01*
X119974897Y-71067197D01*
X120162169Y-70839006D01*
X120301325Y-70578664D01*
X120387016Y-70296177D01*
X120415951Y-70002400D01*
X120387016Y-69708623D01*
X120301325Y-69426136D01*
X120162169Y-69165794D01*
X119974897Y-68937603D01*
X119746706Y-68750331D01*
X119713160Y-68732400D01*
X119746706Y-68714469D01*
X119974897Y-68527197D01*
X120162169Y-68299006D01*
X120301325Y-68038664D01*
X120387016Y-67756177D01*
X120415951Y-67462400D01*
X120387016Y-67168623D01*
X120301325Y-66886136D01*
X120162169Y-66625794D01*
X119974897Y-66397603D01*
X119746706Y-66210331D01*
X119713160Y-66192400D01*
X119746706Y-66174469D01*
X119974897Y-65987197D01*
X120162169Y-65759006D01*
X120203116Y-65682400D01*
X120627299Y-65682400D01*
X121288947Y-66344049D01*
G36*
X117658031Y-65759006D02*
G01*
X117845303Y-65987197D01*
X118073494Y-66174469D01*
X118107040Y-66192400D01*
X118073494Y-66210331D01*
X117845303Y-66397603D01*
X117658031Y-66625794D01*
X117657173Y-66627400D01*
X117623027Y-66627400D01*
X117622169Y-66625794D01*
X117434897Y-66397603D01*
X117206706Y-66210331D01*
X117173160Y-66192400D01*
X117206706Y-66174469D01*
X117434897Y-65987197D01*
X117622169Y-65759006D01*
X117640100Y-65725460D01*
X117658031Y-65759006D01*
X117658031Y-65759006D01*
G37*
X117658031Y-65759006D02*
X117845303Y-65987197D01*
X118073494Y-66174469D01*
X118107040Y-66192400D01*
X118073494Y-66210331D01*
X117845303Y-66397603D01*
X117658031Y-66625794D01*
X117657173Y-66627400D01*
X117623027Y-66627400D01*
X117622169Y-66625794D01*
X117434897Y-66397603D01*
X117206706Y-66210331D01*
X117173160Y-66192400D01*
X117206706Y-66174469D01*
X117434897Y-65987197D01*
X117622169Y-65759006D01*
X117640100Y-65725460D01*
X117658031Y-65759006D01*
G36*
X130884609Y-43353387D02*
G01*
X130615087Y-43622909D01*
X130403325Y-43939834D01*
X130257461Y-44291981D01*
X130183100Y-44665819D01*
X130183100Y-45046981D01*
X130257461Y-45420819D01*
X130403325Y-45772966D01*
X130615087Y-46089891D01*
X130884609Y-46359413D01*
X131201534Y-46571175D01*
X131553681Y-46717039D01*
X131927519Y-46791400D01*
X132308681Y-46791400D01*
X132682519Y-46717039D01*
X133034666Y-46571175D01*
X133351591Y-46359413D01*
X133621113Y-46089891D01*
X133832875Y-45772966D01*
X133978739Y-45420819D01*
X134053100Y-45046981D01*
X134053100Y-44665819D01*
X133978739Y-44291981D01*
X133832875Y-43939834D01*
X133621113Y-43622909D01*
X133351591Y-43353387D01*
X133322082Y-43333670D01*
X134783831Y-43333670D01*
X134783831Y-51040597D01*
X134639371Y-51069332D01*
X134469211Y-51139814D01*
X134316072Y-51242138D01*
X134185838Y-51372372D01*
X134083514Y-51525511D01*
X134013032Y-51695671D01*
X133977100Y-51876311D01*
X133977100Y-52060489D01*
X134013032Y-52241129D01*
X134083514Y-52411289D01*
X134185838Y-52564428D01*
X134316072Y-52694662D01*
X134469211Y-52796986D01*
X134639371Y-52867468D01*
X134783831Y-52896203D01*
X134783830Y-64256149D01*
X134780752Y-64287400D01*
X134793037Y-64412131D01*
X134829419Y-64532068D01*
X134888502Y-64642603D01*
X134968013Y-64739487D01*
X135064897Y-64818998D01*
X135175432Y-64878081D01*
X135295369Y-64914463D01*
X135420100Y-64926748D01*
X135451351Y-64923670D01*
X151950458Y-64923670D01*
X151695728Y-65178400D01*
X124535635Y-65178400D01*
X124432989Y-65109814D01*
X124262829Y-65039332D01*
X124082189Y-65003400D01*
X123898011Y-65003400D01*
X123717371Y-65039332D01*
X123547211Y-65109814D01*
X123394072Y-65212138D01*
X123263838Y-65342372D01*
X123161514Y-65495511D01*
X123091032Y-65665671D01*
X123063432Y-65804425D01*
X123040686Y-65749511D01*
X122938362Y-65596372D01*
X122808128Y-65466138D01*
X122654989Y-65363814D01*
X122484829Y-65293332D01*
X122363749Y-65269247D01*
X121505904Y-64411403D01*
X121482101Y-64382399D01*
X121366376Y-64287426D01*
X121234347Y-64216854D01*
X121091086Y-64173397D01*
X120979433Y-64162400D01*
X120979422Y-64162400D01*
X120942100Y-64158724D01*
X120904778Y-64162400D01*
X120203116Y-64162400D01*
X120162169Y-64085794D01*
X119974897Y-63857603D01*
X119746706Y-63670331D01*
X119702190Y-63646537D01*
X119798588Y-63589217D01*
X120016954Y-63392693D01*
X120192784Y-63157344D01*
X120319322Y-62892214D01*
X120365058Y-62741426D01*
X120243917Y-62509400D01*
X119037100Y-62509400D01*
X119037100Y-62529400D01*
X118783100Y-62529400D01*
X118783100Y-62509400D01*
X116497100Y-62509400D01*
X116497100Y-62529400D01*
X116243100Y-62529400D01*
X116243100Y-62509400D01*
X116223100Y-62509400D01*
X116223100Y-62255400D01*
X116243100Y-62255400D01*
X116243100Y-61042550D01*
X116497100Y-61042550D01*
X116497100Y-62255400D01*
X118783100Y-62255400D01*
X118783100Y-61047936D01*
X119037100Y-61047936D01*
X119037100Y-62255400D01*
X120243917Y-62255400D01*
X120365058Y-62023374D01*
X120319322Y-61872586D01*
X120192784Y-61607456D01*
X120016954Y-61372107D01*
X119798588Y-61175583D01*
X119546078Y-61025436D01*
X119269127Y-60927437D01*
X119037100Y-61047936D01*
X118783100Y-61047936D01*
X118551073Y-60927437D01*
X118274122Y-61025436D01*
X118021612Y-61175583D01*
X117842153Y-61337092D01*
X117823202Y-61274620D01*
X117764237Y-61164306D01*
X117684885Y-61067615D01*
X117588194Y-60988263D01*
X117477880Y-60929298D01*
X117358182Y-60892988D01*
X117233700Y-60880728D01*
X116655850Y-60883800D01*
X116497100Y-61042550D01*
X116243100Y-61042550D01*
X116084350Y-60883800D01*
X115506500Y-60880728D01*
X115382018Y-60892988D01*
X115262320Y-60929298D01*
X115152006Y-60988263D01*
X115101370Y-61029819D01*
X115101370Y-55778400D01*
X115258835Y-55778400D01*
X115307780Y-56275347D01*
X115452734Y-56753196D01*
X115688127Y-57193585D01*
X116004912Y-57579588D01*
X116390915Y-57896373D01*
X116831304Y-58131766D01*
X117309153Y-58276720D01*
X117681571Y-58313400D01*
X119630629Y-58313400D01*
X120003047Y-58276720D01*
X120480896Y-58131766D01*
X120921285Y-57896373D01*
X121307288Y-57579588D01*
X121624073Y-57193585D01*
X121859466Y-56753196D01*
X122004420Y-56275347D01*
X122053365Y-55778400D01*
X123358835Y-55778400D01*
X123407780Y-56275347D01*
X123552734Y-56753196D01*
X123788127Y-57193585D01*
X124104912Y-57579588D01*
X124490915Y-57896373D01*
X124931304Y-58131766D01*
X125409153Y-58276720D01*
X125718786Y-58307216D01*
X125809954Y-58382036D01*
X125955013Y-58459571D01*
X126112411Y-58507317D01*
X126276099Y-58523439D01*
X126439787Y-58507317D01*
X126597186Y-58459571D01*
X126742245Y-58382036D01*
X126825878Y-58313400D01*
X127530629Y-58313400D01*
X127903047Y-58276720D01*
X128380896Y-58131766D01*
X128821285Y-57896373D01*
X129207288Y-57579588D01*
X129524073Y-57193585D01*
X129759466Y-56753196D01*
X129904420Y-56275347D01*
X129953365Y-55778400D01*
X129904420Y-55281453D01*
X129759466Y-54803604D01*
X129524073Y-54363215D01*
X129207288Y-53977212D01*
X128821285Y-53660427D01*
X128380896Y-53425034D01*
X127903047Y-53280080D01*
X127530629Y-53243400D01*
X126158600Y-53243400D01*
X126158600Y-50575845D01*
X126313450Y-50528872D01*
X126466986Y-50446805D01*
X126601562Y-50336362D01*
X126712005Y-50201786D01*
X126794072Y-50048250D01*
X126844608Y-49881654D01*
X126861672Y-49708400D01*
X126861672Y-46608400D01*
X126844608Y-46435146D01*
X126794072Y-46268550D01*
X126712005Y-46115014D01*
X126601562Y-45980438D01*
X126466986Y-45869995D01*
X126313450Y-45787928D01*
X126146854Y-45737392D01*
X125973600Y-45720328D01*
X124673600Y-45720328D01*
X124500346Y-45737392D01*
X124333750Y-45787928D01*
X124180214Y-45869995D01*
X124045638Y-45980438D01*
X123935195Y-46115014D01*
X123853128Y-46268550D01*
X123802592Y-46435146D01*
X123785528Y-46608400D01*
X123785528Y-49708400D01*
X123802592Y-49881654D01*
X123853128Y-50048250D01*
X123935195Y-50201786D01*
X124045638Y-50336362D01*
X124180214Y-50446805D01*
X124333750Y-50528872D01*
X124488600Y-50575845D01*
X124488601Y-53662326D01*
X124104912Y-53977212D01*
X123788127Y-54363215D01*
X123552734Y-54803604D01*
X123407780Y-55281453D01*
X123358835Y-55778400D01*
X122053365Y-55778400D01*
X122004420Y-55281453D01*
X121859466Y-54803604D01*
X121624073Y-54363215D01*
X121307288Y-53977212D01*
X120921285Y-53660427D01*
X120480896Y-53425034D01*
X120003047Y-53280080D01*
X119630629Y-53243400D01*
X117681571Y-53243400D01*
X117309153Y-53280080D01*
X116831304Y-53425034D01*
X116390915Y-53660427D01*
X116004912Y-53977212D01*
X115688127Y-54363215D01*
X115452734Y-54803604D01*
X115307780Y-55281453D01*
X115258835Y-55778400D01*
X115101370Y-55778400D01*
X115101370Y-49072404D01*
X115163308Y-48285400D01*
X120288600Y-48285400D01*
X120288600Y-49185400D01*
X120342871Y-49482423D01*
X120454046Y-49763151D01*
X120617852Y-50016796D01*
X120827994Y-50233610D01*
X121076396Y-50405262D01*
X121353513Y-50525155D01*
X121458860Y-50549436D01*
X121696600Y-50428778D01*
X121696600Y-48285400D01*
X121950600Y-48285400D01*
X121950600Y-50428778D01*
X122188340Y-50549436D01*
X122293687Y-50525155D01*
X122570804Y-50405262D01*
X122819206Y-50233610D01*
X123029348Y-50016796D01*
X123193154Y-49763151D01*
X123304329Y-49482423D01*
X123358600Y-49185400D01*
X123358600Y-48285400D01*
X121950600Y-48285400D01*
X121696600Y-48285400D01*
X120288600Y-48285400D01*
X115163308Y-48285400D01*
X115173659Y-48153882D01*
X115382891Y-47282367D01*
X115445423Y-47131400D01*
X120288600Y-47131400D01*
X120288600Y-48031400D01*
X121696600Y-48031400D01*
X121696600Y-45888022D01*
X121950600Y-45888022D01*
X121950600Y-48031400D01*
X123358600Y-48031400D01*
X123358600Y-47131400D01*
X123304329Y-46834377D01*
X123193154Y-46553649D01*
X123029348Y-46300004D01*
X122819206Y-46083190D01*
X122570804Y-45911538D01*
X122293687Y-45791645D01*
X122188340Y-45767364D01*
X121950600Y-45888022D01*
X121696600Y-45888022D01*
X121458860Y-45767364D01*
X121353513Y-45791645D01*
X121076396Y-45911538D01*
X120827994Y-46083190D01*
X120617852Y-46300004D01*
X120454046Y-46553649D01*
X120342871Y-46834377D01*
X120288600Y-47131400D01*
X115445423Y-47131400D01*
X115725884Y-46454311D01*
X116194188Y-45690109D01*
X116776274Y-45008574D01*
X117457809Y-44426487D01*
X118222011Y-43958184D01*
X119050069Y-43615191D01*
X119921582Y-43405959D01*
X120840104Y-43333670D01*
X130914118Y-43333670D01*
X130884609Y-43353387D01*
X130884609Y-43353387D01*
G37*
X130884609Y-43353387D02*
X130615087Y-43622909D01*
X130403325Y-43939834D01*
X130257461Y-44291981D01*
X130183100Y-44665819D01*
X130183100Y-45046981D01*
X130257461Y-45420819D01*
X130403325Y-45772966D01*
X130615087Y-46089891D01*
X130884609Y-46359413D01*
X131201534Y-46571175D01*
X131553681Y-46717039D01*
X131927519Y-46791400D01*
X132308681Y-46791400D01*
X132682519Y-46717039D01*
X133034666Y-46571175D01*
X133351591Y-46359413D01*
X133621113Y-46089891D01*
X133832875Y-45772966D01*
X133978739Y-45420819D01*
X134053100Y-45046981D01*
X134053100Y-44665819D01*
X133978739Y-44291981D01*
X133832875Y-43939834D01*
X133621113Y-43622909D01*
X133351591Y-43353387D01*
X133322082Y-43333670D01*
X134783831Y-43333670D01*
X134783831Y-51040597D01*
X134639371Y-51069332D01*
X134469211Y-51139814D01*
X134316072Y-51242138D01*
X134185838Y-51372372D01*
X134083514Y-51525511D01*
X134013032Y-51695671D01*
X133977100Y-51876311D01*
X133977100Y-52060489D01*
X134013032Y-52241129D01*
X134083514Y-52411289D01*
X134185838Y-52564428D01*
X134316072Y-52694662D01*
X134469211Y-52796986D01*
X134639371Y-52867468D01*
X134783831Y-52896203D01*
X134783830Y-64256149D01*
X134780752Y-64287400D01*
X134793037Y-64412131D01*
X134829419Y-64532068D01*
X134888502Y-64642603D01*
X134968013Y-64739487D01*
X135064897Y-64818998D01*
X135175432Y-64878081D01*
X135295369Y-64914463D01*
X135420100Y-64926748D01*
X135451351Y-64923670D01*
X151950458Y-64923670D01*
X151695728Y-65178400D01*
X124535635Y-65178400D01*
X124432989Y-65109814D01*
X124262829Y-65039332D01*
X124082189Y-65003400D01*
X123898011Y-65003400D01*
X123717371Y-65039332D01*
X123547211Y-65109814D01*
X123394072Y-65212138D01*
X123263838Y-65342372D01*
X123161514Y-65495511D01*
X123091032Y-65665671D01*
X123063432Y-65804425D01*
X123040686Y-65749511D01*
X122938362Y-65596372D01*
X122808128Y-65466138D01*
X122654989Y-65363814D01*
X122484829Y-65293332D01*
X122363749Y-65269247D01*
X121505904Y-64411403D01*
X121482101Y-64382399D01*
X121366376Y-64287426D01*
X121234347Y-64216854D01*
X121091086Y-64173397D01*
X120979433Y-64162400D01*
X120979422Y-64162400D01*
X120942100Y-64158724D01*
X120904778Y-64162400D01*
X120203116Y-64162400D01*
X120162169Y-64085794D01*
X119974897Y-63857603D01*
X119746706Y-63670331D01*
X119702190Y-63646537D01*
X119798588Y-63589217D01*
X120016954Y-63392693D01*
X120192784Y-63157344D01*
X120319322Y-62892214D01*
X120365058Y-62741426D01*
X120243917Y-62509400D01*
X119037100Y-62509400D01*
X119037100Y-62529400D01*
X118783100Y-62529400D01*
X118783100Y-62509400D01*
X116497100Y-62509400D01*
X116497100Y-62529400D01*
X116243100Y-62529400D01*
X116243100Y-62509400D01*
X116223100Y-62509400D01*
X116223100Y-62255400D01*
X116243100Y-62255400D01*
X116243100Y-61042550D01*
X116497100Y-61042550D01*
X116497100Y-62255400D01*
X118783100Y-62255400D01*
X118783100Y-61047936D01*
X119037100Y-61047936D01*
X119037100Y-62255400D01*
X120243917Y-62255400D01*
X120365058Y-62023374D01*
X120319322Y-61872586D01*
X120192784Y-61607456D01*
X120016954Y-61372107D01*
X119798588Y-61175583D01*
X119546078Y-61025436D01*
X119269127Y-60927437D01*
X119037100Y-61047936D01*
X118783100Y-61047936D01*
X118551073Y-60927437D01*
X118274122Y-61025436D01*
X118021612Y-61175583D01*
X117842153Y-61337092D01*
X117823202Y-61274620D01*
X117764237Y-61164306D01*
X117684885Y-61067615D01*
X117588194Y-60988263D01*
X117477880Y-60929298D01*
X117358182Y-60892988D01*
X117233700Y-60880728D01*
X116655850Y-60883800D01*
X116497100Y-61042550D01*
X116243100Y-61042550D01*
X116084350Y-60883800D01*
X115506500Y-60880728D01*
X115382018Y-60892988D01*
X115262320Y-60929298D01*
X115152006Y-60988263D01*
X115101370Y-61029819D01*
X115101370Y-55778400D01*
X115258835Y-55778400D01*
X115307780Y-56275347D01*
X115452734Y-56753196D01*
X115688127Y-57193585D01*
X116004912Y-57579588D01*
X116390915Y-57896373D01*
X116831304Y-58131766D01*
X117309153Y-58276720D01*
X117681571Y-58313400D01*
X119630629Y-58313400D01*
X120003047Y-58276720D01*
X120480896Y-58131766D01*
X120921285Y-57896373D01*
X121307288Y-57579588D01*
X121624073Y-57193585D01*
X121859466Y-56753196D01*
X122004420Y-56275347D01*
X122053365Y-55778400D01*
X123358835Y-55778400D01*
X123407780Y-56275347D01*
X123552734Y-56753196D01*
X123788127Y-57193585D01*
X124104912Y-57579588D01*
X124490915Y-57896373D01*
X124931304Y-58131766D01*
X125409153Y-58276720D01*
X125718786Y-58307216D01*
X125809954Y-58382036D01*
X125955013Y-58459571D01*
X126112411Y-58507317D01*
X126276099Y-58523439D01*
X126439787Y-58507317D01*
X126597186Y-58459571D01*
X126742245Y-58382036D01*
X126825878Y-58313400D01*
X127530629Y-58313400D01*
X127903047Y-58276720D01*
X128380896Y-58131766D01*
X128821285Y-57896373D01*
X129207288Y-57579588D01*
X129524073Y-57193585D01*
X129759466Y-56753196D01*
X129904420Y-56275347D01*
X129953365Y-55778400D01*
X129904420Y-55281453D01*
X129759466Y-54803604D01*
X129524073Y-54363215D01*
X129207288Y-53977212D01*
X128821285Y-53660427D01*
X128380896Y-53425034D01*
X127903047Y-53280080D01*
X127530629Y-53243400D01*
X126158600Y-53243400D01*
X126158600Y-50575845D01*
X126313450Y-50528872D01*
X126466986Y-50446805D01*
X126601562Y-50336362D01*
X126712005Y-50201786D01*
X126794072Y-50048250D01*
X126844608Y-49881654D01*
X126861672Y-49708400D01*
X126861672Y-46608400D01*
X126844608Y-46435146D01*
X126794072Y-46268550D01*
X126712005Y-46115014D01*
X126601562Y-45980438D01*
X126466986Y-45869995D01*
X126313450Y-45787928D01*
X126146854Y-45737392D01*
X125973600Y-45720328D01*
X124673600Y-45720328D01*
X124500346Y-45737392D01*
X124333750Y-45787928D01*
X124180214Y-45869995D01*
X124045638Y-45980438D01*
X123935195Y-46115014D01*
X123853128Y-46268550D01*
X123802592Y-46435146D01*
X123785528Y-46608400D01*
X123785528Y-49708400D01*
X123802592Y-49881654D01*
X123853128Y-50048250D01*
X123935195Y-50201786D01*
X124045638Y-50336362D01*
X124180214Y-50446805D01*
X124333750Y-50528872D01*
X124488600Y-50575845D01*
X124488601Y-53662326D01*
X124104912Y-53977212D01*
X123788127Y-54363215D01*
X123552734Y-54803604D01*
X123407780Y-55281453D01*
X123358835Y-55778400D01*
X122053365Y-55778400D01*
X122004420Y-55281453D01*
X121859466Y-54803604D01*
X121624073Y-54363215D01*
X121307288Y-53977212D01*
X120921285Y-53660427D01*
X120480896Y-53425034D01*
X120003047Y-53280080D01*
X119630629Y-53243400D01*
X117681571Y-53243400D01*
X117309153Y-53280080D01*
X116831304Y-53425034D01*
X116390915Y-53660427D01*
X116004912Y-53977212D01*
X115688127Y-54363215D01*
X115452734Y-54803604D01*
X115307780Y-55281453D01*
X115258835Y-55778400D01*
X115101370Y-55778400D01*
X115101370Y-49072404D01*
X115163308Y-48285400D01*
X120288600Y-48285400D01*
X120288600Y-49185400D01*
X120342871Y-49482423D01*
X120454046Y-49763151D01*
X120617852Y-50016796D01*
X120827994Y-50233610D01*
X121076396Y-50405262D01*
X121353513Y-50525155D01*
X121458860Y-50549436D01*
X121696600Y-50428778D01*
X121696600Y-48285400D01*
X121950600Y-48285400D01*
X121950600Y-50428778D01*
X122188340Y-50549436D01*
X122293687Y-50525155D01*
X122570804Y-50405262D01*
X122819206Y-50233610D01*
X123029348Y-50016796D01*
X123193154Y-49763151D01*
X123304329Y-49482423D01*
X123358600Y-49185400D01*
X123358600Y-48285400D01*
X121950600Y-48285400D01*
X121696600Y-48285400D01*
X120288600Y-48285400D01*
X115163308Y-48285400D01*
X115173659Y-48153882D01*
X115382891Y-47282367D01*
X115445423Y-47131400D01*
X120288600Y-47131400D01*
X120288600Y-48031400D01*
X121696600Y-48031400D01*
X121696600Y-45888022D01*
X121950600Y-45888022D01*
X121950600Y-48031400D01*
X123358600Y-48031400D01*
X123358600Y-47131400D01*
X123304329Y-46834377D01*
X123193154Y-46553649D01*
X123029348Y-46300004D01*
X122819206Y-46083190D01*
X122570804Y-45911538D01*
X122293687Y-45791645D01*
X122188340Y-45767364D01*
X121950600Y-45888022D01*
X121696600Y-45888022D01*
X121458860Y-45767364D01*
X121353513Y-45791645D01*
X121076396Y-45911538D01*
X120827994Y-46083190D01*
X120617852Y-46300004D01*
X120454046Y-46553649D01*
X120342871Y-46834377D01*
X120288600Y-47131400D01*
X115445423Y-47131400D01*
X115725884Y-46454311D01*
X116194188Y-45690109D01*
X116776274Y-45008574D01*
X117457809Y-44426487D01*
X118222011Y-43958184D01*
X119050069Y-43615191D01*
X119921582Y-43405959D01*
X120840104Y-43333670D01*
X130914118Y-43333670D01*
X130884609Y-43353387D01*
G36*
X118021612Y-63589217D02*
G01*
X118118010Y-63646537D01*
X118073494Y-63670331D01*
X117845303Y-63857603D01*
X117658031Y-64085794D01*
X117640100Y-64119340D01*
X117622169Y-64085794D01*
X117434897Y-63857603D01*
X117426835Y-63850986D01*
X117477880Y-63835502D01*
X117588194Y-63776537D01*
X117684885Y-63697185D01*
X117764237Y-63600494D01*
X117823202Y-63490180D01*
X117842153Y-63427708D01*
X118021612Y-63589217D01*
X118021612Y-63589217D01*
G37*
X118021612Y-63589217D02*
X118118010Y-63646537D01*
X118073494Y-63670331D01*
X117845303Y-63857603D01*
X117658031Y-64085794D01*
X117640100Y-64119340D01*
X117622169Y-64085794D01*
X117434897Y-63857603D01*
X117426835Y-63850986D01*
X117477880Y-63835502D01*
X117588194Y-63776537D01*
X117684885Y-63697185D01*
X117764237Y-63600494D01*
X117823202Y-63490180D01*
X117842153Y-63427708D01*
X118021612Y-63589217D01*
%TD*%
M02*
