%TF.GenerationSoftware,KiCad,Pcbnew,(5.1.4)-1*%
%TF.CreationDate,2021-10-25T09:14:49+02:00*%
%TF.ProjectId,bbb-diffcape,6262622d-6469-4666-9663-6170652e6b69,rev?*%
%TF.SameCoordinates,Original*%
%TF.FileFunction,Paste,Top*%
%TF.FilePolarity,Positive*%
%FSLAX46Y46*%
G04 Gerber Fmt 4.6, Leading zero omitted, Abs format (unit mm)*
G04 Created by KiCad (PCBNEW (5.1.4)-1) date 2021-10-25 09:14:49*
%MOMM*%
%LPD*%
G04 APERTURE LIST*
%ADD10R,1.550000X0.600000*%
%ADD11R,0.900000X0.800000*%
%ADD12C,0.100000*%
%ADD13C,0.875000*%
%ADD14C,1.250000*%
G04 APERTURE END LIST*
D10*
%TO.C,U2*%
X127198100Y-112674400D03*
X127198100Y-113944400D03*
X127198100Y-115214400D03*
X127198100Y-116484400D03*
X121798100Y-116484400D03*
X121798100Y-115214400D03*
X121798100Y-113944400D03*
X121798100Y-112674400D03*
%TD*%
D11*
%TO.C,D2*%
X128197100Y-119151400D03*
X130197100Y-118201400D03*
X130197100Y-120101400D03*
%TD*%
D12*
%TO.C,R3*%
G36*
X131316791Y-121344453D02*
G01*
X131338026Y-121347603D01*
X131358850Y-121352819D01*
X131379062Y-121360051D01*
X131398468Y-121369230D01*
X131416881Y-121380266D01*
X131434124Y-121393054D01*
X131450030Y-121407470D01*
X131464446Y-121423376D01*
X131477234Y-121440619D01*
X131488270Y-121459032D01*
X131497449Y-121478438D01*
X131504681Y-121498650D01*
X131509897Y-121519474D01*
X131513047Y-121540709D01*
X131514100Y-121562150D01*
X131514100Y-122074650D01*
X131513047Y-122096091D01*
X131509897Y-122117326D01*
X131504681Y-122138150D01*
X131497449Y-122158362D01*
X131488270Y-122177768D01*
X131477234Y-122196181D01*
X131464446Y-122213424D01*
X131450030Y-122229330D01*
X131434124Y-122243746D01*
X131416881Y-122256534D01*
X131398468Y-122267570D01*
X131379062Y-122276749D01*
X131358850Y-122283981D01*
X131338026Y-122289197D01*
X131316791Y-122292347D01*
X131295350Y-122293400D01*
X130857850Y-122293400D01*
X130836409Y-122292347D01*
X130815174Y-122289197D01*
X130794350Y-122283981D01*
X130774138Y-122276749D01*
X130754732Y-122267570D01*
X130736319Y-122256534D01*
X130719076Y-122243746D01*
X130703170Y-122229330D01*
X130688754Y-122213424D01*
X130675966Y-122196181D01*
X130664930Y-122177768D01*
X130655751Y-122158362D01*
X130648519Y-122138150D01*
X130643303Y-122117326D01*
X130640153Y-122096091D01*
X130639100Y-122074650D01*
X130639100Y-121562150D01*
X130640153Y-121540709D01*
X130643303Y-121519474D01*
X130648519Y-121498650D01*
X130655751Y-121478438D01*
X130664930Y-121459032D01*
X130675966Y-121440619D01*
X130688754Y-121423376D01*
X130703170Y-121407470D01*
X130719076Y-121393054D01*
X130736319Y-121380266D01*
X130754732Y-121369230D01*
X130774138Y-121360051D01*
X130794350Y-121352819D01*
X130815174Y-121347603D01*
X130836409Y-121344453D01*
X130857850Y-121343400D01*
X131295350Y-121343400D01*
X131316791Y-121344453D01*
X131316791Y-121344453D01*
G37*
D13*
X131076600Y-121818400D03*
D12*
G36*
X132891791Y-121344453D02*
G01*
X132913026Y-121347603D01*
X132933850Y-121352819D01*
X132954062Y-121360051D01*
X132973468Y-121369230D01*
X132991881Y-121380266D01*
X133009124Y-121393054D01*
X133025030Y-121407470D01*
X133039446Y-121423376D01*
X133052234Y-121440619D01*
X133063270Y-121459032D01*
X133072449Y-121478438D01*
X133079681Y-121498650D01*
X133084897Y-121519474D01*
X133088047Y-121540709D01*
X133089100Y-121562150D01*
X133089100Y-122074650D01*
X133088047Y-122096091D01*
X133084897Y-122117326D01*
X133079681Y-122138150D01*
X133072449Y-122158362D01*
X133063270Y-122177768D01*
X133052234Y-122196181D01*
X133039446Y-122213424D01*
X133025030Y-122229330D01*
X133009124Y-122243746D01*
X132991881Y-122256534D01*
X132973468Y-122267570D01*
X132954062Y-122276749D01*
X132933850Y-122283981D01*
X132913026Y-122289197D01*
X132891791Y-122292347D01*
X132870350Y-122293400D01*
X132432850Y-122293400D01*
X132411409Y-122292347D01*
X132390174Y-122289197D01*
X132369350Y-122283981D01*
X132349138Y-122276749D01*
X132329732Y-122267570D01*
X132311319Y-122256534D01*
X132294076Y-122243746D01*
X132278170Y-122229330D01*
X132263754Y-122213424D01*
X132250966Y-122196181D01*
X132239930Y-122177768D01*
X132230751Y-122158362D01*
X132223519Y-122138150D01*
X132218303Y-122117326D01*
X132215153Y-122096091D01*
X132214100Y-122074650D01*
X132214100Y-121562150D01*
X132215153Y-121540709D01*
X132218303Y-121519474D01*
X132223519Y-121498650D01*
X132230751Y-121478438D01*
X132239930Y-121459032D01*
X132250966Y-121440619D01*
X132263754Y-121423376D01*
X132278170Y-121407470D01*
X132294076Y-121393054D01*
X132311319Y-121380266D01*
X132329732Y-121369230D01*
X132349138Y-121360051D01*
X132369350Y-121352819D01*
X132390174Y-121347603D01*
X132411409Y-121344453D01*
X132432850Y-121343400D01*
X132870350Y-121343400D01*
X132891791Y-121344453D01*
X132891791Y-121344453D01*
G37*
D13*
X132651600Y-121818400D03*
%TD*%
D12*
%TO.C,R2*%
G36*
X153656291Y-115883453D02*
G01*
X153677526Y-115886603D01*
X153698350Y-115891819D01*
X153718562Y-115899051D01*
X153737968Y-115908230D01*
X153756381Y-115919266D01*
X153773624Y-115932054D01*
X153789530Y-115946470D01*
X153803946Y-115962376D01*
X153816734Y-115979619D01*
X153827770Y-115998032D01*
X153836949Y-116017438D01*
X153844181Y-116037650D01*
X153849397Y-116058474D01*
X153852547Y-116079709D01*
X153853600Y-116101150D01*
X153853600Y-116613650D01*
X153852547Y-116635091D01*
X153849397Y-116656326D01*
X153844181Y-116677150D01*
X153836949Y-116697362D01*
X153827770Y-116716768D01*
X153816734Y-116735181D01*
X153803946Y-116752424D01*
X153789530Y-116768330D01*
X153773624Y-116782746D01*
X153756381Y-116795534D01*
X153737968Y-116806570D01*
X153718562Y-116815749D01*
X153698350Y-116822981D01*
X153677526Y-116828197D01*
X153656291Y-116831347D01*
X153634850Y-116832400D01*
X153197350Y-116832400D01*
X153175909Y-116831347D01*
X153154674Y-116828197D01*
X153133850Y-116822981D01*
X153113638Y-116815749D01*
X153094232Y-116806570D01*
X153075819Y-116795534D01*
X153058576Y-116782746D01*
X153042670Y-116768330D01*
X153028254Y-116752424D01*
X153015466Y-116735181D01*
X153004430Y-116716768D01*
X152995251Y-116697362D01*
X152988019Y-116677150D01*
X152982803Y-116656326D01*
X152979653Y-116635091D01*
X152978600Y-116613650D01*
X152978600Y-116101150D01*
X152979653Y-116079709D01*
X152982803Y-116058474D01*
X152988019Y-116037650D01*
X152995251Y-116017438D01*
X153004430Y-115998032D01*
X153015466Y-115979619D01*
X153028254Y-115962376D01*
X153042670Y-115946470D01*
X153058576Y-115932054D01*
X153075819Y-115919266D01*
X153094232Y-115908230D01*
X153113638Y-115899051D01*
X153133850Y-115891819D01*
X153154674Y-115886603D01*
X153175909Y-115883453D01*
X153197350Y-115882400D01*
X153634850Y-115882400D01*
X153656291Y-115883453D01*
X153656291Y-115883453D01*
G37*
D13*
X153416100Y-116357400D03*
D12*
G36*
X152081291Y-115883453D02*
G01*
X152102526Y-115886603D01*
X152123350Y-115891819D01*
X152143562Y-115899051D01*
X152162968Y-115908230D01*
X152181381Y-115919266D01*
X152198624Y-115932054D01*
X152214530Y-115946470D01*
X152228946Y-115962376D01*
X152241734Y-115979619D01*
X152252770Y-115998032D01*
X152261949Y-116017438D01*
X152269181Y-116037650D01*
X152274397Y-116058474D01*
X152277547Y-116079709D01*
X152278600Y-116101150D01*
X152278600Y-116613650D01*
X152277547Y-116635091D01*
X152274397Y-116656326D01*
X152269181Y-116677150D01*
X152261949Y-116697362D01*
X152252770Y-116716768D01*
X152241734Y-116735181D01*
X152228946Y-116752424D01*
X152214530Y-116768330D01*
X152198624Y-116782746D01*
X152181381Y-116795534D01*
X152162968Y-116806570D01*
X152143562Y-116815749D01*
X152123350Y-116822981D01*
X152102526Y-116828197D01*
X152081291Y-116831347D01*
X152059850Y-116832400D01*
X151622350Y-116832400D01*
X151600909Y-116831347D01*
X151579674Y-116828197D01*
X151558850Y-116822981D01*
X151538638Y-116815749D01*
X151519232Y-116806570D01*
X151500819Y-116795534D01*
X151483576Y-116782746D01*
X151467670Y-116768330D01*
X151453254Y-116752424D01*
X151440466Y-116735181D01*
X151429430Y-116716768D01*
X151420251Y-116697362D01*
X151413019Y-116677150D01*
X151407803Y-116656326D01*
X151404653Y-116635091D01*
X151403600Y-116613650D01*
X151403600Y-116101150D01*
X151404653Y-116079709D01*
X151407803Y-116058474D01*
X151413019Y-116037650D01*
X151420251Y-116017438D01*
X151429430Y-115998032D01*
X151440466Y-115979619D01*
X151453254Y-115962376D01*
X151467670Y-115946470D01*
X151483576Y-115932054D01*
X151500819Y-115919266D01*
X151519232Y-115908230D01*
X151538638Y-115899051D01*
X151558850Y-115891819D01*
X151579674Y-115886603D01*
X151600909Y-115883453D01*
X151622350Y-115882400D01*
X152059850Y-115882400D01*
X152081291Y-115883453D01*
X152081291Y-115883453D01*
G37*
D13*
X151841100Y-116357400D03*
%TD*%
D10*
%TO.C,U7*%
X156342100Y-75971400D03*
X156342100Y-74701400D03*
X156342100Y-73431400D03*
X156342100Y-72161400D03*
X161742100Y-72161400D03*
X161742100Y-73431400D03*
X161742100Y-74701400D03*
X161742100Y-75971400D03*
%TD*%
%TO.C,U4*%
X127198100Y-99212400D03*
X127198100Y-100482400D03*
X127198100Y-101752400D03*
X127198100Y-103022400D03*
X121798100Y-103022400D03*
X121798100Y-101752400D03*
X121798100Y-100482400D03*
X121798100Y-99212400D03*
%TD*%
%TO.C,U8*%
X127325100Y-72669400D03*
X127325100Y-73939400D03*
X127325100Y-75209400D03*
X127325100Y-76479400D03*
X121925100Y-76479400D03*
X121925100Y-75209400D03*
X121925100Y-73939400D03*
X121925100Y-72669400D03*
%TD*%
%TO.C,U6*%
X127452100Y-85877400D03*
X127452100Y-87147400D03*
X127452100Y-88417400D03*
X127452100Y-89687400D03*
X122052100Y-89687400D03*
X122052100Y-88417400D03*
X122052100Y-87147400D03*
X122052100Y-85877400D03*
%TD*%
%TO.C,U5*%
X156342100Y-89433400D03*
X156342100Y-88163400D03*
X156342100Y-86893400D03*
X156342100Y-85623400D03*
X161742100Y-85623400D03*
X161742100Y-86893400D03*
X161742100Y-88163400D03*
X161742100Y-89433400D03*
%TD*%
%TO.C,U3*%
X156342100Y-102387400D03*
X156342100Y-101117400D03*
X156342100Y-99847400D03*
X156342100Y-98577400D03*
X161742100Y-98577400D03*
X161742100Y-99847400D03*
X161742100Y-101117400D03*
X161742100Y-102387400D03*
%TD*%
%TO.C,U1*%
X156342100Y-116230400D03*
X156342100Y-114960400D03*
X156342100Y-113690400D03*
X156342100Y-112420400D03*
X161742100Y-112420400D03*
X161742100Y-113690400D03*
X161742100Y-114960400D03*
X161742100Y-116230400D03*
%TD*%
D12*
%TO.C,R25*%
G36*
X132903791Y-79497453D02*
G01*
X132925026Y-79500603D01*
X132945850Y-79505819D01*
X132966062Y-79513051D01*
X132985468Y-79522230D01*
X133003881Y-79533266D01*
X133021124Y-79546054D01*
X133037030Y-79560470D01*
X133051446Y-79576376D01*
X133064234Y-79593619D01*
X133075270Y-79612032D01*
X133084449Y-79631438D01*
X133091681Y-79651650D01*
X133096897Y-79672474D01*
X133100047Y-79693709D01*
X133101100Y-79715150D01*
X133101100Y-80152650D01*
X133100047Y-80174091D01*
X133096897Y-80195326D01*
X133091681Y-80216150D01*
X133084449Y-80236362D01*
X133075270Y-80255768D01*
X133064234Y-80274181D01*
X133051446Y-80291424D01*
X133037030Y-80307330D01*
X133021124Y-80321746D01*
X133003881Y-80334534D01*
X132985468Y-80345570D01*
X132966062Y-80354749D01*
X132945850Y-80361981D01*
X132925026Y-80367197D01*
X132903791Y-80370347D01*
X132882350Y-80371400D01*
X132369850Y-80371400D01*
X132348409Y-80370347D01*
X132327174Y-80367197D01*
X132306350Y-80361981D01*
X132286138Y-80354749D01*
X132266732Y-80345570D01*
X132248319Y-80334534D01*
X132231076Y-80321746D01*
X132215170Y-80307330D01*
X132200754Y-80291424D01*
X132187966Y-80274181D01*
X132176930Y-80255768D01*
X132167751Y-80236362D01*
X132160519Y-80216150D01*
X132155303Y-80195326D01*
X132152153Y-80174091D01*
X132151100Y-80152650D01*
X132151100Y-79715150D01*
X132152153Y-79693709D01*
X132155303Y-79672474D01*
X132160519Y-79651650D01*
X132167751Y-79631438D01*
X132176930Y-79612032D01*
X132187966Y-79593619D01*
X132200754Y-79576376D01*
X132215170Y-79560470D01*
X132231076Y-79546054D01*
X132248319Y-79533266D01*
X132266732Y-79522230D01*
X132286138Y-79513051D01*
X132306350Y-79505819D01*
X132327174Y-79500603D01*
X132348409Y-79497453D01*
X132369850Y-79496400D01*
X132882350Y-79496400D01*
X132903791Y-79497453D01*
X132903791Y-79497453D01*
G37*
D13*
X132626100Y-79933900D03*
D12*
G36*
X132903791Y-77922453D02*
G01*
X132925026Y-77925603D01*
X132945850Y-77930819D01*
X132966062Y-77938051D01*
X132985468Y-77947230D01*
X133003881Y-77958266D01*
X133021124Y-77971054D01*
X133037030Y-77985470D01*
X133051446Y-78001376D01*
X133064234Y-78018619D01*
X133075270Y-78037032D01*
X133084449Y-78056438D01*
X133091681Y-78076650D01*
X133096897Y-78097474D01*
X133100047Y-78118709D01*
X133101100Y-78140150D01*
X133101100Y-78577650D01*
X133100047Y-78599091D01*
X133096897Y-78620326D01*
X133091681Y-78641150D01*
X133084449Y-78661362D01*
X133075270Y-78680768D01*
X133064234Y-78699181D01*
X133051446Y-78716424D01*
X133037030Y-78732330D01*
X133021124Y-78746746D01*
X133003881Y-78759534D01*
X132985468Y-78770570D01*
X132966062Y-78779749D01*
X132945850Y-78786981D01*
X132925026Y-78792197D01*
X132903791Y-78795347D01*
X132882350Y-78796400D01*
X132369850Y-78796400D01*
X132348409Y-78795347D01*
X132327174Y-78792197D01*
X132306350Y-78786981D01*
X132286138Y-78779749D01*
X132266732Y-78770570D01*
X132248319Y-78759534D01*
X132231076Y-78746746D01*
X132215170Y-78732330D01*
X132200754Y-78716424D01*
X132187966Y-78699181D01*
X132176930Y-78680768D01*
X132167751Y-78661362D01*
X132160519Y-78641150D01*
X132155303Y-78620326D01*
X132152153Y-78599091D01*
X132151100Y-78577650D01*
X132151100Y-78140150D01*
X132152153Y-78118709D01*
X132155303Y-78097474D01*
X132160519Y-78076650D01*
X132167751Y-78056438D01*
X132176930Y-78037032D01*
X132187966Y-78018619D01*
X132200754Y-78001376D01*
X132215170Y-77985470D01*
X132231076Y-77971054D01*
X132248319Y-77958266D01*
X132266732Y-77947230D01*
X132286138Y-77938051D01*
X132306350Y-77930819D01*
X132327174Y-77925603D01*
X132348409Y-77922453D01*
X132369850Y-77921400D01*
X132882350Y-77921400D01*
X132903791Y-77922453D01*
X132903791Y-77922453D01*
G37*
D13*
X132626100Y-78358900D03*
%TD*%
D12*
%TO.C,R24*%
G36*
X152207791Y-79243453D02*
G01*
X152229026Y-79246603D01*
X152249850Y-79251819D01*
X152270062Y-79259051D01*
X152289468Y-79268230D01*
X152307881Y-79279266D01*
X152325124Y-79292054D01*
X152341030Y-79306470D01*
X152355446Y-79322376D01*
X152368234Y-79339619D01*
X152379270Y-79358032D01*
X152388449Y-79377438D01*
X152395681Y-79397650D01*
X152400897Y-79418474D01*
X152404047Y-79439709D01*
X152405100Y-79461150D01*
X152405100Y-79898650D01*
X152404047Y-79920091D01*
X152400897Y-79941326D01*
X152395681Y-79962150D01*
X152388449Y-79982362D01*
X152379270Y-80001768D01*
X152368234Y-80020181D01*
X152355446Y-80037424D01*
X152341030Y-80053330D01*
X152325124Y-80067746D01*
X152307881Y-80080534D01*
X152289468Y-80091570D01*
X152270062Y-80100749D01*
X152249850Y-80107981D01*
X152229026Y-80113197D01*
X152207791Y-80116347D01*
X152186350Y-80117400D01*
X151673850Y-80117400D01*
X151652409Y-80116347D01*
X151631174Y-80113197D01*
X151610350Y-80107981D01*
X151590138Y-80100749D01*
X151570732Y-80091570D01*
X151552319Y-80080534D01*
X151535076Y-80067746D01*
X151519170Y-80053330D01*
X151504754Y-80037424D01*
X151491966Y-80020181D01*
X151480930Y-80001768D01*
X151471751Y-79982362D01*
X151464519Y-79962150D01*
X151459303Y-79941326D01*
X151456153Y-79920091D01*
X151455100Y-79898650D01*
X151455100Y-79461150D01*
X151456153Y-79439709D01*
X151459303Y-79418474D01*
X151464519Y-79397650D01*
X151471751Y-79377438D01*
X151480930Y-79358032D01*
X151491966Y-79339619D01*
X151504754Y-79322376D01*
X151519170Y-79306470D01*
X151535076Y-79292054D01*
X151552319Y-79279266D01*
X151570732Y-79268230D01*
X151590138Y-79259051D01*
X151610350Y-79251819D01*
X151631174Y-79246603D01*
X151652409Y-79243453D01*
X151673850Y-79242400D01*
X152186350Y-79242400D01*
X152207791Y-79243453D01*
X152207791Y-79243453D01*
G37*
D13*
X151930100Y-79679900D03*
D12*
G36*
X152207791Y-77668453D02*
G01*
X152229026Y-77671603D01*
X152249850Y-77676819D01*
X152270062Y-77684051D01*
X152289468Y-77693230D01*
X152307881Y-77704266D01*
X152325124Y-77717054D01*
X152341030Y-77731470D01*
X152355446Y-77747376D01*
X152368234Y-77764619D01*
X152379270Y-77783032D01*
X152388449Y-77802438D01*
X152395681Y-77822650D01*
X152400897Y-77843474D01*
X152404047Y-77864709D01*
X152405100Y-77886150D01*
X152405100Y-78323650D01*
X152404047Y-78345091D01*
X152400897Y-78366326D01*
X152395681Y-78387150D01*
X152388449Y-78407362D01*
X152379270Y-78426768D01*
X152368234Y-78445181D01*
X152355446Y-78462424D01*
X152341030Y-78478330D01*
X152325124Y-78492746D01*
X152307881Y-78505534D01*
X152289468Y-78516570D01*
X152270062Y-78525749D01*
X152249850Y-78532981D01*
X152229026Y-78538197D01*
X152207791Y-78541347D01*
X152186350Y-78542400D01*
X151673850Y-78542400D01*
X151652409Y-78541347D01*
X151631174Y-78538197D01*
X151610350Y-78532981D01*
X151590138Y-78525749D01*
X151570732Y-78516570D01*
X151552319Y-78505534D01*
X151535076Y-78492746D01*
X151519170Y-78478330D01*
X151504754Y-78462424D01*
X151491966Y-78445181D01*
X151480930Y-78426768D01*
X151471751Y-78407362D01*
X151464519Y-78387150D01*
X151459303Y-78366326D01*
X151456153Y-78345091D01*
X151455100Y-78323650D01*
X151455100Y-77886150D01*
X151456153Y-77864709D01*
X151459303Y-77843474D01*
X151464519Y-77822650D01*
X151471751Y-77802438D01*
X151480930Y-77783032D01*
X151491966Y-77764619D01*
X151504754Y-77747376D01*
X151519170Y-77731470D01*
X151535076Y-77717054D01*
X151552319Y-77704266D01*
X151570732Y-77693230D01*
X151590138Y-77684051D01*
X151610350Y-77676819D01*
X151631174Y-77671603D01*
X151652409Y-77668453D01*
X151673850Y-77667400D01*
X152186350Y-77667400D01*
X152207791Y-77668453D01*
X152207791Y-77668453D01*
G37*
D13*
X151930100Y-78104900D03*
%TD*%
D12*
%TO.C,R23*%
G36*
X131316791Y-76132453D02*
G01*
X131338026Y-76135603D01*
X131358850Y-76140819D01*
X131379062Y-76148051D01*
X131398468Y-76157230D01*
X131416881Y-76168266D01*
X131434124Y-76181054D01*
X131450030Y-76195470D01*
X131464446Y-76211376D01*
X131477234Y-76228619D01*
X131488270Y-76247032D01*
X131497449Y-76266438D01*
X131504681Y-76286650D01*
X131509897Y-76307474D01*
X131513047Y-76328709D01*
X131514100Y-76350150D01*
X131514100Y-76862650D01*
X131513047Y-76884091D01*
X131509897Y-76905326D01*
X131504681Y-76926150D01*
X131497449Y-76946362D01*
X131488270Y-76965768D01*
X131477234Y-76984181D01*
X131464446Y-77001424D01*
X131450030Y-77017330D01*
X131434124Y-77031746D01*
X131416881Y-77044534D01*
X131398468Y-77055570D01*
X131379062Y-77064749D01*
X131358850Y-77071981D01*
X131338026Y-77077197D01*
X131316791Y-77080347D01*
X131295350Y-77081400D01*
X130857850Y-77081400D01*
X130836409Y-77080347D01*
X130815174Y-77077197D01*
X130794350Y-77071981D01*
X130774138Y-77064749D01*
X130754732Y-77055570D01*
X130736319Y-77044534D01*
X130719076Y-77031746D01*
X130703170Y-77017330D01*
X130688754Y-77001424D01*
X130675966Y-76984181D01*
X130664930Y-76965768D01*
X130655751Y-76946362D01*
X130648519Y-76926150D01*
X130643303Y-76905326D01*
X130640153Y-76884091D01*
X130639100Y-76862650D01*
X130639100Y-76350150D01*
X130640153Y-76328709D01*
X130643303Y-76307474D01*
X130648519Y-76286650D01*
X130655751Y-76266438D01*
X130664930Y-76247032D01*
X130675966Y-76228619D01*
X130688754Y-76211376D01*
X130703170Y-76195470D01*
X130719076Y-76181054D01*
X130736319Y-76168266D01*
X130754732Y-76157230D01*
X130774138Y-76148051D01*
X130794350Y-76140819D01*
X130815174Y-76135603D01*
X130836409Y-76132453D01*
X130857850Y-76131400D01*
X131295350Y-76131400D01*
X131316791Y-76132453D01*
X131316791Y-76132453D01*
G37*
D13*
X131076600Y-76606400D03*
D12*
G36*
X132891791Y-76132453D02*
G01*
X132913026Y-76135603D01*
X132933850Y-76140819D01*
X132954062Y-76148051D01*
X132973468Y-76157230D01*
X132991881Y-76168266D01*
X133009124Y-76181054D01*
X133025030Y-76195470D01*
X133039446Y-76211376D01*
X133052234Y-76228619D01*
X133063270Y-76247032D01*
X133072449Y-76266438D01*
X133079681Y-76286650D01*
X133084897Y-76307474D01*
X133088047Y-76328709D01*
X133089100Y-76350150D01*
X133089100Y-76862650D01*
X133088047Y-76884091D01*
X133084897Y-76905326D01*
X133079681Y-76926150D01*
X133072449Y-76946362D01*
X133063270Y-76965768D01*
X133052234Y-76984181D01*
X133039446Y-77001424D01*
X133025030Y-77017330D01*
X133009124Y-77031746D01*
X132991881Y-77044534D01*
X132973468Y-77055570D01*
X132954062Y-77064749D01*
X132933850Y-77071981D01*
X132913026Y-77077197D01*
X132891791Y-77080347D01*
X132870350Y-77081400D01*
X132432850Y-77081400D01*
X132411409Y-77080347D01*
X132390174Y-77077197D01*
X132369350Y-77071981D01*
X132349138Y-77064749D01*
X132329732Y-77055570D01*
X132311319Y-77044534D01*
X132294076Y-77031746D01*
X132278170Y-77017330D01*
X132263754Y-77001424D01*
X132250966Y-76984181D01*
X132239930Y-76965768D01*
X132230751Y-76946362D01*
X132223519Y-76926150D01*
X132218303Y-76905326D01*
X132215153Y-76884091D01*
X132214100Y-76862650D01*
X132214100Y-76350150D01*
X132215153Y-76328709D01*
X132218303Y-76307474D01*
X132223519Y-76286650D01*
X132230751Y-76266438D01*
X132239930Y-76247032D01*
X132250966Y-76228619D01*
X132263754Y-76211376D01*
X132278170Y-76195470D01*
X132294076Y-76181054D01*
X132311319Y-76168266D01*
X132329732Y-76157230D01*
X132349138Y-76148051D01*
X132369350Y-76140819D01*
X132390174Y-76135603D01*
X132411409Y-76132453D01*
X132432850Y-76131400D01*
X132870350Y-76131400D01*
X132891791Y-76132453D01*
X132891791Y-76132453D01*
G37*
D13*
X132651600Y-76606400D03*
%TD*%
D12*
%TO.C,R22*%
G36*
X131316791Y-81212453D02*
G01*
X131338026Y-81215603D01*
X131358850Y-81220819D01*
X131379062Y-81228051D01*
X131398468Y-81237230D01*
X131416881Y-81248266D01*
X131434124Y-81261054D01*
X131450030Y-81275470D01*
X131464446Y-81291376D01*
X131477234Y-81308619D01*
X131488270Y-81327032D01*
X131497449Y-81346438D01*
X131504681Y-81366650D01*
X131509897Y-81387474D01*
X131513047Y-81408709D01*
X131514100Y-81430150D01*
X131514100Y-81942650D01*
X131513047Y-81964091D01*
X131509897Y-81985326D01*
X131504681Y-82006150D01*
X131497449Y-82026362D01*
X131488270Y-82045768D01*
X131477234Y-82064181D01*
X131464446Y-82081424D01*
X131450030Y-82097330D01*
X131434124Y-82111746D01*
X131416881Y-82124534D01*
X131398468Y-82135570D01*
X131379062Y-82144749D01*
X131358850Y-82151981D01*
X131338026Y-82157197D01*
X131316791Y-82160347D01*
X131295350Y-82161400D01*
X130857850Y-82161400D01*
X130836409Y-82160347D01*
X130815174Y-82157197D01*
X130794350Y-82151981D01*
X130774138Y-82144749D01*
X130754732Y-82135570D01*
X130736319Y-82124534D01*
X130719076Y-82111746D01*
X130703170Y-82097330D01*
X130688754Y-82081424D01*
X130675966Y-82064181D01*
X130664930Y-82045768D01*
X130655751Y-82026362D01*
X130648519Y-82006150D01*
X130643303Y-81985326D01*
X130640153Y-81964091D01*
X130639100Y-81942650D01*
X130639100Y-81430150D01*
X130640153Y-81408709D01*
X130643303Y-81387474D01*
X130648519Y-81366650D01*
X130655751Y-81346438D01*
X130664930Y-81327032D01*
X130675966Y-81308619D01*
X130688754Y-81291376D01*
X130703170Y-81275470D01*
X130719076Y-81261054D01*
X130736319Y-81248266D01*
X130754732Y-81237230D01*
X130774138Y-81228051D01*
X130794350Y-81220819D01*
X130815174Y-81215603D01*
X130836409Y-81212453D01*
X130857850Y-81211400D01*
X131295350Y-81211400D01*
X131316791Y-81212453D01*
X131316791Y-81212453D01*
G37*
D13*
X131076600Y-81686400D03*
D12*
G36*
X132891791Y-81212453D02*
G01*
X132913026Y-81215603D01*
X132933850Y-81220819D01*
X132954062Y-81228051D01*
X132973468Y-81237230D01*
X132991881Y-81248266D01*
X133009124Y-81261054D01*
X133025030Y-81275470D01*
X133039446Y-81291376D01*
X133052234Y-81308619D01*
X133063270Y-81327032D01*
X133072449Y-81346438D01*
X133079681Y-81366650D01*
X133084897Y-81387474D01*
X133088047Y-81408709D01*
X133089100Y-81430150D01*
X133089100Y-81942650D01*
X133088047Y-81964091D01*
X133084897Y-81985326D01*
X133079681Y-82006150D01*
X133072449Y-82026362D01*
X133063270Y-82045768D01*
X133052234Y-82064181D01*
X133039446Y-82081424D01*
X133025030Y-82097330D01*
X133009124Y-82111746D01*
X132991881Y-82124534D01*
X132973468Y-82135570D01*
X132954062Y-82144749D01*
X132933850Y-82151981D01*
X132913026Y-82157197D01*
X132891791Y-82160347D01*
X132870350Y-82161400D01*
X132432850Y-82161400D01*
X132411409Y-82160347D01*
X132390174Y-82157197D01*
X132369350Y-82151981D01*
X132349138Y-82144749D01*
X132329732Y-82135570D01*
X132311319Y-82124534D01*
X132294076Y-82111746D01*
X132278170Y-82097330D01*
X132263754Y-82081424D01*
X132250966Y-82064181D01*
X132239930Y-82045768D01*
X132230751Y-82026362D01*
X132223519Y-82006150D01*
X132218303Y-81985326D01*
X132215153Y-81964091D01*
X132214100Y-81942650D01*
X132214100Y-81430150D01*
X132215153Y-81408709D01*
X132218303Y-81387474D01*
X132223519Y-81366650D01*
X132230751Y-81346438D01*
X132239930Y-81327032D01*
X132250966Y-81308619D01*
X132263754Y-81291376D01*
X132278170Y-81275470D01*
X132294076Y-81261054D01*
X132311319Y-81248266D01*
X132329732Y-81237230D01*
X132349138Y-81228051D01*
X132369350Y-81220819D01*
X132390174Y-81215603D01*
X132411409Y-81212453D01*
X132432850Y-81211400D01*
X132870350Y-81211400D01*
X132891791Y-81212453D01*
X132891791Y-81212453D01*
G37*
D13*
X132651600Y-81686400D03*
%TD*%
D12*
%TO.C,R21*%
G36*
X153719791Y-75624453D02*
G01*
X153741026Y-75627603D01*
X153761850Y-75632819D01*
X153782062Y-75640051D01*
X153801468Y-75649230D01*
X153819881Y-75660266D01*
X153837124Y-75673054D01*
X153853030Y-75687470D01*
X153867446Y-75703376D01*
X153880234Y-75720619D01*
X153891270Y-75739032D01*
X153900449Y-75758438D01*
X153907681Y-75778650D01*
X153912897Y-75799474D01*
X153916047Y-75820709D01*
X153917100Y-75842150D01*
X153917100Y-76354650D01*
X153916047Y-76376091D01*
X153912897Y-76397326D01*
X153907681Y-76418150D01*
X153900449Y-76438362D01*
X153891270Y-76457768D01*
X153880234Y-76476181D01*
X153867446Y-76493424D01*
X153853030Y-76509330D01*
X153837124Y-76523746D01*
X153819881Y-76536534D01*
X153801468Y-76547570D01*
X153782062Y-76556749D01*
X153761850Y-76563981D01*
X153741026Y-76569197D01*
X153719791Y-76572347D01*
X153698350Y-76573400D01*
X153260850Y-76573400D01*
X153239409Y-76572347D01*
X153218174Y-76569197D01*
X153197350Y-76563981D01*
X153177138Y-76556749D01*
X153157732Y-76547570D01*
X153139319Y-76536534D01*
X153122076Y-76523746D01*
X153106170Y-76509330D01*
X153091754Y-76493424D01*
X153078966Y-76476181D01*
X153067930Y-76457768D01*
X153058751Y-76438362D01*
X153051519Y-76418150D01*
X153046303Y-76397326D01*
X153043153Y-76376091D01*
X153042100Y-76354650D01*
X153042100Y-75842150D01*
X153043153Y-75820709D01*
X153046303Y-75799474D01*
X153051519Y-75778650D01*
X153058751Y-75758438D01*
X153067930Y-75739032D01*
X153078966Y-75720619D01*
X153091754Y-75703376D01*
X153106170Y-75687470D01*
X153122076Y-75673054D01*
X153139319Y-75660266D01*
X153157732Y-75649230D01*
X153177138Y-75640051D01*
X153197350Y-75632819D01*
X153218174Y-75627603D01*
X153239409Y-75624453D01*
X153260850Y-75623400D01*
X153698350Y-75623400D01*
X153719791Y-75624453D01*
X153719791Y-75624453D01*
G37*
D13*
X153479600Y-76098400D03*
D12*
G36*
X152144791Y-75624453D02*
G01*
X152166026Y-75627603D01*
X152186850Y-75632819D01*
X152207062Y-75640051D01*
X152226468Y-75649230D01*
X152244881Y-75660266D01*
X152262124Y-75673054D01*
X152278030Y-75687470D01*
X152292446Y-75703376D01*
X152305234Y-75720619D01*
X152316270Y-75739032D01*
X152325449Y-75758438D01*
X152332681Y-75778650D01*
X152337897Y-75799474D01*
X152341047Y-75820709D01*
X152342100Y-75842150D01*
X152342100Y-76354650D01*
X152341047Y-76376091D01*
X152337897Y-76397326D01*
X152332681Y-76418150D01*
X152325449Y-76438362D01*
X152316270Y-76457768D01*
X152305234Y-76476181D01*
X152292446Y-76493424D01*
X152278030Y-76509330D01*
X152262124Y-76523746D01*
X152244881Y-76536534D01*
X152226468Y-76547570D01*
X152207062Y-76556749D01*
X152186850Y-76563981D01*
X152166026Y-76569197D01*
X152144791Y-76572347D01*
X152123350Y-76573400D01*
X151685850Y-76573400D01*
X151664409Y-76572347D01*
X151643174Y-76569197D01*
X151622350Y-76563981D01*
X151602138Y-76556749D01*
X151582732Y-76547570D01*
X151564319Y-76536534D01*
X151547076Y-76523746D01*
X151531170Y-76509330D01*
X151516754Y-76493424D01*
X151503966Y-76476181D01*
X151492930Y-76457768D01*
X151483751Y-76438362D01*
X151476519Y-76418150D01*
X151471303Y-76397326D01*
X151468153Y-76376091D01*
X151467100Y-76354650D01*
X151467100Y-75842150D01*
X151468153Y-75820709D01*
X151471303Y-75799474D01*
X151476519Y-75778650D01*
X151483751Y-75758438D01*
X151492930Y-75739032D01*
X151503966Y-75720619D01*
X151516754Y-75703376D01*
X151531170Y-75687470D01*
X151547076Y-75673054D01*
X151564319Y-75660266D01*
X151582732Y-75649230D01*
X151602138Y-75640051D01*
X151622350Y-75632819D01*
X151643174Y-75627603D01*
X151664409Y-75624453D01*
X151685850Y-75623400D01*
X152123350Y-75623400D01*
X152144791Y-75624453D01*
X152144791Y-75624453D01*
G37*
D13*
X151904600Y-76098400D03*
%TD*%
D12*
%TO.C,R20*%
G36*
X153719791Y-80958453D02*
G01*
X153741026Y-80961603D01*
X153761850Y-80966819D01*
X153782062Y-80974051D01*
X153801468Y-80983230D01*
X153819881Y-80994266D01*
X153837124Y-81007054D01*
X153853030Y-81021470D01*
X153867446Y-81037376D01*
X153880234Y-81054619D01*
X153891270Y-81073032D01*
X153900449Y-81092438D01*
X153907681Y-81112650D01*
X153912897Y-81133474D01*
X153916047Y-81154709D01*
X153917100Y-81176150D01*
X153917100Y-81688650D01*
X153916047Y-81710091D01*
X153912897Y-81731326D01*
X153907681Y-81752150D01*
X153900449Y-81772362D01*
X153891270Y-81791768D01*
X153880234Y-81810181D01*
X153867446Y-81827424D01*
X153853030Y-81843330D01*
X153837124Y-81857746D01*
X153819881Y-81870534D01*
X153801468Y-81881570D01*
X153782062Y-81890749D01*
X153761850Y-81897981D01*
X153741026Y-81903197D01*
X153719791Y-81906347D01*
X153698350Y-81907400D01*
X153260850Y-81907400D01*
X153239409Y-81906347D01*
X153218174Y-81903197D01*
X153197350Y-81897981D01*
X153177138Y-81890749D01*
X153157732Y-81881570D01*
X153139319Y-81870534D01*
X153122076Y-81857746D01*
X153106170Y-81843330D01*
X153091754Y-81827424D01*
X153078966Y-81810181D01*
X153067930Y-81791768D01*
X153058751Y-81772362D01*
X153051519Y-81752150D01*
X153046303Y-81731326D01*
X153043153Y-81710091D01*
X153042100Y-81688650D01*
X153042100Y-81176150D01*
X153043153Y-81154709D01*
X153046303Y-81133474D01*
X153051519Y-81112650D01*
X153058751Y-81092438D01*
X153067930Y-81073032D01*
X153078966Y-81054619D01*
X153091754Y-81037376D01*
X153106170Y-81021470D01*
X153122076Y-81007054D01*
X153139319Y-80994266D01*
X153157732Y-80983230D01*
X153177138Y-80974051D01*
X153197350Y-80966819D01*
X153218174Y-80961603D01*
X153239409Y-80958453D01*
X153260850Y-80957400D01*
X153698350Y-80957400D01*
X153719791Y-80958453D01*
X153719791Y-80958453D01*
G37*
D13*
X153479600Y-81432400D03*
D12*
G36*
X152144791Y-80958453D02*
G01*
X152166026Y-80961603D01*
X152186850Y-80966819D01*
X152207062Y-80974051D01*
X152226468Y-80983230D01*
X152244881Y-80994266D01*
X152262124Y-81007054D01*
X152278030Y-81021470D01*
X152292446Y-81037376D01*
X152305234Y-81054619D01*
X152316270Y-81073032D01*
X152325449Y-81092438D01*
X152332681Y-81112650D01*
X152337897Y-81133474D01*
X152341047Y-81154709D01*
X152342100Y-81176150D01*
X152342100Y-81688650D01*
X152341047Y-81710091D01*
X152337897Y-81731326D01*
X152332681Y-81752150D01*
X152325449Y-81772362D01*
X152316270Y-81791768D01*
X152305234Y-81810181D01*
X152292446Y-81827424D01*
X152278030Y-81843330D01*
X152262124Y-81857746D01*
X152244881Y-81870534D01*
X152226468Y-81881570D01*
X152207062Y-81890749D01*
X152186850Y-81897981D01*
X152166026Y-81903197D01*
X152144791Y-81906347D01*
X152123350Y-81907400D01*
X151685850Y-81907400D01*
X151664409Y-81906347D01*
X151643174Y-81903197D01*
X151622350Y-81897981D01*
X151602138Y-81890749D01*
X151582732Y-81881570D01*
X151564319Y-81870534D01*
X151547076Y-81857746D01*
X151531170Y-81843330D01*
X151516754Y-81827424D01*
X151503966Y-81810181D01*
X151492930Y-81791768D01*
X151483751Y-81772362D01*
X151476519Y-81752150D01*
X151471303Y-81731326D01*
X151468153Y-81710091D01*
X151467100Y-81688650D01*
X151467100Y-81176150D01*
X151468153Y-81154709D01*
X151471303Y-81133474D01*
X151476519Y-81112650D01*
X151483751Y-81092438D01*
X151492930Y-81073032D01*
X151503966Y-81054619D01*
X151516754Y-81037376D01*
X151531170Y-81021470D01*
X151547076Y-81007054D01*
X151564319Y-80994266D01*
X151582732Y-80983230D01*
X151602138Y-80974051D01*
X151622350Y-80966819D01*
X151643174Y-80961603D01*
X151664409Y-80958453D01*
X151685850Y-80957400D01*
X152123350Y-80957400D01*
X152144791Y-80958453D01*
X152144791Y-80958453D01*
G37*
D13*
X151904600Y-81432400D03*
%TD*%
D12*
%TO.C,R19*%
G36*
X132903791Y-92641953D02*
G01*
X132925026Y-92645103D01*
X132945850Y-92650319D01*
X132966062Y-92657551D01*
X132985468Y-92666730D01*
X133003881Y-92677766D01*
X133021124Y-92690554D01*
X133037030Y-92704970D01*
X133051446Y-92720876D01*
X133064234Y-92738119D01*
X133075270Y-92756532D01*
X133084449Y-92775938D01*
X133091681Y-92796150D01*
X133096897Y-92816974D01*
X133100047Y-92838209D01*
X133101100Y-92859650D01*
X133101100Y-93297150D01*
X133100047Y-93318591D01*
X133096897Y-93339826D01*
X133091681Y-93360650D01*
X133084449Y-93380862D01*
X133075270Y-93400268D01*
X133064234Y-93418681D01*
X133051446Y-93435924D01*
X133037030Y-93451830D01*
X133021124Y-93466246D01*
X133003881Y-93479034D01*
X132985468Y-93490070D01*
X132966062Y-93499249D01*
X132945850Y-93506481D01*
X132925026Y-93511697D01*
X132903791Y-93514847D01*
X132882350Y-93515900D01*
X132369850Y-93515900D01*
X132348409Y-93514847D01*
X132327174Y-93511697D01*
X132306350Y-93506481D01*
X132286138Y-93499249D01*
X132266732Y-93490070D01*
X132248319Y-93479034D01*
X132231076Y-93466246D01*
X132215170Y-93451830D01*
X132200754Y-93435924D01*
X132187966Y-93418681D01*
X132176930Y-93400268D01*
X132167751Y-93380862D01*
X132160519Y-93360650D01*
X132155303Y-93339826D01*
X132152153Y-93318591D01*
X132151100Y-93297150D01*
X132151100Y-92859650D01*
X132152153Y-92838209D01*
X132155303Y-92816974D01*
X132160519Y-92796150D01*
X132167751Y-92775938D01*
X132176930Y-92756532D01*
X132187966Y-92738119D01*
X132200754Y-92720876D01*
X132215170Y-92704970D01*
X132231076Y-92690554D01*
X132248319Y-92677766D01*
X132266732Y-92666730D01*
X132286138Y-92657551D01*
X132306350Y-92650319D01*
X132327174Y-92645103D01*
X132348409Y-92641953D01*
X132369850Y-92640900D01*
X132882350Y-92640900D01*
X132903791Y-92641953D01*
X132903791Y-92641953D01*
G37*
D13*
X132626100Y-93078400D03*
D12*
G36*
X132903791Y-91066953D02*
G01*
X132925026Y-91070103D01*
X132945850Y-91075319D01*
X132966062Y-91082551D01*
X132985468Y-91091730D01*
X133003881Y-91102766D01*
X133021124Y-91115554D01*
X133037030Y-91129970D01*
X133051446Y-91145876D01*
X133064234Y-91163119D01*
X133075270Y-91181532D01*
X133084449Y-91200938D01*
X133091681Y-91221150D01*
X133096897Y-91241974D01*
X133100047Y-91263209D01*
X133101100Y-91284650D01*
X133101100Y-91722150D01*
X133100047Y-91743591D01*
X133096897Y-91764826D01*
X133091681Y-91785650D01*
X133084449Y-91805862D01*
X133075270Y-91825268D01*
X133064234Y-91843681D01*
X133051446Y-91860924D01*
X133037030Y-91876830D01*
X133021124Y-91891246D01*
X133003881Y-91904034D01*
X132985468Y-91915070D01*
X132966062Y-91924249D01*
X132945850Y-91931481D01*
X132925026Y-91936697D01*
X132903791Y-91939847D01*
X132882350Y-91940900D01*
X132369850Y-91940900D01*
X132348409Y-91939847D01*
X132327174Y-91936697D01*
X132306350Y-91931481D01*
X132286138Y-91924249D01*
X132266732Y-91915070D01*
X132248319Y-91904034D01*
X132231076Y-91891246D01*
X132215170Y-91876830D01*
X132200754Y-91860924D01*
X132187966Y-91843681D01*
X132176930Y-91825268D01*
X132167751Y-91805862D01*
X132160519Y-91785650D01*
X132155303Y-91764826D01*
X132152153Y-91743591D01*
X132151100Y-91722150D01*
X132151100Y-91284650D01*
X132152153Y-91263209D01*
X132155303Y-91241974D01*
X132160519Y-91221150D01*
X132167751Y-91200938D01*
X132176930Y-91181532D01*
X132187966Y-91163119D01*
X132200754Y-91145876D01*
X132215170Y-91129970D01*
X132231076Y-91115554D01*
X132248319Y-91102766D01*
X132266732Y-91091730D01*
X132286138Y-91082551D01*
X132306350Y-91075319D01*
X132327174Y-91070103D01*
X132348409Y-91066953D01*
X132369850Y-91065900D01*
X132882350Y-91065900D01*
X132903791Y-91066953D01*
X132903791Y-91066953D01*
G37*
D13*
X132626100Y-91503400D03*
%TD*%
D12*
%TO.C,R18*%
G36*
X152207791Y-92578453D02*
G01*
X152229026Y-92581603D01*
X152249850Y-92586819D01*
X152270062Y-92594051D01*
X152289468Y-92603230D01*
X152307881Y-92614266D01*
X152325124Y-92627054D01*
X152341030Y-92641470D01*
X152355446Y-92657376D01*
X152368234Y-92674619D01*
X152379270Y-92693032D01*
X152388449Y-92712438D01*
X152395681Y-92732650D01*
X152400897Y-92753474D01*
X152404047Y-92774709D01*
X152405100Y-92796150D01*
X152405100Y-93233650D01*
X152404047Y-93255091D01*
X152400897Y-93276326D01*
X152395681Y-93297150D01*
X152388449Y-93317362D01*
X152379270Y-93336768D01*
X152368234Y-93355181D01*
X152355446Y-93372424D01*
X152341030Y-93388330D01*
X152325124Y-93402746D01*
X152307881Y-93415534D01*
X152289468Y-93426570D01*
X152270062Y-93435749D01*
X152249850Y-93442981D01*
X152229026Y-93448197D01*
X152207791Y-93451347D01*
X152186350Y-93452400D01*
X151673850Y-93452400D01*
X151652409Y-93451347D01*
X151631174Y-93448197D01*
X151610350Y-93442981D01*
X151590138Y-93435749D01*
X151570732Y-93426570D01*
X151552319Y-93415534D01*
X151535076Y-93402746D01*
X151519170Y-93388330D01*
X151504754Y-93372424D01*
X151491966Y-93355181D01*
X151480930Y-93336768D01*
X151471751Y-93317362D01*
X151464519Y-93297150D01*
X151459303Y-93276326D01*
X151456153Y-93255091D01*
X151455100Y-93233650D01*
X151455100Y-92796150D01*
X151456153Y-92774709D01*
X151459303Y-92753474D01*
X151464519Y-92732650D01*
X151471751Y-92712438D01*
X151480930Y-92693032D01*
X151491966Y-92674619D01*
X151504754Y-92657376D01*
X151519170Y-92641470D01*
X151535076Y-92627054D01*
X151552319Y-92614266D01*
X151570732Y-92603230D01*
X151590138Y-92594051D01*
X151610350Y-92586819D01*
X151631174Y-92581603D01*
X151652409Y-92578453D01*
X151673850Y-92577400D01*
X152186350Y-92577400D01*
X152207791Y-92578453D01*
X152207791Y-92578453D01*
G37*
D13*
X151930100Y-93014900D03*
D12*
G36*
X152207791Y-91003453D02*
G01*
X152229026Y-91006603D01*
X152249850Y-91011819D01*
X152270062Y-91019051D01*
X152289468Y-91028230D01*
X152307881Y-91039266D01*
X152325124Y-91052054D01*
X152341030Y-91066470D01*
X152355446Y-91082376D01*
X152368234Y-91099619D01*
X152379270Y-91118032D01*
X152388449Y-91137438D01*
X152395681Y-91157650D01*
X152400897Y-91178474D01*
X152404047Y-91199709D01*
X152405100Y-91221150D01*
X152405100Y-91658650D01*
X152404047Y-91680091D01*
X152400897Y-91701326D01*
X152395681Y-91722150D01*
X152388449Y-91742362D01*
X152379270Y-91761768D01*
X152368234Y-91780181D01*
X152355446Y-91797424D01*
X152341030Y-91813330D01*
X152325124Y-91827746D01*
X152307881Y-91840534D01*
X152289468Y-91851570D01*
X152270062Y-91860749D01*
X152249850Y-91867981D01*
X152229026Y-91873197D01*
X152207791Y-91876347D01*
X152186350Y-91877400D01*
X151673850Y-91877400D01*
X151652409Y-91876347D01*
X151631174Y-91873197D01*
X151610350Y-91867981D01*
X151590138Y-91860749D01*
X151570732Y-91851570D01*
X151552319Y-91840534D01*
X151535076Y-91827746D01*
X151519170Y-91813330D01*
X151504754Y-91797424D01*
X151491966Y-91780181D01*
X151480930Y-91761768D01*
X151471751Y-91742362D01*
X151464519Y-91722150D01*
X151459303Y-91701326D01*
X151456153Y-91680091D01*
X151455100Y-91658650D01*
X151455100Y-91221150D01*
X151456153Y-91199709D01*
X151459303Y-91178474D01*
X151464519Y-91157650D01*
X151471751Y-91137438D01*
X151480930Y-91118032D01*
X151491966Y-91099619D01*
X151504754Y-91082376D01*
X151519170Y-91066470D01*
X151535076Y-91052054D01*
X151552319Y-91039266D01*
X151570732Y-91028230D01*
X151590138Y-91019051D01*
X151610350Y-91011819D01*
X151631174Y-91006603D01*
X151652409Y-91003453D01*
X151673850Y-91002400D01*
X152186350Y-91002400D01*
X152207791Y-91003453D01*
X152207791Y-91003453D01*
G37*
D13*
X151930100Y-91439900D03*
%TD*%
D12*
%TO.C,R17*%
G36*
X131316791Y-89340453D02*
G01*
X131338026Y-89343603D01*
X131358850Y-89348819D01*
X131379062Y-89356051D01*
X131398468Y-89365230D01*
X131416881Y-89376266D01*
X131434124Y-89389054D01*
X131450030Y-89403470D01*
X131464446Y-89419376D01*
X131477234Y-89436619D01*
X131488270Y-89455032D01*
X131497449Y-89474438D01*
X131504681Y-89494650D01*
X131509897Y-89515474D01*
X131513047Y-89536709D01*
X131514100Y-89558150D01*
X131514100Y-90070650D01*
X131513047Y-90092091D01*
X131509897Y-90113326D01*
X131504681Y-90134150D01*
X131497449Y-90154362D01*
X131488270Y-90173768D01*
X131477234Y-90192181D01*
X131464446Y-90209424D01*
X131450030Y-90225330D01*
X131434124Y-90239746D01*
X131416881Y-90252534D01*
X131398468Y-90263570D01*
X131379062Y-90272749D01*
X131358850Y-90279981D01*
X131338026Y-90285197D01*
X131316791Y-90288347D01*
X131295350Y-90289400D01*
X130857850Y-90289400D01*
X130836409Y-90288347D01*
X130815174Y-90285197D01*
X130794350Y-90279981D01*
X130774138Y-90272749D01*
X130754732Y-90263570D01*
X130736319Y-90252534D01*
X130719076Y-90239746D01*
X130703170Y-90225330D01*
X130688754Y-90209424D01*
X130675966Y-90192181D01*
X130664930Y-90173768D01*
X130655751Y-90154362D01*
X130648519Y-90134150D01*
X130643303Y-90113326D01*
X130640153Y-90092091D01*
X130639100Y-90070650D01*
X130639100Y-89558150D01*
X130640153Y-89536709D01*
X130643303Y-89515474D01*
X130648519Y-89494650D01*
X130655751Y-89474438D01*
X130664930Y-89455032D01*
X130675966Y-89436619D01*
X130688754Y-89419376D01*
X130703170Y-89403470D01*
X130719076Y-89389054D01*
X130736319Y-89376266D01*
X130754732Y-89365230D01*
X130774138Y-89356051D01*
X130794350Y-89348819D01*
X130815174Y-89343603D01*
X130836409Y-89340453D01*
X130857850Y-89339400D01*
X131295350Y-89339400D01*
X131316791Y-89340453D01*
X131316791Y-89340453D01*
G37*
D13*
X131076600Y-89814400D03*
D12*
G36*
X132891791Y-89340453D02*
G01*
X132913026Y-89343603D01*
X132933850Y-89348819D01*
X132954062Y-89356051D01*
X132973468Y-89365230D01*
X132991881Y-89376266D01*
X133009124Y-89389054D01*
X133025030Y-89403470D01*
X133039446Y-89419376D01*
X133052234Y-89436619D01*
X133063270Y-89455032D01*
X133072449Y-89474438D01*
X133079681Y-89494650D01*
X133084897Y-89515474D01*
X133088047Y-89536709D01*
X133089100Y-89558150D01*
X133089100Y-90070650D01*
X133088047Y-90092091D01*
X133084897Y-90113326D01*
X133079681Y-90134150D01*
X133072449Y-90154362D01*
X133063270Y-90173768D01*
X133052234Y-90192181D01*
X133039446Y-90209424D01*
X133025030Y-90225330D01*
X133009124Y-90239746D01*
X132991881Y-90252534D01*
X132973468Y-90263570D01*
X132954062Y-90272749D01*
X132933850Y-90279981D01*
X132913026Y-90285197D01*
X132891791Y-90288347D01*
X132870350Y-90289400D01*
X132432850Y-90289400D01*
X132411409Y-90288347D01*
X132390174Y-90285197D01*
X132369350Y-90279981D01*
X132349138Y-90272749D01*
X132329732Y-90263570D01*
X132311319Y-90252534D01*
X132294076Y-90239746D01*
X132278170Y-90225330D01*
X132263754Y-90209424D01*
X132250966Y-90192181D01*
X132239930Y-90173768D01*
X132230751Y-90154362D01*
X132223519Y-90134150D01*
X132218303Y-90113326D01*
X132215153Y-90092091D01*
X132214100Y-90070650D01*
X132214100Y-89558150D01*
X132215153Y-89536709D01*
X132218303Y-89515474D01*
X132223519Y-89494650D01*
X132230751Y-89474438D01*
X132239930Y-89455032D01*
X132250966Y-89436619D01*
X132263754Y-89419376D01*
X132278170Y-89403470D01*
X132294076Y-89389054D01*
X132311319Y-89376266D01*
X132329732Y-89365230D01*
X132349138Y-89356051D01*
X132369350Y-89348819D01*
X132390174Y-89343603D01*
X132411409Y-89340453D01*
X132432850Y-89339400D01*
X132870350Y-89339400D01*
X132891791Y-89340453D01*
X132891791Y-89340453D01*
G37*
D13*
X132651600Y-89814400D03*
%TD*%
D12*
%TO.C,R16*%
G36*
X131316791Y-94420453D02*
G01*
X131338026Y-94423603D01*
X131358850Y-94428819D01*
X131379062Y-94436051D01*
X131398468Y-94445230D01*
X131416881Y-94456266D01*
X131434124Y-94469054D01*
X131450030Y-94483470D01*
X131464446Y-94499376D01*
X131477234Y-94516619D01*
X131488270Y-94535032D01*
X131497449Y-94554438D01*
X131504681Y-94574650D01*
X131509897Y-94595474D01*
X131513047Y-94616709D01*
X131514100Y-94638150D01*
X131514100Y-95150650D01*
X131513047Y-95172091D01*
X131509897Y-95193326D01*
X131504681Y-95214150D01*
X131497449Y-95234362D01*
X131488270Y-95253768D01*
X131477234Y-95272181D01*
X131464446Y-95289424D01*
X131450030Y-95305330D01*
X131434124Y-95319746D01*
X131416881Y-95332534D01*
X131398468Y-95343570D01*
X131379062Y-95352749D01*
X131358850Y-95359981D01*
X131338026Y-95365197D01*
X131316791Y-95368347D01*
X131295350Y-95369400D01*
X130857850Y-95369400D01*
X130836409Y-95368347D01*
X130815174Y-95365197D01*
X130794350Y-95359981D01*
X130774138Y-95352749D01*
X130754732Y-95343570D01*
X130736319Y-95332534D01*
X130719076Y-95319746D01*
X130703170Y-95305330D01*
X130688754Y-95289424D01*
X130675966Y-95272181D01*
X130664930Y-95253768D01*
X130655751Y-95234362D01*
X130648519Y-95214150D01*
X130643303Y-95193326D01*
X130640153Y-95172091D01*
X130639100Y-95150650D01*
X130639100Y-94638150D01*
X130640153Y-94616709D01*
X130643303Y-94595474D01*
X130648519Y-94574650D01*
X130655751Y-94554438D01*
X130664930Y-94535032D01*
X130675966Y-94516619D01*
X130688754Y-94499376D01*
X130703170Y-94483470D01*
X130719076Y-94469054D01*
X130736319Y-94456266D01*
X130754732Y-94445230D01*
X130774138Y-94436051D01*
X130794350Y-94428819D01*
X130815174Y-94423603D01*
X130836409Y-94420453D01*
X130857850Y-94419400D01*
X131295350Y-94419400D01*
X131316791Y-94420453D01*
X131316791Y-94420453D01*
G37*
D13*
X131076600Y-94894400D03*
D12*
G36*
X132891791Y-94420453D02*
G01*
X132913026Y-94423603D01*
X132933850Y-94428819D01*
X132954062Y-94436051D01*
X132973468Y-94445230D01*
X132991881Y-94456266D01*
X133009124Y-94469054D01*
X133025030Y-94483470D01*
X133039446Y-94499376D01*
X133052234Y-94516619D01*
X133063270Y-94535032D01*
X133072449Y-94554438D01*
X133079681Y-94574650D01*
X133084897Y-94595474D01*
X133088047Y-94616709D01*
X133089100Y-94638150D01*
X133089100Y-95150650D01*
X133088047Y-95172091D01*
X133084897Y-95193326D01*
X133079681Y-95214150D01*
X133072449Y-95234362D01*
X133063270Y-95253768D01*
X133052234Y-95272181D01*
X133039446Y-95289424D01*
X133025030Y-95305330D01*
X133009124Y-95319746D01*
X132991881Y-95332534D01*
X132973468Y-95343570D01*
X132954062Y-95352749D01*
X132933850Y-95359981D01*
X132913026Y-95365197D01*
X132891791Y-95368347D01*
X132870350Y-95369400D01*
X132432850Y-95369400D01*
X132411409Y-95368347D01*
X132390174Y-95365197D01*
X132369350Y-95359981D01*
X132349138Y-95352749D01*
X132329732Y-95343570D01*
X132311319Y-95332534D01*
X132294076Y-95319746D01*
X132278170Y-95305330D01*
X132263754Y-95289424D01*
X132250966Y-95272181D01*
X132239930Y-95253768D01*
X132230751Y-95234362D01*
X132223519Y-95214150D01*
X132218303Y-95193326D01*
X132215153Y-95172091D01*
X132214100Y-95150650D01*
X132214100Y-94638150D01*
X132215153Y-94616709D01*
X132218303Y-94595474D01*
X132223519Y-94574650D01*
X132230751Y-94554438D01*
X132239930Y-94535032D01*
X132250966Y-94516619D01*
X132263754Y-94499376D01*
X132278170Y-94483470D01*
X132294076Y-94469054D01*
X132311319Y-94456266D01*
X132329732Y-94445230D01*
X132349138Y-94436051D01*
X132369350Y-94428819D01*
X132390174Y-94423603D01*
X132411409Y-94420453D01*
X132432850Y-94419400D01*
X132870350Y-94419400D01*
X132891791Y-94420453D01*
X132891791Y-94420453D01*
G37*
D13*
X132651600Y-94894400D03*
%TD*%
D12*
%TO.C,R15*%
G36*
X153719791Y-88959453D02*
G01*
X153741026Y-88962603D01*
X153761850Y-88967819D01*
X153782062Y-88975051D01*
X153801468Y-88984230D01*
X153819881Y-88995266D01*
X153837124Y-89008054D01*
X153853030Y-89022470D01*
X153867446Y-89038376D01*
X153880234Y-89055619D01*
X153891270Y-89074032D01*
X153900449Y-89093438D01*
X153907681Y-89113650D01*
X153912897Y-89134474D01*
X153916047Y-89155709D01*
X153917100Y-89177150D01*
X153917100Y-89689650D01*
X153916047Y-89711091D01*
X153912897Y-89732326D01*
X153907681Y-89753150D01*
X153900449Y-89773362D01*
X153891270Y-89792768D01*
X153880234Y-89811181D01*
X153867446Y-89828424D01*
X153853030Y-89844330D01*
X153837124Y-89858746D01*
X153819881Y-89871534D01*
X153801468Y-89882570D01*
X153782062Y-89891749D01*
X153761850Y-89898981D01*
X153741026Y-89904197D01*
X153719791Y-89907347D01*
X153698350Y-89908400D01*
X153260850Y-89908400D01*
X153239409Y-89907347D01*
X153218174Y-89904197D01*
X153197350Y-89898981D01*
X153177138Y-89891749D01*
X153157732Y-89882570D01*
X153139319Y-89871534D01*
X153122076Y-89858746D01*
X153106170Y-89844330D01*
X153091754Y-89828424D01*
X153078966Y-89811181D01*
X153067930Y-89792768D01*
X153058751Y-89773362D01*
X153051519Y-89753150D01*
X153046303Y-89732326D01*
X153043153Y-89711091D01*
X153042100Y-89689650D01*
X153042100Y-89177150D01*
X153043153Y-89155709D01*
X153046303Y-89134474D01*
X153051519Y-89113650D01*
X153058751Y-89093438D01*
X153067930Y-89074032D01*
X153078966Y-89055619D01*
X153091754Y-89038376D01*
X153106170Y-89022470D01*
X153122076Y-89008054D01*
X153139319Y-88995266D01*
X153157732Y-88984230D01*
X153177138Y-88975051D01*
X153197350Y-88967819D01*
X153218174Y-88962603D01*
X153239409Y-88959453D01*
X153260850Y-88958400D01*
X153698350Y-88958400D01*
X153719791Y-88959453D01*
X153719791Y-88959453D01*
G37*
D13*
X153479600Y-89433400D03*
D12*
G36*
X152144791Y-88959453D02*
G01*
X152166026Y-88962603D01*
X152186850Y-88967819D01*
X152207062Y-88975051D01*
X152226468Y-88984230D01*
X152244881Y-88995266D01*
X152262124Y-89008054D01*
X152278030Y-89022470D01*
X152292446Y-89038376D01*
X152305234Y-89055619D01*
X152316270Y-89074032D01*
X152325449Y-89093438D01*
X152332681Y-89113650D01*
X152337897Y-89134474D01*
X152341047Y-89155709D01*
X152342100Y-89177150D01*
X152342100Y-89689650D01*
X152341047Y-89711091D01*
X152337897Y-89732326D01*
X152332681Y-89753150D01*
X152325449Y-89773362D01*
X152316270Y-89792768D01*
X152305234Y-89811181D01*
X152292446Y-89828424D01*
X152278030Y-89844330D01*
X152262124Y-89858746D01*
X152244881Y-89871534D01*
X152226468Y-89882570D01*
X152207062Y-89891749D01*
X152186850Y-89898981D01*
X152166026Y-89904197D01*
X152144791Y-89907347D01*
X152123350Y-89908400D01*
X151685850Y-89908400D01*
X151664409Y-89907347D01*
X151643174Y-89904197D01*
X151622350Y-89898981D01*
X151602138Y-89891749D01*
X151582732Y-89882570D01*
X151564319Y-89871534D01*
X151547076Y-89858746D01*
X151531170Y-89844330D01*
X151516754Y-89828424D01*
X151503966Y-89811181D01*
X151492930Y-89792768D01*
X151483751Y-89773362D01*
X151476519Y-89753150D01*
X151471303Y-89732326D01*
X151468153Y-89711091D01*
X151467100Y-89689650D01*
X151467100Y-89177150D01*
X151468153Y-89155709D01*
X151471303Y-89134474D01*
X151476519Y-89113650D01*
X151483751Y-89093438D01*
X151492930Y-89074032D01*
X151503966Y-89055619D01*
X151516754Y-89038376D01*
X151531170Y-89022470D01*
X151547076Y-89008054D01*
X151564319Y-88995266D01*
X151582732Y-88984230D01*
X151602138Y-88975051D01*
X151622350Y-88967819D01*
X151643174Y-88962603D01*
X151664409Y-88959453D01*
X151685850Y-88958400D01*
X152123350Y-88958400D01*
X152144791Y-88959453D01*
X152144791Y-88959453D01*
G37*
D13*
X151904600Y-89433400D03*
%TD*%
D12*
%TO.C,R14*%
G36*
X153719791Y-94293453D02*
G01*
X153741026Y-94296603D01*
X153761850Y-94301819D01*
X153782062Y-94309051D01*
X153801468Y-94318230D01*
X153819881Y-94329266D01*
X153837124Y-94342054D01*
X153853030Y-94356470D01*
X153867446Y-94372376D01*
X153880234Y-94389619D01*
X153891270Y-94408032D01*
X153900449Y-94427438D01*
X153907681Y-94447650D01*
X153912897Y-94468474D01*
X153916047Y-94489709D01*
X153917100Y-94511150D01*
X153917100Y-95023650D01*
X153916047Y-95045091D01*
X153912897Y-95066326D01*
X153907681Y-95087150D01*
X153900449Y-95107362D01*
X153891270Y-95126768D01*
X153880234Y-95145181D01*
X153867446Y-95162424D01*
X153853030Y-95178330D01*
X153837124Y-95192746D01*
X153819881Y-95205534D01*
X153801468Y-95216570D01*
X153782062Y-95225749D01*
X153761850Y-95232981D01*
X153741026Y-95238197D01*
X153719791Y-95241347D01*
X153698350Y-95242400D01*
X153260850Y-95242400D01*
X153239409Y-95241347D01*
X153218174Y-95238197D01*
X153197350Y-95232981D01*
X153177138Y-95225749D01*
X153157732Y-95216570D01*
X153139319Y-95205534D01*
X153122076Y-95192746D01*
X153106170Y-95178330D01*
X153091754Y-95162424D01*
X153078966Y-95145181D01*
X153067930Y-95126768D01*
X153058751Y-95107362D01*
X153051519Y-95087150D01*
X153046303Y-95066326D01*
X153043153Y-95045091D01*
X153042100Y-95023650D01*
X153042100Y-94511150D01*
X153043153Y-94489709D01*
X153046303Y-94468474D01*
X153051519Y-94447650D01*
X153058751Y-94427438D01*
X153067930Y-94408032D01*
X153078966Y-94389619D01*
X153091754Y-94372376D01*
X153106170Y-94356470D01*
X153122076Y-94342054D01*
X153139319Y-94329266D01*
X153157732Y-94318230D01*
X153177138Y-94309051D01*
X153197350Y-94301819D01*
X153218174Y-94296603D01*
X153239409Y-94293453D01*
X153260850Y-94292400D01*
X153698350Y-94292400D01*
X153719791Y-94293453D01*
X153719791Y-94293453D01*
G37*
D13*
X153479600Y-94767400D03*
D12*
G36*
X152144791Y-94293453D02*
G01*
X152166026Y-94296603D01*
X152186850Y-94301819D01*
X152207062Y-94309051D01*
X152226468Y-94318230D01*
X152244881Y-94329266D01*
X152262124Y-94342054D01*
X152278030Y-94356470D01*
X152292446Y-94372376D01*
X152305234Y-94389619D01*
X152316270Y-94408032D01*
X152325449Y-94427438D01*
X152332681Y-94447650D01*
X152337897Y-94468474D01*
X152341047Y-94489709D01*
X152342100Y-94511150D01*
X152342100Y-95023650D01*
X152341047Y-95045091D01*
X152337897Y-95066326D01*
X152332681Y-95087150D01*
X152325449Y-95107362D01*
X152316270Y-95126768D01*
X152305234Y-95145181D01*
X152292446Y-95162424D01*
X152278030Y-95178330D01*
X152262124Y-95192746D01*
X152244881Y-95205534D01*
X152226468Y-95216570D01*
X152207062Y-95225749D01*
X152186850Y-95232981D01*
X152166026Y-95238197D01*
X152144791Y-95241347D01*
X152123350Y-95242400D01*
X151685850Y-95242400D01*
X151664409Y-95241347D01*
X151643174Y-95238197D01*
X151622350Y-95232981D01*
X151602138Y-95225749D01*
X151582732Y-95216570D01*
X151564319Y-95205534D01*
X151547076Y-95192746D01*
X151531170Y-95178330D01*
X151516754Y-95162424D01*
X151503966Y-95145181D01*
X151492930Y-95126768D01*
X151483751Y-95107362D01*
X151476519Y-95087150D01*
X151471303Y-95066326D01*
X151468153Y-95045091D01*
X151467100Y-95023650D01*
X151467100Y-94511150D01*
X151468153Y-94489709D01*
X151471303Y-94468474D01*
X151476519Y-94447650D01*
X151483751Y-94427438D01*
X151492930Y-94408032D01*
X151503966Y-94389619D01*
X151516754Y-94372376D01*
X151531170Y-94356470D01*
X151547076Y-94342054D01*
X151564319Y-94329266D01*
X151582732Y-94318230D01*
X151602138Y-94309051D01*
X151622350Y-94301819D01*
X151643174Y-94296603D01*
X151664409Y-94293453D01*
X151685850Y-94292400D01*
X152123350Y-94292400D01*
X152144791Y-94293453D01*
X152144791Y-94293453D01*
G37*
D13*
X151904600Y-94767400D03*
%TD*%
D12*
%TO.C,R13*%
G36*
X132903791Y-105811853D02*
G01*
X132925026Y-105815003D01*
X132945850Y-105820219D01*
X132966062Y-105827451D01*
X132985468Y-105836630D01*
X133003881Y-105847666D01*
X133021124Y-105860454D01*
X133037030Y-105874870D01*
X133051446Y-105890776D01*
X133064234Y-105908019D01*
X133075270Y-105926432D01*
X133084449Y-105945838D01*
X133091681Y-105966050D01*
X133096897Y-105986874D01*
X133100047Y-106008109D01*
X133101100Y-106029550D01*
X133101100Y-106467050D01*
X133100047Y-106488491D01*
X133096897Y-106509726D01*
X133091681Y-106530550D01*
X133084449Y-106550762D01*
X133075270Y-106570168D01*
X133064234Y-106588581D01*
X133051446Y-106605824D01*
X133037030Y-106621730D01*
X133021124Y-106636146D01*
X133003881Y-106648934D01*
X132985468Y-106659970D01*
X132966062Y-106669149D01*
X132945850Y-106676381D01*
X132925026Y-106681597D01*
X132903791Y-106684747D01*
X132882350Y-106685800D01*
X132369850Y-106685800D01*
X132348409Y-106684747D01*
X132327174Y-106681597D01*
X132306350Y-106676381D01*
X132286138Y-106669149D01*
X132266732Y-106659970D01*
X132248319Y-106648934D01*
X132231076Y-106636146D01*
X132215170Y-106621730D01*
X132200754Y-106605824D01*
X132187966Y-106588581D01*
X132176930Y-106570168D01*
X132167751Y-106550762D01*
X132160519Y-106530550D01*
X132155303Y-106509726D01*
X132152153Y-106488491D01*
X132151100Y-106467050D01*
X132151100Y-106029550D01*
X132152153Y-106008109D01*
X132155303Y-105986874D01*
X132160519Y-105966050D01*
X132167751Y-105945838D01*
X132176930Y-105926432D01*
X132187966Y-105908019D01*
X132200754Y-105890776D01*
X132215170Y-105874870D01*
X132231076Y-105860454D01*
X132248319Y-105847666D01*
X132266732Y-105836630D01*
X132286138Y-105827451D01*
X132306350Y-105820219D01*
X132327174Y-105815003D01*
X132348409Y-105811853D01*
X132369850Y-105810800D01*
X132882350Y-105810800D01*
X132903791Y-105811853D01*
X132903791Y-105811853D01*
G37*
D13*
X132626100Y-106248300D03*
D12*
G36*
X132903791Y-104236853D02*
G01*
X132925026Y-104240003D01*
X132945850Y-104245219D01*
X132966062Y-104252451D01*
X132985468Y-104261630D01*
X133003881Y-104272666D01*
X133021124Y-104285454D01*
X133037030Y-104299870D01*
X133051446Y-104315776D01*
X133064234Y-104333019D01*
X133075270Y-104351432D01*
X133084449Y-104370838D01*
X133091681Y-104391050D01*
X133096897Y-104411874D01*
X133100047Y-104433109D01*
X133101100Y-104454550D01*
X133101100Y-104892050D01*
X133100047Y-104913491D01*
X133096897Y-104934726D01*
X133091681Y-104955550D01*
X133084449Y-104975762D01*
X133075270Y-104995168D01*
X133064234Y-105013581D01*
X133051446Y-105030824D01*
X133037030Y-105046730D01*
X133021124Y-105061146D01*
X133003881Y-105073934D01*
X132985468Y-105084970D01*
X132966062Y-105094149D01*
X132945850Y-105101381D01*
X132925026Y-105106597D01*
X132903791Y-105109747D01*
X132882350Y-105110800D01*
X132369850Y-105110800D01*
X132348409Y-105109747D01*
X132327174Y-105106597D01*
X132306350Y-105101381D01*
X132286138Y-105094149D01*
X132266732Y-105084970D01*
X132248319Y-105073934D01*
X132231076Y-105061146D01*
X132215170Y-105046730D01*
X132200754Y-105030824D01*
X132187966Y-105013581D01*
X132176930Y-104995168D01*
X132167751Y-104975762D01*
X132160519Y-104955550D01*
X132155303Y-104934726D01*
X132152153Y-104913491D01*
X132151100Y-104892050D01*
X132151100Y-104454550D01*
X132152153Y-104433109D01*
X132155303Y-104411874D01*
X132160519Y-104391050D01*
X132167751Y-104370838D01*
X132176930Y-104351432D01*
X132187966Y-104333019D01*
X132200754Y-104315776D01*
X132215170Y-104299870D01*
X132231076Y-104285454D01*
X132248319Y-104272666D01*
X132266732Y-104261630D01*
X132286138Y-104252451D01*
X132306350Y-104245219D01*
X132327174Y-104240003D01*
X132348409Y-104236853D01*
X132369850Y-104235800D01*
X132882350Y-104235800D01*
X132903791Y-104236853D01*
X132903791Y-104236853D01*
G37*
D13*
X132626100Y-104673300D03*
%TD*%
D12*
%TO.C,R12*%
G36*
X152207791Y-105913453D02*
G01*
X152229026Y-105916603D01*
X152249850Y-105921819D01*
X152270062Y-105929051D01*
X152289468Y-105938230D01*
X152307881Y-105949266D01*
X152325124Y-105962054D01*
X152341030Y-105976470D01*
X152355446Y-105992376D01*
X152368234Y-106009619D01*
X152379270Y-106028032D01*
X152388449Y-106047438D01*
X152395681Y-106067650D01*
X152400897Y-106088474D01*
X152404047Y-106109709D01*
X152405100Y-106131150D01*
X152405100Y-106568650D01*
X152404047Y-106590091D01*
X152400897Y-106611326D01*
X152395681Y-106632150D01*
X152388449Y-106652362D01*
X152379270Y-106671768D01*
X152368234Y-106690181D01*
X152355446Y-106707424D01*
X152341030Y-106723330D01*
X152325124Y-106737746D01*
X152307881Y-106750534D01*
X152289468Y-106761570D01*
X152270062Y-106770749D01*
X152249850Y-106777981D01*
X152229026Y-106783197D01*
X152207791Y-106786347D01*
X152186350Y-106787400D01*
X151673850Y-106787400D01*
X151652409Y-106786347D01*
X151631174Y-106783197D01*
X151610350Y-106777981D01*
X151590138Y-106770749D01*
X151570732Y-106761570D01*
X151552319Y-106750534D01*
X151535076Y-106737746D01*
X151519170Y-106723330D01*
X151504754Y-106707424D01*
X151491966Y-106690181D01*
X151480930Y-106671768D01*
X151471751Y-106652362D01*
X151464519Y-106632150D01*
X151459303Y-106611326D01*
X151456153Y-106590091D01*
X151455100Y-106568650D01*
X151455100Y-106131150D01*
X151456153Y-106109709D01*
X151459303Y-106088474D01*
X151464519Y-106067650D01*
X151471751Y-106047438D01*
X151480930Y-106028032D01*
X151491966Y-106009619D01*
X151504754Y-105992376D01*
X151519170Y-105976470D01*
X151535076Y-105962054D01*
X151552319Y-105949266D01*
X151570732Y-105938230D01*
X151590138Y-105929051D01*
X151610350Y-105921819D01*
X151631174Y-105916603D01*
X151652409Y-105913453D01*
X151673850Y-105912400D01*
X152186350Y-105912400D01*
X152207791Y-105913453D01*
X152207791Y-105913453D01*
G37*
D13*
X151930100Y-106349900D03*
D12*
G36*
X152207791Y-104338453D02*
G01*
X152229026Y-104341603D01*
X152249850Y-104346819D01*
X152270062Y-104354051D01*
X152289468Y-104363230D01*
X152307881Y-104374266D01*
X152325124Y-104387054D01*
X152341030Y-104401470D01*
X152355446Y-104417376D01*
X152368234Y-104434619D01*
X152379270Y-104453032D01*
X152388449Y-104472438D01*
X152395681Y-104492650D01*
X152400897Y-104513474D01*
X152404047Y-104534709D01*
X152405100Y-104556150D01*
X152405100Y-104993650D01*
X152404047Y-105015091D01*
X152400897Y-105036326D01*
X152395681Y-105057150D01*
X152388449Y-105077362D01*
X152379270Y-105096768D01*
X152368234Y-105115181D01*
X152355446Y-105132424D01*
X152341030Y-105148330D01*
X152325124Y-105162746D01*
X152307881Y-105175534D01*
X152289468Y-105186570D01*
X152270062Y-105195749D01*
X152249850Y-105202981D01*
X152229026Y-105208197D01*
X152207791Y-105211347D01*
X152186350Y-105212400D01*
X151673850Y-105212400D01*
X151652409Y-105211347D01*
X151631174Y-105208197D01*
X151610350Y-105202981D01*
X151590138Y-105195749D01*
X151570732Y-105186570D01*
X151552319Y-105175534D01*
X151535076Y-105162746D01*
X151519170Y-105148330D01*
X151504754Y-105132424D01*
X151491966Y-105115181D01*
X151480930Y-105096768D01*
X151471751Y-105077362D01*
X151464519Y-105057150D01*
X151459303Y-105036326D01*
X151456153Y-105015091D01*
X151455100Y-104993650D01*
X151455100Y-104556150D01*
X151456153Y-104534709D01*
X151459303Y-104513474D01*
X151464519Y-104492650D01*
X151471751Y-104472438D01*
X151480930Y-104453032D01*
X151491966Y-104434619D01*
X151504754Y-104417376D01*
X151519170Y-104401470D01*
X151535076Y-104387054D01*
X151552319Y-104374266D01*
X151570732Y-104363230D01*
X151590138Y-104354051D01*
X151610350Y-104346819D01*
X151631174Y-104341603D01*
X151652409Y-104338453D01*
X151673850Y-104337400D01*
X152186350Y-104337400D01*
X152207791Y-104338453D01*
X152207791Y-104338453D01*
G37*
D13*
X151930100Y-104774900D03*
%TD*%
D12*
%TO.C,R11*%
G36*
X131316791Y-102548453D02*
G01*
X131338026Y-102551603D01*
X131358850Y-102556819D01*
X131379062Y-102564051D01*
X131398468Y-102573230D01*
X131416881Y-102584266D01*
X131434124Y-102597054D01*
X131450030Y-102611470D01*
X131464446Y-102627376D01*
X131477234Y-102644619D01*
X131488270Y-102663032D01*
X131497449Y-102682438D01*
X131504681Y-102702650D01*
X131509897Y-102723474D01*
X131513047Y-102744709D01*
X131514100Y-102766150D01*
X131514100Y-103278650D01*
X131513047Y-103300091D01*
X131509897Y-103321326D01*
X131504681Y-103342150D01*
X131497449Y-103362362D01*
X131488270Y-103381768D01*
X131477234Y-103400181D01*
X131464446Y-103417424D01*
X131450030Y-103433330D01*
X131434124Y-103447746D01*
X131416881Y-103460534D01*
X131398468Y-103471570D01*
X131379062Y-103480749D01*
X131358850Y-103487981D01*
X131338026Y-103493197D01*
X131316791Y-103496347D01*
X131295350Y-103497400D01*
X130857850Y-103497400D01*
X130836409Y-103496347D01*
X130815174Y-103493197D01*
X130794350Y-103487981D01*
X130774138Y-103480749D01*
X130754732Y-103471570D01*
X130736319Y-103460534D01*
X130719076Y-103447746D01*
X130703170Y-103433330D01*
X130688754Y-103417424D01*
X130675966Y-103400181D01*
X130664930Y-103381768D01*
X130655751Y-103362362D01*
X130648519Y-103342150D01*
X130643303Y-103321326D01*
X130640153Y-103300091D01*
X130639100Y-103278650D01*
X130639100Y-102766150D01*
X130640153Y-102744709D01*
X130643303Y-102723474D01*
X130648519Y-102702650D01*
X130655751Y-102682438D01*
X130664930Y-102663032D01*
X130675966Y-102644619D01*
X130688754Y-102627376D01*
X130703170Y-102611470D01*
X130719076Y-102597054D01*
X130736319Y-102584266D01*
X130754732Y-102573230D01*
X130774138Y-102564051D01*
X130794350Y-102556819D01*
X130815174Y-102551603D01*
X130836409Y-102548453D01*
X130857850Y-102547400D01*
X131295350Y-102547400D01*
X131316791Y-102548453D01*
X131316791Y-102548453D01*
G37*
D13*
X131076600Y-103022400D03*
D12*
G36*
X132891791Y-102548453D02*
G01*
X132913026Y-102551603D01*
X132933850Y-102556819D01*
X132954062Y-102564051D01*
X132973468Y-102573230D01*
X132991881Y-102584266D01*
X133009124Y-102597054D01*
X133025030Y-102611470D01*
X133039446Y-102627376D01*
X133052234Y-102644619D01*
X133063270Y-102663032D01*
X133072449Y-102682438D01*
X133079681Y-102702650D01*
X133084897Y-102723474D01*
X133088047Y-102744709D01*
X133089100Y-102766150D01*
X133089100Y-103278650D01*
X133088047Y-103300091D01*
X133084897Y-103321326D01*
X133079681Y-103342150D01*
X133072449Y-103362362D01*
X133063270Y-103381768D01*
X133052234Y-103400181D01*
X133039446Y-103417424D01*
X133025030Y-103433330D01*
X133009124Y-103447746D01*
X132991881Y-103460534D01*
X132973468Y-103471570D01*
X132954062Y-103480749D01*
X132933850Y-103487981D01*
X132913026Y-103493197D01*
X132891791Y-103496347D01*
X132870350Y-103497400D01*
X132432850Y-103497400D01*
X132411409Y-103496347D01*
X132390174Y-103493197D01*
X132369350Y-103487981D01*
X132349138Y-103480749D01*
X132329732Y-103471570D01*
X132311319Y-103460534D01*
X132294076Y-103447746D01*
X132278170Y-103433330D01*
X132263754Y-103417424D01*
X132250966Y-103400181D01*
X132239930Y-103381768D01*
X132230751Y-103362362D01*
X132223519Y-103342150D01*
X132218303Y-103321326D01*
X132215153Y-103300091D01*
X132214100Y-103278650D01*
X132214100Y-102766150D01*
X132215153Y-102744709D01*
X132218303Y-102723474D01*
X132223519Y-102702650D01*
X132230751Y-102682438D01*
X132239930Y-102663032D01*
X132250966Y-102644619D01*
X132263754Y-102627376D01*
X132278170Y-102611470D01*
X132294076Y-102597054D01*
X132311319Y-102584266D01*
X132329732Y-102573230D01*
X132349138Y-102564051D01*
X132369350Y-102556819D01*
X132390174Y-102551603D01*
X132411409Y-102548453D01*
X132432850Y-102547400D01*
X132870350Y-102547400D01*
X132891791Y-102548453D01*
X132891791Y-102548453D01*
G37*
D13*
X132651600Y-103022400D03*
%TD*%
D12*
%TO.C,R10*%
G36*
X131316791Y-107882453D02*
G01*
X131338026Y-107885603D01*
X131358850Y-107890819D01*
X131379062Y-107898051D01*
X131398468Y-107907230D01*
X131416881Y-107918266D01*
X131434124Y-107931054D01*
X131450030Y-107945470D01*
X131464446Y-107961376D01*
X131477234Y-107978619D01*
X131488270Y-107997032D01*
X131497449Y-108016438D01*
X131504681Y-108036650D01*
X131509897Y-108057474D01*
X131513047Y-108078709D01*
X131514100Y-108100150D01*
X131514100Y-108612650D01*
X131513047Y-108634091D01*
X131509897Y-108655326D01*
X131504681Y-108676150D01*
X131497449Y-108696362D01*
X131488270Y-108715768D01*
X131477234Y-108734181D01*
X131464446Y-108751424D01*
X131450030Y-108767330D01*
X131434124Y-108781746D01*
X131416881Y-108794534D01*
X131398468Y-108805570D01*
X131379062Y-108814749D01*
X131358850Y-108821981D01*
X131338026Y-108827197D01*
X131316791Y-108830347D01*
X131295350Y-108831400D01*
X130857850Y-108831400D01*
X130836409Y-108830347D01*
X130815174Y-108827197D01*
X130794350Y-108821981D01*
X130774138Y-108814749D01*
X130754732Y-108805570D01*
X130736319Y-108794534D01*
X130719076Y-108781746D01*
X130703170Y-108767330D01*
X130688754Y-108751424D01*
X130675966Y-108734181D01*
X130664930Y-108715768D01*
X130655751Y-108696362D01*
X130648519Y-108676150D01*
X130643303Y-108655326D01*
X130640153Y-108634091D01*
X130639100Y-108612650D01*
X130639100Y-108100150D01*
X130640153Y-108078709D01*
X130643303Y-108057474D01*
X130648519Y-108036650D01*
X130655751Y-108016438D01*
X130664930Y-107997032D01*
X130675966Y-107978619D01*
X130688754Y-107961376D01*
X130703170Y-107945470D01*
X130719076Y-107931054D01*
X130736319Y-107918266D01*
X130754732Y-107907230D01*
X130774138Y-107898051D01*
X130794350Y-107890819D01*
X130815174Y-107885603D01*
X130836409Y-107882453D01*
X130857850Y-107881400D01*
X131295350Y-107881400D01*
X131316791Y-107882453D01*
X131316791Y-107882453D01*
G37*
D13*
X131076600Y-108356400D03*
D12*
G36*
X132891791Y-107882453D02*
G01*
X132913026Y-107885603D01*
X132933850Y-107890819D01*
X132954062Y-107898051D01*
X132973468Y-107907230D01*
X132991881Y-107918266D01*
X133009124Y-107931054D01*
X133025030Y-107945470D01*
X133039446Y-107961376D01*
X133052234Y-107978619D01*
X133063270Y-107997032D01*
X133072449Y-108016438D01*
X133079681Y-108036650D01*
X133084897Y-108057474D01*
X133088047Y-108078709D01*
X133089100Y-108100150D01*
X133089100Y-108612650D01*
X133088047Y-108634091D01*
X133084897Y-108655326D01*
X133079681Y-108676150D01*
X133072449Y-108696362D01*
X133063270Y-108715768D01*
X133052234Y-108734181D01*
X133039446Y-108751424D01*
X133025030Y-108767330D01*
X133009124Y-108781746D01*
X132991881Y-108794534D01*
X132973468Y-108805570D01*
X132954062Y-108814749D01*
X132933850Y-108821981D01*
X132913026Y-108827197D01*
X132891791Y-108830347D01*
X132870350Y-108831400D01*
X132432850Y-108831400D01*
X132411409Y-108830347D01*
X132390174Y-108827197D01*
X132369350Y-108821981D01*
X132349138Y-108814749D01*
X132329732Y-108805570D01*
X132311319Y-108794534D01*
X132294076Y-108781746D01*
X132278170Y-108767330D01*
X132263754Y-108751424D01*
X132250966Y-108734181D01*
X132239930Y-108715768D01*
X132230751Y-108696362D01*
X132223519Y-108676150D01*
X132218303Y-108655326D01*
X132215153Y-108634091D01*
X132214100Y-108612650D01*
X132214100Y-108100150D01*
X132215153Y-108078709D01*
X132218303Y-108057474D01*
X132223519Y-108036650D01*
X132230751Y-108016438D01*
X132239930Y-107997032D01*
X132250966Y-107978619D01*
X132263754Y-107961376D01*
X132278170Y-107945470D01*
X132294076Y-107931054D01*
X132311319Y-107918266D01*
X132329732Y-107907230D01*
X132349138Y-107898051D01*
X132369350Y-107890819D01*
X132390174Y-107885603D01*
X132411409Y-107882453D01*
X132432850Y-107881400D01*
X132870350Y-107881400D01*
X132891791Y-107882453D01*
X132891791Y-107882453D01*
G37*
D13*
X132651600Y-108356400D03*
%TD*%
D12*
%TO.C,R9*%
G36*
X153719791Y-102548453D02*
G01*
X153741026Y-102551603D01*
X153761850Y-102556819D01*
X153782062Y-102564051D01*
X153801468Y-102573230D01*
X153819881Y-102584266D01*
X153837124Y-102597054D01*
X153853030Y-102611470D01*
X153867446Y-102627376D01*
X153880234Y-102644619D01*
X153891270Y-102663032D01*
X153900449Y-102682438D01*
X153907681Y-102702650D01*
X153912897Y-102723474D01*
X153916047Y-102744709D01*
X153917100Y-102766150D01*
X153917100Y-103278650D01*
X153916047Y-103300091D01*
X153912897Y-103321326D01*
X153907681Y-103342150D01*
X153900449Y-103362362D01*
X153891270Y-103381768D01*
X153880234Y-103400181D01*
X153867446Y-103417424D01*
X153853030Y-103433330D01*
X153837124Y-103447746D01*
X153819881Y-103460534D01*
X153801468Y-103471570D01*
X153782062Y-103480749D01*
X153761850Y-103487981D01*
X153741026Y-103493197D01*
X153719791Y-103496347D01*
X153698350Y-103497400D01*
X153260850Y-103497400D01*
X153239409Y-103496347D01*
X153218174Y-103493197D01*
X153197350Y-103487981D01*
X153177138Y-103480749D01*
X153157732Y-103471570D01*
X153139319Y-103460534D01*
X153122076Y-103447746D01*
X153106170Y-103433330D01*
X153091754Y-103417424D01*
X153078966Y-103400181D01*
X153067930Y-103381768D01*
X153058751Y-103362362D01*
X153051519Y-103342150D01*
X153046303Y-103321326D01*
X153043153Y-103300091D01*
X153042100Y-103278650D01*
X153042100Y-102766150D01*
X153043153Y-102744709D01*
X153046303Y-102723474D01*
X153051519Y-102702650D01*
X153058751Y-102682438D01*
X153067930Y-102663032D01*
X153078966Y-102644619D01*
X153091754Y-102627376D01*
X153106170Y-102611470D01*
X153122076Y-102597054D01*
X153139319Y-102584266D01*
X153157732Y-102573230D01*
X153177138Y-102564051D01*
X153197350Y-102556819D01*
X153218174Y-102551603D01*
X153239409Y-102548453D01*
X153260850Y-102547400D01*
X153698350Y-102547400D01*
X153719791Y-102548453D01*
X153719791Y-102548453D01*
G37*
D13*
X153479600Y-103022400D03*
D12*
G36*
X152144791Y-102548453D02*
G01*
X152166026Y-102551603D01*
X152186850Y-102556819D01*
X152207062Y-102564051D01*
X152226468Y-102573230D01*
X152244881Y-102584266D01*
X152262124Y-102597054D01*
X152278030Y-102611470D01*
X152292446Y-102627376D01*
X152305234Y-102644619D01*
X152316270Y-102663032D01*
X152325449Y-102682438D01*
X152332681Y-102702650D01*
X152337897Y-102723474D01*
X152341047Y-102744709D01*
X152342100Y-102766150D01*
X152342100Y-103278650D01*
X152341047Y-103300091D01*
X152337897Y-103321326D01*
X152332681Y-103342150D01*
X152325449Y-103362362D01*
X152316270Y-103381768D01*
X152305234Y-103400181D01*
X152292446Y-103417424D01*
X152278030Y-103433330D01*
X152262124Y-103447746D01*
X152244881Y-103460534D01*
X152226468Y-103471570D01*
X152207062Y-103480749D01*
X152186850Y-103487981D01*
X152166026Y-103493197D01*
X152144791Y-103496347D01*
X152123350Y-103497400D01*
X151685850Y-103497400D01*
X151664409Y-103496347D01*
X151643174Y-103493197D01*
X151622350Y-103487981D01*
X151602138Y-103480749D01*
X151582732Y-103471570D01*
X151564319Y-103460534D01*
X151547076Y-103447746D01*
X151531170Y-103433330D01*
X151516754Y-103417424D01*
X151503966Y-103400181D01*
X151492930Y-103381768D01*
X151483751Y-103362362D01*
X151476519Y-103342150D01*
X151471303Y-103321326D01*
X151468153Y-103300091D01*
X151467100Y-103278650D01*
X151467100Y-102766150D01*
X151468153Y-102744709D01*
X151471303Y-102723474D01*
X151476519Y-102702650D01*
X151483751Y-102682438D01*
X151492930Y-102663032D01*
X151503966Y-102644619D01*
X151516754Y-102627376D01*
X151531170Y-102611470D01*
X151547076Y-102597054D01*
X151564319Y-102584266D01*
X151582732Y-102573230D01*
X151602138Y-102564051D01*
X151622350Y-102556819D01*
X151643174Y-102551603D01*
X151664409Y-102548453D01*
X151685850Y-102547400D01*
X152123350Y-102547400D01*
X152144791Y-102548453D01*
X152144791Y-102548453D01*
G37*
D13*
X151904600Y-103022400D03*
%TD*%
D12*
%TO.C,R8*%
G36*
X153719791Y-107755453D02*
G01*
X153741026Y-107758603D01*
X153761850Y-107763819D01*
X153782062Y-107771051D01*
X153801468Y-107780230D01*
X153819881Y-107791266D01*
X153837124Y-107804054D01*
X153853030Y-107818470D01*
X153867446Y-107834376D01*
X153880234Y-107851619D01*
X153891270Y-107870032D01*
X153900449Y-107889438D01*
X153907681Y-107909650D01*
X153912897Y-107930474D01*
X153916047Y-107951709D01*
X153917100Y-107973150D01*
X153917100Y-108485650D01*
X153916047Y-108507091D01*
X153912897Y-108528326D01*
X153907681Y-108549150D01*
X153900449Y-108569362D01*
X153891270Y-108588768D01*
X153880234Y-108607181D01*
X153867446Y-108624424D01*
X153853030Y-108640330D01*
X153837124Y-108654746D01*
X153819881Y-108667534D01*
X153801468Y-108678570D01*
X153782062Y-108687749D01*
X153761850Y-108694981D01*
X153741026Y-108700197D01*
X153719791Y-108703347D01*
X153698350Y-108704400D01*
X153260850Y-108704400D01*
X153239409Y-108703347D01*
X153218174Y-108700197D01*
X153197350Y-108694981D01*
X153177138Y-108687749D01*
X153157732Y-108678570D01*
X153139319Y-108667534D01*
X153122076Y-108654746D01*
X153106170Y-108640330D01*
X153091754Y-108624424D01*
X153078966Y-108607181D01*
X153067930Y-108588768D01*
X153058751Y-108569362D01*
X153051519Y-108549150D01*
X153046303Y-108528326D01*
X153043153Y-108507091D01*
X153042100Y-108485650D01*
X153042100Y-107973150D01*
X153043153Y-107951709D01*
X153046303Y-107930474D01*
X153051519Y-107909650D01*
X153058751Y-107889438D01*
X153067930Y-107870032D01*
X153078966Y-107851619D01*
X153091754Y-107834376D01*
X153106170Y-107818470D01*
X153122076Y-107804054D01*
X153139319Y-107791266D01*
X153157732Y-107780230D01*
X153177138Y-107771051D01*
X153197350Y-107763819D01*
X153218174Y-107758603D01*
X153239409Y-107755453D01*
X153260850Y-107754400D01*
X153698350Y-107754400D01*
X153719791Y-107755453D01*
X153719791Y-107755453D01*
G37*
D13*
X153479600Y-108229400D03*
D12*
G36*
X152144791Y-107755453D02*
G01*
X152166026Y-107758603D01*
X152186850Y-107763819D01*
X152207062Y-107771051D01*
X152226468Y-107780230D01*
X152244881Y-107791266D01*
X152262124Y-107804054D01*
X152278030Y-107818470D01*
X152292446Y-107834376D01*
X152305234Y-107851619D01*
X152316270Y-107870032D01*
X152325449Y-107889438D01*
X152332681Y-107909650D01*
X152337897Y-107930474D01*
X152341047Y-107951709D01*
X152342100Y-107973150D01*
X152342100Y-108485650D01*
X152341047Y-108507091D01*
X152337897Y-108528326D01*
X152332681Y-108549150D01*
X152325449Y-108569362D01*
X152316270Y-108588768D01*
X152305234Y-108607181D01*
X152292446Y-108624424D01*
X152278030Y-108640330D01*
X152262124Y-108654746D01*
X152244881Y-108667534D01*
X152226468Y-108678570D01*
X152207062Y-108687749D01*
X152186850Y-108694981D01*
X152166026Y-108700197D01*
X152144791Y-108703347D01*
X152123350Y-108704400D01*
X151685850Y-108704400D01*
X151664409Y-108703347D01*
X151643174Y-108700197D01*
X151622350Y-108694981D01*
X151602138Y-108687749D01*
X151582732Y-108678570D01*
X151564319Y-108667534D01*
X151547076Y-108654746D01*
X151531170Y-108640330D01*
X151516754Y-108624424D01*
X151503966Y-108607181D01*
X151492930Y-108588768D01*
X151483751Y-108569362D01*
X151476519Y-108549150D01*
X151471303Y-108528326D01*
X151468153Y-108507091D01*
X151467100Y-108485650D01*
X151467100Y-107973150D01*
X151468153Y-107951709D01*
X151471303Y-107930474D01*
X151476519Y-107909650D01*
X151483751Y-107889438D01*
X151492930Y-107870032D01*
X151503966Y-107851619D01*
X151516754Y-107834376D01*
X151531170Y-107818470D01*
X151547076Y-107804054D01*
X151564319Y-107791266D01*
X151582732Y-107780230D01*
X151602138Y-107771051D01*
X151622350Y-107763819D01*
X151643174Y-107758603D01*
X151664409Y-107755453D01*
X151685850Y-107754400D01*
X152123350Y-107754400D01*
X152144791Y-107755453D01*
X152144791Y-107755453D01*
G37*
D13*
X151904600Y-108229400D03*
%TD*%
D12*
%TO.C,R7*%
G36*
X129220791Y-62682453D02*
G01*
X129242026Y-62685603D01*
X129262850Y-62690819D01*
X129283062Y-62698051D01*
X129302468Y-62707230D01*
X129320881Y-62718266D01*
X129338124Y-62731054D01*
X129354030Y-62745470D01*
X129368446Y-62761376D01*
X129381234Y-62778619D01*
X129392270Y-62797032D01*
X129401449Y-62816438D01*
X129408681Y-62836650D01*
X129413897Y-62857474D01*
X129417047Y-62878709D01*
X129418100Y-62900150D01*
X129418100Y-63337650D01*
X129417047Y-63359091D01*
X129413897Y-63380326D01*
X129408681Y-63401150D01*
X129401449Y-63421362D01*
X129392270Y-63440768D01*
X129381234Y-63459181D01*
X129368446Y-63476424D01*
X129354030Y-63492330D01*
X129338124Y-63506746D01*
X129320881Y-63519534D01*
X129302468Y-63530570D01*
X129283062Y-63539749D01*
X129262850Y-63546981D01*
X129242026Y-63552197D01*
X129220791Y-63555347D01*
X129199350Y-63556400D01*
X128686850Y-63556400D01*
X128665409Y-63555347D01*
X128644174Y-63552197D01*
X128623350Y-63546981D01*
X128603138Y-63539749D01*
X128583732Y-63530570D01*
X128565319Y-63519534D01*
X128548076Y-63506746D01*
X128532170Y-63492330D01*
X128517754Y-63476424D01*
X128504966Y-63459181D01*
X128493930Y-63440768D01*
X128484751Y-63421362D01*
X128477519Y-63401150D01*
X128472303Y-63380326D01*
X128469153Y-63359091D01*
X128468100Y-63337650D01*
X128468100Y-62900150D01*
X128469153Y-62878709D01*
X128472303Y-62857474D01*
X128477519Y-62836650D01*
X128484751Y-62816438D01*
X128493930Y-62797032D01*
X128504966Y-62778619D01*
X128517754Y-62761376D01*
X128532170Y-62745470D01*
X128548076Y-62731054D01*
X128565319Y-62718266D01*
X128583732Y-62707230D01*
X128603138Y-62698051D01*
X128623350Y-62690819D01*
X128644174Y-62685603D01*
X128665409Y-62682453D01*
X128686850Y-62681400D01*
X129199350Y-62681400D01*
X129220791Y-62682453D01*
X129220791Y-62682453D01*
G37*
D13*
X128943100Y-63118900D03*
D12*
G36*
X129220791Y-64257453D02*
G01*
X129242026Y-64260603D01*
X129262850Y-64265819D01*
X129283062Y-64273051D01*
X129302468Y-64282230D01*
X129320881Y-64293266D01*
X129338124Y-64306054D01*
X129354030Y-64320470D01*
X129368446Y-64336376D01*
X129381234Y-64353619D01*
X129392270Y-64372032D01*
X129401449Y-64391438D01*
X129408681Y-64411650D01*
X129413897Y-64432474D01*
X129417047Y-64453709D01*
X129418100Y-64475150D01*
X129418100Y-64912650D01*
X129417047Y-64934091D01*
X129413897Y-64955326D01*
X129408681Y-64976150D01*
X129401449Y-64996362D01*
X129392270Y-65015768D01*
X129381234Y-65034181D01*
X129368446Y-65051424D01*
X129354030Y-65067330D01*
X129338124Y-65081746D01*
X129320881Y-65094534D01*
X129302468Y-65105570D01*
X129283062Y-65114749D01*
X129262850Y-65121981D01*
X129242026Y-65127197D01*
X129220791Y-65130347D01*
X129199350Y-65131400D01*
X128686850Y-65131400D01*
X128665409Y-65130347D01*
X128644174Y-65127197D01*
X128623350Y-65121981D01*
X128603138Y-65114749D01*
X128583732Y-65105570D01*
X128565319Y-65094534D01*
X128548076Y-65081746D01*
X128532170Y-65067330D01*
X128517754Y-65051424D01*
X128504966Y-65034181D01*
X128493930Y-65015768D01*
X128484751Y-64996362D01*
X128477519Y-64976150D01*
X128472303Y-64955326D01*
X128469153Y-64934091D01*
X128468100Y-64912650D01*
X128468100Y-64475150D01*
X128469153Y-64453709D01*
X128472303Y-64432474D01*
X128477519Y-64411650D01*
X128484751Y-64391438D01*
X128493930Y-64372032D01*
X128504966Y-64353619D01*
X128517754Y-64336376D01*
X128532170Y-64320470D01*
X128548076Y-64306054D01*
X128565319Y-64293266D01*
X128583732Y-64282230D01*
X128603138Y-64273051D01*
X128623350Y-64265819D01*
X128644174Y-64260603D01*
X128665409Y-64257453D01*
X128686850Y-64256400D01*
X129199350Y-64256400D01*
X129220791Y-64257453D01*
X129220791Y-64257453D01*
G37*
D13*
X128943100Y-64693900D03*
%TD*%
D12*
%TO.C,R6*%
G36*
X132903791Y-119502453D02*
G01*
X132925026Y-119505603D01*
X132945850Y-119510819D01*
X132966062Y-119518051D01*
X132985468Y-119527230D01*
X133003881Y-119538266D01*
X133021124Y-119551054D01*
X133037030Y-119565470D01*
X133051446Y-119581376D01*
X133064234Y-119598619D01*
X133075270Y-119617032D01*
X133084449Y-119636438D01*
X133091681Y-119656650D01*
X133096897Y-119677474D01*
X133100047Y-119698709D01*
X133101100Y-119720150D01*
X133101100Y-120157650D01*
X133100047Y-120179091D01*
X133096897Y-120200326D01*
X133091681Y-120221150D01*
X133084449Y-120241362D01*
X133075270Y-120260768D01*
X133064234Y-120279181D01*
X133051446Y-120296424D01*
X133037030Y-120312330D01*
X133021124Y-120326746D01*
X133003881Y-120339534D01*
X132985468Y-120350570D01*
X132966062Y-120359749D01*
X132945850Y-120366981D01*
X132925026Y-120372197D01*
X132903791Y-120375347D01*
X132882350Y-120376400D01*
X132369850Y-120376400D01*
X132348409Y-120375347D01*
X132327174Y-120372197D01*
X132306350Y-120366981D01*
X132286138Y-120359749D01*
X132266732Y-120350570D01*
X132248319Y-120339534D01*
X132231076Y-120326746D01*
X132215170Y-120312330D01*
X132200754Y-120296424D01*
X132187966Y-120279181D01*
X132176930Y-120260768D01*
X132167751Y-120241362D01*
X132160519Y-120221150D01*
X132155303Y-120200326D01*
X132152153Y-120179091D01*
X132151100Y-120157650D01*
X132151100Y-119720150D01*
X132152153Y-119698709D01*
X132155303Y-119677474D01*
X132160519Y-119656650D01*
X132167751Y-119636438D01*
X132176930Y-119617032D01*
X132187966Y-119598619D01*
X132200754Y-119581376D01*
X132215170Y-119565470D01*
X132231076Y-119551054D01*
X132248319Y-119538266D01*
X132266732Y-119527230D01*
X132286138Y-119518051D01*
X132306350Y-119510819D01*
X132327174Y-119505603D01*
X132348409Y-119502453D01*
X132369850Y-119501400D01*
X132882350Y-119501400D01*
X132903791Y-119502453D01*
X132903791Y-119502453D01*
G37*
D13*
X132626100Y-119938900D03*
D12*
G36*
X132903791Y-117927453D02*
G01*
X132925026Y-117930603D01*
X132945850Y-117935819D01*
X132966062Y-117943051D01*
X132985468Y-117952230D01*
X133003881Y-117963266D01*
X133021124Y-117976054D01*
X133037030Y-117990470D01*
X133051446Y-118006376D01*
X133064234Y-118023619D01*
X133075270Y-118042032D01*
X133084449Y-118061438D01*
X133091681Y-118081650D01*
X133096897Y-118102474D01*
X133100047Y-118123709D01*
X133101100Y-118145150D01*
X133101100Y-118582650D01*
X133100047Y-118604091D01*
X133096897Y-118625326D01*
X133091681Y-118646150D01*
X133084449Y-118666362D01*
X133075270Y-118685768D01*
X133064234Y-118704181D01*
X133051446Y-118721424D01*
X133037030Y-118737330D01*
X133021124Y-118751746D01*
X133003881Y-118764534D01*
X132985468Y-118775570D01*
X132966062Y-118784749D01*
X132945850Y-118791981D01*
X132925026Y-118797197D01*
X132903791Y-118800347D01*
X132882350Y-118801400D01*
X132369850Y-118801400D01*
X132348409Y-118800347D01*
X132327174Y-118797197D01*
X132306350Y-118791981D01*
X132286138Y-118784749D01*
X132266732Y-118775570D01*
X132248319Y-118764534D01*
X132231076Y-118751746D01*
X132215170Y-118737330D01*
X132200754Y-118721424D01*
X132187966Y-118704181D01*
X132176930Y-118685768D01*
X132167751Y-118666362D01*
X132160519Y-118646150D01*
X132155303Y-118625326D01*
X132152153Y-118604091D01*
X132151100Y-118582650D01*
X132151100Y-118145150D01*
X132152153Y-118123709D01*
X132155303Y-118102474D01*
X132160519Y-118081650D01*
X132167751Y-118061438D01*
X132176930Y-118042032D01*
X132187966Y-118023619D01*
X132200754Y-118006376D01*
X132215170Y-117990470D01*
X132231076Y-117976054D01*
X132248319Y-117963266D01*
X132266732Y-117952230D01*
X132286138Y-117943051D01*
X132306350Y-117935819D01*
X132327174Y-117930603D01*
X132348409Y-117927453D01*
X132369850Y-117926400D01*
X132882350Y-117926400D01*
X132903791Y-117927453D01*
X132903791Y-117927453D01*
G37*
D13*
X132626100Y-118363900D03*
%TD*%
D12*
%TO.C,R5*%
G36*
X152144291Y-119375453D02*
G01*
X152165526Y-119378603D01*
X152186350Y-119383819D01*
X152206562Y-119391051D01*
X152225968Y-119400230D01*
X152244381Y-119411266D01*
X152261624Y-119424054D01*
X152277530Y-119438470D01*
X152291946Y-119454376D01*
X152304734Y-119471619D01*
X152315770Y-119490032D01*
X152324949Y-119509438D01*
X152332181Y-119529650D01*
X152337397Y-119550474D01*
X152340547Y-119571709D01*
X152341600Y-119593150D01*
X152341600Y-120030650D01*
X152340547Y-120052091D01*
X152337397Y-120073326D01*
X152332181Y-120094150D01*
X152324949Y-120114362D01*
X152315770Y-120133768D01*
X152304734Y-120152181D01*
X152291946Y-120169424D01*
X152277530Y-120185330D01*
X152261624Y-120199746D01*
X152244381Y-120212534D01*
X152225968Y-120223570D01*
X152206562Y-120232749D01*
X152186350Y-120239981D01*
X152165526Y-120245197D01*
X152144291Y-120248347D01*
X152122850Y-120249400D01*
X151610350Y-120249400D01*
X151588909Y-120248347D01*
X151567674Y-120245197D01*
X151546850Y-120239981D01*
X151526638Y-120232749D01*
X151507232Y-120223570D01*
X151488819Y-120212534D01*
X151471576Y-120199746D01*
X151455670Y-120185330D01*
X151441254Y-120169424D01*
X151428466Y-120152181D01*
X151417430Y-120133768D01*
X151408251Y-120114362D01*
X151401019Y-120094150D01*
X151395803Y-120073326D01*
X151392653Y-120052091D01*
X151391600Y-120030650D01*
X151391600Y-119593150D01*
X151392653Y-119571709D01*
X151395803Y-119550474D01*
X151401019Y-119529650D01*
X151408251Y-119509438D01*
X151417430Y-119490032D01*
X151428466Y-119471619D01*
X151441254Y-119454376D01*
X151455670Y-119438470D01*
X151471576Y-119424054D01*
X151488819Y-119411266D01*
X151507232Y-119400230D01*
X151526638Y-119391051D01*
X151546850Y-119383819D01*
X151567674Y-119378603D01*
X151588909Y-119375453D01*
X151610350Y-119374400D01*
X152122850Y-119374400D01*
X152144291Y-119375453D01*
X152144291Y-119375453D01*
G37*
D13*
X151866600Y-119811900D03*
D12*
G36*
X152144291Y-117800453D02*
G01*
X152165526Y-117803603D01*
X152186350Y-117808819D01*
X152206562Y-117816051D01*
X152225968Y-117825230D01*
X152244381Y-117836266D01*
X152261624Y-117849054D01*
X152277530Y-117863470D01*
X152291946Y-117879376D01*
X152304734Y-117896619D01*
X152315770Y-117915032D01*
X152324949Y-117934438D01*
X152332181Y-117954650D01*
X152337397Y-117975474D01*
X152340547Y-117996709D01*
X152341600Y-118018150D01*
X152341600Y-118455650D01*
X152340547Y-118477091D01*
X152337397Y-118498326D01*
X152332181Y-118519150D01*
X152324949Y-118539362D01*
X152315770Y-118558768D01*
X152304734Y-118577181D01*
X152291946Y-118594424D01*
X152277530Y-118610330D01*
X152261624Y-118624746D01*
X152244381Y-118637534D01*
X152225968Y-118648570D01*
X152206562Y-118657749D01*
X152186350Y-118664981D01*
X152165526Y-118670197D01*
X152144291Y-118673347D01*
X152122850Y-118674400D01*
X151610350Y-118674400D01*
X151588909Y-118673347D01*
X151567674Y-118670197D01*
X151546850Y-118664981D01*
X151526638Y-118657749D01*
X151507232Y-118648570D01*
X151488819Y-118637534D01*
X151471576Y-118624746D01*
X151455670Y-118610330D01*
X151441254Y-118594424D01*
X151428466Y-118577181D01*
X151417430Y-118558768D01*
X151408251Y-118539362D01*
X151401019Y-118519150D01*
X151395803Y-118498326D01*
X151392653Y-118477091D01*
X151391600Y-118455650D01*
X151391600Y-118018150D01*
X151392653Y-117996709D01*
X151395803Y-117975474D01*
X151401019Y-117954650D01*
X151408251Y-117934438D01*
X151417430Y-117915032D01*
X151428466Y-117896619D01*
X151441254Y-117879376D01*
X151455670Y-117863470D01*
X151471576Y-117849054D01*
X151488819Y-117836266D01*
X151507232Y-117825230D01*
X151526638Y-117816051D01*
X151546850Y-117808819D01*
X151567674Y-117803603D01*
X151588909Y-117800453D01*
X151610350Y-117799400D01*
X152122850Y-117799400D01*
X152144291Y-117800453D01*
X152144291Y-117800453D01*
G37*
D13*
X151866600Y-118236900D03*
%TD*%
D12*
%TO.C,R4*%
G36*
X131316791Y-116010453D02*
G01*
X131338026Y-116013603D01*
X131358850Y-116018819D01*
X131379062Y-116026051D01*
X131398468Y-116035230D01*
X131416881Y-116046266D01*
X131434124Y-116059054D01*
X131450030Y-116073470D01*
X131464446Y-116089376D01*
X131477234Y-116106619D01*
X131488270Y-116125032D01*
X131497449Y-116144438D01*
X131504681Y-116164650D01*
X131509897Y-116185474D01*
X131513047Y-116206709D01*
X131514100Y-116228150D01*
X131514100Y-116740650D01*
X131513047Y-116762091D01*
X131509897Y-116783326D01*
X131504681Y-116804150D01*
X131497449Y-116824362D01*
X131488270Y-116843768D01*
X131477234Y-116862181D01*
X131464446Y-116879424D01*
X131450030Y-116895330D01*
X131434124Y-116909746D01*
X131416881Y-116922534D01*
X131398468Y-116933570D01*
X131379062Y-116942749D01*
X131358850Y-116949981D01*
X131338026Y-116955197D01*
X131316791Y-116958347D01*
X131295350Y-116959400D01*
X130857850Y-116959400D01*
X130836409Y-116958347D01*
X130815174Y-116955197D01*
X130794350Y-116949981D01*
X130774138Y-116942749D01*
X130754732Y-116933570D01*
X130736319Y-116922534D01*
X130719076Y-116909746D01*
X130703170Y-116895330D01*
X130688754Y-116879424D01*
X130675966Y-116862181D01*
X130664930Y-116843768D01*
X130655751Y-116824362D01*
X130648519Y-116804150D01*
X130643303Y-116783326D01*
X130640153Y-116762091D01*
X130639100Y-116740650D01*
X130639100Y-116228150D01*
X130640153Y-116206709D01*
X130643303Y-116185474D01*
X130648519Y-116164650D01*
X130655751Y-116144438D01*
X130664930Y-116125032D01*
X130675966Y-116106619D01*
X130688754Y-116089376D01*
X130703170Y-116073470D01*
X130719076Y-116059054D01*
X130736319Y-116046266D01*
X130754732Y-116035230D01*
X130774138Y-116026051D01*
X130794350Y-116018819D01*
X130815174Y-116013603D01*
X130836409Y-116010453D01*
X130857850Y-116009400D01*
X131295350Y-116009400D01*
X131316791Y-116010453D01*
X131316791Y-116010453D01*
G37*
D13*
X131076600Y-116484400D03*
D12*
G36*
X132891791Y-116010453D02*
G01*
X132913026Y-116013603D01*
X132933850Y-116018819D01*
X132954062Y-116026051D01*
X132973468Y-116035230D01*
X132991881Y-116046266D01*
X133009124Y-116059054D01*
X133025030Y-116073470D01*
X133039446Y-116089376D01*
X133052234Y-116106619D01*
X133063270Y-116125032D01*
X133072449Y-116144438D01*
X133079681Y-116164650D01*
X133084897Y-116185474D01*
X133088047Y-116206709D01*
X133089100Y-116228150D01*
X133089100Y-116740650D01*
X133088047Y-116762091D01*
X133084897Y-116783326D01*
X133079681Y-116804150D01*
X133072449Y-116824362D01*
X133063270Y-116843768D01*
X133052234Y-116862181D01*
X133039446Y-116879424D01*
X133025030Y-116895330D01*
X133009124Y-116909746D01*
X132991881Y-116922534D01*
X132973468Y-116933570D01*
X132954062Y-116942749D01*
X132933850Y-116949981D01*
X132913026Y-116955197D01*
X132891791Y-116958347D01*
X132870350Y-116959400D01*
X132432850Y-116959400D01*
X132411409Y-116958347D01*
X132390174Y-116955197D01*
X132369350Y-116949981D01*
X132349138Y-116942749D01*
X132329732Y-116933570D01*
X132311319Y-116922534D01*
X132294076Y-116909746D01*
X132278170Y-116895330D01*
X132263754Y-116879424D01*
X132250966Y-116862181D01*
X132239930Y-116843768D01*
X132230751Y-116824362D01*
X132223519Y-116804150D01*
X132218303Y-116783326D01*
X132215153Y-116762091D01*
X132214100Y-116740650D01*
X132214100Y-116228150D01*
X132215153Y-116206709D01*
X132218303Y-116185474D01*
X132223519Y-116164650D01*
X132230751Y-116144438D01*
X132239930Y-116125032D01*
X132250966Y-116106619D01*
X132263754Y-116089376D01*
X132278170Y-116073470D01*
X132294076Y-116059054D01*
X132311319Y-116046266D01*
X132329732Y-116035230D01*
X132349138Y-116026051D01*
X132369350Y-116018819D01*
X132390174Y-116013603D01*
X132411409Y-116010453D01*
X132432850Y-116009400D01*
X132870350Y-116009400D01*
X132891791Y-116010453D01*
X132891791Y-116010453D01*
G37*
D13*
X132651600Y-116484400D03*
%TD*%
D12*
%TO.C,R1*%
G36*
X153656291Y-121217453D02*
G01*
X153677526Y-121220603D01*
X153698350Y-121225819D01*
X153718562Y-121233051D01*
X153737968Y-121242230D01*
X153756381Y-121253266D01*
X153773624Y-121266054D01*
X153789530Y-121280470D01*
X153803946Y-121296376D01*
X153816734Y-121313619D01*
X153827770Y-121332032D01*
X153836949Y-121351438D01*
X153844181Y-121371650D01*
X153849397Y-121392474D01*
X153852547Y-121413709D01*
X153853600Y-121435150D01*
X153853600Y-121947650D01*
X153852547Y-121969091D01*
X153849397Y-121990326D01*
X153844181Y-122011150D01*
X153836949Y-122031362D01*
X153827770Y-122050768D01*
X153816734Y-122069181D01*
X153803946Y-122086424D01*
X153789530Y-122102330D01*
X153773624Y-122116746D01*
X153756381Y-122129534D01*
X153737968Y-122140570D01*
X153718562Y-122149749D01*
X153698350Y-122156981D01*
X153677526Y-122162197D01*
X153656291Y-122165347D01*
X153634850Y-122166400D01*
X153197350Y-122166400D01*
X153175909Y-122165347D01*
X153154674Y-122162197D01*
X153133850Y-122156981D01*
X153113638Y-122149749D01*
X153094232Y-122140570D01*
X153075819Y-122129534D01*
X153058576Y-122116746D01*
X153042670Y-122102330D01*
X153028254Y-122086424D01*
X153015466Y-122069181D01*
X153004430Y-122050768D01*
X152995251Y-122031362D01*
X152988019Y-122011150D01*
X152982803Y-121990326D01*
X152979653Y-121969091D01*
X152978600Y-121947650D01*
X152978600Y-121435150D01*
X152979653Y-121413709D01*
X152982803Y-121392474D01*
X152988019Y-121371650D01*
X152995251Y-121351438D01*
X153004430Y-121332032D01*
X153015466Y-121313619D01*
X153028254Y-121296376D01*
X153042670Y-121280470D01*
X153058576Y-121266054D01*
X153075819Y-121253266D01*
X153094232Y-121242230D01*
X153113638Y-121233051D01*
X153133850Y-121225819D01*
X153154674Y-121220603D01*
X153175909Y-121217453D01*
X153197350Y-121216400D01*
X153634850Y-121216400D01*
X153656291Y-121217453D01*
X153656291Y-121217453D01*
G37*
D13*
X153416100Y-121691400D03*
D12*
G36*
X152081291Y-121217453D02*
G01*
X152102526Y-121220603D01*
X152123350Y-121225819D01*
X152143562Y-121233051D01*
X152162968Y-121242230D01*
X152181381Y-121253266D01*
X152198624Y-121266054D01*
X152214530Y-121280470D01*
X152228946Y-121296376D01*
X152241734Y-121313619D01*
X152252770Y-121332032D01*
X152261949Y-121351438D01*
X152269181Y-121371650D01*
X152274397Y-121392474D01*
X152277547Y-121413709D01*
X152278600Y-121435150D01*
X152278600Y-121947650D01*
X152277547Y-121969091D01*
X152274397Y-121990326D01*
X152269181Y-122011150D01*
X152261949Y-122031362D01*
X152252770Y-122050768D01*
X152241734Y-122069181D01*
X152228946Y-122086424D01*
X152214530Y-122102330D01*
X152198624Y-122116746D01*
X152181381Y-122129534D01*
X152162968Y-122140570D01*
X152143562Y-122149749D01*
X152123350Y-122156981D01*
X152102526Y-122162197D01*
X152081291Y-122165347D01*
X152059850Y-122166400D01*
X151622350Y-122166400D01*
X151600909Y-122165347D01*
X151579674Y-122162197D01*
X151558850Y-122156981D01*
X151538638Y-122149749D01*
X151519232Y-122140570D01*
X151500819Y-122129534D01*
X151483576Y-122116746D01*
X151467670Y-122102330D01*
X151453254Y-122086424D01*
X151440466Y-122069181D01*
X151429430Y-122050768D01*
X151420251Y-122031362D01*
X151413019Y-122011150D01*
X151407803Y-121990326D01*
X151404653Y-121969091D01*
X151403600Y-121947650D01*
X151403600Y-121435150D01*
X151404653Y-121413709D01*
X151407803Y-121392474D01*
X151413019Y-121371650D01*
X151420251Y-121351438D01*
X151429430Y-121332032D01*
X151440466Y-121313619D01*
X151453254Y-121296376D01*
X151467670Y-121280470D01*
X151483576Y-121266054D01*
X151500819Y-121253266D01*
X151519232Y-121242230D01*
X151538638Y-121233051D01*
X151558850Y-121225819D01*
X151579674Y-121220603D01*
X151600909Y-121217453D01*
X151622350Y-121216400D01*
X152059850Y-121216400D01*
X152081291Y-121217453D01*
X152081291Y-121217453D01*
G37*
D13*
X151841100Y-121691400D03*
%TD*%
D11*
%TO.C,D9*%
X127943100Y-79146400D03*
X129943100Y-78196400D03*
X129943100Y-80096400D03*
%TD*%
%TO.C,D8*%
X154613100Y-78765400D03*
X156613100Y-77815400D03*
X156613100Y-79715400D03*
%TD*%
%TO.C,D7*%
X128070100Y-92354400D03*
X130070100Y-91404400D03*
X130070100Y-93304400D03*
%TD*%
%TO.C,D6*%
X153851100Y-92100400D03*
X155851100Y-91150400D03*
X155851100Y-93050400D03*
%TD*%
%TO.C,D5*%
X128324100Y-105689400D03*
X130324100Y-104739400D03*
X130324100Y-106639400D03*
%TD*%
%TO.C,D4*%
X154486100Y-105562400D03*
X156486100Y-104612400D03*
X156486100Y-106512400D03*
%TD*%
D12*
%TO.C,D3*%
G36*
X129220791Y-61209453D02*
G01*
X129242026Y-61212603D01*
X129262850Y-61217819D01*
X129283062Y-61225051D01*
X129302468Y-61234230D01*
X129320881Y-61245266D01*
X129338124Y-61258054D01*
X129354030Y-61272470D01*
X129368446Y-61288376D01*
X129381234Y-61305619D01*
X129392270Y-61324032D01*
X129401449Y-61343438D01*
X129408681Y-61363650D01*
X129413897Y-61384474D01*
X129417047Y-61405709D01*
X129418100Y-61427150D01*
X129418100Y-61864650D01*
X129417047Y-61886091D01*
X129413897Y-61907326D01*
X129408681Y-61928150D01*
X129401449Y-61948362D01*
X129392270Y-61967768D01*
X129381234Y-61986181D01*
X129368446Y-62003424D01*
X129354030Y-62019330D01*
X129338124Y-62033746D01*
X129320881Y-62046534D01*
X129302468Y-62057570D01*
X129283062Y-62066749D01*
X129262850Y-62073981D01*
X129242026Y-62079197D01*
X129220791Y-62082347D01*
X129199350Y-62083400D01*
X128686850Y-62083400D01*
X128665409Y-62082347D01*
X128644174Y-62079197D01*
X128623350Y-62073981D01*
X128603138Y-62066749D01*
X128583732Y-62057570D01*
X128565319Y-62046534D01*
X128548076Y-62033746D01*
X128532170Y-62019330D01*
X128517754Y-62003424D01*
X128504966Y-61986181D01*
X128493930Y-61967768D01*
X128484751Y-61948362D01*
X128477519Y-61928150D01*
X128472303Y-61907326D01*
X128469153Y-61886091D01*
X128468100Y-61864650D01*
X128468100Y-61427150D01*
X128469153Y-61405709D01*
X128472303Y-61384474D01*
X128477519Y-61363650D01*
X128484751Y-61343438D01*
X128493930Y-61324032D01*
X128504966Y-61305619D01*
X128517754Y-61288376D01*
X128532170Y-61272470D01*
X128548076Y-61258054D01*
X128565319Y-61245266D01*
X128583732Y-61234230D01*
X128603138Y-61225051D01*
X128623350Y-61217819D01*
X128644174Y-61212603D01*
X128665409Y-61209453D01*
X128686850Y-61208400D01*
X129199350Y-61208400D01*
X129220791Y-61209453D01*
X129220791Y-61209453D01*
G37*
D13*
X128943100Y-61645900D03*
D12*
G36*
X129220791Y-59634453D02*
G01*
X129242026Y-59637603D01*
X129262850Y-59642819D01*
X129283062Y-59650051D01*
X129302468Y-59659230D01*
X129320881Y-59670266D01*
X129338124Y-59683054D01*
X129354030Y-59697470D01*
X129368446Y-59713376D01*
X129381234Y-59730619D01*
X129392270Y-59749032D01*
X129401449Y-59768438D01*
X129408681Y-59788650D01*
X129413897Y-59809474D01*
X129417047Y-59830709D01*
X129418100Y-59852150D01*
X129418100Y-60289650D01*
X129417047Y-60311091D01*
X129413897Y-60332326D01*
X129408681Y-60353150D01*
X129401449Y-60373362D01*
X129392270Y-60392768D01*
X129381234Y-60411181D01*
X129368446Y-60428424D01*
X129354030Y-60444330D01*
X129338124Y-60458746D01*
X129320881Y-60471534D01*
X129302468Y-60482570D01*
X129283062Y-60491749D01*
X129262850Y-60498981D01*
X129242026Y-60504197D01*
X129220791Y-60507347D01*
X129199350Y-60508400D01*
X128686850Y-60508400D01*
X128665409Y-60507347D01*
X128644174Y-60504197D01*
X128623350Y-60498981D01*
X128603138Y-60491749D01*
X128583732Y-60482570D01*
X128565319Y-60471534D01*
X128548076Y-60458746D01*
X128532170Y-60444330D01*
X128517754Y-60428424D01*
X128504966Y-60411181D01*
X128493930Y-60392768D01*
X128484751Y-60373362D01*
X128477519Y-60353150D01*
X128472303Y-60332326D01*
X128469153Y-60311091D01*
X128468100Y-60289650D01*
X128468100Y-59852150D01*
X128469153Y-59830709D01*
X128472303Y-59809474D01*
X128477519Y-59788650D01*
X128484751Y-59768438D01*
X128493930Y-59749032D01*
X128504966Y-59730619D01*
X128517754Y-59713376D01*
X128532170Y-59697470D01*
X128548076Y-59683054D01*
X128565319Y-59670266D01*
X128583732Y-59659230D01*
X128603138Y-59650051D01*
X128623350Y-59642819D01*
X128644174Y-59637603D01*
X128665409Y-59634453D01*
X128686850Y-59633400D01*
X129199350Y-59633400D01*
X129220791Y-59634453D01*
X129220791Y-59634453D01*
G37*
D13*
X128943100Y-60070900D03*
%TD*%
D11*
%TO.C,D1*%
X153978100Y-119024400D03*
X155978100Y-118074400D03*
X155978100Y-119974400D03*
%TD*%
D12*
%TO.C,C12*%
G36*
X125525791Y-77910453D02*
G01*
X125547026Y-77913603D01*
X125567850Y-77918819D01*
X125588062Y-77926051D01*
X125607468Y-77935230D01*
X125625881Y-77946266D01*
X125643124Y-77959054D01*
X125659030Y-77973470D01*
X125673446Y-77989376D01*
X125686234Y-78006619D01*
X125697270Y-78025032D01*
X125706449Y-78044438D01*
X125713681Y-78064650D01*
X125718897Y-78085474D01*
X125722047Y-78106709D01*
X125723100Y-78128150D01*
X125723100Y-78640650D01*
X125722047Y-78662091D01*
X125718897Y-78683326D01*
X125713681Y-78704150D01*
X125706449Y-78724362D01*
X125697270Y-78743768D01*
X125686234Y-78762181D01*
X125673446Y-78779424D01*
X125659030Y-78795330D01*
X125643124Y-78809746D01*
X125625881Y-78822534D01*
X125607468Y-78833570D01*
X125588062Y-78842749D01*
X125567850Y-78849981D01*
X125547026Y-78855197D01*
X125525791Y-78858347D01*
X125504350Y-78859400D01*
X125066850Y-78859400D01*
X125045409Y-78858347D01*
X125024174Y-78855197D01*
X125003350Y-78849981D01*
X124983138Y-78842749D01*
X124963732Y-78833570D01*
X124945319Y-78822534D01*
X124928076Y-78809746D01*
X124912170Y-78795330D01*
X124897754Y-78779424D01*
X124884966Y-78762181D01*
X124873930Y-78743768D01*
X124864751Y-78724362D01*
X124857519Y-78704150D01*
X124852303Y-78683326D01*
X124849153Y-78662091D01*
X124848100Y-78640650D01*
X124848100Y-78128150D01*
X124849153Y-78106709D01*
X124852303Y-78085474D01*
X124857519Y-78064650D01*
X124864751Y-78044438D01*
X124873930Y-78025032D01*
X124884966Y-78006619D01*
X124897754Y-77989376D01*
X124912170Y-77973470D01*
X124928076Y-77959054D01*
X124945319Y-77946266D01*
X124963732Y-77935230D01*
X124983138Y-77926051D01*
X125003350Y-77918819D01*
X125024174Y-77913603D01*
X125045409Y-77910453D01*
X125066850Y-77909400D01*
X125504350Y-77909400D01*
X125525791Y-77910453D01*
X125525791Y-77910453D01*
G37*
D13*
X125285600Y-78384400D03*
D12*
G36*
X123950791Y-77910453D02*
G01*
X123972026Y-77913603D01*
X123992850Y-77918819D01*
X124013062Y-77926051D01*
X124032468Y-77935230D01*
X124050881Y-77946266D01*
X124068124Y-77959054D01*
X124084030Y-77973470D01*
X124098446Y-77989376D01*
X124111234Y-78006619D01*
X124122270Y-78025032D01*
X124131449Y-78044438D01*
X124138681Y-78064650D01*
X124143897Y-78085474D01*
X124147047Y-78106709D01*
X124148100Y-78128150D01*
X124148100Y-78640650D01*
X124147047Y-78662091D01*
X124143897Y-78683326D01*
X124138681Y-78704150D01*
X124131449Y-78724362D01*
X124122270Y-78743768D01*
X124111234Y-78762181D01*
X124098446Y-78779424D01*
X124084030Y-78795330D01*
X124068124Y-78809746D01*
X124050881Y-78822534D01*
X124032468Y-78833570D01*
X124013062Y-78842749D01*
X123992850Y-78849981D01*
X123972026Y-78855197D01*
X123950791Y-78858347D01*
X123929350Y-78859400D01*
X123491850Y-78859400D01*
X123470409Y-78858347D01*
X123449174Y-78855197D01*
X123428350Y-78849981D01*
X123408138Y-78842749D01*
X123388732Y-78833570D01*
X123370319Y-78822534D01*
X123353076Y-78809746D01*
X123337170Y-78795330D01*
X123322754Y-78779424D01*
X123309966Y-78762181D01*
X123298930Y-78743768D01*
X123289751Y-78724362D01*
X123282519Y-78704150D01*
X123277303Y-78683326D01*
X123274153Y-78662091D01*
X123273100Y-78640650D01*
X123273100Y-78128150D01*
X123274153Y-78106709D01*
X123277303Y-78085474D01*
X123282519Y-78064650D01*
X123289751Y-78044438D01*
X123298930Y-78025032D01*
X123309966Y-78006619D01*
X123322754Y-77989376D01*
X123337170Y-77973470D01*
X123353076Y-77959054D01*
X123370319Y-77946266D01*
X123388732Y-77935230D01*
X123408138Y-77926051D01*
X123428350Y-77918819D01*
X123449174Y-77913603D01*
X123470409Y-77910453D01*
X123491850Y-77909400D01*
X123929350Y-77909400D01*
X123950791Y-77910453D01*
X123950791Y-77910453D01*
G37*
D13*
X123710600Y-78384400D03*
%TD*%
D12*
%TO.C,C11*%
G36*
X159002791Y-77148453D02*
G01*
X159024026Y-77151603D01*
X159044850Y-77156819D01*
X159065062Y-77164051D01*
X159084468Y-77173230D01*
X159102881Y-77184266D01*
X159120124Y-77197054D01*
X159136030Y-77211470D01*
X159150446Y-77227376D01*
X159163234Y-77244619D01*
X159174270Y-77263032D01*
X159183449Y-77282438D01*
X159190681Y-77302650D01*
X159195897Y-77323474D01*
X159199047Y-77344709D01*
X159200100Y-77366150D01*
X159200100Y-77878650D01*
X159199047Y-77900091D01*
X159195897Y-77921326D01*
X159190681Y-77942150D01*
X159183449Y-77962362D01*
X159174270Y-77981768D01*
X159163234Y-78000181D01*
X159150446Y-78017424D01*
X159136030Y-78033330D01*
X159120124Y-78047746D01*
X159102881Y-78060534D01*
X159084468Y-78071570D01*
X159065062Y-78080749D01*
X159044850Y-78087981D01*
X159024026Y-78093197D01*
X159002791Y-78096347D01*
X158981350Y-78097400D01*
X158543850Y-78097400D01*
X158522409Y-78096347D01*
X158501174Y-78093197D01*
X158480350Y-78087981D01*
X158460138Y-78080749D01*
X158440732Y-78071570D01*
X158422319Y-78060534D01*
X158405076Y-78047746D01*
X158389170Y-78033330D01*
X158374754Y-78017424D01*
X158361966Y-78000181D01*
X158350930Y-77981768D01*
X158341751Y-77962362D01*
X158334519Y-77942150D01*
X158329303Y-77921326D01*
X158326153Y-77900091D01*
X158325100Y-77878650D01*
X158325100Y-77366150D01*
X158326153Y-77344709D01*
X158329303Y-77323474D01*
X158334519Y-77302650D01*
X158341751Y-77282438D01*
X158350930Y-77263032D01*
X158361966Y-77244619D01*
X158374754Y-77227376D01*
X158389170Y-77211470D01*
X158405076Y-77197054D01*
X158422319Y-77184266D01*
X158440732Y-77173230D01*
X158460138Y-77164051D01*
X158480350Y-77156819D01*
X158501174Y-77151603D01*
X158522409Y-77148453D01*
X158543850Y-77147400D01*
X158981350Y-77147400D01*
X159002791Y-77148453D01*
X159002791Y-77148453D01*
G37*
D13*
X158762600Y-77622400D03*
D12*
G36*
X160577791Y-77148453D02*
G01*
X160599026Y-77151603D01*
X160619850Y-77156819D01*
X160640062Y-77164051D01*
X160659468Y-77173230D01*
X160677881Y-77184266D01*
X160695124Y-77197054D01*
X160711030Y-77211470D01*
X160725446Y-77227376D01*
X160738234Y-77244619D01*
X160749270Y-77263032D01*
X160758449Y-77282438D01*
X160765681Y-77302650D01*
X160770897Y-77323474D01*
X160774047Y-77344709D01*
X160775100Y-77366150D01*
X160775100Y-77878650D01*
X160774047Y-77900091D01*
X160770897Y-77921326D01*
X160765681Y-77942150D01*
X160758449Y-77962362D01*
X160749270Y-77981768D01*
X160738234Y-78000181D01*
X160725446Y-78017424D01*
X160711030Y-78033330D01*
X160695124Y-78047746D01*
X160677881Y-78060534D01*
X160659468Y-78071570D01*
X160640062Y-78080749D01*
X160619850Y-78087981D01*
X160599026Y-78093197D01*
X160577791Y-78096347D01*
X160556350Y-78097400D01*
X160118850Y-78097400D01*
X160097409Y-78096347D01*
X160076174Y-78093197D01*
X160055350Y-78087981D01*
X160035138Y-78080749D01*
X160015732Y-78071570D01*
X159997319Y-78060534D01*
X159980076Y-78047746D01*
X159964170Y-78033330D01*
X159949754Y-78017424D01*
X159936966Y-78000181D01*
X159925930Y-77981768D01*
X159916751Y-77962362D01*
X159909519Y-77942150D01*
X159904303Y-77921326D01*
X159901153Y-77900091D01*
X159900100Y-77878650D01*
X159900100Y-77366150D01*
X159901153Y-77344709D01*
X159904303Y-77323474D01*
X159909519Y-77302650D01*
X159916751Y-77282438D01*
X159925930Y-77263032D01*
X159936966Y-77244619D01*
X159949754Y-77227376D01*
X159964170Y-77211470D01*
X159980076Y-77197054D01*
X159997319Y-77184266D01*
X160015732Y-77173230D01*
X160035138Y-77164051D01*
X160055350Y-77156819D01*
X160076174Y-77151603D01*
X160097409Y-77148453D01*
X160118850Y-77147400D01*
X160556350Y-77147400D01*
X160577791Y-77148453D01*
X160577791Y-77148453D01*
G37*
D13*
X160337600Y-77622400D03*
%TD*%
D12*
%TO.C,C10*%
G36*
X159319791Y-52242953D02*
G01*
X159341026Y-52246103D01*
X159361850Y-52251319D01*
X159382062Y-52258551D01*
X159401468Y-52267730D01*
X159419881Y-52278766D01*
X159437124Y-52291554D01*
X159453030Y-52305970D01*
X159467446Y-52321876D01*
X159480234Y-52339119D01*
X159491270Y-52357532D01*
X159500449Y-52376938D01*
X159507681Y-52397150D01*
X159512897Y-52417974D01*
X159516047Y-52439209D01*
X159517100Y-52460650D01*
X159517100Y-52898150D01*
X159516047Y-52919591D01*
X159512897Y-52940826D01*
X159507681Y-52961650D01*
X159500449Y-52981862D01*
X159491270Y-53001268D01*
X159480234Y-53019681D01*
X159467446Y-53036924D01*
X159453030Y-53052830D01*
X159437124Y-53067246D01*
X159419881Y-53080034D01*
X159401468Y-53091070D01*
X159382062Y-53100249D01*
X159361850Y-53107481D01*
X159341026Y-53112697D01*
X159319791Y-53115847D01*
X159298350Y-53116900D01*
X158785850Y-53116900D01*
X158764409Y-53115847D01*
X158743174Y-53112697D01*
X158722350Y-53107481D01*
X158702138Y-53100249D01*
X158682732Y-53091070D01*
X158664319Y-53080034D01*
X158647076Y-53067246D01*
X158631170Y-53052830D01*
X158616754Y-53036924D01*
X158603966Y-53019681D01*
X158592930Y-53001268D01*
X158583751Y-52981862D01*
X158576519Y-52961650D01*
X158571303Y-52940826D01*
X158568153Y-52919591D01*
X158567100Y-52898150D01*
X158567100Y-52460650D01*
X158568153Y-52439209D01*
X158571303Y-52417974D01*
X158576519Y-52397150D01*
X158583751Y-52376938D01*
X158592930Y-52357532D01*
X158603966Y-52339119D01*
X158616754Y-52321876D01*
X158631170Y-52305970D01*
X158647076Y-52291554D01*
X158664319Y-52278766D01*
X158682732Y-52267730D01*
X158702138Y-52258551D01*
X158722350Y-52251319D01*
X158743174Y-52246103D01*
X158764409Y-52242953D01*
X158785850Y-52241900D01*
X159298350Y-52241900D01*
X159319791Y-52242953D01*
X159319791Y-52242953D01*
G37*
D13*
X159042100Y-52679400D03*
D12*
G36*
X159319791Y-53817953D02*
G01*
X159341026Y-53821103D01*
X159361850Y-53826319D01*
X159382062Y-53833551D01*
X159401468Y-53842730D01*
X159419881Y-53853766D01*
X159437124Y-53866554D01*
X159453030Y-53880970D01*
X159467446Y-53896876D01*
X159480234Y-53914119D01*
X159491270Y-53932532D01*
X159500449Y-53951938D01*
X159507681Y-53972150D01*
X159512897Y-53992974D01*
X159516047Y-54014209D01*
X159517100Y-54035650D01*
X159517100Y-54473150D01*
X159516047Y-54494591D01*
X159512897Y-54515826D01*
X159507681Y-54536650D01*
X159500449Y-54556862D01*
X159491270Y-54576268D01*
X159480234Y-54594681D01*
X159467446Y-54611924D01*
X159453030Y-54627830D01*
X159437124Y-54642246D01*
X159419881Y-54655034D01*
X159401468Y-54666070D01*
X159382062Y-54675249D01*
X159361850Y-54682481D01*
X159341026Y-54687697D01*
X159319791Y-54690847D01*
X159298350Y-54691900D01*
X158785850Y-54691900D01*
X158764409Y-54690847D01*
X158743174Y-54687697D01*
X158722350Y-54682481D01*
X158702138Y-54675249D01*
X158682732Y-54666070D01*
X158664319Y-54655034D01*
X158647076Y-54642246D01*
X158631170Y-54627830D01*
X158616754Y-54611924D01*
X158603966Y-54594681D01*
X158592930Y-54576268D01*
X158583751Y-54556862D01*
X158576519Y-54536650D01*
X158571303Y-54515826D01*
X158568153Y-54494591D01*
X158567100Y-54473150D01*
X158567100Y-54035650D01*
X158568153Y-54014209D01*
X158571303Y-53992974D01*
X158576519Y-53972150D01*
X158583751Y-53951938D01*
X158592930Y-53932532D01*
X158603966Y-53914119D01*
X158616754Y-53896876D01*
X158631170Y-53880970D01*
X158647076Y-53866554D01*
X158664319Y-53853766D01*
X158682732Y-53842730D01*
X158702138Y-53833551D01*
X158722350Y-53826319D01*
X158743174Y-53821103D01*
X158764409Y-53817953D01*
X158785850Y-53816900D01*
X159298350Y-53816900D01*
X159319791Y-53817953D01*
X159319791Y-53817953D01*
G37*
D13*
X159042100Y-54254400D03*
%TD*%
D12*
%TO.C,C9*%
G36*
X126033791Y-91118453D02*
G01*
X126055026Y-91121603D01*
X126075850Y-91126819D01*
X126096062Y-91134051D01*
X126115468Y-91143230D01*
X126133881Y-91154266D01*
X126151124Y-91167054D01*
X126167030Y-91181470D01*
X126181446Y-91197376D01*
X126194234Y-91214619D01*
X126205270Y-91233032D01*
X126214449Y-91252438D01*
X126221681Y-91272650D01*
X126226897Y-91293474D01*
X126230047Y-91314709D01*
X126231100Y-91336150D01*
X126231100Y-91848650D01*
X126230047Y-91870091D01*
X126226897Y-91891326D01*
X126221681Y-91912150D01*
X126214449Y-91932362D01*
X126205270Y-91951768D01*
X126194234Y-91970181D01*
X126181446Y-91987424D01*
X126167030Y-92003330D01*
X126151124Y-92017746D01*
X126133881Y-92030534D01*
X126115468Y-92041570D01*
X126096062Y-92050749D01*
X126075850Y-92057981D01*
X126055026Y-92063197D01*
X126033791Y-92066347D01*
X126012350Y-92067400D01*
X125574850Y-92067400D01*
X125553409Y-92066347D01*
X125532174Y-92063197D01*
X125511350Y-92057981D01*
X125491138Y-92050749D01*
X125471732Y-92041570D01*
X125453319Y-92030534D01*
X125436076Y-92017746D01*
X125420170Y-92003330D01*
X125405754Y-91987424D01*
X125392966Y-91970181D01*
X125381930Y-91951768D01*
X125372751Y-91932362D01*
X125365519Y-91912150D01*
X125360303Y-91891326D01*
X125357153Y-91870091D01*
X125356100Y-91848650D01*
X125356100Y-91336150D01*
X125357153Y-91314709D01*
X125360303Y-91293474D01*
X125365519Y-91272650D01*
X125372751Y-91252438D01*
X125381930Y-91233032D01*
X125392966Y-91214619D01*
X125405754Y-91197376D01*
X125420170Y-91181470D01*
X125436076Y-91167054D01*
X125453319Y-91154266D01*
X125471732Y-91143230D01*
X125491138Y-91134051D01*
X125511350Y-91126819D01*
X125532174Y-91121603D01*
X125553409Y-91118453D01*
X125574850Y-91117400D01*
X126012350Y-91117400D01*
X126033791Y-91118453D01*
X126033791Y-91118453D01*
G37*
D13*
X125793600Y-91592400D03*
D12*
G36*
X124458791Y-91118453D02*
G01*
X124480026Y-91121603D01*
X124500850Y-91126819D01*
X124521062Y-91134051D01*
X124540468Y-91143230D01*
X124558881Y-91154266D01*
X124576124Y-91167054D01*
X124592030Y-91181470D01*
X124606446Y-91197376D01*
X124619234Y-91214619D01*
X124630270Y-91233032D01*
X124639449Y-91252438D01*
X124646681Y-91272650D01*
X124651897Y-91293474D01*
X124655047Y-91314709D01*
X124656100Y-91336150D01*
X124656100Y-91848650D01*
X124655047Y-91870091D01*
X124651897Y-91891326D01*
X124646681Y-91912150D01*
X124639449Y-91932362D01*
X124630270Y-91951768D01*
X124619234Y-91970181D01*
X124606446Y-91987424D01*
X124592030Y-92003330D01*
X124576124Y-92017746D01*
X124558881Y-92030534D01*
X124540468Y-92041570D01*
X124521062Y-92050749D01*
X124500850Y-92057981D01*
X124480026Y-92063197D01*
X124458791Y-92066347D01*
X124437350Y-92067400D01*
X123999850Y-92067400D01*
X123978409Y-92066347D01*
X123957174Y-92063197D01*
X123936350Y-92057981D01*
X123916138Y-92050749D01*
X123896732Y-92041570D01*
X123878319Y-92030534D01*
X123861076Y-92017746D01*
X123845170Y-92003330D01*
X123830754Y-91987424D01*
X123817966Y-91970181D01*
X123806930Y-91951768D01*
X123797751Y-91932362D01*
X123790519Y-91912150D01*
X123785303Y-91891326D01*
X123782153Y-91870091D01*
X123781100Y-91848650D01*
X123781100Y-91336150D01*
X123782153Y-91314709D01*
X123785303Y-91293474D01*
X123790519Y-91272650D01*
X123797751Y-91252438D01*
X123806930Y-91233032D01*
X123817966Y-91214619D01*
X123830754Y-91197376D01*
X123845170Y-91181470D01*
X123861076Y-91167054D01*
X123878319Y-91154266D01*
X123896732Y-91143230D01*
X123916138Y-91134051D01*
X123936350Y-91126819D01*
X123957174Y-91121603D01*
X123978409Y-91118453D01*
X123999850Y-91117400D01*
X124437350Y-91117400D01*
X124458791Y-91118453D01*
X124458791Y-91118453D01*
G37*
D13*
X124218600Y-91592400D03*
%TD*%
D12*
%TO.C,C8*%
G36*
X158494791Y-90610453D02*
G01*
X158516026Y-90613603D01*
X158536850Y-90618819D01*
X158557062Y-90626051D01*
X158576468Y-90635230D01*
X158594881Y-90646266D01*
X158612124Y-90659054D01*
X158628030Y-90673470D01*
X158642446Y-90689376D01*
X158655234Y-90706619D01*
X158666270Y-90725032D01*
X158675449Y-90744438D01*
X158682681Y-90764650D01*
X158687897Y-90785474D01*
X158691047Y-90806709D01*
X158692100Y-90828150D01*
X158692100Y-91340650D01*
X158691047Y-91362091D01*
X158687897Y-91383326D01*
X158682681Y-91404150D01*
X158675449Y-91424362D01*
X158666270Y-91443768D01*
X158655234Y-91462181D01*
X158642446Y-91479424D01*
X158628030Y-91495330D01*
X158612124Y-91509746D01*
X158594881Y-91522534D01*
X158576468Y-91533570D01*
X158557062Y-91542749D01*
X158536850Y-91549981D01*
X158516026Y-91555197D01*
X158494791Y-91558347D01*
X158473350Y-91559400D01*
X158035850Y-91559400D01*
X158014409Y-91558347D01*
X157993174Y-91555197D01*
X157972350Y-91549981D01*
X157952138Y-91542749D01*
X157932732Y-91533570D01*
X157914319Y-91522534D01*
X157897076Y-91509746D01*
X157881170Y-91495330D01*
X157866754Y-91479424D01*
X157853966Y-91462181D01*
X157842930Y-91443768D01*
X157833751Y-91424362D01*
X157826519Y-91404150D01*
X157821303Y-91383326D01*
X157818153Y-91362091D01*
X157817100Y-91340650D01*
X157817100Y-90828150D01*
X157818153Y-90806709D01*
X157821303Y-90785474D01*
X157826519Y-90764650D01*
X157833751Y-90744438D01*
X157842930Y-90725032D01*
X157853966Y-90706619D01*
X157866754Y-90689376D01*
X157881170Y-90673470D01*
X157897076Y-90659054D01*
X157914319Y-90646266D01*
X157932732Y-90635230D01*
X157952138Y-90626051D01*
X157972350Y-90618819D01*
X157993174Y-90613603D01*
X158014409Y-90610453D01*
X158035850Y-90609400D01*
X158473350Y-90609400D01*
X158494791Y-90610453D01*
X158494791Y-90610453D01*
G37*
D13*
X158254600Y-91084400D03*
D12*
G36*
X160069791Y-90610453D02*
G01*
X160091026Y-90613603D01*
X160111850Y-90618819D01*
X160132062Y-90626051D01*
X160151468Y-90635230D01*
X160169881Y-90646266D01*
X160187124Y-90659054D01*
X160203030Y-90673470D01*
X160217446Y-90689376D01*
X160230234Y-90706619D01*
X160241270Y-90725032D01*
X160250449Y-90744438D01*
X160257681Y-90764650D01*
X160262897Y-90785474D01*
X160266047Y-90806709D01*
X160267100Y-90828150D01*
X160267100Y-91340650D01*
X160266047Y-91362091D01*
X160262897Y-91383326D01*
X160257681Y-91404150D01*
X160250449Y-91424362D01*
X160241270Y-91443768D01*
X160230234Y-91462181D01*
X160217446Y-91479424D01*
X160203030Y-91495330D01*
X160187124Y-91509746D01*
X160169881Y-91522534D01*
X160151468Y-91533570D01*
X160132062Y-91542749D01*
X160111850Y-91549981D01*
X160091026Y-91555197D01*
X160069791Y-91558347D01*
X160048350Y-91559400D01*
X159610850Y-91559400D01*
X159589409Y-91558347D01*
X159568174Y-91555197D01*
X159547350Y-91549981D01*
X159527138Y-91542749D01*
X159507732Y-91533570D01*
X159489319Y-91522534D01*
X159472076Y-91509746D01*
X159456170Y-91495330D01*
X159441754Y-91479424D01*
X159428966Y-91462181D01*
X159417930Y-91443768D01*
X159408751Y-91424362D01*
X159401519Y-91404150D01*
X159396303Y-91383326D01*
X159393153Y-91362091D01*
X159392100Y-91340650D01*
X159392100Y-90828150D01*
X159393153Y-90806709D01*
X159396303Y-90785474D01*
X159401519Y-90764650D01*
X159408751Y-90744438D01*
X159417930Y-90725032D01*
X159428966Y-90706619D01*
X159441754Y-90689376D01*
X159456170Y-90673470D01*
X159472076Y-90659054D01*
X159489319Y-90646266D01*
X159507732Y-90635230D01*
X159527138Y-90626051D01*
X159547350Y-90618819D01*
X159568174Y-90613603D01*
X159589409Y-90610453D01*
X159610850Y-90609400D01*
X160048350Y-90609400D01*
X160069791Y-90610453D01*
X160069791Y-90610453D01*
G37*
D13*
X159829600Y-91084400D03*
%TD*%
D12*
%TO.C,C7*%
G36*
X125525791Y-104834453D02*
G01*
X125547026Y-104837603D01*
X125567850Y-104842819D01*
X125588062Y-104850051D01*
X125607468Y-104859230D01*
X125625881Y-104870266D01*
X125643124Y-104883054D01*
X125659030Y-104897470D01*
X125673446Y-104913376D01*
X125686234Y-104930619D01*
X125697270Y-104949032D01*
X125706449Y-104968438D01*
X125713681Y-104988650D01*
X125718897Y-105009474D01*
X125722047Y-105030709D01*
X125723100Y-105052150D01*
X125723100Y-105564650D01*
X125722047Y-105586091D01*
X125718897Y-105607326D01*
X125713681Y-105628150D01*
X125706449Y-105648362D01*
X125697270Y-105667768D01*
X125686234Y-105686181D01*
X125673446Y-105703424D01*
X125659030Y-105719330D01*
X125643124Y-105733746D01*
X125625881Y-105746534D01*
X125607468Y-105757570D01*
X125588062Y-105766749D01*
X125567850Y-105773981D01*
X125547026Y-105779197D01*
X125525791Y-105782347D01*
X125504350Y-105783400D01*
X125066850Y-105783400D01*
X125045409Y-105782347D01*
X125024174Y-105779197D01*
X125003350Y-105773981D01*
X124983138Y-105766749D01*
X124963732Y-105757570D01*
X124945319Y-105746534D01*
X124928076Y-105733746D01*
X124912170Y-105719330D01*
X124897754Y-105703424D01*
X124884966Y-105686181D01*
X124873930Y-105667768D01*
X124864751Y-105648362D01*
X124857519Y-105628150D01*
X124852303Y-105607326D01*
X124849153Y-105586091D01*
X124848100Y-105564650D01*
X124848100Y-105052150D01*
X124849153Y-105030709D01*
X124852303Y-105009474D01*
X124857519Y-104988650D01*
X124864751Y-104968438D01*
X124873930Y-104949032D01*
X124884966Y-104930619D01*
X124897754Y-104913376D01*
X124912170Y-104897470D01*
X124928076Y-104883054D01*
X124945319Y-104870266D01*
X124963732Y-104859230D01*
X124983138Y-104850051D01*
X125003350Y-104842819D01*
X125024174Y-104837603D01*
X125045409Y-104834453D01*
X125066850Y-104833400D01*
X125504350Y-104833400D01*
X125525791Y-104834453D01*
X125525791Y-104834453D01*
G37*
D13*
X125285600Y-105308400D03*
D12*
G36*
X123950791Y-104834453D02*
G01*
X123972026Y-104837603D01*
X123992850Y-104842819D01*
X124013062Y-104850051D01*
X124032468Y-104859230D01*
X124050881Y-104870266D01*
X124068124Y-104883054D01*
X124084030Y-104897470D01*
X124098446Y-104913376D01*
X124111234Y-104930619D01*
X124122270Y-104949032D01*
X124131449Y-104968438D01*
X124138681Y-104988650D01*
X124143897Y-105009474D01*
X124147047Y-105030709D01*
X124148100Y-105052150D01*
X124148100Y-105564650D01*
X124147047Y-105586091D01*
X124143897Y-105607326D01*
X124138681Y-105628150D01*
X124131449Y-105648362D01*
X124122270Y-105667768D01*
X124111234Y-105686181D01*
X124098446Y-105703424D01*
X124084030Y-105719330D01*
X124068124Y-105733746D01*
X124050881Y-105746534D01*
X124032468Y-105757570D01*
X124013062Y-105766749D01*
X123992850Y-105773981D01*
X123972026Y-105779197D01*
X123950791Y-105782347D01*
X123929350Y-105783400D01*
X123491850Y-105783400D01*
X123470409Y-105782347D01*
X123449174Y-105779197D01*
X123428350Y-105773981D01*
X123408138Y-105766749D01*
X123388732Y-105757570D01*
X123370319Y-105746534D01*
X123353076Y-105733746D01*
X123337170Y-105719330D01*
X123322754Y-105703424D01*
X123309966Y-105686181D01*
X123298930Y-105667768D01*
X123289751Y-105648362D01*
X123282519Y-105628150D01*
X123277303Y-105607326D01*
X123274153Y-105586091D01*
X123273100Y-105564650D01*
X123273100Y-105052150D01*
X123274153Y-105030709D01*
X123277303Y-105009474D01*
X123282519Y-104988650D01*
X123289751Y-104968438D01*
X123298930Y-104949032D01*
X123309966Y-104930619D01*
X123322754Y-104913376D01*
X123337170Y-104897470D01*
X123353076Y-104883054D01*
X123370319Y-104870266D01*
X123388732Y-104859230D01*
X123408138Y-104850051D01*
X123428350Y-104842819D01*
X123449174Y-104837603D01*
X123470409Y-104834453D01*
X123491850Y-104833400D01*
X123929350Y-104833400D01*
X123950791Y-104834453D01*
X123950791Y-104834453D01*
G37*
D13*
X123710600Y-105308400D03*
%TD*%
D12*
%TO.C,C6*%
G36*
X158494791Y-103564453D02*
G01*
X158516026Y-103567603D01*
X158536850Y-103572819D01*
X158557062Y-103580051D01*
X158576468Y-103589230D01*
X158594881Y-103600266D01*
X158612124Y-103613054D01*
X158628030Y-103627470D01*
X158642446Y-103643376D01*
X158655234Y-103660619D01*
X158666270Y-103679032D01*
X158675449Y-103698438D01*
X158682681Y-103718650D01*
X158687897Y-103739474D01*
X158691047Y-103760709D01*
X158692100Y-103782150D01*
X158692100Y-104294650D01*
X158691047Y-104316091D01*
X158687897Y-104337326D01*
X158682681Y-104358150D01*
X158675449Y-104378362D01*
X158666270Y-104397768D01*
X158655234Y-104416181D01*
X158642446Y-104433424D01*
X158628030Y-104449330D01*
X158612124Y-104463746D01*
X158594881Y-104476534D01*
X158576468Y-104487570D01*
X158557062Y-104496749D01*
X158536850Y-104503981D01*
X158516026Y-104509197D01*
X158494791Y-104512347D01*
X158473350Y-104513400D01*
X158035850Y-104513400D01*
X158014409Y-104512347D01*
X157993174Y-104509197D01*
X157972350Y-104503981D01*
X157952138Y-104496749D01*
X157932732Y-104487570D01*
X157914319Y-104476534D01*
X157897076Y-104463746D01*
X157881170Y-104449330D01*
X157866754Y-104433424D01*
X157853966Y-104416181D01*
X157842930Y-104397768D01*
X157833751Y-104378362D01*
X157826519Y-104358150D01*
X157821303Y-104337326D01*
X157818153Y-104316091D01*
X157817100Y-104294650D01*
X157817100Y-103782150D01*
X157818153Y-103760709D01*
X157821303Y-103739474D01*
X157826519Y-103718650D01*
X157833751Y-103698438D01*
X157842930Y-103679032D01*
X157853966Y-103660619D01*
X157866754Y-103643376D01*
X157881170Y-103627470D01*
X157897076Y-103613054D01*
X157914319Y-103600266D01*
X157932732Y-103589230D01*
X157952138Y-103580051D01*
X157972350Y-103572819D01*
X157993174Y-103567603D01*
X158014409Y-103564453D01*
X158035850Y-103563400D01*
X158473350Y-103563400D01*
X158494791Y-103564453D01*
X158494791Y-103564453D01*
G37*
D13*
X158254600Y-104038400D03*
D12*
G36*
X160069791Y-103564453D02*
G01*
X160091026Y-103567603D01*
X160111850Y-103572819D01*
X160132062Y-103580051D01*
X160151468Y-103589230D01*
X160169881Y-103600266D01*
X160187124Y-103613054D01*
X160203030Y-103627470D01*
X160217446Y-103643376D01*
X160230234Y-103660619D01*
X160241270Y-103679032D01*
X160250449Y-103698438D01*
X160257681Y-103718650D01*
X160262897Y-103739474D01*
X160266047Y-103760709D01*
X160267100Y-103782150D01*
X160267100Y-104294650D01*
X160266047Y-104316091D01*
X160262897Y-104337326D01*
X160257681Y-104358150D01*
X160250449Y-104378362D01*
X160241270Y-104397768D01*
X160230234Y-104416181D01*
X160217446Y-104433424D01*
X160203030Y-104449330D01*
X160187124Y-104463746D01*
X160169881Y-104476534D01*
X160151468Y-104487570D01*
X160132062Y-104496749D01*
X160111850Y-104503981D01*
X160091026Y-104509197D01*
X160069791Y-104512347D01*
X160048350Y-104513400D01*
X159610850Y-104513400D01*
X159589409Y-104512347D01*
X159568174Y-104509197D01*
X159547350Y-104503981D01*
X159527138Y-104496749D01*
X159507732Y-104487570D01*
X159489319Y-104476534D01*
X159472076Y-104463746D01*
X159456170Y-104449330D01*
X159441754Y-104433424D01*
X159428966Y-104416181D01*
X159417930Y-104397768D01*
X159408751Y-104378362D01*
X159401519Y-104358150D01*
X159396303Y-104337326D01*
X159393153Y-104316091D01*
X159392100Y-104294650D01*
X159392100Y-103782150D01*
X159393153Y-103760709D01*
X159396303Y-103739474D01*
X159401519Y-103718650D01*
X159408751Y-103698438D01*
X159417930Y-103679032D01*
X159428966Y-103660619D01*
X159441754Y-103643376D01*
X159456170Y-103627470D01*
X159472076Y-103613054D01*
X159489319Y-103600266D01*
X159507732Y-103589230D01*
X159527138Y-103580051D01*
X159547350Y-103572819D01*
X159568174Y-103567603D01*
X159589409Y-103564453D01*
X159610850Y-103563400D01*
X160048350Y-103563400D01*
X160069791Y-103564453D01*
X160069791Y-103564453D01*
G37*
D13*
X159829600Y-104038400D03*
%TD*%
D12*
%TO.C,C5*%
G36*
X125027604Y-61000604D02*
G01*
X125051873Y-61004204D01*
X125075671Y-61010165D01*
X125098771Y-61018430D01*
X125120949Y-61028920D01*
X125141993Y-61041533D01*
X125161698Y-61056147D01*
X125179877Y-61072623D01*
X125196353Y-61090802D01*
X125210967Y-61110507D01*
X125223580Y-61131551D01*
X125234070Y-61153729D01*
X125242335Y-61176829D01*
X125248296Y-61200627D01*
X125251896Y-61224896D01*
X125253100Y-61249400D01*
X125253100Y-62499400D01*
X125251896Y-62523904D01*
X125248296Y-62548173D01*
X125242335Y-62571971D01*
X125234070Y-62595071D01*
X125223580Y-62617249D01*
X125210967Y-62638293D01*
X125196353Y-62657998D01*
X125179877Y-62676177D01*
X125161698Y-62692653D01*
X125141993Y-62707267D01*
X125120949Y-62719880D01*
X125098771Y-62730370D01*
X125075671Y-62738635D01*
X125051873Y-62744596D01*
X125027604Y-62748196D01*
X125003100Y-62749400D01*
X124253100Y-62749400D01*
X124228596Y-62748196D01*
X124204327Y-62744596D01*
X124180529Y-62738635D01*
X124157429Y-62730370D01*
X124135251Y-62719880D01*
X124114207Y-62707267D01*
X124094502Y-62692653D01*
X124076323Y-62676177D01*
X124059847Y-62657998D01*
X124045233Y-62638293D01*
X124032620Y-62617249D01*
X124022130Y-62595071D01*
X124013865Y-62571971D01*
X124007904Y-62548173D01*
X124004304Y-62523904D01*
X124003100Y-62499400D01*
X124003100Y-61249400D01*
X124004304Y-61224896D01*
X124007904Y-61200627D01*
X124013865Y-61176829D01*
X124022130Y-61153729D01*
X124032620Y-61131551D01*
X124045233Y-61110507D01*
X124059847Y-61090802D01*
X124076323Y-61072623D01*
X124094502Y-61056147D01*
X124114207Y-61041533D01*
X124135251Y-61028920D01*
X124157429Y-61018430D01*
X124180529Y-61010165D01*
X124204327Y-61004204D01*
X124228596Y-61000604D01*
X124253100Y-60999400D01*
X125003100Y-60999400D01*
X125027604Y-61000604D01*
X125027604Y-61000604D01*
G37*
D14*
X124628100Y-61874400D03*
D12*
G36*
X122227604Y-61000604D02*
G01*
X122251873Y-61004204D01*
X122275671Y-61010165D01*
X122298771Y-61018430D01*
X122320949Y-61028920D01*
X122341993Y-61041533D01*
X122361698Y-61056147D01*
X122379877Y-61072623D01*
X122396353Y-61090802D01*
X122410967Y-61110507D01*
X122423580Y-61131551D01*
X122434070Y-61153729D01*
X122442335Y-61176829D01*
X122448296Y-61200627D01*
X122451896Y-61224896D01*
X122453100Y-61249400D01*
X122453100Y-62499400D01*
X122451896Y-62523904D01*
X122448296Y-62548173D01*
X122442335Y-62571971D01*
X122434070Y-62595071D01*
X122423580Y-62617249D01*
X122410967Y-62638293D01*
X122396353Y-62657998D01*
X122379877Y-62676177D01*
X122361698Y-62692653D01*
X122341993Y-62707267D01*
X122320949Y-62719880D01*
X122298771Y-62730370D01*
X122275671Y-62738635D01*
X122251873Y-62744596D01*
X122227604Y-62748196D01*
X122203100Y-62749400D01*
X121453100Y-62749400D01*
X121428596Y-62748196D01*
X121404327Y-62744596D01*
X121380529Y-62738635D01*
X121357429Y-62730370D01*
X121335251Y-62719880D01*
X121314207Y-62707267D01*
X121294502Y-62692653D01*
X121276323Y-62676177D01*
X121259847Y-62657998D01*
X121245233Y-62638293D01*
X121232620Y-62617249D01*
X121222130Y-62595071D01*
X121213865Y-62571971D01*
X121207904Y-62548173D01*
X121204304Y-62523904D01*
X121203100Y-62499400D01*
X121203100Y-61249400D01*
X121204304Y-61224896D01*
X121207904Y-61200627D01*
X121213865Y-61176829D01*
X121222130Y-61153729D01*
X121232620Y-61131551D01*
X121245233Y-61110507D01*
X121259847Y-61090802D01*
X121276323Y-61072623D01*
X121294502Y-61056147D01*
X121314207Y-61041533D01*
X121335251Y-61028920D01*
X121357429Y-61018430D01*
X121380529Y-61010165D01*
X121404327Y-61004204D01*
X121428596Y-61000604D01*
X121453100Y-60999400D01*
X122203100Y-60999400D01*
X122227604Y-61000604D01*
X122227604Y-61000604D01*
G37*
D14*
X121828100Y-61874400D03*
%TD*%
D12*
%TO.C,C4*%
G36*
X125027604Y-58714604D02*
G01*
X125051873Y-58718204D01*
X125075671Y-58724165D01*
X125098771Y-58732430D01*
X125120949Y-58742920D01*
X125141993Y-58755533D01*
X125161698Y-58770147D01*
X125179877Y-58786623D01*
X125196353Y-58804802D01*
X125210967Y-58824507D01*
X125223580Y-58845551D01*
X125234070Y-58867729D01*
X125242335Y-58890829D01*
X125248296Y-58914627D01*
X125251896Y-58938896D01*
X125253100Y-58963400D01*
X125253100Y-60213400D01*
X125251896Y-60237904D01*
X125248296Y-60262173D01*
X125242335Y-60285971D01*
X125234070Y-60309071D01*
X125223580Y-60331249D01*
X125210967Y-60352293D01*
X125196353Y-60371998D01*
X125179877Y-60390177D01*
X125161698Y-60406653D01*
X125141993Y-60421267D01*
X125120949Y-60433880D01*
X125098771Y-60444370D01*
X125075671Y-60452635D01*
X125051873Y-60458596D01*
X125027604Y-60462196D01*
X125003100Y-60463400D01*
X124253100Y-60463400D01*
X124228596Y-60462196D01*
X124204327Y-60458596D01*
X124180529Y-60452635D01*
X124157429Y-60444370D01*
X124135251Y-60433880D01*
X124114207Y-60421267D01*
X124094502Y-60406653D01*
X124076323Y-60390177D01*
X124059847Y-60371998D01*
X124045233Y-60352293D01*
X124032620Y-60331249D01*
X124022130Y-60309071D01*
X124013865Y-60285971D01*
X124007904Y-60262173D01*
X124004304Y-60237904D01*
X124003100Y-60213400D01*
X124003100Y-58963400D01*
X124004304Y-58938896D01*
X124007904Y-58914627D01*
X124013865Y-58890829D01*
X124022130Y-58867729D01*
X124032620Y-58845551D01*
X124045233Y-58824507D01*
X124059847Y-58804802D01*
X124076323Y-58786623D01*
X124094502Y-58770147D01*
X124114207Y-58755533D01*
X124135251Y-58742920D01*
X124157429Y-58732430D01*
X124180529Y-58724165D01*
X124204327Y-58718204D01*
X124228596Y-58714604D01*
X124253100Y-58713400D01*
X125003100Y-58713400D01*
X125027604Y-58714604D01*
X125027604Y-58714604D01*
G37*
D14*
X124628100Y-59588400D03*
D12*
G36*
X122227604Y-58714604D02*
G01*
X122251873Y-58718204D01*
X122275671Y-58724165D01*
X122298771Y-58732430D01*
X122320949Y-58742920D01*
X122341993Y-58755533D01*
X122361698Y-58770147D01*
X122379877Y-58786623D01*
X122396353Y-58804802D01*
X122410967Y-58824507D01*
X122423580Y-58845551D01*
X122434070Y-58867729D01*
X122442335Y-58890829D01*
X122448296Y-58914627D01*
X122451896Y-58938896D01*
X122453100Y-58963400D01*
X122453100Y-60213400D01*
X122451896Y-60237904D01*
X122448296Y-60262173D01*
X122442335Y-60285971D01*
X122434070Y-60309071D01*
X122423580Y-60331249D01*
X122410967Y-60352293D01*
X122396353Y-60371998D01*
X122379877Y-60390177D01*
X122361698Y-60406653D01*
X122341993Y-60421267D01*
X122320949Y-60433880D01*
X122298771Y-60444370D01*
X122275671Y-60452635D01*
X122251873Y-60458596D01*
X122227604Y-60462196D01*
X122203100Y-60463400D01*
X121453100Y-60463400D01*
X121428596Y-60462196D01*
X121404327Y-60458596D01*
X121380529Y-60452635D01*
X121357429Y-60444370D01*
X121335251Y-60433880D01*
X121314207Y-60421267D01*
X121294502Y-60406653D01*
X121276323Y-60390177D01*
X121259847Y-60371998D01*
X121245233Y-60352293D01*
X121232620Y-60331249D01*
X121222130Y-60309071D01*
X121213865Y-60285971D01*
X121207904Y-60262173D01*
X121204304Y-60237904D01*
X121203100Y-60213400D01*
X121203100Y-58963400D01*
X121204304Y-58938896D01*
X121207904Y-58914627D01*
X121213865Y-58890829D01*
X121222130Y-58867729D01*
X121232620Y-58845551D01*
X121245233Y-58824507D01*
X121259847Y-58804802D01*
X121276323Y-58786623D01*
X121294502Y-58770147D01*
X121314207Y-58755533D01*
X121335251Y-58742920D01*
X121357429Y-58732430D01*
X121380529Y-58724165D01*
X121404327Y-58718204D01*
X121428596Y-58714604D01*
X121453100Y-58713400D01*
X122203100Y-58713400D01*
X122227604Y-58714604D01*
X122227604Y-58714604D01*
G37*
D14*
X121828100Y-59588400D03*
%TD*%
D12*
%TO.C,C3*%
G36*
X124992291Y-63432453D02*
G01*
X125013526Y-63435603D01*
X125034350Y-63440819D01*
X125054562Y-63448051D01*
X125073968Y-63457230D01*
X125092381Y-63468266D01*
X125109624Y-63481054D01*
X125125530Y-63495470D01*
X125139946Y-63511376D01*
X125152734Y-63528619D01*
X125163770Y-63547032D01*
X125172949Y-63566438D01*
X125180181Y-63586650D01*
X125185397Y-63607474D01*
X125188547Y-63628709D01*
X125189600Y-63650150D01*
X125189600Y-64162650D01*
X125188547Y-64184091D01*
X125185397Y-64205326D01*
X125180181Y-64226150D01*
X125172949Y-64246362D01*
X125163770Y-64265768D01*
X125152734Y-64284181D01*
X125139946Y-64301424D01*
X125125530Y-64317330D01*
X125109624Y-64331746D01*
X125092381Y-64344534D01*
X125073968Y-64355570D01*
X125054562Y-64364749D01*
X125034350Y-64371981D01*
X125013526Y-64377197D01*
X124992291Y-64380347D01*
X124970850Y-64381400D01*
X124533350Y-64381400D01*
X124511909Y-64380347D01*
X124490674Y-64377197D01*
X124469850Y-64371981D01*
X124449638Y-64364749D01*
X124430232Y-64355570D01*
X124411819Y-64344534D01*
X124394576Y-64331746D01*
X124378670Y-64317330D01*
X124364254Y-64301424D01*
X124351466Y-64284181D01*
X124340430Y-64265768D01*
X124331251Y-64246362D01*
X124324019Y-64226150D01*
X124318803Y-64205326D01*
X124315653Y-64184091D01*
X124314600Y-64162650D01*
X124314600Y-63650150D01*
X124315653Y-63628709D01*
X124318803Y-63607474D01*
X124324019Y-63586650D01*
X124331251Y-63566438D01*
X124340430Y-63547032D01*
X124351466Y-63528619D01*
X124364254Y-63511376D01*
X124378670Y-63495470D01*
X124394576Y-63481054D01*
X124411819Y-63468266D01*
X124430232Y-63457230D01*
X124449638Y-63448051D01*
X124469850Y-63440819D01*
X124490674Y-63435603D01*
X124511909Y-63432453D01*
X124533350Y-63431400D01*
X124970850Y-63431400D01*
X124992291Y-63432453D01*
X124992291Y-63432453D01*
G37*
D13*
X124752100Y-63906400D03*
D12*
G36*
X123417291Y-63432453D02*
G01*
X123438526Y-63435603D01*
X123459350Y-63440819D01*
X123479562Y-63448051D01*
X123498968Y-63457230D01*
X123517381Y-63468266D01*
X123534624Y-63481054D01*
X123550530Y-63495470D01*
X123564946Y-63511376D01*
X123577734Y-63528619D01*
X123588770Y-63547032D01*
X123597949Y-63566438D01*
X123605181Y-63586650D01*
X123610397Y-63607474D01*
X123613547Y-63628709D01*
X123614600Y-63650150D01*
X123614600Y-64162650D01*
X123613547Y-64184091D01*
X123610397Y-64205326D01*
X123605181Y-64226150D01*
X123597949Y-64246362D01*
X123588770Y-64265768D01*
X123577734Y-64284181D01*
X123564946Y-64301424D01*
X123550530Y-64317330D01*
X123534624Y-64331746D01*
X123517381Y-64344534D01*
X123498968Y-64355570D01*
X123479562Y-64364749D01*
X123459350Y-64371981D01*
X123438526Y-64377197D01*
X123417291Y-64380347D01*
X123395850Y-64381400D01*
X122958350Y-64381400D01*
X122936909Y-64380347D01*
X122915674Y-64377197D01*
X122894850Y-64371981D01*
X122874638Y-64364749D01*
X122855232Y-64355570D01*
X122836819Y-64344534D01*
X122819576Y-64331746D01*
X122803670Y-64317330D01*
X122789254Y-64301424D01*
X122776466Y-64284181D01*
X122765430Y-64265768D01*
X122756251Y-64246362D01*
X122749019Y-64226150D01*
X122743803Y-64205326D01*
X122740653Y-64184091D01*
X122739600Y-64162650D01*
X122739600Y-63650150D01*
X122740653Y-63628709D01*
X122743803Y-63607474D01*
X122749019Y-63586650D01*
X122756251Y-63566438D01*
X122765430Y-63547032D01*
X122776466Y-63528619D01*
X122789254Y-63511376D01*
X122803670Y-63495470D01*
X122819576Y-63481054D01*
X122836819Y-63468266D01*
X122855232Y-63457230D01*
X122874638Y-63448051D01*
X122894850Y-63440819D01*
X122915674Y-63435603D01*
X122936909Y-63432453D01*
X122958350Y-63431400D01*
X123395850Y-63431400D01*
X123417291Y-63432453D01*
X123417291Y-63432453D01*
G37*
D13*
X123177100Y-63906400D03*
%TD*%
D12*
%TO.C,C2*%
G36*
X125449591Y-118575853D02*
G01*
X125470826Y-118579003D01*
X125491650Y-118584219D01*
X125511862Y-118591451D01*
X125531268Y-118600630D01*
X125549681Y-118611666D01*
X125566924Y-118624454D01*
X125582830Y-118638870D01*
X125597246Y-118654776D01*
X125610034Y-118672019D01*
X125621070Y-118690432D01*
X125630249Y-118709838D01*
X125637481Y-118730050D01*
X125642697Y-118750874D01*
X125645847Y-118772109D01*
X125646900Y-118793550D01*
X125646900Y-119306050D01*
X125645847Y-119327491D01*
X125642697Y-119348726D01*
X125637481Y-119369550D01*
X125630249Y-119389762D01*
X125621070Y-119409168D01*
X125610034Y-119427581D01*
X125597246Y-119444824D01*
X125582830Y-119460730D01*
X125566924Y-119475146D01*
X125549681Y-119487934D01*
X125531268Y-119498970D01*
X125511862Y-119508149D01*
X125491650Y-119515381D01*
X125470826Y-119520597D01*
X125449591Y-119523747D01*
X125428150Y-119524800D01*
X124990650Y-119524800D01*
X124969209Y-119523747D01*
X124947974Y-119520597D01*
X124927150Y-119515381D01*
X124906938Y-119508149D01*
X124887532Y-119498970D01*
X124869119Y-119487934D01*
X124851876Y-119475146D01*
X124835970Y-119460730D01*
X124821554Y-119444824D01*
X124808766Y-119427581D01*
X124797730Y-119409168D01*
X124788551Y-119389762D01*
X124781319Y-119369550D01*
X124776103Y-119348726D01*
X124772953Y-119327491D01*
X124771900Y-119306050D01*
X124771900Y-118793550D01*
X124772953Y-118772109D01*
X124776103Y-118750874D01*
X124781319Y-118730050D01*
X124788551Y-118709838D01*
X124797730Y-118690432D01*
X124808766Y-118672019D01*
X124821554Y-118654776D01*
X124835970Y-118638870D01*
X124851876Y-118624454D01*
X124869119Y-118611666D01*
X124887532Y-118600630D01*
X124906938Y-118591451D01*
X124927150Y-118584219D01*
X124947974Y-118579003D01*
X124969209Y-118575853D01*
X124990650Y-118574800D01*
X125428150Y-118574800D01*
X125449591Y-118575853D01*
X125449591Y-118575853D01*
G37*
D13*
X125209400Y-119049800D03*
D12*
G36*
X123874591Y-118575853D02*
G01*
X123895826Y-118579003D01*
X123916650Y-118584219D01*
X123936862Y-118591451D01*
X123956268Y-118600630D01*
X123974681Y-118611666D01*
X123991924Y-118624454D01*
X124007830Y-118638870D01*
X124022246Y-118654776D01*
X124035034Y-118672019D01*
X124046070Y-118690432D01*
X124055249Y-118709838D01*
X124062481Y-118730050D01*
X124067697Y-118750874D01*
X124070847Y-118772109D01*
X124071900Y-118793550D01*
X124071900Y-119306050D01*
X124070847Y-119327491D01*
X124067697Y-119348726D01*
X124062481Y-119369550D01*
X124055249Y-119389762D01*
X124046070Y-119409168D01*
X124035034Y-119427581D01*
X124022246Y-119444824D01*
X124007830Y-119460730D01*
X123991924Y-119475146D01*
X123974681Y-119487934D01*
X123956268Y-119498970D01*
X123936862Y-119508149D01*
X123916650Y-119515381D01*
X123895826Y-119520597D01*
X123874591Y-119523747D01*
X123853150Y-119524800D01*
X123415650Y-119524800D01*
X123394209Y-119523747D01*
X123372974Y-119520597D01*
X123352150Y-119515381D01*
X123331938Y-119508149D01*
X123312532Y-119498970D01*
X123294119Y-119487934D01*
X123276876Y-119475146D01*
X123260970Y-119460730D01*
X123246554Y-119444824D01*
X123233766Y-119427581D01*
X123222730Y-119409168D01*
X123213551Y-119389762D01*
X123206319Y-119369550D01*
X123201103Y-119348726D01*
X123197953Y-119327491D01*
X123196900Y-119306050D01*
X123196900Y-118793550D01*
X123197953Y-118772109D01*
X123201103Y-118750874D01*
X123206319Y-118730050D01*
X123213551Y-118709838D01*
X123222730Y-118690432D01*
X123233766Y-118672019D01*
X123246554Y-118654776D01*
X123260970Y-118638870D01*
X123276876Y-118624454D01*
X123294119Y-118611666D01*
X123312532Y-118600630D01*
X123331938Y-118591451D01*
X123352150Y-118584219D01*
X123372974Y-118579003D01*
X123394209Y-118575853D01*
X123415650Y-118574800D01*
X123853150Y-118574800D01*
X123874591Y-118575853D01*
X123874591Y-118575853D01*
G37*
D13*
X123634400Y-119049800D03*
%TD*%
D12*
%TO.C,C1*%
G36*
X158723291Y-118042453D02*
G01*
X158744526Y-118045603D01*
X158765350Y-118050819D01*
X158785562Y-118058051D01*
X158804968Y-118067230D01*
X158823381Y-118078266D01*
X158840624Y-118091054D01*
X158856530Y-118105470D01*
X158870946Y-118121376D01*
X158883734Y-118138619D01*
X158894770Y-118157032D01*
X158903949Y-118176438D01*
X158911181Y-118196650D01*
X158916397Y-118217474D01*
X158919547Y-118238709D01*
X158920600Y-118260150D01*
X158920600Y-118772650D01*
X158919547Y-118794091D01*
X158916397Y-118815326D01*
X158911181Y-118836150D01*
X158903949Y-118856362D01*
X158894770Y-118875768D01*
X158883734Y-118894181D01*
X158870946Y-118911424D01*
X158856530Y-118927330D01*
X158840624Y-118941746D01*
X158823381Y-118954534D01*
X158804968Y-118965570D01*
X158785562Y-118974749D01*
X158765350Y-118981981D01*
X158744526Y-118987197D01*
X158723291Y-118990347D01*
X158701850Y-118991400D01*
X158264350Y-118991400D01*
X158242909Y-118990347D01*
X158221674Y-118987197D01*
X158200850Y-118981981D01*
X158180638Y-118974749D01*
X158161232Y-118965570D01*
X158142819Y-118954534D01*
X158125576Y-118941746D01*
X158109670Y-118927330D01*
X158095254Y-118911424D01*
X158082466Y-118894181D01*
X158071430Y-118875768D01*
X158062251Y-118856362D01*
X158055019Y-118836150D01*
X158049803Y-118815326D01*
X158046653Y-118794091D01*
X158045600Y-118772650D01*
X158045600Y-118260150D01*
X158046653Y-118238709D01*
X158049803Y-118217474D01*
X158055019Y-118196650D01*
X158062251Y-118176438D01*
X158071430Y-118157032D01*
X158082466Y-118138619D01*
X158095254Y-118121376D01*
X158109670Y-118105470D01*
X158125576Y-118091054D01*
X158142819Y-118078266D01*
X158161232Y-118067230D01*
X158180638Y-118058051D01*
X158200850Y-118050819D01*
X158221674Y-118045603D01*
X158242909Y-118042453D01*
X158264350Y-118041400D01*
X158701850Y-118041400D01*
X158723291Y-118042453D01*
X158723291Y-118042453D01*
G37*
D13*
X158483100Y-118516400D03*
D12*
G36*
X160298291Y-118042453D02*
G01*
X160319526Y-118045603D01*
X160340350Y-118050819D01*
X160360562Y-118058051D01*
X160379968Y-118067230D01*
X160398381Y-118078266D01*
X160415624Y-118091054D01*
X160431530Y-118105470D01*
X160445946Y-118121376D01*
X160458734Y-118138619D01*
X160469770Y-118157032D01*
X160478949Y-118176438D01*
X160486181Y-118196650D01*
X160491397Y-118217474D01*
X160494547Y-118238709D01*
X160495600Y-118260150D01*
X160495600Y-118772650D01*
X160494547Y-118794091D01*
X160491397Y-118815326D01*
X160486181Y-118836150D01*
X160478949Y-118856362D01*
X160469770Y-118875768D01*
X160458734Y-118894181D01*
X160445946Y-118911424D01*
X160431530Y-118927330D01*
X160415624Y-118941746D01*
X160398381Y-118954534D01*
X160379968Y-118965570D01*
X160360562Y-118974749D01*
X160340350Y-118981981D01*
X160319526Y-118987197D01*
X160298291Y-118990347D01*
X160276850Y-118991400D01*
X159839350Y-118991400D01*
X159817909Y-118990347D01*
X159796674Y-118987197D01*
X159775850Y-118981981D01*
X159755638Y-118974749D01*
X159736232Y-118965570D01*
X159717819Y-118954534D01*
X159700576Y-118941746D01*
X159684670Y-118927330D01*
X159670254Y-118911424D01*
X159657466Y-118894181D01*
X159646430Y-118875768D01*
X159637251Y-118856362D01*
X159630019Y-118836150D01*
X159624803Y-118815326D01*
X159621653Y-118794091D01*
X159620600Y-118772650D01*
X159620600Y-118260150D01*
X159621653Y-118238709D01*
X159624803Y-118217474D01*
X159630019Y-118196650D01*
X159637251Y-118176438D01*
X159646430Y-118157032D01*
X159657466Y-118138619D01*
X159670254Y-118121376D01*
X159684670Y-118105470D01*
X159700576Y-118091054D01*
X159717819Y-118078266D01*
X159736232Y-118067230D01*
X159755638Y-118058051D01*
X159775850Y-118050819D01*
X159796674Y-118045603D01*
X159817909Y-118042453D01*
X159839350Y-118041400D01*
X160276850Y-118041400D01*
X160298291Y-118042453D01*
X160298291Y-118042453D01*
G37*
D13*
X160058100Y-118516400D03*
%TD*%
M02*
