%TF.GenerationSoftware,KiCad,Pcbnew,(5.1.4)-1*%
%TF.CreationDate,2021-10-25T09:14:49+02:00*%
%TF.ProjectId,bbb-diffcape,6262622d-6469-4666-9663-6170652e6b69,rev?*%
%TF.SameCoordinates,Original*%
%TF.FileFunction,Legend,Top*%
%TF.FilePolarity,Positive*%
%FSLAX46Y46*%
G04 Gerber Fmt 4.6, Leading zero omitted, Abs format (unit mm)*
G04 Created by KiCad (PCBNEW (5.1.4)-1) date 2021-10-25 09:14:49*
%MOMM*%
%LPD*%
G04 APERTURE LIST*
%ADD10C,0.150000*%
%ADD11C,0.300000*%
%ADD12C,0.120000*%
G04 APERTURE END LIST*
D10*
X164828528Y-53039971D02*
X164971385Y-53087590D01*
X165019004Y-53135209D01*
X165066623Y-53230447D01*
X165066623Y-53373304D01*
X165019004Y-53468542D01*
X164971385Y-53516161D01*
X164876147Y-53563780D01*
X164495195Y-53563780D01*
X164495195Y-52563780D01*
X164828528Y-52563780D01*
X164923766Y-52611400D01*
X164971385Y-52659019D01*
X165019004Y-52754257D01*
X165019004Y-52849495D01*
X164971385Y-52944733D01*
X164923766Y-52992352D01*
X164828528Y-53039971D01*
X164495195Y-53039971D01*
X164519004Y-56834066D02*
X164995195Y-56834066D01*
X164423766Y-57119780D02*
X164757100Y-56119780D01*
X165090433Y-57119780D01*
X163995195Y-49182400D02*
X163899957Y-49134780D01*
X163757100Y-49134780D01*
X163614242Y-49182400D01*
X163519004Y-49277638D01*
X163471385Y-49372876D01*
X163423766Y-49563352D01*
X163423766Y-49706209D01*
X163471385Y-49896685D01*
X163519004Y-49991923D01*
X163614242Y-50087161D01*
X163757100Y-50134780D01*
X163852338Y-50134780D01*
X163995195Y-50087161D01*
X164042814Y-50039542D01*
X164042814Y-49706209D01*
X163852338Y-49706209D01*
X164471385Y-50134780D02*
X164471385Y-49134780D01*
X165042814Y-50134780D01*
X165042814Y-49134780D01*
X165519004Y-50134780D02*
X165519004Y-49134780D01*
X165757100Y-49134780D01*
X165899957Y-49182400D01*
X165995195Y-49277638D01*
X166042814Y-49372876D01*
X166090433Y-49563352D01*
X166090433Y-49706209D01*
X166042814Y-49896685D01*
X165995195Y-49991923D01*
X165899957Y-50087161D01*
X165757100Y-50134780D01*
X165519004Y-50134780D01*
X161756766Y-49007780D02*
X162375814Y-49007780D01*
X162042480Y-49388733D01*
X162185338Y-49388733D01*
X162280576Y-49436352D01*
X162328195Y-49483971D01*
X162375814Y-49579209D01*
X162375814Y-49817304D01*
X162328195Y-49912542D01*
X162280576Y-49960161D01*
X162185338Y-50007780D01*
X161899623Y-50007780D01*
X161804385Y-49960161D01*
X161756766Y-49912542D01*
X161804385Y-52532019D02*
X161852004Y-52484400D01*
X161947242Y-52436780D01*
X162185338Y-52436780D01*
X162280576Y-52484400D01*
X162328195Y-52532019D01*
X162375814Y-52627257D01*
X162375814Y-52722495D01*
X162328195Y-52865352D01*
X161756766Y-53436780D01*
X162375814Y-53436780D01*
X162375814Y-56865780D02*
X161804385Y-56865780D01*
X162090100Y-56865780D02*
X162090100Y-55865780D01*
X161994861Y-56008638D01*
X161899623Y-56103876D01*
X161804385Y-56151495D01*
D11*
X117398100Y-49555257D02*
X117326671Y-49698114D01*
X117326671Y-49912400D01*
X117398100Y-50126685D01*
X117540957Y-50269542D01*
X117683814Y-50340971D01*
X117969528Y-50412400D01*
X118183814Y-50412400D01*
X118469528Y-50340971D01*
X118612385Y-50269542D01*
X118755242Y-50126685D01*
X118826671Y-49912400D01*
X118826671Y-49769542D01*
X118755242Y-49555257D01*
X118683814Y-49483828D01*
X118183814Y-49483828D01*
X118183814Y-49769542D01*
X118826671Y-48840971D02*
X117326671Y-48840971D01*
X118826671Y-47983828D01*
X117326671Y-47983828D01*
X118826671Y-47269542D02*
X117326671Y-47269542D01*
X117326671Y-46912400D01*
X117398100Y-46698114D01*
X117540957Y-46555257D01*
X117683814Y-46483828D01*
X117969528Y-46412400D01*
X118183814Y-46412400D01*
X118469528Y-46483828D01*
X118612385Y-46555257D01*
X118755242Y-46698114D01*
X118826671Y-46912400D01*
X118826671Y-47269542D01*
X129177242Y-50848971D02*
X129177242Y-49706114D01*
X129748671Y-50277542D02*
X128605814Y-50277542D01*
X128248671Y-48277542D02*
X128248671Y-48991828D01*
X128962957Y-49063257D01*
X128891528Y-48991828D01*
X128820100Y-48848971D01*
X128820100Y-48491828D01*
X128891528Y-48348971D01*
X128962957Y-48277542D01*
X129105814Y-48206114D01*
X129462957Y-48206114D01*
X129605814Y-48277542D01*
X129677242Y-48348971D01*
X129748671Y-48491828D01*
X129748671Y-48848971D01*
X129677242Y-48991828D01*
X129605814Y-49063257D01*
X128248671Y-47777542D02*
X129748671Y-47277542D01*
X128248671Y-46777542D01*
X135091528Y-124754257D02*
X135305814Y-124825685D01*
X135377242Y-124897114D01*
X135448671Y-125039971D01*
X135448671Y-125254257D01*
X135377242Y-125397114D01*
X135305814Y-125468542D01*
X135162957Y-125539971D01*
X134591528Y-125539971D01*
X134591528Y-124039971D01*
X135091528Y-124039971D01*
X135234385Y-124111400D01*
X135305814Y-124182828D01*
X135377242Y-124325685D01*
X135377242Y-124468542D01*
X135305814Y-124611400D01*
X135234385Y-124682828D01*
X135091528Y-124754257D01*
X134591528Y-124754257D01*
X136591528Y-124754257D02*
X136805814Y-124825685D01*
X136877242Y-124897114D01*
X136948671Y-125039971D01*
X136948671Y-125254257D01*
X136877242Y-125397114D01*
X136805814Y-125468542D01*
X136662957Y-125539971D01*
X136091528Y-125539971D01*
X136091528Y-124039971D01*
X136591528Y-124039971D01*
X136734385Y-124111400D01*
X136805814Y-124182828D01*
X136877242Y-124325685D01*
X136877242Y-124468542D01*
X136805814Y-124611400D01*
X136734385Y-124682828D01*
X136591528Y-124754257D01*
X136091528Y-124754257D01*
X138091528Y-124754257D02*
X138305814Y-124825685D01*
X138377242Y-124897114D01*
X138448671Y-125039971D01*
X138448671Y-125254257D01*
X138377242Y-125397114D01*
X138305814Y-125468542D01*
X138162957Y-125539971D01*
X137591528Y-125539971D01*
X137591528Y-124039971D01*
X138091528Y-124039971D01*
X138234385Y-124111400D01*
X138305814Y-124182828D01*
X138377242Y-124325685D01*
X138377242Y-124468542D01*
X138305814Y-124611400D01*
X138234385Y-124682828D01*
X138091528Y-124754257D01*
X137591528Y-124754257D01*
X140234385Y-125539971D02*
X140234385Y-124039971D01*
X140591528Y-124039971D01*
X140805814Y-124111400D01*
X140948671Y-124254257D01*
X141020100Y-124397114D01*
X141091528Y-124682828D01*
X141091528Y-124897114D01*
X141020100Y-125182828D01*
X140948671Y-125325685D01*
X140805814Y-125468542D01*
X140591528Y-125539971D01*
X140234385Y-125539971D01*
X141734385Y-125539971D02*
X141734385Y-124539971D01*
X141734385Y-124039971D02*
X141662957Y-124111400D01*
X141734385Y-124182828D01*
X141805814Y-124111400D01*
X141734385Y-124039971D01*
X141734385Y-124182828D01*
X142234385Y-124539971D02*
X142805814Y-124539971D01*
X142448671Y-125539971D02*
X142448671Y-124254257D01*
X142520100Y-124111400D01*
X142662957Y-124039971D01*
X142805814Y-124039971D01*
X143091528Y-124539971D02*
X143662957Y-124539971D01*
X143305814Y-125539971D02*
X143305814Y-124254257D01*
X143377242Y-124111400D01*
X143520100Y-124039971D01*
X143662957Y-124039971D01*
X145020100Y-125397114D02*
X144948671Y-125468542D01*
X144734385Y-125539971D01*
X144591528Y-125539971D01*
X144377242Y-125468542D01*
X144234385Y-125325685D01*
X144162957Y-125182828D01*
X144091528Y-124897114D01*
X144091528Y-124682828D01*
X144162957Y-124397114D01*
X144234385Y-124254257D01*
X144377242Y-124111400D01*
X144591528Y-124039971D01*
X144734385Y-124039971D01*
X144948671Y-124111400D01*
X145020100Y-124182828D01*
X146305814Y-125539971D02*
X146305814Y-124754257D01*
X146234385Y-124611400D01*
X146091528Y-124539971D01*
X145805814Y-124539971D01*
X145662957Y-124611400D01*
X146305814Y-125468542D02*
X146162957Y-125539971D01*
X145805814Y-125539971D01*
X145662957Y-125468542D01*
X145591528Y-125325685D01*
X145591528Y-125182828D01*
X145662957Y-125039971D01*
X145805814Y-124968542D01*
X146162957Y-124968542D01*
X146305814Y-124897114D01*
X147020099Y-124539971D02*
X147020099Y-126039971D01*
X147020099Y-124611400D02*
X147162957Y-124539971D01*
X147448671Y-124539971D01*
X147591528Y-124611400D01*
X147662957Y-124682828D01*
X147734385Y-124825685D01*
X147734385Y-125254257D01*
X147662957Y-125397114D01*
X147591528Y-125468542D01*
X147448671Y-125539971D01*
X147162957Y-125539971D01*
X147020099Y-125468542D01*
X148948671Y-125468542D02*
X148805814Y-125539971D01*
X148520099Y-125539971D01*
X148377242Y-125468542D01*
X148305814Y-125325685D01*
X148305814Y-124754257D01*
X148377242Y-124611400D01*
X148520099Y-124539971D01*
X148805814Y-124539971D01*
X148948671Y-124611400D01*
X149020099Y-124754257D01*
X149020099Y-124897114D01*
X148305814Y-125039971D01*
X134162957Y-127304257D02*
X134377242Y-127375685D01*
X134448671Y-127447114D01*
X134520100Y-127589971D01*
X134520100Y-127804257D01*
X134448671Y-127947114D01*
X134377242Y-128018542D01*
X134234385Y-128089971D01*
X133662957Y-128089971D01*
X133662957Y-126589971D01*
X134162957Y-126589971D01*
X134305814Y-126661400D01*
X134377242Y-126732828D01*
X134448671Y-126875685D01*
X134448671Y-127018542D01*
X134377242Y-127161400D01*
X134305814Y-127232828D01*
X134162957Y-127304257D01*
X133662957Y-127304257D01*
X135162957Y-127304257D02*
X135662957Y-127304257D01*
X135877242Y-128089971D02*
X135162957Y-128089971D01*
X135162957Y-126589971D01*
X135877242Y-126589971D01*
X136520100Y-128089971D02*
X136520100Y-126589971D01*
X137091528Y-126589971D01*
X137234385Y-126661400D01*
X137305814Y-126732828D01*
X137377242Y-126875685D01*
X137377242Y-127089971D01*
X137305814Y-127232828D01*
X137234385Y-127304257D01*
X137091528Y-127375685D01*
X136520100Y-127375685D01*
X137948671Y-127661400D02*
X138662957Y-127661400D01*
X137805814Y-128089971D02*
X138305814Y-126589971D01*
X138805814Y-128089971D01*
X141234385Y-128089971D02*
X140377242Y-128089971D01*
X140805814Y-128089971D02*
X140805814Y-126589971D01*
X140662957Y-126804257D01*
X140520100Y-126947114D01*
X140377242Y-127018542D01*
X142662957Y-128089971D02*
X141805814Y-128089971D01*
X142234385Y-128089971D02*
X142234385Y-126589971D01*
X142091528Y-126804257D01*
X141948671Y-126947114D01*
X141805814Y-127018542D01*
X144377242Y-126518542D02*
X143091528Y-128447114D01*
X144805814Y-126732828D02*
X144877242Y-126661400D01*
X145020100Y-126589971D01*
X145377242Y-126589971D01*
X145520100Y-126661400D01*
X145591528Y-126732828D01*
X145662957Y-126875685D01*
X145662957Y-127018542D01*
X145591528Y-127232828D01*
X144734385Y-128089971D01*
X145662957Y-128089971D01*
X146591528Y-126589971D02*
X146734385Y-126589971D01*
X146877242Y-126661400D01*
X146948671Y-126732828D01*
X147020100Y-126875685D01*
X147091528Y-127161400D01*
X147091528Y-127518542D01*
X147020100Y-127804257D01*
X146948671Y-127947114D01*
X146877242Y-128018542D01*
X146734385Y-128089971D01*
X146591528Y-128089971D01*
X146448671Y-128018542D01*
X146377242Y-127947114D01*
X146305814Y-127804257D01*
X146234385Y-127518542D01*
X146234385Y-127161400D01*
X146305814Y-126875685D01*
X146377242Y-126732828D01*
X146448671Y-126661400D01*
X146591528Y-126589971D01*
X147662957Y-126732828D02*
X147734385Y-126661400D01*
X147877242Y-126589971D01*
X148234385Y-126589971D01*
X148377242Y-126661400D01*
X148448671Y-126732828D01*
X148520100Y-126875685D01*
X148520100Y-127018542D01*
X148448671Y-127232828D01*
X147591528Y-128089971D01*
X148520100Y-128089971D01*
X149948671Y-128089971D02*
X149091528Y-128089971D01*
X149520100Y-128089971D02*
X149520100Y-126589971D01*
X149377242Y-126804257D01*
X149234385Y-126947114D01*
X149091528Y-127018542D01*
D10*
%TO.C,U2*%
X122423100Y-112004400D02*
X122423100Y-112054400D01*
X126573100Y-112004400D02*
X126573100Y-112149400D01*
X126573100Y-117154400D02*
X126573100Y-117009400D01*
X122423100Y-117154400D02*
X122423100Y-117009400D01*
X122423100Y-112004400D02*
X126573100Y-112004400D01*
X122423100Y-117154400D02*
X126573100Y-117154400D01*
X122423100Y-112054400D02*
X121023100Y-112054400D01*
D12*
%TO.C,D2*%
X128437100Y-117571400D02*
X128437100Y-118501400D01*
X128437100Y-120731400D02*
X128437100Y-119801400D01*
X128437100Y-120731400D02*
X130597100Y-120731400D01*
X128437100Y-117571400D02*
X129897100Y-117571400D01*
%TO.C,R3*%
X132026879Y-122328400D02*
X131701321Y-122328400D01*
X132026879Y-121308400D02*
X131701321Y-121308400D01*
%TO.C,R2*%
X152465821Y-115847400D02*
X152791379Y-115847400D01*
X152465821Y-116867400D02*
X152791379Y-116867400D01*
D10*
%TO.C,U7*%
X161117100Y-76641400D02*
X161117100Y-76591400D01*
X156967100Y-76641400D02*
X156967100Y-76496400D01*
X156967100Y-71491400D02*
X156967100Y-71636400D01*
X161117100Y-71491400D02*
X161117100Y-71636400D01*
X161117100Y-76641400D02*
X156967100Y-76641400D01*
X161117100Y-71491400D02*
X156967100Y-71491400D01*
X161117100Y-76591400D02*
X162517100Y-76591400D01*
D12*
%TO.C,*%
X167078100Y-47984400D02*
X167078100Y-48734400D01*
X167938100Y-59044400D02*
X167938100Y-46924400D01*
X161428100Y-51484400D02*
X162428100Y-51734400D01*
X162428100Y-51734400D02*
X162428100Y-52234400D01*
X162428100Y-57234400D02*
X162428100Y-57734400D01*
X162778100Y-50984400D02*
X162778100Y-50234400D01*
X167078100Y-54984400D02*
X167078100Y-55734400D01*
X162778100Y-47984400D02*
X167078100Y-47984400D01*
X167078100Y-57984400D02*
X162778100Y-57984400D01*
X160468100Y-59044400D02*
X167938100Y-59044400D01*
X160468100Y-46924400D02*
X160468100Y-59044400D01*
X162428100Y-50234400D02*
X162428100Y-50734400D01*
X161428100Y-50984400D02*
X161428100Y-47984400D01*
X167078100Y-51484400D02*
X167078100Y-52234400D01*
X162778100Y-54484400D02*
X162778100Y-53734400D01*
X162778100Y-54984400D02*
X167078100Y-54984400D01*
X161428100Y-54484400D02*
X161428100Y-51484400D01*
X167078100Y-53734400D02*
X167078100Y-54484400D01*
X167938100Y-46924400D02*
X160468100Y-46924400D01*
X167078100Y-50984400D02*
X162778100Y-50984400D01*
X167078100Y-54484400D02*
X162778100Y-54484400D01*
X162428100Y-55234400D02*
X162428100Y-55734400D01*
X162778100Y-51484400D02*
X167078100Y-51484400D01*
X162778100Y-57234400D02*
X162428100Y-57234400D01*
X162428100Y-50734400D02*
X161428100Y-50984400D01*
X161428100Y-47984400D02*
X162428100Y-48234400D01*
X162778100Y-52234400D02*
X162778100Y-51484400D01*
X162778100Y-53734400D02*
X162428100Y-53734400D01*
X162428100Y-53734400D02*
X162428100Y-54234400D01*
X162778100Y-48734400D02*
X162778100Y-47984400D01*
X162778100Y-50234400D02*
X162428100Y-50234400D01*
X162428100Y-55734400D02*
X162778100Y-55734400D01*
X162428100Y-52234400D02*
X162778100Y-52234400D01*
X162778100Y-57984400D02*
X162778100Y-57234400D01*
X167078100Y-50234400D02*
X167078100Y-50984400D01*
X162428100Y-48234400D02*
X162428100Y-48734400D01*
X162428100Y-54234400D02*
X161428100Y-54484400D01*
X162778100Y-55734400D02*
X162778100Y-54984400D01*
X161428100Y-54984400D02*
X162428100Y-55234400D01*
X161428100Y-57984400D02*
X161428100Y-54984400D01*
X162428100Y-48734400D02*
X162778100Y-48734400D01*
X167078100Y-57234400D02*
X167078100Y-57984400D01*
X162428100Y-57734400D02*
X161428100Y-57984400D01*
X167077945Y-55734753D02*
G75*
G03X167078100Y-57234400I1700155J-749647D01*
G01*
X167077945Y-52234753D02*
G75*
G03X167078100Y-53734400I1700155J-749647D01*
G01*
X167077945Y-48734753D02*
G75*
G03X167078100Y-50234400I1700155J-749647D01*
G01*
D10*
%TO.C,P8*%
X163080100Y-60832400D02*
X163080100Y-62382400D01*
X165900100Y-63652400D02*
X163360100Y-63652400D01*
X165900100Y-61112400D02*
X165900100Y-63652400D01*
X164630100Y-60832400D02*
X163080100Y-60832400D01*
X168440100Y-61112400D02*
X165900100Y-61112400D01*
X168440100Y-119532400D02*
X163360100Y-119532400D01*
X163360100Y-119532400D02*
X163360100Y-63652400D01*
X168440100Y-119532400D02*
X168440100Y-61112400D01*
%TO.C,U4*%
X122423100Y-98542400D02*
X122423100Y-98592400D01*
X126573100Y-98542400D02*
X126573100Y-98687400D01*
X126573100Y-103692400D02*
X126573100Y-103547400D01*
X122423100Y-103692400D02*
X122423100Y-103547400D01*
X122423100Y-98542400D02*
X126573100Y-98542400D01*
X122423100Y-103692400D02*
X126573100Y-103692400D01*
X122423100Y-98592400D02*
X121023100Y-98592400D01*
D12*
%TO.C,F1*%
X121906100Y-55778400D02*
X123506100Y-55778400D01*
X124256100Y-57778400D02*
X121056100Y-57778400D01*
X121056100Y-53778400D02*
X124256100Y-53778400D01*
D10*
%TO.C,U8*%
X122550100Y-71999400D02*
X122550100Y-72049400D01*
X126700100Y-71999400D02*
X126700100Y-72144400D01*
X126700100Y-77149400D02*
X126700100Y-77004400D01*
X122550100Y-77149400D02*
X122550100Y-77004400D01*
X122550100Y-71999400D02*
X126700100Y-71999400D01*
X122550100Y-77149400D02*
X126700100Y-77149400D01*
X122550100Y-72049400D02*
X121150100Y-72049400D01*
%TO.C,U6*%
X122677100Y-85207400D02*
X122677100Y-85257400D01*
X126827100Y-85207400D02*
X126827100Y-85352400D01*
X126827100Y-90357400D02*
X126827100Y-90212400D01*
X122677100Y-90357400D02*
X122677100Y-90212400D01*
X122677100Y-85207400D02*
X126827100Y-85207400D01*
X122677100Y-90357400D02*
X126827100Y-90357400D01*
X122677100Y-85257400D02*
X121277100Y-85257400D01*
%TO.C,U5*%
X161117100Y-90103400D02*
X161117100Y-90053400D01*
X156967100Y-90103400D02*
X156967100Y-89958400D01*
X156967100Y-84953400D02*
X156967100Y-85098400D01*
X161117100Y-84953400D02*
X161117100Y-85098400D01*
X161117100Y-90103400D02*
X156967100Y-90103400D01*
X161117100Y-84953400D02*
X156967100Y-84953400D01*
X161117100Y-90053400D02*
X162517100Y-90053400D01*
%TO.C,U3*%
X161117100Y-103057400D02*
X161117100Y-103007400D01*
X156967100Y-103057400D02*
X156967100Y-102912400D01*
X156967100Y-97907400D02*
X156967100Y-98052400D01*
X161117100Y-97907400D02*
X161117100Y-98052400D01*
X161117100Y-103057400D02*
X156967100Y-103057400D01*
X161117100Y-97907400D02*
X156967100Y-97907400D01*
X161117100Y-103007400D02*
X162517100Y-103007400D01*
%TO.C,U1*%
X161117100Y-116900400D02*
X161117100Y-116850400D01*
X156967100Y-116900400D02*
X156967100Y-116755400D01*
X156967100Y-111750400D02*
X156967100Y-111895400D01*
X161117100Y-111750400D02*
X161117100Y-111895400D01*
X161117100Y-116900400D02*
X156967100Y-116900400D01*
X161117100Y-111750400D02*
X156967100Y-111750400D01*
X161117100Y-116850400D02*
X162517100Y-116850400D01*
D12*
%TO.C,R25*%
X133136100Y-78983621D02*
X133136100Y-79309179D01*
X132116100Y-78983621D02*
X132116100Y-79309179D01*
%TO.C,R24*%
X152440100Y-78729621D02*
X152440100Y-79055179D01*
X151420100Y-78729621D02*
X151420100Y-79055179D01*
%TO.C,R23*%
X132026879Y-77116400D02*
X131701321Y-77116400D01*
X132026879Y-76096400D02*
X131701321Y-76096400D01*
%TO.C,R22*%
X132026879Y-82196400D02*
X131701321Y-82196400D01*
X132026879Y-81176400D02*
X131701321Y-81176400D01*
%TO.C,R21*%
X152529321Y-75588400D02*
X152854879Y-75588400D01*
X152529321Y-76608400D02*
X152854879Y-76608400D01*
%TO.C,R20*%
X152529321Y-80922400D02*
X152854879Y-80922400D01*
X152529321Y-81942400D02*
X152854879Y-81942400D01*
%TO.C,R19*%
X133136100Y-92128121D02*
X133136100Y-92453679D01*
X132116100Y-92128121D02*
X132116100Y-92453679D01*
%TO.C,R18*%
X152440100Y-92064621D02*
X152440100Y-92390179D01*
X151420100Y-92064621D02*
X151420100Y-92390179D01*
%TO.C,R17*%
X132026879Y-90324400D02*
X131701321Y-90324400D01*
X132026879Y-89304400D02*
X131701321Y-89304400D01*
%TO.C,R16*%
X132026879Y-95404400D02*
X131701321Y-95404400D01*
X132026879Y-94384400D02*
X131701321Y-94384400D01*
%TO.C,R15*%
X152529321Y-88923400D02*
X152854879Y-88923400D01*
X152529321Y-89943400D02*
X152854879Y-89943400D01*
%TO.C,R14*%
X152529321Y-94257400D02*
X152854879Y-94257400D01*
X152529321Y-95277400D02*
X152854879Y-95277400D01*
%TO.C,R13*%
X133136100Y-105298021D02*
X133136100Y-105623579D01*
X132116100Y-105298021D02*
X132116100Y-105623579D01*
%TO.C,R12*%
X152440100Y-105399621D02*
X152440100Y-105725179D01*
X151420100Y-105399621D02*
X151420100Y-105725179D01*
%TO.C,R11*%
X132026879Y-103532400D02*
X131701321Y-103532400D01*
X132026879Y-102512400D02*
X131701321Y-102512400D01*
%TO.C,R10*%
X132026879Y-108866400D02*
X131701321Y-108866400D01*
X132026879Y-107846400D02*
X131701321Y-107846400D01*
%TO.C,R9*%
X152529321Y-102512400D02*
X152854879Y-102512400D01*
X152529321Y-103532400D02*
X152854879Y-103532400D01*
%TO.C,R8*%
X152529321Y-107719400D02*
X152854879Y-107719400D01*
X152529321Y-108739400D02*
X152854879Y-108739400D01*
%TO.C,R7*%
X128433100Y-64069179D02*
X128433100Y-63743621D01*
X129453100Y-64069179D02*
X129453100Y-63743621D01*
%TO.C,R6*%
X133136100Y-118988621D02*
X133136100Y-119314179D01*
X132116100Y-118988621D02*
X132116100Y-119314179D01*
%TO.C,R5*%
X152376600Y-118861621D02*
X152376600Y-119187179D01*
X151356600Y-118861621D02*
X151356600Y-119187179D01*
%TO.C,R4*%
X132026879Y-116994400D02*
X131701321Y-116994400D01*
X132026879Y-115974400D02*
X131701321Y-115974400D01*
%TO.C,R1*%
X152465821Y-121181400D02*
X152791379Y-121181400D01*
X152465821Y-122201400D02*
X152791379Y-122201400D01*
%TO.C,J9*%
X133854100Y-83428400D02*
X141324100Y-83428400D01*
X141324100Y-83428400D02*
X141324100Y-71308400D01*
X141324100Y-71308400D02*
X133854100Y-71308400D01*
X133854100Y-71308400D02*
X133854100Y-83428400D01*
X140464100Y-81618400D02*
X140464100Y-82368400D01*
X140464100Y-82368400D02*
X136164100Y-82368400D01*
X136164100Y-82368400D02*
X136164100Y-81618400D01*
X136164100Y-81618400D02*
X135814100Y-81618400D01*
X135814100Y-81618400D02*
X135814100Y-82118400D01*
X135814100Y-82118400D02*
X134814100Y-82368400D01*
X134814100Y-82368400D02*
X134814100Y-79368400D01*
X134814100Y-79368400D02*
X135814100Y-79618400D01*
X135814100Y-79618400D02*
X135814100Y-80118400D01*
X135814100Y-80118400D02*
X136164100Y-80118400D01*
X136164100Y-80118400D02*
X136164100Y-79368400D01*
X136164100Y-79368400D02*
X140464100Y-79368400D01*
X140464100Y-79368400D02*
X140464100Y-80118400D01*
X140464100Y-78118400D02*
X140464100Y-78868400D01*
X140464100Y-78868400D02*
X136164100Y-78868400D01*
X136164100Y-78868400D02*
X136164100Y-78118400D01*
X136164100Y-78118400D02*
X135814100Y-78118400D01*
X135814100Y-78118400D02*
X135814100Y-78618400D01*
X135814100Y-78618400D02*
X134814100Y-78868400D01*
X134814100Y-78868400D02*
X134814100Y-75868400D01*
X134814100Y-75868400D02*
X135814100Y-76118400D01*
X135814100Y-76118400D02*
X135814100Y-76618400D01*
X135814100Y-76618400D02*
X136164100Y-76618400D01*
X136164100Y-76618400D02*
X136164100Y-75868400D01*
X136164100Y-75868400D02*
X140464100Y-75868400D01*
X140464100Y-75868400D02*
X140464100Y-76618400D01*
X140464100Y-74618400D02*
X140464100Y-75368400D01*
X140464100Y-75368400D02*
X136164100Y-75368400D01*
X136164100Y-75368400D02*
X136164100Y-74618400D01*
X136164100Y-74618400D02*
X135814100Y-74618400D01*
X135814100Y-74618400D02*
X135814100Y-75118400D01*
X135814100Y-75118400D02*
X134814100Y-75368400D01*
X134814100Y-75368400D02*
X134814100Y-72368400D01*
X134814100Y-72368400D02*
X135814100Y-72618400D01*
X135814100Y-72618400D02*
X135814100Y-73118400D01*
X135814100Y-73118400D02*
X136164100Y-73118400D01*
X136164100Y-73118400D02*
X136164100Y-72368400D01*
X136164100Y-72368400D02*
X140464100Y-72368400D01*
X140464100Y-72368400D02*
X140464100Y-73118400D01*
X134714100Y-83818400D02*
X133464100Y-83818400D01*
X133464100Y-83818400D02*
X133464100Y-81818400D01*
X140463945Y-73118753D02*
G75*
G03X140464100Y-74618400I1700155J-749647D01*
G01*
X140463945Y-76618753D02*
G75*
G03X140464100Y-78118400I1700155J-749647D01*
G01*
X140463945Y-80118753D02*
G75*
G03X140464100Y-81618400I1700155J-749647D01*
G01*
%TO.C,J8*%
X143252100Y-83428400D02*
X150722100Y-83428400D01*
X150722100Y-83428400D02*
X150722100Y-71308400D01*
X150722100Y-71308400D02*
X143252100Y-71308400D01*
X143252100Y-71308400D02*
X143252100Y-83428400D01*
X149862100Y-81618400D02*
X149862100Y-82368400D01*
X149862100Y-82368400D02*
X145562100Y-82368400D01*
X145562100Y-82368400D02*
X145562100Y-81618400D01*
X145562100Y-81618400D02*
X145212100Y-81618400D01*
X145212100Y-81618400D02*
X145212100Y-82118400D01*
X145212100Y-82118400D02*
X144212100Y-82368400D01*
X144212100Y-82368400D02*
X144212100Y-79368400D01*
X144212100Y-79368400D02*
X145212100Y-79618400D01*
X145212100Y-79618400D02*
X145212100Y-80118400D01*
X145212100Y-80118400D02*
X145562100Y-80118400D01*
X145562100Y-80118400D02*
X145562100Y-79368400D01*
X145562100Y-79368400D02*
X149862100Y-79368400D01*
X149862100Y-79368400D02*
X149862100Y-80118400D01*
X149862100Y-78118400D02*
X149862100Y-78868400D01*
X149862100Y-78868400D02*
X145562100Y-78868400D01*
X145562100Y-78868400D02*
X145562100Y-78118400D01*
X145562100Y-78118400D02*
X145212100Y-78118400D01*
X145212100Y-78118400D02*
X145212100Y-78618400D01*
X145212100Y-78618400D02*
X144212100Y-78868400D01*
X144212100Y-78868400D02*
X144212100Y-75868400D01*
X144212100Y-75868400D02*
X145212100Y-76118400D01*
X145212100Y-76118400D02*
X145212100Y-76618400D01*
X145212100Y-76618400D02*
X145562100Y-76618400D01*
X145562100Y-76618400D02*
X145562100Y-75868400D01*
X145562100Y-75868400D02*
X149862100Y-75868400D01*
X149862100Y-75868400D02*
X149862100Y-76618400D01*
X149862100Y-74618400D02*
X149862100Y-75368400D01*
X149862100Y-75368400D02*
X145562100Y-75368400D01*
X145562100Y-75368400D02*
X145562100Y-74618400D01*
X145562100Y-74618400D02*
X145212100Y-74618400D01*
X145212100Y-74618400D02*
X145212100Y-75118400D01*
X145212100Y-75118400D02*
X144212100Y-75368400D01*
X144212100Y-75368400D02*
X144212100Y-72368400D01*
X144212100Y-72368400D02*
X145212100Y-72618400D01*
X145212100Y-72618400D02*
X145212100Y-73118400D01*
X145212100Y-73118400D02*
X145562100Y-73118400D01*
X145562100Y-73118400D02*
X145562100Y-72368400D01*
X145562100Y-72368400D02*
X149862100Y-72368400D01*
X149862100Y-72368400D02*
X149862100Y-73118400D01*
X144112100Y-83818400D02*
X142862100Y-83818400D01*
X142862100Y-83818400D02*
X142862100Y-81818400D01*
X149861945Y-73118753D02*
G75*
G03X149862100Y-74618400I1700155J-749647D01*
G01*
X149861945Y-76618753D02*
G75*
G03X149862100Y-78118400I1700155J-749647D01*
G01*
X149861945Y-80118753D02*
G75*
G03X149862100Y-81618400I1700155J-749647D01*
G01*
%TO.C,J7*%
X133854100Y-96628900D02*
X141324100Y-96628900D01*
X141324100Y-96628900D02*
X141324100Y-84508900D01*
X141324100Y-84508900D02*
X133854100Y-84508900D01*
X133854100Y-84508900D02*
X133854100Y-96628900D01*
X140464100Y-94818900D02*
X140464100Y-95568900D01*
X140464100Y-95568900D02*
X136164100Y-95568900D01*
X136164100Y-95568900D02*
X136164100Y-94818900D01*
X136164100Y-94818900D02*
X135814100Y-94818900D01*
X135814100Y-94818900D02*
X135814100Y-95318900D01*
X135814100Y-95318900D02*
X134814100Y-95568900D01*
X134814100Y-95568900D02*
X134814100Y-92568900D01*
X134814100Y-92568900D02*
X135814100Y-92818900D01*
X135814100Y-92818900D02*
X135814100Y-93318900D01*
X135814100Y-93318900D02*
X136164100Y-93318900D01*
X136164100Y-93318900D02*
X136164100Y-92568900D01*
X136164100Y-92568900D02*
X140464100Y-92568900D01*
X140464100Y-92568900D02*
X140464100Y-93318900D01*
X140464100Y-91318900D02*
X140464100Y-92068900D01*
X140464100Y-92068900D02*
X136164100Y-92068900D01*
X136164100Y-92068900D02*
X136164100Y-91318900D01*
X136164100Y-91318900D02*
X135814100Y-91318900D01*
X135814100Y-91318900D02*
X135814100Y-91818900D01*
X135814100Y-91818900D02*
X134814100Y-92068900D01*
X134814100Y-92068900D02*
X134814100Y-89068900D01*
X134814100Y-89068900D02*
X135814100Y-89318900D01*
X135814100Y-89318900D02*
X135814100Y-89818900D01*
X135814100Y-89818900D02*
X136164100Y-89818900D01*
X136164100Y-89818900D02*
X136164100Y-89068900D01*
X136164100Y-89068900D02*
X140464100Y-89068900D01*
X140464100Y-89068900D02*
X140464100Y-89818900D01*
X140464100Y-87818900D02*
X140464100Y-88568900D01*
X140464100Y-88568900D02*
X136164100Y-88568900D01*
X136164100Y-88568900D02*
X136164100Y-87818900D01*
X136164100Y-87818900D02*
X135814100Y-87818900D01*
X135814100Y-87818900D02*
X135814100Y-88318900D01*
X135814100Y-88318900D02*
X134814100Y-88568900D01*
X134814100Y-88568900D02*
X134814100Y-85568900D01*
X134814100Y-85568900D02*
X135814100Y-85818900D01*
X135814100Y-85818900D02*
X135814100Y-86318900D01*
X135814100Y-86318900D02*
X136164100Y-86318900D01*
X136164100Y-86318900D02*
X136164100Y-85568900D01*
X136164100Y-85568900D02*
X140464100Y-85568900D01*
X140464100Y-85568900D02*
X140464100Y-86318900D01*
X134714100Y-97018900D02*
X133464100Y-97018900D01*
X133464100Y-97018900D02*
X133464100Y-95018900D01*
X140463945Y-86319253D02*
G75*
G03X140464100Y-87818900I1700155J-749647D01*
G01*
X140463945Y-89819253D02*
G75*
G03X140464100Y-91318900I1700155J-749647D01*
G01*
X140463945Y-93319253D02*
G75*
G03X140464100Y-94818900I1700155J-749647D01*
G01*
%TO.C,J6*%
X143252100Y-96636400D02*
X150722100Y-96636400D01*
X150722100Y-96636400D02*
X150722100Y-84516400D01*
X150722100Y-84516400D02*
X143252100Y-84516400D01*
X143252100Y-84516400D02*
X143252100Y-96636400D01*
X149862100Y-94826400D02*
X149862100Y-95576400D01*
X149862100Y-95576400D02*
X145562100Y-95576400D01*
X145562100Y-95576400D02*
X145562100Y-94826400D01*
X145562100Y-94826400D02*
X145212100Y-94826400D01*
X145212100Y-94826400D02*
X145212100Y-95326400D01*
X145212100Y-95326400D02*
X144212100Y-95576400D01*
X144212100Y-95576400D02*
X144212100Y-92576400D01*
X144212100Y-92576400D02*
X145212100Y-92826400D01*
X145212100Y-92826400D02*
X145212100Y-93326400D01*
X145212100Y-93326400D02*
X145562100Y-93326400D01*
X145562100Y-93326400D02*
X145562100Y-92576400D01*
X145562100Y-92576400D02*
X149862100Y-92576400D01*
X149862100Y-92576400D02*
X149862100Y-93326400D01*
X149862100Y-91326400D02*
X149862100Y-92076400D01*
X149862100Y-92076400D02*
X145562100Y-92076400D01*
X145562100Y-92076400D02*
X145562100Y-91326400D01*
X145562100Y-91326400D02*
X145212100Y-91326400D01*
X145212100Y-91326400D02*
X145212100Y-91826400D01*
X145212100Y-91826400D02*
X144212100Y-92076400D01*
X144212100Y-92076400D02*
X144212100Y-89076400D01*
X144212100Y-89076400D02*
X145212100Y-89326400D01*
X145212100Y-89326400D02*
X145212100Y-89826400D01*
X145212100Y-89826400D02*
X145562100Y-89826400D01*
X145562100Y-89826400D02*
X145562100Y-89076400D01*
X145562100Y-89076400D02*
X149862100Y-89076400D01*
X149862100Y-89076400D02*
X149862100Y-89826400D01*
X149862100Y-87826400D02*
X149862100Y-88576400D01*
X149862100Y-88576400D02*
X145562100Y-88576400D01*
X145562100Y-88576400D02*
X145562100Y-87826400D01*
X145562100Y-87826400D02*
X145212100Y-87826400D01*
X145212100Y-87826400D02*
X145212100Y-88326400D01*
X145212100Y-88326400D02*
X144212100Y-88576400D01*
X144212100Y-88576400D02*
X144212100Y-85576400D01*
X144212100Y-85576400D02*
X145212100Y-85826400D01*
X145212100Y-85826400D02*
X145212100Y-86326400D01*
X145212100Y-86326400D02*
X145562100Y-86326400D01*
X145562100Y-86326400D02*
X145562100Y-85576400D01*
X145562100Y-85576400D02*
X149862100Y-85576400D01*
X149862100Y-85576400D02*
X149862100Y-86326400D01*
X144112100Y-97026400D02*
X142862100Y-97026400D01*
X142862100Y-97026400D02*
X142862100Y-95026400D01*
X149861945Y-86326753D02*
G75*
G03X149862100Y-87826400I1700155J-749647D01*
G01*
X149861945Y-89826753D02*
G75*
G03X149862100Y-91326400I1700155J-749647D01*
G01*
X149861945Y-93326753D02*
G75*
G03X149862100Y-94826400I1700155J-749647D01*
G01*
%TO.C,J5*%
X133854100Y-109844400D02*
X141324100Y-109844400D01*
X141324100Y-109844400D02*
X141324100Y-97724400D01*
X141324100Y-97724400D02*
X133854100Y-97724400D01*
X133854100Y-97724400D02*
X133854100Y-109844400D01*
X140464100Y-108034400D02*
X140464100Y-108784400D01*
X140464100Y-108784400D02*
X136164100Y-108784400D01*
X136164100Y-108784400D02*
X136164100Y-108034400D01*
X136164100Y-108034400D02*
X135814100Y-108034400D01*
X135814100Y-108034400D02*
X135814100Y-108534400D01*
X135814100Y-108534400D02*
X134814100Y-108784400D01*
X134814100Y-108784400D02*
X134814100Y-105784400D01*
X134814100Y-105784400D02*
X135814100Y-106034400D01*
X135814100Y-106034400D02*
X135814100Y-106534400D01*
X135814100Y-106534400D02*
X136164100Y-106534400D01*
X136164100Y-106534400D02*
X136164100Y-105784400D01*
X136164100Y-105784400D02*
X140464100Y-105784400D01*
X140464100Y-105784400D02*
X140464100Y-106534400D01*
X140464100Y-104534400D02*
X140464100Y-105284400D01*
X140464100Y-105284400D02*
X136164100Y-105284400D01*
X136164100Y-105284400D02*
X136164100Y-104534400D01*
X136164100Y-104534400D02*
X135814100Y-104534400D01*
X135814100Y-104534400D02*
X135814100Y-105034400D01*
X135814100Y-105034400D02*
X134814100Y-105284400D01*
X134814100Y-105284400D02*
X134814100Y-102284400D01*
X134814100Y-102284400D02*
X135814100Y-102534400D01*
X135814100Y-102534400D02*
X135814100Y-103034400D01*
X135814100Y-103034400D02*
X136164100Y-103034400D01*
X136164100Y-103034400D02*
X136164100Y-102284400D01*
X136164100Y-102284400D02*
X140464100Y-102284400D01*
X140464100Y-102284400D02*
X140464100Y-103034400D01*
X140464100Y-101034400D02*
X140464100Y-101784400D01*
X140464100Y-101784400D02*
X136164100Y-101784400D01*
X136164100Y-101784400D02*
X136164100Y-101034400D01*
X136164100Y-101034400D02*
X135814100Y-101034400D01*
X135814100Y-101034400D02*
X135814100Y-101534400D01*
X135814100Y-101534400D02*
X134814100Y-101784400D01*
X134814100Y-101784400D02*
X134814100Y-98784400D01*
X134814100Y-98784400D02*
X135814100Y-99034400D01*
X135814100Y-99034400D02*
X135814100Y-99534400D01*
X135814100Y-99534400D02*
X136164100Y-99534400D01*
X136164100Y-99534400D02*
X136164100Y-98784400D01*
X136164100Y-98784400D02*
X140464100Y-98784400D01*
X140464100Y-98784400D02*
X140464100Y-99534400D01*
X134714100Y-110234400D02*
X133464100Y-110234400D01*
X133464100Y-110234400D02*
X133464100Y-108234400D01*
X140463945Y-99534753D02*
G75*
G03X140464100Y-101034400I1700155J-749647D01*
G01*
X140463945Y-103034753D02*
G75*
G03X140464100Y-104534400I1700155J-749647D01*
G01*
X140463945Y-106534753D02*
G75*
G03X140464100Y-108034400I1700155J-749647D01*
G01*
%TO.C,J4*%
X143252100Y-109844400D02*
X150722100Y-109844400D01*
X150722100Y-109844400D02*
X150722100Y-97724400D01*
X150722100Y-97724400D02*
X143252100Y-97724400D01*
X143252100Y-97724400D02*
X143252100Y-109844400D01*
X149862100Y-108034400D02*
X149862100Y-108784400D01*
X149862100Y-108784400D02*
X145562100Y-108784400D01*
X145562100Y-108784400D02*
X145562100Y-108034400D01*
X145562100Y-108034400D02*
X145212100Y-108034400D01*
X145212100Y-108034400D02*
X145212100Y-108534400D01*
X145212100Y-108534400D02*
X144212100Y-108784400D01*
X144212100Y-108784400D02*
X144212100Y-105784400D01*
X144212100Y-105784400D02*
X145212100Y-106034400D01*
X145212100Y-106034400D02*
X145212100Y-106534400D01*
X145212100Y-106534400D02*
X145562100Y-106534400D01*
X145562100Y-106534400D02*
X145562100Y-105784400D01*
X145562100Y-105784400D02*
X149862100Y-105784400D01*
X149862100Y-105784400D02*
X149862100Y-106534400D01*
X149862100Y-104534400D02*
X149862100Y-105284400D01*
X149862100Y-105284400D02*
X145562100Y-105284400D01*
X145562100Y-105284400D02*
X145562100Y-104534400D01*
X145562100Y-104534400D02*
X145212100Y-104534400D01*
X145212100Y-104534400D02*
X145212100Y-105034400D01*
X145212100Y-105034400D02*
X144212100Y-105284400D01*
X144212100Y-105284400D02*
X144212100Y-102284400D01*
X144212100Y-102284400D02*
X145212100Y-102534400D01*
X145212100Y-102534400D02*
X145212100Y-103034400D01*
X145212100Y-103034400D02*
X145562100Y-103034400D01*
X145562100Y-103034400D02*
X145562100Y-102284400D01*
X145562100Y-102284400D02*
X149862100Y-102284400D01*
X149862100Y-102284400D02*
X149862100Y-103034400D01*
X149862100Y-101034400D02*
X149862100Y-101784400D01*
X149862100Y-101784400D02*
X145562100Y-101784400D01*
X145562100Y-101784400D02*
X145562100Y-101034400D01*
X145562100Y-101034400D02*
X145212100Y-101034400D01*
X145212100Y-101034400D02*
X145212100Y-101534400D01*
X145212100Y-101534400D02*
X144212100Y-101784400D01*
X144212100Y-101784400D02*
X144212100Y-98784400D01*
X144212100Y-98784400D02*
X145212100Y-99034400D01*
X145212100Y-99034400D02*
X145212100Y-99534400D01*
X145212100Y-99534400D02*
X145562100Y-99534400D01*
X145562100Y-99534400D02*
X145562100Y-98784400D01*
X145562100Y-98784400D02*
X149862100Y-98784400D01*
X149862100Y-98784400D02*
X149862100Y-99534400D01*
X144112100Y-110234400D02*
X142862100Y-110234400D01*
X142862100Y-110234400D02*
X142862100Y-108234400D01*
X149861945Y-99534753D02*
G75*
G03X149862100Y-101034400I1700155J-749647D01*
G01*
X149861945Y-103034753D02*
G75*
G03X149862100Y-104534400I1700155J-749647D01*
G01*
X149861945Y-106534753D02*
G75*
G03X149862100Y-108034400I1700155J-749647D01*
G01*
%TO.C,J3*%
X133854100Y-123179400D02*
X141324100Y-123179400D01*
X141324100Y-123179400D02*
X141324100Y-111059400D01*
X141324100Y-111059400D02*
X133854100Y-111059400D01*
X133854100Y-111059400D02*
X133854100Y-123179400D01*
X140464100Y-121369400D02*
X140464100Y-122119400D01*
X140464100Y-122119400D02*
X136164100Y-122119400D01*
X136164100Y-122119400D02*
X136164100Y-121369400D01*
X136164100Y-121369400D02*
X135814100Y-121369400D01*
X135814100Y-121369400D02*
X135814100Y-121869400D01*
X135814100Y-121869400D02*
X134814100Y-122119400D01*
X134814100Y-122119400D02*
X134814100Y-119119400D01*
X134814100Y-119119400D02*
X135814100Y-119369400D01*
X135814100Y-119369400D02*
X135814100Y-119869400D01*
X135814100Y-119869400D02*
X136164100Y-119869400D01*
X136164100Y-119869400D02*
X136164100Y-119119400D01*
X136164100Y-119119400D02*
X140464100Y-119119400D01*
X140464100Y-119119400D02*
X140464100Y-119869400D01*
X140464100Y-117869400D02*
X140464100Y-118619400D01*
X140464100Y-118619400D02*
X136164100Y-118619400D01*
X136164100Y-118619400D02*
X136164100Y-117869400D01*
X136164100Y-117869400D02*
X135814100Y-117869400D01*
X135814100Y-117869400D02*
X135814100Y-118369400D01*
X135814100Y-118369400D02*
X134814100Y-118619400D01*
X134814100Y-118619400D02*
X134814100Y-115619400D01*
X134814100Y-115619400D02*
X135814100Y-115869400D01*
X135814100Y-115869400D02*
X135814100Y-116369400D01*
X135814100Y-116369400D02*
X136164100Y-116369400D01*
X136164100Y-116369400D02*
X136164100Y-115619400D01*
X136164100Y-115619400D02*
X140464100Y-115619400D01*
X140464100Y-115619400D02*
X140464100Y-116369400D01*
X140464100Y-114369400D02*
X140464100Y-115119400D01*
X140464100Y-115119400D02*
X136164100Y-115119400D01*
X136164100Y-115119400D02*
X136164100Y-114369400D01*
X136164100Y-114369400D02*
X135814100Y-114369400D01*
X135814100Y-114369400D02*
X135814100Y-114869400D01*
X135814100Y-114869400D02*
X134814100Y-115119400D01*
X134814100Y-115119400D02*
X134814100Y-112119400D01*
X134814100Y-112119400D02*
X135814100Y-112369400D01*
X135814100Y-112369400D02*
X135814100Y-112869400D01*
X135814100Y-112869400D02*
X136164100Y-112869400D01*
X136164100Y-112869400D02*
X136164100Y-112119400D01*
X136164100Y-112119400D02*
X140464100Y-112119400D01*
X140464100Y-112119400D02*
X140464100Y-112869400D01*
X134714100Y-123569400D02*
X133464100Y-123569400D01*
X133464100Y-123569400D02*
X133464100Y-121569400D01*
X140463945Y-112869753D02*
G75*
G03X140464100Y-114369400I1700155J-749647D01*
G01*
X140463945Y-116369753D02*
G75*
G03X140464100Y-117869400I1700155J-749647D01*
G01*
X140463945Y-119869753D02*
G75*
G03X140464100Y-121369400I1700155J-749647D01*
G01*
%TO.C,J2*%
X143252100Y-123179400D02*
X150722100Y-123179400D01*
X150722100Y-123179400D02*
X150722100Y-111059400D01*
X150722100Y-111059400D02*
X143252100Y-111059400D01*
X143252100Y-111059400D02*
X143252100Y-123179400D01*
X149862100Y-121369400D02*
X149862100Y-122119400D01*
X149862100Y-122119400D02*
X145562100Y-122119400D01*
X145562100Y-122119400D02*
X145562100Y-121369400D01*
X145562100Y-121369400D02*
X145212100Y-121369400D01*
X145212100Y-121369400D02*
X145212100Y-121869400D01*
X145212100Y-121869400D02*
X144212100Y-122119400D01*
X144212100Y-122119400D02*
X144212100Y-119119400D01*
X144212100Y-119119400D02*
X145212100Y-119369400D01*
X145212100Y-119369400D02*
X145212100Y-119869400D01*
X145212100Y-119869400D02*
X145562100Y-119869400D01*
X145562100Y-119869400D02*
X145562100Y-119119400D01*
X145562100Y-119119400D02*
X149862100Y-119119400D01*
X149862100Y-119119400D02*
X149862100Y-119869400D01*
X149862100Y-117869400D02*
X149862100Y-118619400D01*
X149862100Y-118619400D02*
X145562100Y-118619400D01*
X145562100Y-118619400D02*
X145562100Y-117869400D01*
X145562100Y-117869400D02*
X145212100Y-117869400D01*
X145212100Y-117869400D02*
X145212100Y-118369400D01*
X145212100Y-118369400D02*
X144212100Y-118619400D01*
X144212100Y-118619400D02*
X144212100Y-115619400D01*
X144212100Y-115619400D02*
X145212100Y-115869400D01*
X145212100Y-115869400D02*
X145212100Y-116369400D01*
X145212100Y-116369400D02*
X145562100Y-116369400D01*
X145562100Y-116369400D02*
X145562100Y-115619400D01*
X145562100Y-115619400D02*
X149862100Y-115619400D01*
X149862100Y-115619400D02*
X149862100Y-116369400D01*
X149862100Y-114369400D02*
X149862100Y-115119400D01*
X149862100Y-115119400D02*
X145562100Y-115119400D01*
X145562100Y-115119400D02*
X145562100Y-114369400D01*
X145562100Y-114369400D02*
X145212100Y-114369400D01*
X145212100Y-114369400D02*
X145212100Y-114869400D01*
X145212100Y-114869400D02*
X144212100Y-115119400D01*
X144212100Y-115119400D02*
X144212100Y-112119400D01*
X144212100Y-112119400D02*
X145212100Y-112369400D01*
X145212100Y-112369400D02*
X145212100Y-112869400D01*
X145212100Y-112869400D02*
X145562100Y-112869400D01*
X145562100Y-112869400D02*
X145562100Y-112119400D01*
X145562100Y-112119400D02*
X149862100Y-112119400D01*
X149862100Y-112119400D02*
X149862100Y-112869400D01*
X144112100Y-123569400D02*
X142862100Y-123569400D01*
X142862100Y-123569400D02*
X142862100Y-121569400D01*
X149861945Y-112869753D02*
G75*
G03X149862100Y-114369400I1700155J-749647D01*
G01*
X149861945Y-116369753D02*
G75*
G03X149862100Y-117869400I1700155J-749647D01*
G01*
X149861945Y-119869753D02*
G75*
G03X149862100Y-121369400I1700155J-749647D01*
G01*
%TO.C,J1*%
X127883600Y-52518400D02*
X127883600Y-45048400D01*
X127883600Y-45048400D02*
X119263600Y-45048400D01*
X119263600Y-45048400D02*
X119263600Y-52518400D01*
X119263600Y-52518400D02*
X127883600Y-52518400D01*
X126073600Y-45908400D02*
X126823600Y-45908400D01*
X126823600Y-45908400D02*
X126823600Y-50208400D01*
X126823600Y-50208400D02*
X126073600Y-50208400D01*
X126073600Y-50208400D02*
X126073600Y-50558400D01*
X126073600Y-50558400D02*
X126573600Y-50558400D01*
X126573600Y-50558400D02*
X126823600Y-51558400D01*
X126823600Y-51558400D02*
X123823600Y-51558400D01*
X123823600Y-51558400D02*
X124073600Y-50558400D01*
X124073600Y-50558400D02*
X124573600Y-50558400D01*
X124573600Y-50558400D02*
X124573600Y-50208400D01*
X124573600Y-50208400D02*
X123823600Y-50208400D01*
X123823600Y-50208400D02*
X123823600Y-45908400D01*
X123823600Y-45908400D02*
X124573600Y-45908400D01*
X122573600Y-45908400D02*
X123323600Y-45908400D01*
X123323600Y-45908400D02*
X123323600Y-50208400D01*
X123323600Y-50208400D02*
X122573600Y-50208400D01*
X122573600Y-50208400D02*
X122573600Y-50558400D01*
X122573600Y-50558400D02*
X123073600Y-50558400D01*
X123073600Y-50558400D02*
X123323600Y-51558400D01*
X123323600Y-51558400D02*
X120323600Y-51558400D01*
X120323600Y-51558400D02*
X120573600Y-50558400D01*
X120573600Y-50558400D02*
X121073600Y-50558400D01*
X121073600Y-50558400D02*
X121073600Y-50208400D01*
X121073600Y-50208400D02*
X120323600Y-50208400D01*
X120323600Y-50208400D02*
X120323600Y-45908400D01*
X120323600Y-45908400D02*
X121073600Y-45908400D01*
X128273600Y-51658400D02*
X128273600Y-52908400D01*
X128273600Y-52908400D02*
X126273600Y-52908400D01*
X121073953Y-45908555D02*
G75*
G03X122573600Y-45908400I749647J1700155D01*
G01*
X124573953Y-45908555D02*
G75*
G03X126073600Y-45908400I749647J1700155D01*
G01*
%TO.C,D9*%
X128183100Y-77566400D02*
X128183100Y-78496400D01*
X128183100Y-80726400D02*
X128183100Y-79796400D01*
X128183100Y-80726400D02*
X130343100Y-80726400D01*
X128183100Y-77566400D02*
X129643100Y-77566400D01*
%TO.C,D8*%
X154853100Y-77185400D02*
X154853100Y-78115400D01*
X154853100Y-80345400D02*
X154853100Y-79415400D01*
X154853100Y-80345400D02*
X157013100Y-80345400D01*
X154853100Y-77185400D02*
X156313100Y-77185400D01*
%TO.C,D7*%
X128310100Y-90774400D02*
X128310100Y-91704400D01*
X128310100Y-93934400D02*
X128310100Y-93004400D01*
X128310100Y-93934400D02*
X130470100Y-93934400D01*
X128310100Y-90774400D02*
X129770100Y-90774400D01*
%TO.C,D6*%
X154091100Y-90520400D02*
X154091100Y-91450400D01*
X154091100Y-93680400D02*
X154091100Y-92750400D01*
X154091100Y-93680400D02*
X156251100Y-93680400D01*
X154091100Y-90520400D02*
X155551100Y-90520400D01*
%TO.C,D5*%
X128564100Y-104109400D02*
X128564100Y-105039400D01*
X128564100Y-107269400D02*
X128564100Y-106339400D01*
X128564100Y-107269400D02*
X130724100Y-107269400D01*
X128564100Y-104109400D02*
X130024100Y-104109400D01*
%TO.C,D4*%
X154726100Y-103982400D02*
X154726100Y-104912400D01*
X154726100Y-107142400D02*
X154726100Y-106212400D01*
X154726100Y-107142400D02*
X156886100Y-107142400D01*
X154726100Y-103982400D02*
X156186100Y-103982400D01*
%TO.C,D3*%
X129678100Y-61658400D02*
X129678100Y-59373400D01*
X129678100Y-59373400D02*
X128208100Y-59373400D01*
X128208100Y-59373400D02*
X128208100Y-61658400D01*
%TO.C,D1*%
X154218100Y-117444400D02*
X154218100Y-118374400D01*
X154218100Y-120604400D02*
X154218100Y-119674400D01*
X154218100Y-120604400D02*
X156378100Y-120604400D01*
X154218100Y-117444400D02*
X155678100Y-117444400D01*
%TO.C,C12*%
X124335321Y-77874400D02*
X124660879Y-77874400D01*
X124335321Y-78894400D02*
X124660879Y-78894400D01*
%TO.C,C11*%
X159712879Y-78132400D02*
X159387321Y-78132400D01*
X159712879Y-77112400D02*
X159387321Y-77112400D01*
%TO.C,C10*%
X158532100Y-53629679D02*
X158532100Y-53304121D01*
X159552100Y-53629679D02*
X159552100Y-53304121D01*
%TO.C,C9*%
X124843321Y-91082400D02*
X125168879Y-91082400D01*
X124843321Y-92102400D02*
X125168879Y-92102400D01*
%TO.C,C8*%
X159204879Y-91594400D02*
X158879321Y-91594400D01*
X159204879Y-90574400D02*
X158879321Y-90574400D01*
%TO.C,C7*%
X124335321Y-104798400D02*
X124660879Y-104798400D01*
X124335321Y-105818400D02*
X124660879Y-105818400D01*
%TO.C,C6*%
X159204879Y-104548400D02*
X158879321Y-104548400D01*
X159204879Y-103528400D02*
X158879321Y-103528400D01*
%TO.C,C5*%
X122626036Y-60964400D02*
X123830164Y-60964400D01*
X122626036Y-62784400D02*
X123830164Y-62784400D01*
%TO.C,C4*%
X122626036Y-58678400D02*
X123830164Y-58678400D01*
X122626036Y-60498400D02*
X123830164Y-60498400D01*
%TO.C,C3*%
X123801821Y-63396400D02*
X124127379Y-63396400D01*
X123801821Y-64416400D02*
X124127379Y-64416400D01*
%TO.C,C2*%
X124259121Y-118539800D02*
X124584679Y-118539800D01*
X124259121Y-119559800D02*
X124584679Y-119559800D01*
%TO.C,C1*%
X159433379Y-119026400D02*
X159107821Y-119026400D01*
X159433379Y-118006400D02*
X159107821Y-118006400D01*
%TO.C,Brd1*%
X157626100Y-43140400D02*
X157626100Y-70540400D01*
X157626100Y-70540400D02*
X130326100Y-70540400D01*
X130326100Y-70540400D02*
X130326100Y-43140400D01*
X130326100Y-43140400D02*
X157626100Y-43140400D01*
X137731100Y-66662400D02*
X137731100Y-43562400D01*
X137731100Y-43562400D02*
X154331100Y-43562400D01*
X154331100Y-43562400D02*
X154331100Y-66662400D01*
X157137100Y-51841400D02*
X157137100Y-61620400D01*
X157137100Y-61620400D02*
X154724100Y-61620400D01*
X154724100Y-61620400D02*
X154724100Y-51841400D01*
X157137100Y-51841400D02*
X154724100Y-51841400D01*
X154331100Y-66662400D02*
X154331100Y-69748400D01*
X137731100Y-66662400D02*
X137706100Y-70002400D01*
X137706100Y-70002400D02*
X154343100Y-70002400D01*
X154343100Y-70002400D02*
X154331100Y-69748400D01*
D10*
%TO.C,P9*%
X114820100Y-60832400D02*
X114820100Y-62382400D01*
X117640100Y-63652400D02*
X115100100Y-63652400D01*
X117640100Y-61112400D02*
X117640100Y-63652400D01*
X116370100Y-60832400D02*
X114820100Y-60832400D01*
X120180100Y-61112400D02*
X117640100Y-61112400D01*
X120180100Y-119532400D02*
X115100100Y-119532400D01*
X115100100Y-119532400D02*
X115100100Y-63652400D01*
X120180100Y-119532400D02*
X120180100Y-61112400D01*
%TO.C,U2*%
X123736195Y-110531780D02*
X123736195Y-111341304D01*
X123783814Y-111436542D01*
X123831433Y-111484161D01*
X123926671Y-111531780D01*
X124117147Y-111531780D01*
X124212385Y-111484161D01*
X124260004Y-111436542D01*
X124307623Y-111341304D01*
X124307623Y-110531780D01*
X124736195Y-110627019D02*
X124783814Y-110579400D01*
X124879052Y-110531780D01*
X125117147Y-110531780D01*
X125212385Y-110579400D01*
X125260004Y-110627019D01*
X125307623Y-110722257D01*
X125307623Y-110817495D01*
X125260004Y-110960352D01*
X124688576Y-111531780D01*
X125307623Y-111531780D01*
%TO.C,D2*%
X126655604Y-121203980D02*
X126655604Y-120203980D01*
X126893700Y-120203980D01*
X127036557Y-120251600D01*
X127131795Y-120346838D01*
X127179414Y-120442076D01*
X127227033Y-120632552D01*
X127227033Y-120775409D01*
X127179414Y-120965885D01*
X127131795Y-121061123D01*
X127036557Y-121156361D01*
X126893700Y-121203980D01*
X126655604Y-121203980D01*
X127607985Y-120299219D02*
X127655604Y-120251600D01*
X127750842Y-120203980D01*
X127988938Y-120203980D01*
X128084176Y-120251600D01*
X128131795Y-120299219D01*
X128179414Y-120394457D01*
X128179414Y-120489695D01*
X128131795Y-120632552D01*
X127560366Y-121203980D01*
X128179414Y-121203980D01*
%TO.C,R3*%
X131697433Y-123700780D02*
X131364100Y-123224590D01*
X131126004Y-123700780D02*
X131126004Y-122700780D01*
X131506957Y-122700780D01*
X131602195Y-122748400D01*
X131649814Y-122796019D01*
X131697433Y-122891257D01*
X131697433Y-123034114D01*
X131649814Y-123129352D01*
X131602195Y-123176971D01*
X131506957Y-123224590D01*
X131126004Y-123224590D01*
X132030766Y-122700780D02*
X132649814Y-122700780D01*
X132316480Y-123081733D01*
X132459338Y-123081733D01*
X132554576Y-123129352D01*
X132602195Y-123176971D01*
X132649814Y-123272209D01*
X132649814Y-123510304D01*
X132602195Y-123605542D01*
X132554576Y-123653161D01*
X132459338Y-123700780D01*
X132173623Y-123700780D01*
X132078385Y-123653161D01*
X132030766Y-123605542D01*
%TO.C,R2*%
X152715933Y-115539780D02*
X152382600Y-115063590D01*
X152144504Y-115539780D02*
X152144504Y-114539780D01*
X152525457Y-114539780D01*
X152620695Y-114587400D01*
X152668314Y-114635019D01*
X152715933Y-114730257D01*
X152715933Y-114873114D01*
X152668314Y-114968352D01*
X152620695Y-115015971D01*
X152525457Y-115063590D01*
X152144504Y-115063590D01*
X153096885Y-114635019D02*
X153144504Y-114587400D01*
X153239742Y-114539780D01*
X153477838Y-114539780D01*
X153573076Y-114587400D01*
X153620695Y-114635019D01*
X153668314Y-114730257D01*
X153668314Y-114825495D01*
X153620695Y-114968352D01*
X153049266Y-115539780D01*
X153668314Y-115539780D01*
%TO.C,U7*%
X157772195Y-70216780D02*
X157772195Y-71026304D01*
X157819814Y-71121542D01*
X157867433Y-71169161D01*
X157962671Y-71216780D01*
X158153147Y-71216780D01*
X158248385Y-71169161D01*
X158296004Y-71121542D01*
X158343623Y-71026304D01*
X158343623Y-70216780D01*
X158724576Y-70216780D02*
X159391242Y-70216780D01*
X158962671Y-71216780D01*
%TO.C,*%
%TO.C,P8*%
X164908004Y-60548780D02*
X164908004Y-59548780D01*
X165288957Y-59548780D01*
X165384195Y-59596400D01*
X165431814Y-59644019D01*
X165479433Y-59739257D01*
X165479433Y-59882114D01*
X165431814Y-59977352D01*
X165384195Y-60024971D01*
X165288957Y-60072590D01*
X164908004Y-60072590D01*
X166050861Y-59977352D02*
X165955623Y-59929733D01*
X165908004Y-59882114D01*
X165860385Y-59786876D01*
X165860385Y-59739257D01*
X165908004Y-59644019D01*
X165955623Y-59596400D01*
X166050861Y-59548780D01*
X166241338Y-59548780D01*
X166336576Y-59596400D01*
X166384195Y-59644019D01*
X166431814Y-59739257D01*
X166431814Y-59786876D01*
X166384195Y-59882114D01*
X166336576Y-59929733D01*
X166241338Y-59977352D01*
X166050861Y-59977352D01*
X165955623Y-60024971D01*
X165908004Y-60072590D01*
X165860385Y-60167828D01*
X165860385Y-60358304D01*
X165908004Y-60453542D01*
X165955623Y-60501161D01*
X166050861Y-60548780D01*
X166241338Y-60548780D01*
X166336576Y-60501161D01*
X166384195Y-60453542D01*
X166431814Y-60358304D01*
X166431814Y-60167828D01*
X166384195Y-60072590D01*
X166336576Y-60024971D01*
X166241338Y-59977352D01*
%TO.C,U4*%
X123736195Y-97069780D02*
X123736195Y-97879304D01*
X123783814Y-97974542D01*
X123831433Y-98022161D01*
X123926671Y-98069780D01*
X124117147Y-98069780D01*
X124212385Y-98022161D01*
X124260004Y-97974542D01*
X124307623Y-97879304D01*
X124307623Y-97069780D01*
X125212385Y-97403114D02*
X125212385Y-98069780D01*
X124974290Y-97022161D02*
X124736195Y-97736447D01*
X125355242Y-97736447D01*
%TO.C,F1*%
X115528766Y-52658971D02*
X115195433Y-52658971D01*
X115195433Y-53182780D02*
X115195433Y-52182780D01*
X115671623Y-52182780D01*
X116576385Y-53182780D02*
X116004957Y-53182780D01*
X116290671Y-53182780D02*
X116290671Y-52182780D01*
X116195433Y-52325638D01*
X116100195Y-52420876D01*
X116004957Y-52468495D01*
%TO.C,U8*%
X123863195Y-70526780D02*
X123863195Y-71336304D01*
X123910814Y-71431542D01*
X123958433Y-71479161D01*
X124053671Y-71526780D01*
X124244147Y-71526780D01*
X124339385Y-71479161D01*
X124387004Y-71431542D01*
X124434623Y-71336304D01*
X124434623Y-70526780D01*
X125053671Y-70955352D02*
X124958433Y-70907733D01*
X124910814Y-70860114D01*
X124863195Y-70764876D01*
X124863195Y-70717257D01*
X124910814Y-70622019D01*
X124958433Y-70574400D01*
X125053671Y-70526780D01*
X125244147Y-70526780D01*
X125339385Y-70574400D01*
X125387004Y-70622019D01*
X125434623Y-70717257D01*
X125434623Y-70764876D01*
X125387004Y-70860114D01*
X125339385Y-70907733D01*
X125244147Y-70955352D01*
X125053671Y-70955352D01*
X124958433Y-71002971D01*
X124910814Y-71050590D01*
X124863195Y-71145828D01*
X124863195Y-71336304D01*
X124910814Y-71431542D01*
X124958433Y-71479161D01*
X125053671Y-71526780D01*
X125244147Y-71526780D01*
X125339385Y-71479161D01*
X125387004Y-71431542D01*
X125434623Y-71336304D01*
X125434623Y-71145828D01*
X125387004Y-71050590D01*
X125339385Y-71002971D01*
X125244147Y-70955352D01*
%TO.C,U6*%
X123990195Y-83734780D02*
X123990195Y-84544304D01*
X124037814Y-84639542D01*
X124085433Y-84687161D01*
X124180671Y-84734780D01*
X124371147Y-84734780D01*
X124466385Y-84687161D01*
X124514004Y-84639542D01*
X124561623Y-84544304D01*
X124561623Y-83734780D01*
X125466385Y-83734780D02*
X125275909Y-83734780D01*
X125180671Y-83782400D01*
X125133052Y-83830019D01*
X125037814Y-83972876D01*
X124990195Y-84163352D01*
X124990195Y-84544304D01*
X125037814Y-84639542D01*
X125085433Y-84687161D01*
X125180671Y-84734780D01*
X125371147Y-84734780D01*
X125466385Y-84687161D01*
X125514004Y-84639542D01*
X125561623Y-84544304D01*
X125561623Y-84306209D01*
X125514004Y-84210971D01*
X125466385Y-84163352D01*
X125371147Y-84115733D01*
X125180671Y-84115733D01*
X125085433Y-84163352D01*
X125037814Y-84210971D01*
X124990195Y-84306209D01*
%TO.C,U5*%
X157010195Y-83678780D02*
X157010195Y-84488304D01*
X157057814Y-84583542D01*
X157105433Y-84631161D01*
X157200671Y-84678780D01*
X157391147Y-84678780D01*
X157486385Y-84631161D01*
X157534004Y-84583542D01*
X157581623Y-84488304D01*
X157581623Y-83678780D01*
X158534004Y-83678780D02*
X158057814Y-83678780D01*
X158010195Y-84154971D01*
X158057814Y-84107352D01*
X158153052Y-84059733D01*
X158391147Y-84059733D01*
X158486385Y-84107352D01*
X158534004Y-84154971D01*
X158581623Y-84250209D01*
X158581623Y-84488304D01*
X158534004Y-84583542D01*
X158486385Y-84631161D01*
X158391147Y-84678780D01*
X158153052Y-84678780D01*
X158057814Y-84631161D01*
X158010195Y-84583542D01*
%TO.C,U3*%
X157010195Y-96632780D02*
X157010195Y-97442304D01*
X157057814Y-97537542D01*
X157105433Y-97585161D01*
X157200671Y-97632780D01*
X157391147Y-97632780D01*
X157486385Y-97585161D01*
X157534004Y-97537542D01*
X157581623Y-97442304D01*
X157581623Y-96632780D01*
X157962576Y-96632780D02*
X158581623Y-96632780D01*
X158248290Y-97013733D01*
X158391147Y-97013733D01*
X158486385Y-97061352D01*
X158534004Y-97108971D01*
X158581623Y-97204209D01*
X158581623Y-97442304D01*
X158534004Y-97537542D01*
X158486385Y-97585161D01*
X158391147Y-97632780D01*
X158105433Y-97632780D01*
X158010195Y-97585161D01*
X157962576Y-97537542D01*
%TO.C,U1*%
X157010195Y-110475780D02*
X157010195Y-111285304D01*
X157057814Y-111380542D01*
X157105433Y-111428161D01*
X157200671Y-111475780D01*
X157391147Y-111475780D01*
X157486385Y-111428161D01*
X157534004Y-111380542D01*
X157581623Y-111285304D01*
X157581623Y-110475780D01*
X158581623Y-111475780D02*
X158010195Y-111475780D01*
X158295909Y-111475780D02*
X158295909Y-110475780D01*
X158200671Y-110618638D01*
X158105433Y-110713876D01*
X158010195Y-110761495D01*
%TO.C,R25*%
X131554480Y-79789257D02*
X131078290Y-80122590D01*
X131554480Y-80360685D02*
X130554480Y-80360685D01*
X130554480Y-79979733D01*
X130602100Y-79884495D01*
X130649719Y-79836876D01*
X130744957Y-79789257D01*
X130887814Y-79789257D01*
X130983052Y-79836876D01*
X131030671Y-79884495D01*
X131078290Y-79979733D01*
X131078290Y-80360685D01*
X130649719Y-79408304D02*
X130602100Y-79360685D01*
X130554480Y-79265447D01*
X130554480Y-79027352D01*
X130602100Y-78932114D01*
X130649719Y-78884495D01*
X130744957Y-78836876D01*
X130840195Y-78836876D01*
X130983052Y-78884495D01*
X131554480Y-79455923D01*
X131554480Y-78836876D01*
X130554480Y-77932114D02*
X130554480Y-78408304D01*
X131030671Y-78455923D01*
X130983052Y-78408304D01*
X130935433Y-78313066D01*
X130935433Y-78074971D01*
X130983052Y-77979733D01*
X131030671Y-77932114D01*
X131125909Y-77884495D01*
X131364004Y-77884495D01*
X131459242Y-77932114D01*
X131506861Y-77979733D01*
X131554480Y-78074971D01*
X131554480Y-78313066D01*
X131506861Y-78408304D01*
X131459242Y-78455923D01*
%TO.C,R24*%
X153812480Y-79535257D02*
X153336290Y-79868590D01*
X153812480Y-80106685D02*
X152812480Y-80106685D01*
X152812480Y-79725733D01*
X152860100Y-79630495D01*
X152907719Y-79582876D01*
X153002957Y-79535257D01*
X153145814Y-79535257D01*
X153241052Y-79582876D01*
X153288671Y-79630495D01*
X153336290Y-79725733D01*
X153336290Y-80106685D01*
X152907719Y-79154304D02*
X152860100Y-79106685D01*
X152812480Y-79011447D01*
X152812480Y-78773352D01*
X152860100Y-78678114D01*
X152907719Y-78630495D01*
X153002957Y-78582876D01*
X153098195Y-78582876D01*
X153241052Y-78630495D01*
X153812480Y-79201923D01*
X153812480Y-78582876D01*
X153145814Y-77725733D02*
X153812480Y-77725733D01*
X152764861Y-77963828D02*
X153479147Y-78201923D01*
X153479147Y-77582876D01*
%TO.C,R23*%
X131221242Y-75534780D02*
X130887909Y-75058590D01*
X130649814Y-75534780D02*
X130649814Y-74534780D01*
X131030766Y-74534780D01*
X131126004Y-74582400D01*
X131173623Y-74630019D01*
X131221242Y-74725257D01*
X131221242Y-74868114D01*
X131173623Y-74963352D01*
X131126004Y-75010971D01*
X131030766Y-75058590D01*
X130649814Y-75058590D01*
X131602195Y-74630019D02*
X131649814Y-74582400D01*
X131745052Y-74534780D01*
X131983147Y-74534780D01*
X132078385Y-74582400D01*
X132126004Y-74630019D01*
X132173623Y-74725257D01*
X132173623Y-74820495D01*
X132126004Y-74963352D01*
X131554576Y-75534780D01*
X132173623Y-75534780D01*
X132506957Y-74534780D02*
X133126004Y-74534780D01*
X132792671Y-74915733D01*
X132935528Y-74915733D01*
X133030766Y-74963352D01*
X133078385Y-75010971D01*
X133126004Y-75106209D01*
X133126004Y-75344304D01*
X133078385Y-75439542D01*
X133030766Y-75487161D01*
X132935528Y-75534780D01*
X132649814Y-75534780D01*
X132554576Y-75487161D01*
X132506957Y-75439542D01*
%TO.C,R22*%
X130967242Y-83662780D02*
X130633909Y-83186590D01*
X130395814Y-83662780D02*
X130395814Y-82662780D01*
X130776766Y-82662780D01*
X130872004Y-82710400D01*
X130919623Y-82758019D01*
X130967242Y-82853257D01*
X130967242Y-82996114D01*
X130919623Y-83091352D01*
X130872004Y-83138971D01*
X130776766Y-83186590D01*
X130395814Y-83186590D01*
X131348195Y-82758019D02*
X131395814Y-82710400D01*
X131491052Y-82662780D01*
X131729147Y-82662780D01*
X131824385Y-82710400D01*
X131872004Y-82758019D01*
X131919623Y-82853257D01*
X131919623Y-82948495D01*
X131872004Y-83091352D01*
X131300576Y-83662780D01*
X131919623Y-83662780D01*
X132300576Y-82758019D02*
X132348195Y-82710400D01*
X132443433Y-82662780D01*
X132681528Y-82662780D01*
X132776766Y-82710400D01*
X132824385Y-82758019D01*
X132872004Y-82853257D01*
X132872004Y-82948495D01*
X132824385Y-83091352D01*
X132252957Y-83662780D01*
X132872004Y-83662780D01*
%TO.C,R21*%
X152049242Y-75120780D02*
X151715909Y-74644590D01*
X151477814Y-75120780D02*
X151477814Y-74120780D01*
X151858766Y-74120780D01*
X151954004Y-74168400D01*
X152001623Y-74216019D01*
X152049242Y-74311257D01*
X152049242Y-74454114D01*
X152001623Y-74549352D01*
X151954004Y-74596971D01*
X151858766Y-74644590D01*
X151477814Y-74644590D01*
X152430195Y-74216019D02*
X152477814Y-74168400D01*
X152573052Y-74120780D01*
X152811147Y-74120780D01*
X152906385Y-74168400D01*
X152954004Y-74216019D01*
X153001623Y-74311257D01*
X153001623Y-74406495D01*
X152954004Y-74549352D01*
X152382576Y-75120780D01*
X153001623Y-75120780D01*
X153954004Y-75120780D02*
X153382576Y-75120780D01*
X153668290Y-75120780D02*
X153668290Y-74120780D01*
X153573052Y-74263638D01*
X153477814Y-74358876D01*
X153382576Y-74406495D01*
%TO.C,R20*%
X152049242Y-83408780D02*
X151715909Y-82932590D01*
X151477814Y-83408780D02*
X151477814Y-82408780D01*
X151858766Y-82408780D01*
X151954004Y-82456400D01*
X152001623Y-82504019D01*
X152049242Y-82599257D01*
X152049242Y-82742114D01*
X152001623Y-82837352D01*
X151954004Y-82884971D01*
X151858766Y-82932590D01*
X151477814Y-82932590D01*
X152430195Y-82504019D02*
X152477814Y-82456400D01*
X152573052Y-82408780D01*
X152811147Y-82408780D01*
X152906385Y-82456400D01*
X152954004Y-82504019D01*
X153001623Y-82599257D01*
X153001623Y-82694495D01*
X152954004Y-82837352D01*
X152382576Y-83408780D01*
X153001623Y-83408780D01*
X153620671Y-82408780D02*
X153715909Y-82408780D01*
X153811147Y-82456400D01*
X153858766Y-82504019D01*
X153906385Y-82599257D01*
X153954004Y-82789733D01*
X153954004Y-83027828D01*
X153906385Y-83218304D01*
X153858766Y-83313542D01*
X153811147Y-83361161D01*
X153715909Y-83408780D01*
X153620671Y-83408780D01*
X153525433Y-83361161D01*
X153477814Y-83313542D01*
X153430195Y-83218304D01*
X153382576Y-83027828D01*
X153382576Y-82789733D01*
X153430195Y-82599257D01*
X153477814Y-82504019D01*
X153525433Y-82456400D01*
X153620671Y-82408780D01*
%TO.C,R19*%
X131808480Y-92933757D02*
X131332290Y-93267090D01*
X131808480Y-93505185D02*
X130808480Y-93505185D01*
X130808480Y-93124233D01*
X130856100Y-93028995D01*
X130903719Y-92981376D01*
X130998957Y-92933757D01*
X131141814Y-92933757D01*
X131237052Y-92981376D01*
X131284671Y-93028995D01*
X131332290Y-93124233D01*
X131332290Y-93505185D01*
X131808480Y-91981376D02*
X131808480Y-92552804D01*
X131808480Y-92267090D02*
X130808480Y-92267090D01*
X130951338Y-92362328D01*
X131046576Y-92457566D01*
X131094195Y-92552804D01*
X131808480Y-91505185D02*
X131808480Y-91314709D01*
X131760861Y-91219471D01*
X131713242Y-91171852D01*
X131570385Y-91076614D01*
X131379909Y-91028995D01*
X130998957Y-91028995D01*
X130903719Y-91076614D01*
X130856100Y-91124233D01*
X130808480Y-91219471D01*
X130808480Y-91409947D01*
X130856100Y-91505185D01*
X130903719Y-91552804D01*
X130998957Y-91600423D01*
X131237052Y-91600423D01*
X131332290Y-91552804D01*
X131379909Y-91505185D01*
X131427528Y-91409947D01*
X131427528Y-91219471D01*
X131379909Y-91124233D01*
X131332290Y-91076614D01*
X131237052Y-91028995D01*
%TO.C,R18*%
X153652480Y-92616257D02*
X153176290Y-92949590D01*
X153652480Y-93187685D02*
X152652480Y-93187685D01*
X152652480Y-92806733D01*
X152700100Y-92711495D01*
X152747719Y-92663876D01*
X152842957Y-92616257D01*
X152985814Y-92616257D01*
X153081052Y-92663876D01*
X153128671Y-92711495D01*
X153176290Y-92806733D01*
X153176290Y-93187685D01*
X153652480Y-91663876D02*
X153652480Y-92235304D01*
X153652480Y-91949590D02*
X152652480Y-91949590D01*
X152795338Y-92044828D01*
X152890576Y-92140066D01*
X152938195Y-92235304D01*
X153081052Y-91092447D02*
X153033433Y-91187685D01*
X152985814Y-91235304D01*
X152890576Y-91282923D01*
X152842957Y-91282923D01*
X152747719Y-91235304D01*
X152700100Y-91187685D01*
X152652480Y-91092447D01*
X152652480Y-90901971D01*
X152700100Y-90806733D01*
X152747719Y-90759114D01*
X152842957Y-90711495D01*
X152890576Y-90711495D01*
X152985814Y-90759114D01*
X153033433Y-90806733D01*
X153081052Y-90901971D01*
X153081052Y-91092447D01*
X153128671Y-91187685D01*
X153176290Y-91235304D01*
X153271528Y-91282923D01*
X153462004Y-91282923D01*
X153557242Y-91235304D01*
X153604861Y-91187685D01*
X153652480Y-91092447D01*
X153652480Y-90901971D01*
X153604861Y-90806733D01*
X153557242Y-90759114D01*
X153462004Y-90711495D01*
X153271528Y-90711495D01*
X153176290Y-90759114D01*
X153128671Y-90806733D01*
X153081052Y-90901971D01*
%TO.C,R17*%
X131221242Y-88742780D02*
X130887909Y-88266590D01*
X130649814Y-88742780D02*
X130649814Y-87742780D01*
X131030766Y-87742780D01*
X131126004Y-87790400D01*
X131173623Y-87838019D01*
X131221242Y-87933257D01*
X131221242Y-88076114D01*
X131173623Y-88171352D01*
X131126004Y-88218971D01*
X131030766Y-88266590D01*
X130649814Y-88266590D01*
X132173623Y-88742780D02*
X131602195Y-88742780D01*
X131887909Y-88742780D02*
X131887909Y-87742780D01*
X131792671Y-87885638D01*
X131697433Y-87980876D01*
X131602195Y-88028495D01*
X132506957Y-87742780D02*
X133173623Y-87742780D01*
X132745052Y-88742780D01*
%TO.C,R16*%
X131221242Y-96776780D02*
X130887909Y-96300590D01*
X130649814Y-96776780D02*
X130649814Y-95776780D01*
X131030766Y-95776780D01*
X131126004Y-95824400D01*
X131173623Y-95872019D01*
X131221242Y-95967257D01*
X131221242Y-96110114D01*
X131173623Y-96205352D01*
X131126004Y-96252971D01*
X131030766Y-96300590D01*
X130649814Y-96300590D01*
X132173623Y-96776780D02*
X131602195Y-96776780D01*
X131887909Y-96776780D02*
X131887909Y-95776780D01*
X131792671Y-95919638D01*
X131697433Y-96014876D01*
X131602195Y-96062495D01*
X133030766Y-95776780D02*
X132840290Y-95776780D01*
X132745052Y-95824400D01*
X132697433Y-95872019D01*
X132602195Y-96014876D01*
X132554576Y-96205352D01*
X132554576Y-96586304D01*
X132602195Y-96681542D01*
X132649814Y-96729161D01*
X132745052Y-96776780D01*
X132935528Y-96776780D01*
X133030766Y-96729161D01*
X133078385Y-96681542D01*
X133126004Y-96586304D01*
X133126004Y-96348209D01*
X133078385Y-96252971D01*
X133030766Y-96205352D01*
X132935528Y-96157733D01*
X132745052Y-96157733D01*
X132649814Y-96205352D01*
X132602195Y-96252971D01*
X132554576Y-96348209D01*
%TO.C,R15*%
X152049242Y-88455780D02*
X151715909Y-87979590D01*
X151477814Y-88455780D02*
X151477814Y-87455780D01*
X151858766Y-87455780D01*
X151954004Y-87503400D01*
X152001623Y-87551019D01*
X152049242Y-87646257D01*
X152049242Y-87789114D01*
X152001623Y-87884352D01*
X151954004Y-87931971D01*
X151858766Y-87979590D01*
X151477814Y-87979590D01*
X153001623Y-88455780D02*
X152430195Y-88455780D01*
X152715909Y-88455780D02*
X152715909Y-87455780D01*
X152620671Y-87598638D01*
X152525433Y-87693876D01*
X152430195Y-87741495D01*
X153906385Y-87455780D02*
X153430195Y-87455780D01*
X153382576Y-87931971D01*
X153430195Y-87884352D01*
X153525433Y-87836733D01*
X153763528Y-87836733D01*
X153858766Y-87884352D01*
X153906385Y-87931971D01*
X153954004Y-88027209D01*
X153954004Y-88265304D01*
X153906385Y-88360542D01*
X153858766Y-88408161D01*
X153763528Y-88455780D01*
X153525433Y-88455780D01*
X153430195Y-88408161D01*
X153382576Y-88360542D01*
%TO.C,R14*%
X152049242Y-96743780D02*
X151715909Y-96267590D01*
X151477814Y-96743780D02*
X151477814Y-95743780D01*
X151858766Y-95743780D01*
X151954004Y-95791400D01*
X152001623Y-95839019D01*
X152049242Y-95934257D01*
X152049242Y-96077114D01*
X152001623Y-96172352D01*
X151954004Y-96219971D01*
X151858766Y-96267590D01*
X151477814Y-96267590D01*
X153001623Y-96743780D02*
X152430195Y-96743780D01*
X152715909Y-96743780D02*
X152715909Y-95743780D01*
X152620671Y-95886638D01*
X152525433Y-95981876D01*
X152430195Y-96029495D01*
X153858766Y-96077114D02*
X153858766Y-96743780D01*
X153620671Y-95696161D02*
X153382576Y-96410447D01*
X154001623Y-96410447D01*
%TO.C,R13*%
X131833880Y-106027457D02*
X131357690Y-106360790D01*
X131833880Y-106598885D02*
X130833880Y-106598885D01*
X130833880Y-106217933D01*
X130881500Y-106122695D01*
X130929119Y-106075076D01*
X131024357Y-106027457D01*
X131167214Y-106027457D01*
X131262452Y-106075076D01*
X131310071Y-106122695D01*
X131357690Y-106217933D01*
X131357690Y-106598885D01*
X131833880Y-105075076D02*
X131833880Y-105646504D01*
X131833880Y-105360790D02*
X130833880Y-105360790D01*
X130976738Y-105456028D01*
X131071976Y-105551266D01*
X131119595Y-105646504D01*
X130833880Y-104741742D02*
X130833880Y-104122695D01*
X131214833Y-104456028D01*
X131214833Y-104313171D01*
X131262452Y-104217933D01*
X131310071Y-104170314D01*
X131405309Y-104122695D01*
X131643404Y-104122695D01*
X131738642Y-104170314D01*
X131786261Y-104217933D01*
X131833880Y-104313171D01*
X131833880Y-104598885D01*
X131786261Y-104694123D01*
X131738642Y-104741742D01*
%TO.C,R12*%
X153812480Y-106205257D02*
X153336290Y-106538590D01*
X153812480Y-106776685D02*
X152812480Y-106776685D01*
X152812480Y-106395733D01*
X152860100Y-106300495D01*
X152907719Y-106252876D01*
X153002957Y-106205257D01*
X153145814Y-106205257D01*
X153241052Y-106252876D01*
X153288671Y-106300495D01*
X153336290Y-106395733D01*
X153336290Y-106776685D01*
X153812480Y-105252876D02*
X153812480Y-105824304D01*
X153812480Y-105538590D02*
X152812480Y-105538590D01*
X152955338Y-105633828D01*
X153050576Y-105729066D01*
X153098195Y-105824304D01*
X152907719Y-104871923D02*
X152860100Y-104824304D01*
X152812480Y-104729066D01*
X152812480Y-104490971D01*
X152860100Y-104395733D01*
X152907719Y-104348114D01*
X153002957Y-104300495D01*
X153098195Y-104300495D01*
X153241052Y-104348114D01*
X153812480Y-104919542D01*
X153812480Y-104300495D01*
%TO.C,R11*%
X131221242Y-101950780D02*
X130887909Y-101474590D01*
X130649814Y-101950780D02*
X130649814Y-100950780D01*
X131030766Y-100950780D01*
X131126004Y-100998400D01*
X131173623Y-101046019D01*
X131221242Y-101141257D01*
X131221242Y-101284114D01*
X131173623Y-101379352D01*
X131126004Y-101426971D01*
X131030766Y-101474590D01*
X130649814Y-101474590D01*
X132173623Y-101950780D02*
X131602195Y-101950780D01*
X131887909Y-101950780D02*
X131887909Y-100950780D01*
X131792671Y-101093638D01*
X131697433Y-101188876D01*
X131602195Y-101236495D01*
X133126004Y-101950780D02*
X132554576Y-101950780D01*
X132840290Y-101950780D02*
X132840290Y-100950780D01*
X132745052Y-101093638D01*
X132649814Y-101188876D01*
X132554576Y-101236495D01*
%TO.C,R10*%
X131221242Y-110238780D02*
X130887909Y-109762590D01*
X130649814Y-110238780D02*
X130649814Y-109238780D01*
X131030766Y-109238780D01*
X131126004Y-109286400D01*
X131173623Y-109334019D01*
X131221242Y-109429257D01*
X131221242Y-109572114D01*
X131173623Y-109667352D01*
X131126004Y-109714971D01*
X131030766Y-109762590D01*
X130649814Y-109762590D01*
X132173623Y-110238780D02*
X131602195Y-110238780D01*
X131887909Y-110238780D02*
X131887909Y-109238780D01*
X131792671Y-109381638D01*
X131697433Y-109476876D01*
X131602195Y-109524495D01*
X132792671Y-109238780D02*
X132887909Y-109238780D01*
X132983147Y-109286400D01*
X133030766Y-109334019D01*
X133078385Y-109429257D01*
X133126004Y-109619733D01*
X133126004Y-109857828D01*
X133078385Y-110048304D01*
X133030766Y-110143542D01*
X132983147Y-110191161D01*
X132887909Y-110238780D01*
X132792671Y-110238780D01*
X132697433Y-110191161D01*
X132649814Y-110143542D01*
X132602195Y-110048304D01*
X132554576Y-109857828D01*
X132554576Y-109619733D01*
X132602195Y-109429257D01*
X132649814Y-109334019D01*
X132697433Y-109286400D01*
X132792671Y-109238780D01*
%TO.C,R9*%
X152525433Y-102044780D02*
X152192100Y-101568590D01*
X151954004Y-102044780D02*
X151954004Y-101044780D01*
X152334957Y-101044780D01*
X152430195Y-101092400D01*
X152477814Y-101140019D01*
X152525433Y-101235257D01*
X152525433Y-101378114D01*
X152477814Y-101473352D01*
X152430195Y-101520971D01*
X152334957Y-101568590D01*
X151954004Y-101568590D01*
X153001623Y-102044780D02*
X153192100Y-102044780D01*
X153287338Y-101997161D01*
X153334957Y-101949542D01*
X153430195Y-101806685D01*
X153477814Y-101616209D01*
X153477814Y-101235257D01*
X153430195Y-101140019D01*
X153382576Y-101092400D01*
X153287338Y-101044780D01*
X153096861Y-101044780D01*
X153001623Y-101092400D01*
X152954004Y-101140019D01*
X152906385Y-101235257D01*
X152906385Y-101473352D01*
X152954004Y-101568590D01*
X153001623Y-101616209D01*
X153096861Y-101663828D01*
X153287338Y-101663828D01*
X153382576Y-101616209D01*
X153430195Y-101568590D01*
X153477814Y-101473352D01*
%TO.C,R8*%
X152525433Y-110205780D02*
X152192100Y-109729590D01*
X151954004Y-110205780D02*
X151954004Y-109205780D01*
X152334957Y-109205780D01*
X152430195Y-109253400D01*
X152477814Y-109301019D01*
X152525433Y-109396257D01*
X152525433Y-109539114D01*
X152477814Y-109634352D01*
X152430195Y-109681971D01*
X152334957Y-109729590D01*
X151954004Y-109729590D01*
X153096861Y-109634352D02*
X153001623Y-109586733D01*
X152954004Y-109539114D01*
X152906385Y-109443876D01*
X152906385Y-109396257D01*
X152954004Y-109301019D01*
X153001623Y-109253400D01*
X153096861Y-109205780D01*
X153287338Y-109205780D01*
X153382576Y-109253400D01*
X153430195Y-109301019D01*
X153477814Y-109396257D01*
X153477814Y-109443876D01*
X153430195Y-109539114D01*
X153382576Y-109586733D01*
X153287338Y-109634352D01*
X153096861Y-109634352D01*
X153001623Y-109681971D01*
X152954004Y-109729590D01*
X152906385Y-109824828D01*
X152906385Y-110015304D01*
X152954004Y-110110542D01*
X153001623Y-110158161D01*
X153096861Y-110205780D01*
X153287338Y-110205780D01*
X153382576Y-110158161D01*
X153430195Y-110110542D01*
X153477814Y-110015304D01*
X153477814Y-109824828D01*
X153430195Y-109729590D01*
X153382576Y-109681971D01*
X153287338Y-109634352D01*
%TO.C,R7*%
X129395480Y-66740066D02*
X128919290Y-67073400D01*
X129395480Y-67311495D02*
X128395480Y-67311495D01*
X128395480Y-66930542D01*
X128443100Y-66835304D01*
X128490719Y-66787685D01*
X128585957Y-66740066D01*
X128728814Y-66740066D01*
X128824052Y-66787685D01*
X128871671Y-66835304D01*
X128919290Y-66930542D01*
X128919290Y-67311495D01*
X128395480Y-66406733D02*
X128395480Y-65740066D01*
X129395480Y-66168638D01*
%TO.C,R6*%
X131783080Y-119292666D02*
X131306890Y-119626000D01*
X131783080Y-119864095D02*
X130783080Y-119864095D01*
X130783080Y-119483142D01*
X130830700Y-119387904D01*
X130878319Y-119340285D01*
X130973557Y-119292666D01*
X131116414Y-119292666D01*
X131211652Y-119340285D01*
X131259271Y-119387904D01*
X131306890Y-119483142D01*
X131306890Y-119864095D01*
X130783080Y-118435523D02*
X130783080Y-118626000D01*
X130830700Y-118721238D01*
X130878319Y-118768857D01*
X131021176Y-118864095D01*
X131211652Y-118911714D01*
X131592604Y-118911714D01*
X131687842Y-118864095D01*
X131735461Y-118816476D01*
X131783080Y-118721238D01*
X131783080Y-118530761D01*
X131735461Y-118435523D01*
X131687842Y-118387904D01*
X131592604Y-118340285D01*
X131354509Y-118340285D01*
X131259271Y-118387904D01*
X131211652Y-118435523D01*
X131164033Y-118530761D01*
X131164033Y-118721238D01*
X131211652Y-118816476D01*
X131259271Y-118864095D01*
X131354509Y-118911714D01*
%TO.C,R5*%
X153748980Y-119191066D02*
X153272790Y-119524400D01*
X153748980Y-119762495D02*
X152748980Y-119762495D01*
X152748980Y-119381542D01*
X152796600Y-119286304D01*
X152844219Y-119238685D01*
X152939457Y-119191066D01*
X153082314Y-119191066D01*
X153177552Y-119238685D01*
X153225171Y-119286304D01*
X153272790Y-119381542D01*
X153272790Y-119762495D01*
X152748980Y-118286304D02*
X152748980Y-118762495D01*
X153225171Y-118810114D01*
X153177552Y-118762495D01*
X153129933Y-118667257D01*
X153129933Y-118429161D01*
X153177552Y-118333923D01*
X153225171Y-118286304D01*
X153320409Y-118238685D01*
X153558504Y-118238685D01*
X153653742Y-118286304D01*
X153701361Y-118333923D01*
X153748980Y-118429161D01*
X153748980Y-118667257D01*
X153701361Y-118762495D01*
X153653742Y-118810114D01*
%TO.C,R4*%
X131697433Y-115590580D02*
X131364100Y-115114390D01*
X131126004Y-115590580D02*
X131126004Y-114590580D01*
X131506957Y-114590580D01*
X131602195Y-114638200D01*
X131649814Y-114685819D01*
X131697433Y-114781057D01*
X131697433Y-114923914D01*
X131649814Y-115019152D01*
X131602195Y-115066771D01*
X131506957Y-115114390D01*
X131126004Y-115114390D01*
X132554576Y-114923914D02*
X132554576Y-115590580D01*
X132316480Y-114542961D02*
X132078385Y-115257247D01*
X132697433Y-115257247D01*
%TO.C,R1*%
X152715933Y-123667780D02*
X152382600Y-123191590D01*
X152144504Y-123667780D02*
X152144504Y-122667780D01*
X152525457Y-122667780D01*
X152620695Y-122715400D01*
X152668314Y-122763019D01*
X152715933Y-122858257D01*
X152715933Y-123001114D01*
X152668314Y-123096352D01*
X152620695Y-123143971D01*
X152525457Y-123191590D01*
X152144504Y-123191590D01*
X153668314Y-123667780D02*
X153096885Y-123667780D01*
X153382600Y-123667780D02*
X153382600Y-122667780D01*
X153287361Y-122810638D01*
X153192123Y-122905876D01*
X153096885Y-122953495D01*
%TO.C,J1*%
X117854480Y-51793733D02*
X118568766Y-51793733D01*
X118711623Y-51841352D01*
X118806861Y-51936590D01*
X118854480Y-52079447D01*
X118854480Y-52174685D01*
X118854480Y-50793733D02*
X118854480Y-51365161D01*
X118854480Y-51079447D02*
X117854480Y-51079447D01*
X117997338Y-51174685D01*
X118092576Y-51269923D01*
X118140195Y-51365161D01*
%TO.C,D9*%
X128205004Y-82098780D02*
X128205004Y-81098780D01*
X128443100Y-81098780D01*
X128585957Y-81146400D01*
X128681195Y-81241638D01*
X128728814Y-81336876D01*
X128776433Y-81527352D01*
X128776433Y-81670209D01*
X128728814Y-81860685D01*
X128681195Y-81955923D01*
X128585957Y-82051161D01*
X128443100Y-82098780D01*
X128205004Y-82098780D01*
X129252623Y-82098780D02*
X129443100Y-82098780D01*
X129538338Y-82051161D01*
X129585957Y-82003542D01*
X129681195Y-81860685D01*
X129728814Y-81670209D01*
X129728814Y-81289257D01*
X129681195Y-81194019D01*
X129633576Y-81146400D01*
X129538338Y-81098780D01*
X129347861Y-81098780D01*
X129252623Y-81146400D01*
X129205004Y-81194019D01*
X129157385Y-81289257D01*
X129157385Y-81527352D01*
X129205004Y-81622590D01*
X129252623Y-81670209D01*
X129347861Y-81717828D01*
X129538338Y-81717828D01*
X129633576Y-81670209D01*
X129681195Y-81622590D01*
X129728814Y-81527352D01*
%TO.C,D8*%
X154875004Y-81717780D02*
X154875004Y-80717780D01*
X155113100Y-80717780D01*
X155255957Y-80765400D01*
X155351195Y-80860638D01*
X155398814Y-80955876D01*
X155446433Y-81146352D01*
X155446433Y-81289209D01*
X155398814Y-81479685D01*
X155351195Y-81574923D01*
X155255957Y-81670161D01*
X155113100Y-81717780D01*
X154875004Y-81717780D01*
X156017861Y-81146352D02*
X155922623Y-81098733D01*
X155875004Y-81051114D01*
X155827385Y-80955876D01*
X155827385Y-80908257D01*
X155875004Y-80813019D01*
X155922623Y-80765400D01*
X156017861Y-80717780D01*
X156208338Y-80717780D01*
X156303576Y-80765400D01*
X156351195Y-80813019D01*
X156398814Y-80908257D01*
X156398814Y-80955876D01*
X156351195Y-81051114D01*
X156303576Y-81098733D01*
X156208338Y-81146352D01*
X156017861Y-81146352D01*
X155922623Y-81193971D01*
X155875004Y-81241590D01*
X155827385Y-81336828D01*
X155827385Y-81527304D01*
X155875004Y-81622542D01*
X155922623Y-81670161D01*
X156017861Y-81717780D01*
X156208338Y-81717780D01*
X156303576Y-81670161D01*
X156351195Y-81622542D01*
X156398814Y-81527304D01*
X156398814Y-81336828D01*
X156351195Y-81241590D01*
X156303576Y-81193971D01*
X156208338Y-81146352D01*
%TO.C,D7*%
X126300004Y-94330780D02*
X126300004Y-93330780D01*
X126538100Y-93330780D01*
X126680957Y-93378400D01*
X126776195Y-93473638D01*
X126823814Y-93568876D01*
X126871433Y-93759352D01*
X126871433Y-93902209D01*
X126823814Y-94092685D01*
X126776195Y-94187923D01*
X126680957Y-94283161D01*
X126538100Y-94330780D01*
X126300004Y-94330780D01*
X127204766Y-93330780D02*
X127871433Y-93330780D01*
X127442861Y-94330780D01*
%TO.C,D6*%
X154113004Y-95052780D02*
X154113004Y-94052780D01*
X154351100Y-94052780D01*
X154493957Y-94100400D01*
X154589195Y-94195638D01*
X154636814Y-94290876D01*
X154684433Y-94481352D01*
X154684433Y-94624209D01*
X154636814Y-94814685D01*
X154589195Y-94909923D01*
X154493957Y-95005161D01*
X154351100Y-95052780D01*
X154113004Y-95052780D01*
X155541576Y-94052780D02*
X155351100Y-94052780D01*
X155255861Y-94100400D01*
X155208242Y-94148019D01*
X155113004Y-94290876D01*
X155065385Y-94481352D01*
X155065385Y-94862304D01*
X155113004Y-94957542D01*
X155160623Y-95005161D01*
X155255861Y-95052780D01*
X155446338Y-95052780D01*
X155541576Y-95005161D01*
X155589195Y-94957542D01*
X155636814Y-94862304D01*
X155636814Y-94624209D01*
X155589195Y-94528971D01*
X155541576Y-94481352D01*
X155446338Y-94433733D01*
X155255861Y-94433733D01*
X155160623Y-94481352D01*
X155113004Y-94528971D01*
X155065385Y-94624209D01*
%TO.C,D5*%
X126808004Y-107665780D02*
X126808004Y-106665780D01*
X127046100Y-106665780D01*
X127188957Y-106713400D01*
X127284195Y-106808638D01*
X127331814Y-106903876D01*
X127379433Y-107094352D01*
X127379433Y-107237209D01*
X127331814Y-107427685D01*
X127284195Y-107522923D01*
X127188957Y-107618161D01*
X127046100Y-107665780D01*
X126808004Y-107665780D01*
X128284195Y-106665780D02*
X127808004Y-106665780D01*
X127760385Y-107141971D01*
X127808004Y-107094352D01*
X127903242Y-107046733D01*
X128141338Y-107046733D01*
X128236576Y-107094352D01*
X128284195Y-107141971D01*
X128331814Y-107237209D01*
X128331814Y-107475304D01*
X128284195Y-107570542D01*
X128236576Y-107618161D01*
X128141338Y-107665780D01*
X127903242Y-107665780D01*
X127808004Y-107618161D01*
X127760385Y-107570542D01*
%TO.C,D4*%
X154748004Y-108514780D02*
X154748004Y-107514780D01*
X154986100Y-107514780D01*
X155128957Y-107562400D01*
X155224195Y-107657638D01*
X155271814Y-107752876D01*
X155319433Y-107943352D01*
X155319433Y-108086209D01*
X155271814Y-108276685D01*
X155224195Y-108371923D01*
X155128957Y-108467161D01*
X154986100Y-108514780D01*
X154748004Y-108514780D01*
X156176576Y-107848114D02*
X156176576Y-108514780D01*
X155938480Y-107467161D02*
X155700385Y-108181447D01*
X156319433Y-108181447D01*
%TO.C,D3*%
X128205004Y-59024780D02*
X128205004Y-58024780D01*
X128443100Y-58024780D01*
X128585957Y-58072400D01*
X128681195Y-58167638D01*
X128728814Y-58262876D01*
X128776433Y-58453352D01*
X128776433Y-58596209D01*
X128728814Y-58786685D01*
X128681195Y-58881923D01*
X128585957Y-58977161D01*
X128443100Y-59024780D01*
X128205004Y-59024780D01*
X129109766Y-58024780D02*
X129728814Y-58024780D01*
X129395480Y-58405733D01*
X129538338Y-58405733D01*
X129633576Y-58453352D01*
X129681195Y-58500971D01*
X129728814Y-58596209D01*
X129728814Y-58834304D01*
X129681195Y-58929542D01*
X129633576Y-58977161D01*
X129538338Y-59024780D01*
X129252623Y-59024780D01*
X129157385Y-58977161D01*
X129109766Y-58929542D01*
%TO.C,D1*%
X154240004Y-121976780D02*
X154240004Y-120976780D01*
X154478100Y-120976780D01*
X154620957Y-121024400D01*
X154716195Y-121119638D01*
X154763814Y-121214876D01*
X154811433Y-121405352D01*
X154811433Y-121548209D01*
X154763814Y-121738685D01*
X154716195Y-121833923D01*
X154620957Y-121929161D01*
X154478100Y-121976780D01*
X154240004Y-121976780D01*
X155763814Y-121976780D02*
X155192385Y-121976780D01*
X155478100Y-121976780D02*
X155478100Y-120976780D01*
X155382861Y-121119638D01*
X155287623Y-121214876D01*
X155192385Y-121262495D01*
%TO.C,C12*%
X123855242Y-80265542D02*
X123807623Y-80313161D01*
X123664766Y-80360780D01*
X123569528Y-80360780D01*
X123426671Y-80313161D01*
X123331433Y-80217923D01*
X123283814Y-80122685D01*
X123236195Y-79932209D01*
X123236195Y-79789352D01*
X123283814Y-79598876D01*
X123331433Y-79503638D01*
X123426671Y-79408400D01*
X123569528Y-79360780D01*
X123664766Y-79360780D01*
X123807623Y-79408400D01*
X123855242Y-79456019D01*
X124807623Y-80360780D02*
X124236195Y-80360780D01*
X124521909Y-80360780D02*
X124521909Y-79360780D01*
X124426671Y-79503638D01*
X124331433Y-79598876D01*
X124236195Y-79646495D01*
X125188576Y-79456019D02*
X125236195Y-79408400D01*
X125331433Y-79360780D01*
X125569528Y-79360780D01*
X125664766Y-79408400D01*
X125712385Y-79456019D01*
X125760004Y-79551257D01*
X125760004Y-79646495D01*
X125712385Y-79789352D01*
X125140957Y-80360780D01*
X125760004Y-80360780D01*
%TO.C,C11*%
X158907242Y-79409542D02*
X158859623Y-79457161D01*
X158716766Y-79504780D01*
X158621528Y-79504780D01*
X158478671Y-79457161D01*
X158383433Y-79361923D01*
X158335814Y-79266685D01*
X158288195Y-79076209D01*
X158288195Y-78933352D01*
X158335814Y-78742876D01*
X158383433Y-78647638D01*
X158478671Y-78552400D01*
X158621528Y-78504780D01*
X158716766Y-78504780D01*
X158859623Y-78552400D01*
X158907242Y-78600019D01*
X159859623Y-79504780D02*
X159288195Y-79504780D01*
X159573909Y-79504780D02*
X159573909Y-78504780D01*
X159478671Y-78647638D01*
X159383433Y-78742876D01*
X159288195Y-78790495D01*
X160812004Y-79504780D02*
X160240576Y-79504780D01*
X160526290Y-79504780D02*
X160526290Y-78504780D01*
X160431052Y-78647638D01*
X160335814Y-78742876D01*
X160240576Y-78790495D01*
%TO.C,C10*%
X159399242Y-51087257D02*
X159446861Y-51134876D01*
X159494480Y-51277733D01*
X159494480Y-51372971D01*
X159446861Y-51515828D01*
X159351623Y-51611066D01*
X159256385Y-51658685D01*
X159065909Y-51706304D01*
X158923052Y-51706304D01*
X158732576Y-51658685D01*
X158637338Y-51611066D01*
X158542100Y-51515828D01*
X158494480Y-51372971D01*
X158494480Y-51277733D01*
X158542100Y-51134876D01*
X158589719Y-51087257D01*
X159494480Y-50134876D02*
X159494480Y-50706304D01*
X159494480Y-50420590D02*
X158494480Y-50420590D01*
X158637338Y-50515828D01*
X158732576Y-50611066D01*
X158780195Y-50706304D01*
X158494480Y-49515828D02*
X158494480Y-49420590D01*
X158542100Y-49325352D01*
X158589719Y-49277733D01*
X158684957Y-49230114D01*
X158875433Y-49182495D01*
X159113528Y-49182495D01*
X159304004Y-49230114D01*
X159399242Y-49277733D01*
X159446861Y-49325352D01*
X159494480Y-49420590D01*
X159494480Y-49515828D01*
X159446861Y-49611066D01*
X159399242Y-49658685D01*
X159304004Y-49706304D01*
X159113528Y-49753923D01*
X158875433Y-49753923D01*
X158684957Y-49706304D01*
X158589719Y-49658685D01*
X158542100Y-49611066D01*
X158494480Y-49515828D01*
%TO.C,C9*%
X124839433Y-93473542D02*
X124791814Y-93521161D01*
X124648957Y-93568780D01*
X124553719Y-93568780D01*
X124410861Y-93521161D01*
X124315623Y-93425923D01*
X124268004Y-93330685D01*
X124220385Y-93140209D01*
X124220385Y-92997352D01*
X124268004Y-92806876D01*
X124315623Y-92711638D01*
X124410861Y-92616400D01*
X124553719Y-92568780D01*
X124648957Y-92568780D01*
X124791814Y-92616400D01*
X124839433Y-92664019D01*
X125315623Y-93568780D02*
X125506100Y-93568780D01*
X125601338Y-93521161D01*
X125648957Y-93473542D01*
X125744195Y-93330685D01*
X125791814Y-93140209D01*
X125791814Y-92759257D01*
X125744195Y-92664019D01*
X125696576Y-92616400D01*
X125601338Y-92568780D01*
X125410861Y-92568780D01*
X125315623Y-92616400D01*
X125268004Y-92664019D01*
X125220385Y-92759257D01*
X125220385Y-92997352D01*
X125268004Y-93092590D01*
X125315623Y-93140209D01*
X125410861Y-93187828D01*
X125601338Y-93187828D01*
X125696576Y-93140209D01*
X125744195Y-93092590D01*
X125791814Y-92997352D01*
%TO.C,C8*%
X158875433Y-92871542D02*
X158827814Y-92919161D01*
X158684957Y-92966780D01*
X158589719Y-92966780D01*
X158446861Y-92919161D01*
X158351623Y-92823923D01*
X158304004Y-92728685D01*
X158256385Y-92538209D01*
X158256385Y-92395352D01*
X158304004Y-92204876D01*
X158351623Y-92109638D01*
X158446861Y-92014400D01*
X158589719Y-91966780D01*
X158684957Y-91966780D01*
X158827814Y-92014400D01*
X158875433Y-92062019D01*
X159446861Y-92395352D02*
X159351623Y-92347733D01*
X159304004Y-92300114D01*
X159256385Y-92204876D01*
X159256385Y-92157257D01*
X159304004Y-92062019D01*
X159351623Y-92014400D01*
X159446861Y-91966780D01*
X159637338Y-91966780D01*
X159732576Y-92014400D01*
X159780195Y-92062019D01*
X159827814Y-92157257D01*
X159827814Y-92204876D01*
X159780195Y-92300114D01*
X159732576Y-92347733D01*
X159637338Y-92395352D01*
X159446861Y-92395352D01*
X159351623Y-92442971D01*
X159304004Y-92490590D01*
X159256385Y-92585828D01*
X159256385Y-92776304D01*
X159304004Y-92871542D01*
X159351623Y-92919161D01*
X159446861Y-92966780D01*
X159637338Y-92966780D01*
X159732576Y-92919161D01*
X159780195Y-92871542D01*
X159827814Y-92776304D01*
X159827814Y-92585828D01*
X159780195Y-92490590D01*
X159732576Y-92442971D01*
X159637338Y-92395352D01*
%TO.C,C7*%
X124331433Y-107189542D02*
X124283814Y-107237161D01*
X124140957Y-107284780D01*
X124045719Y-107284780D01*
X123902861Y-107237161D01*
X123807623Y-107141923D01*
X123760004Y-107046685D01*
X123712385Y-106856209D01*
X123712385Y-106713352D01*
X123760004Y-106522876D01*
X123807623Y-106427638D01*
X123902861Y-106332400D01*
X124045719Y-106284780D01*
X124140957Y-106284780D01*
X124283814Y-106332400D01*
X124331433Y-106380019D01*
X124664766Y-106284780D02*
X125331433Y-106284780D01*
X124902861Y-107284780D01*
%TO.C,C6*%
X158875433Y-105825542D02*
X158827814Y-105873161D01*
X158684957Y-105920780D01*
X158589719Y-105920780D01*
X158446861Y-105873161D01*
X158351623Y-105777923D01*
X158304004Y-105682685D01*
X158256385Y-105492209D01*
X158256385Y-105349352D01*
X158304004Y-105158876D01*
X158351623Y-105063638D01*
X158446861Y-104968400D01*
X158589719Y-104920780D01*
X158684957Y-104920780D01*
X158827814Y-104968400D01*
X158875433Y-105016019D01*
X159732576Y-104920780D02*
X159542100Y-104920780D01*
X159446861Y-104968400D01*
X159399242Y-105016019D01*
X159304004Y-105158876D01*
X159256385Y-105349352D01*
X159256385Y-105730304D01*
X159304004Y-105825542D01*
X159351623Y-105873161D01*
X159446861Y-105920780D01*
X159637338Y-105920780D01*
X159732576Y-105873161D01*
X159780195Y-105825542D01*
X159827814Y-105730304D01*
X159827814Y-105492209D01*
X159780195Y-105396971D01*
X159732576Y-105349352D01*
X159637338Y-105301733D01*
X159446861Y-105301733D01*
X159351623Y-105349352D01*
X159304004Y-105396971D01*
X159256385Y-105492209D01*
%TO.C,C5*%
X126363433Y-62231542D02*
X126315814Y-62279161D01*
X126172957Y-62326780D01*
X126077719Y-62326780D01*
X125934861Y-62279161D01*
X125839623Y-62183923D01*
X125792004Y-62088685D01*
X125744385Y-61898209D01*
X125744385Y-61755352D01*
X125792004Y-61564876D01*
X125839623Y-61469638D01*
X125934861Y-61374400D01*
X126077719Y-61326780D01*
X126172957Y-61326780D01*
X126315814Y-61374400D01*
X126363433Y-61422019D01*
X127268195Y-61326780D02*
X126792004Y-61326780D01*
X126744385Y-61802971D01*
X126792004Y-61755352D01*
X126887242Y-61707733D01*
X127125338Y-61707733D01*
X127220576Y-61755352D01*
X127268195Y-61802971D01*
X127315814Y-61898209D01*
X127315814Y-62136304D01*
X127268195Y-62231542D01*
X127220576Y-62279161D01*
X127125338Y-62326780D01*
X126887242Y-62326780D01*
X126792004Y-62279161D01*
X126744385Y-62231542D01*
%TO.C,C4*%
X126363433Y-59945542D02*
X126315814Y-59993161D01*
X126172957Y-60040780D01*
X126077719Y-60040780D01*
X125934861Y-59993161D01*
X125839623Y-59897923D01*
X125792004Y-59802685D01*
X125744385Y-59612209D01*
X125744385Y-59469352D01*
X125792004Y-59278876D01*
X125839623Y-59183638D01*
X125934861Y-59088400D01*
X126077719Y-59040780D01*
X126172957Y-59040780D01*
X126315814Y-59088400D01*
X126363433Y-59136019D01*
X127220576Y-59374114D02*
X127220576Y-60040780D01*
X126982480Y-58993161D02*
X126744385Y-59707447D01*
X127363433Y-59707447D01*
%TO.C,C3*%
X126566433Y-64263542D02*
X126518814Y-64311161D01*
X126375957Y-64358780D01*
X126280719Y-64358780D01*
X126137861Y-64311161D01*
X126042623Y-64215923D01*
X125995004Y-64120685D01*
X125947385Y-63930209D01*
X125947385Y-63787352D01*
X125995004Y-63596876D01*
X126042623Y-63501638D01*
X126137861Y-63406400D01*
X126280719Y-63358780D01*
X126375957Y-63358780D01*
X126518814Y-63406400D01*
X126566433Y-63454019D01*
X126899766Y-63358780D02*
X127518814Y-63358780D01*
X127185480Y-63739733D01*
X127328338Y-63739733D01*
X127423576Y-63787352D01*
X127471195Y-63834971D01*
X127518814Y-63930209D01*
X127518814Y-64168304D01*
X127471195Y-64263542D01*
X127423576Y-64311161D01*
X127328338Y-64358780D01*
X127042623Y-64358780D01*
X126947385Y-64311161D01*
X126899766Y-64263542D01*
%TO.C,C2*%
X121842233Y-119483142D02*
X121794614Y-119530761D01*
X121651757Y-119578380D01*
X121556519Y-119578380D01*
X121413661Y-119530761D01*
X121318423Y-119435523D01*
X121270804Y-119340285D01*
X121223185Y-119149809D01*
X121223185Y-119006952D01*
X121270804Y-118816476D01*
X121318423Y-118721238D01*
X121413661Y-118626000D01*
X121556519Y-118578380D01*
X121651757Y-118578380D01*
X121794614Y-118626000D01*
X121842233Y-118673619D01*
X122223185Y-118673619D02*
X122270804Y-118626000D01*
X122366042Y-118578380D01*
X122604138Y-118578380D01*
X122699376Y-118626000D01*
X122746995Y-118673619D01*
X122794614Y-118768857D01*
X122794614Y-118864095D01*
X122746995Y-119006952D01*
X122175566Y-119578380D01*
X122794614Y-119578380D01*
%TO.C,C1*%
X159103933Y-120303542D02*
X159056314Y-120351161D01*
X158913457Y-120398780D01*
X158818219Y-120398780D01*
X158675361Y-120351161D01*
X158580123Y-120255923D01*
X158532504Y-120160685D01*
X158484885Y-119970209D01*
X158484885Y-119827352D01*
X158532504Y-119636876D01*
X158580123Y-119541638D01*
X158675361Y-119446400D01*
X158818219Y-119398780D01*
X158913457Y-119398780D01*
X159056314Y-119446400D01*
X159103933Y-119494019D01*
X160056314Y-120398780D02*
X159484885Y-120398780D01*
X159770600Y-120398780D02*
X159770600Y-119398780D01*
X159675361Y-119541638D01*
X159580123Y-119636876D01*
X159484885Y-119684495D01*
%TO.C,P9*%
X115124004Y-60040780D02*
X115124004Y-59040780D01*
X115504957Y-59040780D01*
X115600195Y-59088400D01*
X115647814Y-59136019D01*
X115695433Y-59231257D01*
X115695433Y-59374114D01*
X115647814Y-59469352D01*
X115600195Y-59516971D01*
X115504957Y-59564590D01*
X115124004Y-59564590D01*
X116171623Y-60040780D02*
X116362100Y-60040780D01*
X116457338Y-59993161D01*
X116504957Y-59945542D01*
X116600195Y-59802685D01*
X116647814Y-59612209D01*
X116647814Y-59231257D01*
X116600195Y-59136019D01*
X116552576Y-59088400D01*
X116457338Y-59040780D01*
X116266861Y-59040780D01*
X116171623Y-59088400D01*
X116124004Y-59136019D01*
X116076385Y-59231257D01*
X116076385Y-59469352D01*
X116124004Y-59564590D01*
X116171623Y-59612209D01*
X116266861Y-59659828D01*
X116457338Y-59659828D01*
X116552576Y-59612209D01*
X116600195Y-59564590D01*
X116647814Y-59469352D01*
%TD*%
M02*
