M48
; DRILL file {KiCad (5.1.4)-1} date 25.10.2021 09:14:45
; FORMAT={-:-/ absolute / metric / decimal}
; #@! TF.CreationDate,2021-10-25T09:14:45+02:00
; #@! TF.GenerationSoftware,Kicad,Pcbnew,(5.1.4)-1
; #@! TF.FileFunction,Plated,1,2,PTH
FMAT,2
METRIC
T1C0.400
T2C1.000
T3C1.016
T4C1.200
T5C2.000
T6C2.600
%
G90
G05
T1
X115.354Y-58.318
X115.862Y-50.444
X117.005Y-120.802
X117.894Y-45.11
X118.91Y-60.096
X119.418Y-124.041
X121.133Y-97.688
X121.196Y-111.087
X121.196Y-119.786
X121.45Y-66.7
X121.45Y-68.478
X121.514Y-84.544
X121.514Y-108.547
X121.704Y-92.164
X122.212Y-66.192
X122.784Y-117.881
X122.974Y-43.84
X123.038Y-82.194
X123.228Y-59.588
X123.228Y-62.128
X123.228Y-70.002
X123.419Y-94.577
X123.711Y-77.14
X123.736Y-80.924
X123.736Y-107.086
X123.736Y-111.785
X123.99Y-65.938
X124.181Y-127.47
X124.308Y-84.353
X124.498Y-116.675
X124.562Y-101.816
X124.879Y-94.196
X125.006Y-74.574
X125.197Y-100.038
X125.26Y-108.229
X125.387Y-114.833
X126.022Y-123.977
X126.149Y-97.752
X126.276Y-60.604
X126.657Y-118.135
X126.848Y-109.563
X127.229Y-122.58
X127.546Y-62.89
X128.562Y-68.986
X129.07Y-43.84
X129.515Y-112.547
X130.023Y-85.877
X130.023Y-100.228
X130.086Y-72.796
X130.213Y-114.833
X131.229Y-111.214
X131.356Y-58.572
X131.356Y-88.608
X131.864Y-128.359
X132.753Y-98.514
X133.896Y-64.414
X134.15Y-112.992
X134.531Y-86.131
X134.912Y-51.968
X135.547Y-68.478
X138.151Y-111.468
X139.675Y-124.168
X139.675Y-128.295
X141.453Y-71.145
X141.834Y-98.704
X141.897Y-90.132
X141.897Y-106.07
X142.024Y-114.833
X142.088Y-112.801
X142.151Y-111.341
X142.215Y-81.559
X142.278Y-74.003
X142.278Y-120.866
X142.596Y-65.049
X142.659Y-86.703
X142.786Y-109.88
X143.04Y-68.288
X143.231Y-103.721
X143.548Y-98.704
X143.739Y-88.29
X150.025Y-65.049
X150.978Y-124.168
X151.359Y-127.66
X151.613Y-111.277
X151.676Y-109.69
X151.803Y-68.161
X151.803Y-98.577
X151.803Y-114.262
X152.057Y-86.576
X152.184Y-84.099
X152.438Y-71.78
X153.2Y-97.625
X154.407Y-101.117
X154.597Y-73.368
X154.724Y-113.944
X154.788Y-103.149
X154.978Y-81.178
X155.105Y-48.539
X155.296Y-111.15
X155.359Y-65.176
X155.613Y-128.041
X155.74Y-94.64
X156.248Y-108.102
X156.502Y-64.033
X156.502Y-121.485
X156.947Y-96.037
X157.518Y-124.231
X157.645Y-82.766
X158.026Y-73.812
X158.026Y-88.798
X158.026Y-100.736
X158.09Y-109.626
X158.28Y-115.976
X158.534Y-114.198
X158.598Y-86.004
X158.725Y-93.815
X158.852Y-44.793
X159.042Y-57.556
X159.042Y-101.498
X159.042Y-105.054
X159.042Y-117.754
X159.55Y-112.166
X159.614Y-72.606
X160.312Y-127.343
X160.503Y-105.816
X160.566Y-111.15
X161.138Y-97.053
X161.201Y-69.685
X161.392Y-104.102
X161.773Y-94.894
X161.836Y-96.164
X161.963Y-84.036
X161.963Y-118.008
X162.027Y-91.021
X162.09Y-62.255
X162.217Y-110.007
X162.344Y-78.829
X162.408Y-119.913
X164.44Y-125.12
X165.392Y-44.602
X166.853Y-121.755
X167.678Y-50.825
X167.742Y-58.064
T2
X155.926Y-52.92
X155.926Y-55.46
X155.926Y-58.0
X155.926Y-60.54
T3
X116.37Y-62.382
X116.37Y-64.922
X116.37Y-67.462
X116.37Y-70.002
X116.37Y-72.542
X116.37Y-75.082
X116.37Y-77.622
X116.37Y-80.162
X116.37Y-82.702
X116.37Y-85.242
X116.37Y-87.782
X116.37Y-90.322
X116.37Y-92.862
X116.37Y-95.402
X116.37Y-97.942
X116.37Y-100.482
X116.37Y-103.022
X116.37Y-105.562
X116.37Y-108.102
X116.37Y-110.642
X116.37Y-113.182
X116.37Y-115.722
X116.37Y-118.262
X118.91Y-62.382
X118.91Y-64.922
X118.91Y-67.462
X118.91Y-70.002
X118.91Y-72.542
X118.91Y-75.082
X118.91Y-77.622
X118.91Y-80.162
X118.91Y-82.702
X118.91Y-85.242
X118.91Y-87.782
X118.91Y-90.322
X118.91Y-92.862
X118.91Y-95.402
X118.91Y-97.942
X118.91Y-100.482
X118.91Y-103.022
X118.91Y-105.562
X118.91Y-108.102
X118.91Y-110.642
X118.91Y-113.182
X118.91Y-115.722
X118.91Y-118.262
X164.63Y-62.382
X164.63Y-64.922
X164.63Y-67.462
X164.63Y-70.002
X164.63Y-72.542
X164.63Y-75.082
X164.63Y-77.622
X164.63Y-80.162
X164.63Y-82.702
X164.63Y-85.242
X164.63Y-87.782
X164.63Y-90.322
X164.63Y-92.862
X164.63Y-95.402
X164.63Y-97.942
X164.63Y-100.482
X164.63Y-103.022
X164.63Y-105.562
X164.63Y-108.102
X164.63Y-110.642
X164.63Y-113.182
X164.63Y-115.722
X164.63Y-118.262
X167.17Y-62.382
X167.17Y-64.922
X167.17Y-67.462
X167.17Y-70.002
X167.17Y-72.542
X167.17Y-75.082
X167.17Y-77.622
X167.17Y-80.162
X167.17Y-82.702
X167.17Y-85.242
X167.17Y-87.782
X167.17Y-90.322
X167.17Y-92.862
X167.17Y-95.402
X167.17Y-97.942
X167.17Y-100.482
X167.17Y-103.022
X167.17Y-105.562
X167.17Y-108.102
X167.17Y-110.642
X167.17Y-113.182
X167.17Y-115.722
X167.17Y-118.262
T4
X147.612Y-87.076
X147.612Y-90.576
X147.612Y-94.076
X138.214Y-73.868
X138.214Y-77.368
X138.214Y-80.868
X147.612Y-100.284
X147.612Y-103.784
X147.612Y-107.284
X147.612Y-73.868
X147.612Y-77.368
X147.612Y-80.868
X138.214Y-100.284
X138.214Y-103.784
X138.214Y-107.284
X121.824Y-48.158
X125.324Y-48.158
X138.214Y-87.069
X138.214Y-90.569
X138.214Y-94.069
X138.214Y-113.619
X138.214Y-117.119
X138.214Y-120.619
X147.612Y-113.619
X147.612Y-117.119
X147.612Y-120.619
T6
X132.118Y-44.856
X132.118Y-68.732
X155.994Y-44.856
X155.994Y-68.732
T5
X117.906Y-55.778G85X119.406Y-55.778
G05
X125.906Y-55.778G85X127.406Y-55.778
G05
T0
M30
